<svg width="440" height="340" viewBox="0 0 440 340" fill="none" xmlns="http://www.w3.org/2000/svg">
<path d="M322.808 327.843C327.744 328.215 332.407 328.188 337.66 328.188C340.907 328.188 343.774 327.911 345.715 327.681C348.14 327.394 349.788 326.053 352.137 325.135C356.144 323.569 360.735 322.031 364.644 319.884C369.641 317.14 374.595 315.016 377.922 309.913C381.881 303.843 389.762 300.719 394.099 295.204C394.924 294.154 398.566 289.861 399.481 289.517C401.146 288.891 406.48 282.27 406.973 280.423C408.696 273.979 417.065 269.179 419.23 262.779C420.594 258.747 425.486 255.618 426.609 251.53C428.081 246.172 431.038 241.542 431.98 235.783C433.007 229.505 436.383 223.156 434.925 216.512C432.925 207.399 434.525 197.474 432.854 188.029C430.992 177.498 427.632 166.163 424.048 156.1C413.402 126.204 403.402 94.2757 383.029 69.1803C374.318 58.4497 372.526 56.812 361.407 46.8275C354.51 37.4547 345.236 32.0304 334.006 26.923C323.507 22.1484 312.861 17.4186 301.44 15.5505C291.482 13.9216 280.979 12.9518 270.907 12.6409C254.907 11.4802 228.78 12.1572 217.716 12.6409C192.907 15.5505 167.814 15.5775 146.619 25.7265C135.176 31.2059 122.975 37.5799 110.821 41.3957C101.061 44.4601 91.0947 46.8405 81.3518 50.0219C69.741 53.8133 60.2445 69.3665 50.1144 76.4328C47.3949 78.3299 42.3853 80.6618 40.433 83.0839C38.7718 85.145 34.7937 90.3965 32.5525 91.3846C28.8966 92.9965 26.4155 98.3969 23.5996 101.178L23.5264 101.25C20.8389 103.904 18.3608 106.351 16.1391 109.443C13.7756 112.732 11.6962 116.35 11.0275 120.438C6.08296 150.666 2.1861 180.307 7.66427 210.625C9.62795 221.493 14.725 231.67 16.6633 242.326C18.3603 251.654 21.5483 262.818 26.0348 271.117C31.3038 280.862 37.7551 290.183 48.2327 294.917C59.1796 299.864 69.3766 309.633 81.43 311.605L95.0431 313.832C101.772 314.932 108.52 314.16 115.207 315.254C126.62 317.121 138.048 315.529 149.384 317.092C170.426 319.992 191.76 319.646 212.842 321.895C225.182 323.211 237.456 322.376 249.831 322.681C259.496 322.92 270.213 321.846 279.789 323.412C294.066 325.747 308.422 326.758 322.808 327.843Z" fill="#FFFDD0" stroke="#FFFDD0" stroke-width="5" stroke-linecap="round"/>
</svg>
