<svg width="440" height="340" viewBox="0 0 440 340" fill="none" xmlns="http://www.w3.org/2000/svg">
<path d="M298.352 331.935C311.581 331.935 328.052 328.373 341 328.373C352.286 324.235 363.184 323.857 373.513 318.119C376.872 316.252 379.539 313.647 382.908 311.794C390.142 307.815 394.026 299.65 400.593 294.907C410.517 287.74 415.034 277.228 421.593 267.582C426.865 259.83 432.309 249.118 432.646 239.335C432.788 235.245 433.859 227.99 432.094 224.106C430.02 219.545 432.207 213.076 430.988 208.202C428.792 199.416 428.484 187.678 428.24 178.386L428.225 177.807C427.99 168.858 425.63 160.235 424.971 151.341C424.068 139.159 422.242 126.534 419.997 114.559C418.105 104.469 415.04 92.8198 409.435 84.1016C404.332 76.164 397.626 70.7182 390.645 64.5132C378.587 53.7954 365.167 43.7253 351.468 35.2227C337.366 26.4694 321.257 18.9733 304.37 16.8624C297.508 16.0046 290.176 13.7987 283.431 12.257C277.507 10.903 270.207 11.4458 264.641 8.94108C253.184 3.78558 239.315 6.9761 227.06 6.9761C205.501 6.9761 184.241 13.0512 163.643 18.9373L162.953 19.1344C146.358 23.8758 129.313 27.6147 112.969 32.6437C99.2826 36.8547 85.0518 49.5134 76.3709 60.399C67.4605 71.5723 57.3241 81.512 49.1068 93.251C45.1496 98.9041 42.6218 105.603 39.0976 111.55C28.9258 128.715 20.0244 144.883 13.6757 163.929C10.0485 174.811 6 183.717 6 195.369C6 203.74 8.2106 211.84 8.2106 220.054C8.2106 227.062 8.45116 234.933 11.2809 241.3C14.963 249.585 13.5496 259.195 22.0269 265.064C28.8176 269.765 36.1755 274.791 41.9223 280.538C47.0785 285.694 55.9528 289.338 59.9142 295.46C62.0704 298.792 66.6926 300.887 69.5548 303.75C72.0943 306.289 74.6765 309.502 77.8446 311.18C86.8105 315.926 96.1539 319.878 104.924 324.75C111.396 328.346 121.498 327.424 128.566 328.373C142.214 330.207 155.696 331.935 169.523 331.935H196.358C210.227 331.935 224.049 334.145 237.868 334.145C258.238 334.145 278.074 331.935 298.352 331.935Z" fill="#FFFDD0"/>
</svg>
