<svg width="500" height="370" viewBox="0 0 500 370" fill="none" xmlns="http://www.w3.org/2000/svg">
<path d="M233.916 175.064V133.915C233.916 118.31 236.526 102.903 236.925 87.3477C237.07 81.661 238.429 75.9387 238.429 70.2872C238.429 69.0623 240.221 65.2404 241.196 64.45C245.332 61.0979 249.223 61.4252 254.432 60.8043C259.579 60.1909 322.802 60 328.089 60C334.277 60 340.507 60.5295 346.474 60.762C351.218 60.9469 355.485 62.286 360.221 62.286C365.339 62.286 367.44 62.5735 369.998 67.2391C372.364 71.5537 372.631 76.5267 372.631 81.3363C372.631 95.4524 371.126 109.109 371.126 123.247C371.126 132.389 369.26 141.327 369.622 150.51C369.711 152.756 373.628 150.693 374.135 149.536C375.207 147.093 376.981 145.183 377.895 142.636C379.908 137.029 383.076 131.88 386.002 126.718C389.295 120.908 391.63 115.311 394.108 109.15C395.921 104.641 399.029 100.345 401.796 96.4072C404.068 93.1736 405.396 88.8538 407.98 85.9084C410.937 82.5379 412.26 77.7615 415.501 74.4782C418.165 71.7789 420.425 67.7126 423.774 65.9268C433.616 60.6783 443.812 61.524 454.903 61.524C459.726 61.524 464.628 62.286 469.276 62.286C476.75 62.286 483.896 61.098 491.464 61.524C495.22 61.7355 497.448 65.9333 498.818 70.0755C498.818 72.6084 498.478 74.3098 498.191 75.6212C492.812 88.0771 482.227 107.256 473.831 118.082C466.461 127.585 460.631 138.076 454.193 148.224C451.756 152.064 449.327 158.43 445.919 161.39C443.745 163.278 441.643 169.604 441.031 172.397C440.61 174.313 439.457 175.315 439.568 177.35C439.698 179.72 441.458 181.012 442.577 182.853C448.262 192.213 451.474 202.388 455.78 212.36C460.281 222.784 464.544 234.024 470.029 244.026C473.291 249.976 478.218 255.276 480.934 261.467C481.742 263.308 483.676 264.563 484.528 266.505C485.371 268.429 486.339 270.785 486.993 272.77C488.802 278.27 491.093 284.27 493.887 289.365C495.96 293.145 505.954 308.416 494.848 308.416C490.854 308.416 487.102 308.719 483.149 309.22C474.55 310.309 465.75 309.94 457.034 309.94C447.634 309.94 439.497 308.72 430.555 307.654C426.449 307.164 421.046 304.033 419.928 300.35C418.75 296.471 416.945 293.126 415.88 288.557C414.673 283.384 412.558 280.641 410.819 275.057C409.613 272.856 408.449 269 407.277 266.505C406.242 264.303 403.421 259.584 402.722 257.282C397.662 247.926 397.156 242.413 392.938 233.146C390.422 229.322 387.969 225.534 386.002 221.546C383.893 217.274 380.393 218.498 376.015 218.498C371.429 218.498 370.466 223.39 371.168 227.304C372.355 233.918 371.854 240.19 371.854 247.028C371.854 250.152 371.907 253.443 370.959 256.43C370.25 258.666 370.335 261.384 370.335 263.947C370.335 267.289 369.622 272.026 369.622 275.057V287.841C369.622 292.654 370.134 296.895 369.622 301.558C369.195 305.456 361.837 305.178 359.469 306.511C356.428 308.222 350.812 307.654 347.352 307.654C337.764 307.654 328.461 308.416 318.98 308.416C314.939 308.416 248.136 310.292 245.365 307.484C242.523 304.605 239.746 302.892 237.259 299.653C234.037 295.456 235.066 286.106 234.668 280.867C233.778 269.138 235.291 256.923 236.925 245.338C238.362 235.14 236.883 231.827 236.883 221.546C236.883 217.076 236.234 208.935 235.683 204.473C235.13 199.99 234.668 192.9 234.668 188.399C234.668 185.912 233.916 179.863 233.916 175.064Z" fill="#FFBB00"/>
<path d="M76.8058 308.66C87.4598 308.66 98.0683 309.755 108.792 309.755C114.299 309.755 124.641 310.032 129.757 307.686C131.79 306.754 134.91 307.443 137.283 304.826C141.462 301.784 142.726 296.281 142.726 294.42C142.726 290.414 142.139 286.418 141.771 282.432C141.413 278.555 141.765 274.73 141.233 270.87C140.018 262.048 141.197 252.434 141.114 243.486C141.05 236.627 140.409 230.202 141.532 223.465C142.164 219.675 141.585 214.883 144.374 212.042C146.308 210.071 145.753 210.078 148.363 210.078H160.489C173.234 210.078 186.735 211.509 199.135 208.982C202.362 208.325 205.434 206.778 208.483 206.213C212.647 205.442 212.336 200.085 212.514 196.72C213.406 179.923 213.619 163.207 213.619 146.303V79.1821C213.619 72.2252 211.538 66.0504 204.182 63.9687C197.631 62.1148 189.989 63.2994 183.216 63.2994C171.911 63.2994 160.666 64.3947 149.409 64.3947C138.623 64.3947 127.994 66.0378 117.273 66.0378C104.849 66.0378 91.9117 67.2995 79.643 65.2162C69.854 63.5541 59.7351 62.2038 49.8074 62.2038C42.881 62.9878 13.6774 63.6695 10.2953 69.8715C8.9084 72.4149 6.53755 74.3219 5.15848 76.9914C3.51331 80.1759 3.30507 83.7045 1.93301 86.8496C0.748005 89.566 1.27578 93.0118 0.61893 95.8559C-0.461266 100.533 0.200814 105.825 0.200814 110.613C0.200814 124.558 2.88871 138.369 2.88871 152.328C2.88871 160.949 3.42628 169.414 3.42628 178.038C3.42628 183.824 7.18933 189.234 7.18933 194.986C7.18933 196.107 8.20867 200.064 9.07086 200.767C9.45655 201.081 10.0199 202.181 10.4148 202.684C10.9814 203.405 12.0368 203.403 12.6846 203.931C16.0393 206.666 22.6054 205.696 26.6616 205.696H48.1648C52.3977 205.696 57.0158 206.244 60.9472 206.244C65.3785 206.244 66.323 211.591 66.323 215.281C66.323 219.776 67.3981 224.263 67.3981 228.973V246.498C67.3981 253.322 66.323 259.933 66.323 266.763V288.944C66.323 293.453 66.2617 299.072 68.0552 303.183C68.4367 304.058 68.568 305.631 69.1303 306.348C69.7553 307.143 70.5785 306.871 71.2806 307.443C72.141 308.144 75.7114 308.66 76.8058 308.66Z" fill="#FFBB00"/>
</svg>
