<?xml version="1.0" encoding="utf-8"?>
<!-- Generator: Adobe Illustrator 24.0.2, SVG Export Plug-In . SVG Version: 6.00 Build 0)  -->
<svg version="1.1" id="Logo" xmlns="http://www.w3.org/2000/svg" xmlns:xlink="http://www.w3.org/1999/xlink" x="0px" y="0px"
	 viewBox="0 0 1042.3 813.9" style="enable-background:new 0 0 1042.3 813.9;" xml:space="preserve">
<style type="text/css">
	.st0{fill:none;stroke:#CE8C8B;stroke-width:45;stroke-linejoin:round;stroke-miterlimit:10;}
	.st1{fill:#CE8C8B;}
</style>
<polyline id="Bob" class="st0" points="850,760 994,760 994,544 850,544 850,328 778,328 778,760 490,760 490,472 706,472 706,256 
	562,256 562,40 490,40 490,400 "/>
<g id="building">
	<path class="st1" d="M93.6,734.5c0,9-2,16.2-6,21.5c-4,5.3-9.6,8-16.6,8c-6.8,0-12.1-2.4-15.9-7.3l-0.6,6.3H42.7v-82.4h13v29.9
		c3.8-4.4,8.8-6.7,15.2-6.7c7.1,0,12.6,2.6,16.7,7.9c4,5.3,6.1,12.6,6.1,22V734.5z M80.6,733.4c0-6.3-1.1-11-3.3-14.2
		c-2.2-3.1-5.4-4.7-9.7-4.7c-5.6,0-9.6,2.5-11.9,7.4v23.9c2.3,5,6.3,7.6,12,7.6c4.1,0,7.2-1.5,9.4-4.6c2.2-3,3.4-7.6,3.4-13.8V733.4
		z"/>
	<path class="st1" d="M139.7,757.3c-3.8,4.5-9.3,6.8-16.3,6.8c-6.3,0-11.1-1.8-14.3-5.5c-3.2-3.7-4.9-9-4.9-16v-37.6h13v37.4
		c0,7.4,3.1,11,9.2,11c6.3,0,10.6-2.3,12.8-6.8v-41.7h13v58H140L139.7,757.3z"/>
	<path class="st1" d="M165.6,689.8c0-2,0.6-3.7,1.9-5c1.3-1.3,3.1-2,5.4-2c2.4,0,4.2,0.7,5.5,2c1.3,1.3,1.9,3,1.9,5
		c0,2-0.6,3.6-1.9,4.9c-1.3,1.3-3.1,2-5.5,2c-2.4,0-4.2-0.7-5.4-2C166.2,693.4,165.6,691.8,165.6,689.8z M179.4,762.9h-13v-58h13
		V762.9z"/>
	<path class="st1" d="M207.5,762.9h-13v-82.4h13V762.9z"/>
	<path class="st1" d="M219.2,733.5c0-8.9,2.1-16.1,6.2-21.5c4.1-5.4,9.7-8.1,16.7-8.1c6.1,0,11.1,2.1,14.9,6.4v-29.7h13v82.4h-11.8
		l-0.6-6c-3.9,4.7-9.1,7.1-15.6,7.1c-6.8,0-12.3-2.7-16.5-8.2C221.3,750.3,219.2,742.9,219.2,733.5z M232.3,734.6
		c0,5.9,1.1,10.5,3.4,13.8c2.3,3.3,5.5,5,9.7,5c5.3,0,9.2-2.4,11.7-7.1v-24.8c-2.4-4.6-6.3-7-11.6-7c-4.2,0-7.5,1.7-9.8,5
		C233.4,722.9,232.3,727.9,232.3,734.6z"/>
	<path class="st1" d="M283.7,689.8c0-2,0.6-3.7,1.9-5c1.3-1.3,3.1-2,5.4-2c2.4,0,4.2,0.7,5.5,2c1.3,1.3,1.9,3,1.9,5
		c0,2-0.6,3.6-1.9,4.9c-1.3,1.3-3.1,2-5.5,2c-2.4,0-4.2-0.7-5.4-2C284.3,693.4,283.7,691.8,283.7,689.8z M297.5,762.9h-13v-58h13
		V762.9z"/>
	<path class="st1" d="M323.8,704.9l0.4,6.7c4.3-5.2,9.9-7.8,16.9-7.8c12.1,0,18.2,6.9,18.5,20.8v38.3h-13v-37.6
		c0-3.7-0.8-6.4-2.4-8.2c-1.6-1.8-4.2-2.7-7.8-2.7c-5.3,0-9.2,2.4-11.7,7.1v41.3h-13v-58H323.8z"/>
	<path class="st1" d="M370.5,733.5c0-9,2.1-16.2,6.4-21.6c4.2-5.4,9.9-8.1,16.9-8.1c6.6,0,11.8,2.3,15.6,6.9l0.6-5.8h11.7v56.3
		c0,7.6-2.4,13.6-7.1,18c-4.7,4.4-11.1,6.6-19.2,6.6c-4.3,0-8.4-0.9-12.5-2.7c-4.1-1.8-7.1-4.1-9.3-6.9l6.2-7.8
		c4,4.8,8.9,7.1,14.8,7.1c4.3,0,7.7-1.2,10.2-3.5c2.5-2.3,3.8-5.8,3.8-10.3v-3.9c-3.8,4.2-8.8,6.3-15,6.3c-6.8,0-12.3-2.7-16.7-8.1
		C372.7,750.5,370.5,743,370.5,733.5z M383.5,734.6c0,5.8,1.2,10.4,3.6,13.8c2.4,3.3,5.7,5,9.9,5c5.3,0,9.2-2.3,11.7-6.8v-25.5
		c-2.5-4.4-6.3-6.6-11.6-6.6c-4.3,0-7.6,1.7-10,5.1C384.7,723,383.5,728,383.5,734.6z"/>
</g>
<g id="open">
	<path class="st1" d="M188.2,611.9c0-5.7,1.1-10.8,3.4-15.4c2.3-4.6,5.4-8.1,9.5-10.5c4.1-2.4,8.8-3.7,14.1-3.7
		c7.8,0,14.2,2.5,19.1,7.6c4.9,5,7.5,11.7,7.9,20.1l0.1,3.1c0,5.7-1.1,10.8-3.3,15.3c-2.2,4.5-5.3,8-9.4,10.5
		c-4.1,2.5-8.8,3.7-14.2,3.7c-8.2,0-14.7-2.7-19.7-8.2c-4.9-5.5-7.4-12.7-7.4-21.8V611.9z M201.3,613.1c0,6,1.2,10.6,3.7,14
		c2.5,3.4,5.9,5.1,10.3,5.1c4.4,0,7.8-1.7,10.3-5.1c2.4-3.4,3.7-8.5,3.7-15.1c0-5.9-1.3-10.5-3.8-13.9c-2.5-3.4-5.9-5.1-10.3-5.1
		c-4.3,0-7.6,1.7-10.1,5.1C202.5,601.3,201.3,606.3,201.3,613.1z"/>
	<path class="st1" d="M304,613.1c0,9-2,16.1-6.1,21.5c-4.1,5.3-9.5,8-16.4,8c-6.4,0-11.5-2.1-15.3-6.3v27.5h-13v-80.3h12l0.5,5.9
		c3.8-4.6,9-7,15.6-7c7.1,0,12.6,2.6,16.7,7.9c4,5.3,6,12.6,6,22V613.1z M291.1,611.9c0-5.8-1.2-10.4-3.5-13.8
		c-2.3-3.4-5.6-5.1-9.9-5.1c-5.3,0-9.2,2.2-11.5,6.6v25.7c2.4,4.5,6.2,6.8,11.6,6.8c4.1,0,7.4-1.7,9.7-5
		C289.9,623.8,291.1,618.7,291.1,611.9z"/>
	<path class="st1" d="M340.6,642.6c-8.3,0-15-2.6-20.1-7.8c-5.1-5.2-7.7-12.1-7.7-20.8v-1.6c0-5.8,1.1-11,3.4-15.5
		c2.2-4.6,5.4-8.1,9.4-10.6c4-2.5,8.5-3.8,13.5-3.8c7.9,0,14,2.5,18.3,7.6c4.3,5,6.5,12.2,6.5,21.4v5.3H326c0.4,4.8,2,8.6,4.8,11.4
		c2.8,2.8,6.3,4.2,10.6,4.2c6,0,10.8-2.4,14.6-7.2l7,6.7c-2.3,3.5-5.4,6.2-9.3,8.1C349.8,641.6,345.4,642.6,340.6,642.6z
		 M339.1,592.8c-3.6,0-6.5,1.3-8.7,3.8c-2.2,2.5-3.6,6-4.2,10.5H351v-1c-0.3-4.4-1.4-7.7-3.5-9.9C345.5,594,342.7,592.8,339.1,592.8
		z"/>
	<path class="st1" d="M386.1,583.5l0.4,6.7c4.3-5.2,9.9-7.8,16.9-7.8c12.1,0,18.2,6.9,18.5,20.8v38.3h-13v-37.6
		c0-3.7-0.8-6.4-2.4-8.2c-1.6-1.8-4.2-2.7-7.8-2.7c-5.3,0-9.2,2.4-11.7,7.1v41.3h-13v-58H386.1z"/>
</g>
<g id="bespoke">
	<path class="st1" d="M69,500.1c0,9-2,16.2-6,21.5c-4,5.3-9.6,8-16.6,8c-6.8,0-12.1-2.4-15.9-7.3l-0.6,6.3H18v-82.4h13v29.9
		c3.8-4.4,8.8-6.7,15.2-6.7c7.1,0,12.6,2.6,16.7,7.9c4,5.3,6.1,12.6,6.1,22V500.1z M55.9,499c0-6.3-1.1-11-3.3-14.2
		c-2.2-3.1-5.4-4.7-9.7-4.7c-5.6,0-9.6,2.5-11.9,7.4v23.9c2.3,5,6.3,7.6,12,7.6c4.1,0,7.2-1.5,9.4-4.6c2.2-3,3.4-7.6,3.4-13.8V499z"
		/>
	<path class="st1" d="M105.4,529.6c-8.3,0-15-2.6-20.1-7.8c-5.1-5.2-7.7-12.1-7.7-20.8v-1.6c0-5.8,1.1-11,3.4-15.5
		c2.2-4.6,5.4-8.1,9.4-10.6c4-2.5,8.5-3.8,13.5-3.8c7.9,0,14,2.5,18.3,7.6c4.3,5,6.5,12.2,6.5,21.4v5.3H90.8c0.4,4.8,2,8.6,4.8,11.4
		c2.8,2.8,6.3,4.2,10.6,4.2c6,0,10.8-2.4,14.6-7.2l7,6.7c-2.3,3.5-5.4,6.2-9.3,8.1C114.6,528.7,110.3,529.6,105.4,529.6z
		 M103.9,479.9c-3.6,0-6.5,1.3-8.7,3.8c-2.2,2.5-3.6,6-4.2,10.5h24.8v-1c-0.3-4.4-1.4-7.7-3.5-9.9
		C110.3,481,107.5,479.9,103.9,479.9z"/>
	<path class="st1" d="M171.3,512.8c0-2.3-1-4.1-2.9-5.3c-1.9-1.2-5.1-2.3-9.5-3.2c-4.4-0.9-8.1-2.1-11.1-3.5
		c-6.5-3.1-9.8-7.7-9.8-13.7c0-5,2.1-9.2,6.3-12.6c4.2-3.4,9.6-5,16.1-5c6.9,0,12.5,1.7,16.8,5.1c4.3,3.4,6.4,7.9,6.4,13.4h-13
		c0-2.5-0.9-4.6-2.8-6.2c-1.9-1.7-4.3-2.5-7.4-2.5c-2.9,0-5.2,0.7-7,2c-1.8,1.3-2.7,3.1-2.7,5.3c0,2,0.8,3.6,2.5,4.7
		c1.7,1.1,5.1,2.2,10.2,3.4c5.1,1.1,9.1,2.5,12,4c2.9,1.6,5.1,3.4,6.5,5.6c1.4,2.2,2.1,4.8,2.1,7.9c0,5.2-2.2,9.4-6.5,12.7
		c-4.3,3.2-10,4.9-17,4.9c-4.8,0-9-0.9-12.7-2.6c-3.7-1.7-6.6-4.1-8.7-7.1c-2.1-3-3.1-6.2-3.1-9.7h12.7c0.2,3.1,1.3,5.4,3.5,7.1
		c2.1,1.7,5,2.5,8.5,2.5c3.4,0,6-0.7,7.8-2C170.4,516.6,171.3,514.9,171.3,512.8z"/>
	<path class="st1" d="M246.3,500.1c0,9-2,16.1-6.1,21.5c-4.1,5.3-9.5,8-16.4,8c-6.4,0-11.5-2.1-15.3-6.3v27.5h-13v-80.3h12l0.5,5.9
		c3.8-4.6,9-7,15.6-7c7.1,0,12.6,2.6,16.7,7.9c4,5.3,6,12.6,6,22V500.1z M233.3,499c0-5.8-1.2-10.4-3.5-13.8
		c-2.3-3.4-5.6-5.1-9.9-5.1c-5.3,0-9.2,2.2-11.5,6.6v25.7c2.4,4.5,6.2,6.8,11.6,6.8c4.1,0,7.4-1.7,9.7-5
		C232.2,510.9,233.3,505.8,233.3,499z"/>
	<path class="st1" d="M254.9,499c0-5.7,1.1-10.8,3.4-15.4c2.3-4.6,5.4-8.1,9.5-10.5c4.1-2.4,8.8-3.7,14.1-3.7
		c7.8,0,14.2,2.5,19.1,7.6c4.9,5,7.5,11.7,7.9,20.1l0.1,3.1c0,5.7-1.1,10.8-3.3,15.3c-2.2,4.5-5.3,8-9.4,10.5
		c-4.1,2.5-8.8,3.7-14.2,3.7c-8.2,0-14.7-2.7-19.7-8.2c-4.9-5.5-7.4-12.7-7.4-21.8V499z M267.9,500.1c0,6,1.2,10.6,3.7,14
		c2.5,3.4,5.9,5.1,10.3,5.1c4.4,0,7.8-1.7,10.3-5.1c2.4-3.4,3.7-8.5,3.7-15.1c0-5.9-1.3-10.5-3.8-13.9s-5.9-5.1-10.3-5.1
		c-4.3,0-7.6,1.7-10.1,5.1C269.2,488.4,267.9,493.4,267.9,500.1z"/>
	<path class="st1" d="M338.7,503.7l-5.8,6v18.9h-13v-82.4h13v47.5l4.1-5.1l16-18.1h15.7l-21.6,24.2l23.9,33.8h-15.1L338.7,503.7z"/>
	<path class="st1" d="M401.7,529.6c-8.3,0-15-2.6-20.1-7.8c-5.1-5.2-7.7-12.1-7.7-20.8v-1.6c0-5.8,1.1-11,3.4-15.5
		c2.2-4.6,5.4-8.1,9.4-10.6c4-2.5,8.5-3.8,13.5-3.8c7.9,0,14,2.5,18.3,7.6c4.3,5,6.5,12.2,6.5,21.4v5.3h-37.9
		c0.4,4.8,2,8.6,4.8,11.4c2.8,2.8,6.3,4.2,10.6,4.2c6,0,10.8-2.4,14.6-7.2l7,6.7c-2.3,3.5-5.4,6.2-9.3,8.1
		C410.9,528.7,406.5,529.6,401.7,529.6z M400.1,479.9c-3.6,0-6.5,1.3-8.7,3.8c-2.2,2.5-3.6,6-4.2,10.5h24.8v-1
		c-0.3-4.4-1.4-7.7-3.5-9.9C406.6,481,403.8,479.9,400.1,479.9z"/>
</g>
</svg>
