<svg width="500" height="90" viewBox="0 0 500 90" fill="none" xmlns="http://www.w3.org/2000/svg">
<path d="M167.673 48.3549C173.305 50.0877 179.958 49.2922 185.795 49.2922M167.424 17.8603C170.812 18.6944 174.266 18.5185 177.735 18.4505C185.331 18.3015 192.914 17.6465 200.509 17.5479M120.027 14.0278C119.942 23.5542 118.184 33.0932 119.03 42.6371C119.631 49.4191 119.827 56.1317 120.011 62.9436C120.113 66.7192 119.738 78.0485 119.738 74.2714M120.607 12C123.175 14.8017 125.85 17.4406 128.91 19.7235C131.917 21.9678 134.489 24.3831 137.277 26.8678C140.53 29.7672 144.135 31.9354 147.189 35.1063C150.488 38.5327 150.023 42.5749 150.954 46.9169C152.128 52.3972 147.077 57.1785 144.099 61.0445C140.76 65.3801 135.809 67.717 131.259 70.5059L131.136 70.5811C129.489 71.5905 127.841 72.6011 126.11 73.4665C124.804 74.1195 123.519 74.8615 122.184 75.494C120.975 76.0665 118.599 76.8384 118 78.0363M166.986 18.9849C166.986 31.0939 167.798 43.1296 167.298 55.2461C167.14 59.0839 166.804 62.9476 167.055 66.7893C167.247 69.7229 167.108 69.6109 167.235 72.5378C167.273 73.4103 167.151 74.3082 167.253 75.1763C167.401 76.4399 176.856 75.7633 177.72 75.8011C183.939 76.0734 190.142 76.9267 196.293 77.8494M248 26.589C247.388 25.3711 242.108 21.467 240.928 20.8563C235.587 18.0913 229.284 15.5098 223.267 14.762C220.895 14.4673 214.417 14.4448 214.417 18.5141C214.417 21.3536 214.506 24.769 217.023 26.589C224.131 31.7285 233.715 31.803 241.848 33.864C246.721 35.0989 252.311 37.6086 252.862 43.0815C253.245 46.8961 252.833 50.5055 251.597 54.1463C249.047 61.6633 243.613 65.0621 236.331 67.5727C228.615 70.233 220.651 72.152 213 75M269 21C269 29.2817 270.431 37.4787 270.545 45.7528C270.653 53.5728 269.937 61.2953 269.937 69.0822C269.937 70.56 270.619 74.343 269.937 75.3658M318.578 23.9674C317.816 23.2895 317.163 23.3653 316.183 23.2731C313.115 22.9844 309.965 22.8624 306.896 23.221C303.445 23.6245 300.398 24.7046 297.888 27.1613C293.909 31.055 292.323 34.9709 291.083 40.2841C289.964 45.0809 289.717 49.4551 290.319 54.3442C290.707 57.4946 290.65 60.6488 291.083 63.7871C291.382 65.9571 292.207 67.6528 294.277 68.5779C296.538 69.5883 299.085 69.6323 301.463 70.227C304.705 71.0374 308.07 71.3809 311.392 71.7024C314.071 71.9616 316.546 71.3595 319.147 70.7268L319.203 70.713C320.315 70.4427 322.792 69.9981 323.508 69.2028C324.368 68.2474 324.437 64.6378 324.498 63.3705C324.592 61.3992 324.336 59.38 324.532 57.4166C324.753 55.2142 326.3 51.9711 325.296 49.7617C324.88 48.8458 324.81 48.0461 323.578 48.0258C316.606 47.9116 315.523 48.0258 308.562 48.0258M343.864 19.187C343.149 27.4055 342.251 35.7349 342.024 43.9745C341.822 51.2941 342.966 58.745 342.545 66.0194C342.402 68.4881 342.302 70.9075 342.302 73.3792C342.302 74.415 342.024 76.7914 342.024 77.8271C342.024 79.6237 342.302 74.4654 342.302 74.1777M345.427 18.5622C345.889 19.8725 346.864 21.0204 347.544 22.2248C349.069 24.9224 350.447 27.7258 351.849 30.4873C354.081 34.883 356.296 39.269 358.393 43.6969C359.713 46.4827 360.706 49.4599 361.813 52.3065C364.068 58.1066 366.705 64.3444 368.305 70.5673C368.386 70.8816 369.173 73.1515 369.173 71.8345C369.173 68.9893 370.237 65.7841 370.926 63.0686C372.186 58.1029 373.611 53.2719 375.196 48.4009C376.432 44.6027 376.61 40.8467 377.279 36.9445C377.837 33.6913 377.999 30.4894 379.015 27.3281C380.123 23.8795 381.441 20.4188 382.296 17" stroke="#FFFDD0" stroke-width="6.41" stroke-linecap="round"/>
</svg>
