<svg width="440" height="340" viewBox="0 0 440 340" fill="none" xmlns="http://www.w3.org/2000/svg">
<path d="M343.605 17.7776C353.013 18.3003 365.125 19.2465 373.878 23.3656C381.682 23.3656 395.353 30.1925 400.344 36.0151C403.875 40.1342 407.74 42.5937 410.353 47.6822C418.515 63.5755 426.224 79.8674 431.231 97.1137C439.711 126.322 439.091 157.149 439.091 187.319C439.091 195.844 433.949 207.596 430.494 215.197C424.849 227.616 425.41 243.677 417.538 255.049C408.4 268.248 397.617 274.95 382.721 282.006C362.852 291.418 343.525 297.623 322.052 302.454C309.661 305.242 298.806 310.398 286.928 314.306C258.869 323.535 232.047 327.703 202.557 332.482C182.476 335.736 162.344 337.547 142.011 335.49C119.225 333.186 98.1636 324.993 77.3504 315.656C62.2833 308.897 47.926 299.686 34.5507 289.989C14.9824 275.802 5.04365 262.94 2.4355 238.163C-1.03962 205.149 2.31164 170.869 6.97952 138.194C8.43731 127.99 9.75482 116.678 14.4096 107.368C16.4166 103.354 19.932 100.191 22.1467 96.3155C26.6649 88.4087 33.0181 81.539 38.4192 74.148C50.6773 57.3738 62.4983 42.9966 78.8241 29.936C107.254 7.19188 150.726 3.47013 185.731 3.47013C208.582 3.47013 230.439 1.96971 253.155 4.32981C274.577 6.55551 295.909 13.3864 317.508 14.5231C326.314 14.9866 334.666 17.281 343.605 17.7776Z" fill="#0000FF"/>
</svg>
