<svg width="440" height="340" viewBox="0 0 440 340" fill="none" xmlns="http://www.w3.org/2000/svg">
<path d="M191.971 331.247C202.692 334.248 213.513 333.948 224.639 333.948C236.526 333.948 253.796 337.264 266.149 337.264C278.253 337.264 292.445 334.927 304.221 331.983C314.269 329.471 325.018 327.783 334.555 323.448C342.031 320.05 349.93 317.48 357.275 313.807C365.336 309.777 375.988 309.179 382.083 301.342C387.944 293.806 393.877 286.277 398.417 277.701C401.946 271.036 407.241 264.694 412.295 259.034C414.649 256.397 414.684 251.104 417.514 248.84C421.206 245.887 422.363 232.389 424.085 227.962C425.331 224.757 426.107 220.671 426.848 217.339C428.461 210.081 431.331 202.068 431.331 194.68C431.331 164.392 412.447 137.089 402.593 109.081C397.447 94.4572 392.7 78.463 384.355 65.4829C375.799 52.1736 362.657 39.2873 349.784 30.2361C340.386 23.6285 330.21 13.336 319.081 10.1564C301.811 5.22212 282.485 8.45231 265.29 3.70883C260.237 2.31509 252.996 3.3946 247.85 3.46321C237.368 3.60297 225.886 3.48614 215.428 4.81413C194.808 7.43263 175.021 9.27366 154.698 13.9636C140.686 17.1971 127.967 21.8625 114.6 26.6745C110.67 28.0894 106.22 32.3455 102.81 34.9029C98.4329 38.1859 94.4748 43.5498 90.5292 47.4297C86.5602 51.3325 82.6104 55.2406 79.3534 59.7722C71.157 71.1758 61.9433 82.3421 53.3174 93.4839C48.1262 100.189 44.4827 107.718 39.8081 114.73C36.2816 120.02 34.9555 125.984 32.3166 131.678C27.8569 141.302 23.5535 151.721 21.018 162.013C19.0964 169.812 16.9231 177.613 14.6318 185.347C9.84297 201.509 8 216.678 8 233.366C8 240.642 10.2106 248.553 10.2106 256.025C10.2106 268.596 13.6428 280.635 19.2986 291.947C26.0932 305.536 40.3865 313.395 55.528 314.053C63.1059 314.382 72.9103 315.901 80.3359 317.615C89.9979 319.844 99.0512 320.35 108.951 321.299C120.377 322.395 132.01 325.897 143.338 326.211C150.28 326.404 157.117 329.173 163.848 329.527C172.701 329.993 183.433 328.856 191.971 331.247Z" fill="#0000FF"/>
</svg>
