<svg width="440" height="340" viewBox="0 0 440 340" fill="none" xmlns="http://www.w3.org/2000/svg">
<path d="M391.092 71.014C394.607 73.4475 402.757 78.6963 407.119 79.1809C411.542 79.1809 416.942 86.6814 419.032 90.234C422.087 95.4269 426.203 99.5413 428.98 105.094C433.757 114.649 432.122 130.872 430.085 140.832C426.857 156.613 424.5 174.21 418.602 189.281C410.527 209.917 402.698 231.077 392.259 250.564C386.681 260.977 382.601 272.308 376.171 282.311C369.734 292.324 364.779 303.896 356.275 312.4C349.948 318.727 342.691 322.76 335.766 328.426C331.406 331.993 325.509 334.139 320.046 335.12C307.387 337.392 294.523 338.927 281.667 338.927C261.256 338.927 240.85 337.822 220.507 337.822C213.993 337.822 206.437 336.097 199.998 335.058C189.762 333.407 179.073 333.879 168.988 331.19C152.537 326.803 135.341 323.781 119.127 319.277C102.122 314.553 84.4075 313.36 67.7916 307.426C48.4654 300.524 37.2409 287.188 30.7026 267.573C27.9483 259.311 25.4923 250.692 23.3339 242.274C22.4089 238.667 21.1431 229.22 18.9127 226.432C15.2971 221.912 13.8769 208.856 13.6318 202.729C13.23 192.684 7 182.123 7 171.781C7 163.041 8.1053 154.594 8.1053 146.113C8.1053 130.606 14.4716 115.007 17.5618 99.9975C19.9359 88.4658 23.999 72.298 31.9307 63.6453C37.5903 57.4712 45.1214 53.2414 52.0717 48.7237C68.6353 37.9574 87.9471 31.2205 105.126 21.4596C114.863 15.9272 126.838 8.18404 137.917 6.16962C156.285 2.82993 175.056 3.71392 193.98 2.85372C209.27 2.15873 223.735 1.08416 238.991 3.46777C245.772 4.52741 253.01 3.15873 259.561 5.67838C262.903 6.9634 268.201 7.94279 271.843 8.50304C283.794 10.3416 295.479 15.7034 306.782 19.7403C316.292 23.1365 326.589 29.4505 335.029 34.9689C341.911 39.4689 349.049 44.7616 355.723 49.9519C360.27 53.4886 364.464 57.4879 368.986 61.0049C371.838 63.2227 375.108 64.2923 377.829 66.4086C381.091 68.9458 387.506 68.5311 391.092 71.014Z" fill="#0000FF"/>
</svg>
