<svg width="500" height="500" viewBox="0 0 500 500" fill="none" xmlns="http://www.w3.org/2000/svg">
<path d="M316.611 198.625H323.755C328.358 198.625 332.09 194.894 332.09 190.291V168.407L345.066 155.246C344.385 156.454 343.996 157.849 343.996 159.334V312.331C343.996 316.934 347.727 320.665 352.33 320.665H390.26C394.863 320.665 398.594 316.934 398.594 312.331V259.609H407.695L432.122 313.662C434.049 317.925 438.294 320.665 442.972 320.665H482.834C486.358 320.665 488.661 316.97 487.11 313.806L446.403 230.772L486.569 158.065C488.323 154.891 486.027 151 482.401 151H482.809L483.686 151.078L484.499 151.303L485.237 151.658L485.891 152.126L486.452 152.693L486.911 153.342L487.257 154.058L487.482 154.823L487.576 155.622L487.53 156.44L487.333 157.26L486.978 158.065L446.811 230.772L487.518 313.806L487.827 314.606L487.985 315.413L488 316.213L487.882 316.991L487.64 317.732L487.283 318.422L486.821 319.046L458.656 346.809L458.098 347.352L457.453 347.799L456.73 348.136L455.938 348.35L455.087 348.424H415.329L414.173 348.368L413.041 348.202L411.94 347.93L410.877 347.558L409.858 347.088L408.889 346.526L407.978 345.875L407.13 345.14L406.353 344.324L405.653 343.433L405.035 342.47L404.508 341.439L394.805 319.97L368.632 345.989L367.834 346.692L366.95 347.289L365.99 347.771L364.964 348.127L363.882 348.348L362.754 348.424H324.924L323.796 348.348L322.714 348.127L321.688 347.771L320.728 347.289L319.844 346.692L319.046 345.989L318.343 345.191L317.746 344.307L317.265 343.347L316.908 342.321L316.687 341.239L316.611 340.111V198.625Z" fill="#FFFDD0"/>
<path d="M406.133 182.63L432.042 156.568C431.973 156.678 431.906 156.789 431.84 156.901L400.813 210.019C400.2 211.068 398.594 210.633 398.594 209.418V159.334C398.594 154.731 394.863 151 390.26 151H390.668L391.799 151.076L392.884 151.298L393.912 151.655L394.874 152.138L395.761 152.737L396.561 153.441L397.266 154.242L397.864 155.128L398.347 156.09L398.705 157.119L398.926 158.204L399.002 159.334V194.031L404.226 185.087L404.795 184.206L405.432 183.386L406.133 182.63Z" fill="#FFFDD0"/>
<path d="M316.611 198.625H323.755C328.358 198.625 332.09 194.894 332.09 190.291V168.407L345.066 155.246C344.385 156.454 343.996 157.849 343.996 159.334V312.331C343.996 316.934 347.727 320.665 352.33 320.665H390.26C394.863 320.665 398.594 316.934 398.594 312.331V259.609H407.695L432.122 313.662C434.049 317.925 438.294 320.665 442.972 320.665H482.834C486.358 320.665 488.661 316.97 487.11 313.806L446.403 230.772L486.569 158.065C488.323 154.891 486.027 151 482.401 151H482.809L483.686 151.078L484.499 151.303L485.237 151.658L485.891 152.126L486.452 152.693L486.911 153.342L487.257 154.058L487.482 154.823L487.576 155.622L487.53 156.44L487.333 157.26L486.978 158.065L446.811 230.772L487.518 313.806L487.827 314.606L487.985 315.413L488 316.213L487.882 316.991L487.64 317.732L487.283 318.422L486.821 319.046L458.656 346.809L458.098 347.352L457.453 347.799L456.73 348.136L455.938 348.35L455.087 348.424H415.329L414.173 348.368L413.041 348.202L411.94 347.93L410.877 347.558L409.858 347.088L408.889 346.526L407.978 345.875L407.13 345.14L406.353 344.324L405.653 343.433L405.035 342.47L404.508 341.439L394.805 319.97L368.632 345.989L367.834 346.692L366.95 347.289L365.99 347.771L364.964 348.127L363.882 348.348L362.754 348.424H324.924L323.796 348.348L322.714 348.127L321.688 347.771L320.728 347.289L319.844 346.692L319.046 345.989L318.343 345.191L317.746 344.307L317.265 343.347L316.908 342.321L316.687 341.239L316.611 340.111V198.625Z" stroke="#FFFDD0" stroke-width="4" stroke-linecap="round" stroke-linejoin="round"/>
<path d="M406.133 182.63L432.042 156.568C431.973 156.678 431.906 156.789 431.84 156.901L400.813 210.019C400.2 211.068 398.594 210.633 398.594 209.418V159.334C398.594 154.731 394.863 151 390.26 151H390.668L391.799 151.076L392.884 151.298L393.912 151.655L394.874 152.138L395.761 152.737L396.561 153.441L397.266 154.242L397.864 155.128L398.347 156.09L398.705 157.119L398.926 158.204L399.002 159.334V194.031L404.226 185.087L404.795 184.206L405.432 183.386L406.133 182.63Z" stroke="#FFFDD0" stroke-width="4" stroke-linecap="round" stroke-linejoin="round"/>
<path d="M372.571 174.813V234.344M372.571 234.344V294.471M372.571 234.344H416.029M416.029 234.344H423.768L451.748 294.471M416.029 234.344L449.367 175.408" stroke="#FFFDD0" stroke-width="4" stroke-linecap="round" stroke-linejoin="round"/>
<path d="M343.996 159.334V312.331C343.996 316.934 347.727 320.665 352.33 320.665H390.259C394.862 320.665 398.594 316.934 398.594 312.331V259.609H407.694L432.122 313.662C434.049 317.925 438.294 320.665 442.972 320.665H482.833C486.357 320.665 488.661 316.97 487.11 313.806L446.403 230.772L486.569 158.065C488.322 154.891 486.027 151 482.4 151H442.121C437.889 151 433.975 153.247 431.84 156.901L400.812 210.019C400.2 211.068 398.594 210.633 398.594 209.418V159.334C398.594 154.731 394.862 151 390.259 151H352.33C347.727 151 343.996 154.731 343.996 159.334Z" stroke="#FFFDD0" stroke-width="4" stroke-linecap="round" stroke-linejoin="round"/>
<path d="M323.755 151C328.358 151 332.089 154.731 332.089 159.334V190.291C332.089 194.894 328.358 198.625 323.755 198.625H285.484V312.331C285.484 316.934 281.752 320.665 277.149 320.665H239.22C234.617 320.665 230.886 316.934 230.886 312.331V198.625H192.785C188.182 198.625 184.451 194.894 184.451 190.291V159.334C184.451 157.844 184.842 156.445 185.528 155.234L159.501 181.637L158.798 182.435L158.201 183.319L157.72 184.279L157.363 185.305L157.142 186.387L157.066 187.515V218.39L157.142 219.518L157.363 220.6L157.72 221.626L158.201 222.586L158.798 223.47L159.501 224.268L160.299 224.971L161.183 225.568L162.143 226.05L163.169 226.406L164.251 226.627L165.379 226.703H203.38V340.111L203.456 341.239L203.677 342.321L204.033 343.347L204.515 344.307L205.112 345.191L205.815 345.989L206.613 346.692L207.497 347.289L208.457 347.771L209.483 348.127L210.564 348.348L211.692 348.424H249.523L250.651 348.348L251.733 348.127L252.758 347.771L253.718 347.289L254.602 346.692L255.401 345.989L283.446 318.224L284.15 317.424L284.749 316.537L285.232 315.575L285.589 314.546L285.811 313.462L285.887 312.331V226.703H296.007L297.135 226.627L298.216 226.406L299.242 226.05L300.202 225.568L301.086 224.971L301.885 224.268L330.051 196.184L330.756 195.384L331.354 194.497L331.837 193.535L332.195 192.507L332.416 191.422L332.492 190.291V159.334L332.416 158.204L332.195 157.119L331.837 156.09L331.354 155.128L330.756 154.242L330.051 153.441L329.251 152.737L328.365 152.138L327.402 151.655L326.374 151.298L325.289 151.076L324.158 151H323.755Z" fill="#FFFDD0" stroke="#FFFDD0" stroke-width="4" stroke-linecap="round" stroke-linejoin="round"/>
<path d="M208.264 174.813H258.27M258.27 174.813H308.277M258.27 174.813L258.227 235.833L258.185 296.852" stroke="#FFFDD0" stroke-width="4" stroke-linecap="round" stroke-linejoin="round"/>
<path d="M239.22 320.665H277.15C281.752 320.665 285.484 316.934 285.484 312.331V198.625H323.755C328.358 198.625 332.09 194.894 332.09 190.291V159.334C332.09 154.731 328.358 151 323.755 151H192.786C188.183 151 184.451 154.731 184.451 159.334V190.291C184.451 194.894 188.183 198.625 192.786 198.625H230.886V312.331C230.886 316.934 234.617 320.665 239.22 320.665Z" stroke="#FFFDD0" stroke-width="4" stroke-linecap="round" stroke-linejoin="round"/>
<path d="M23.0627 338.557V305.259H30.295V320.403L44.4682 305.259H53.3993L40.6822 318.802L53.642 338.557H45.0021L35.6828 323.801L30.295 328.655V338.557H23.0627Z" fill="#FFFDD0"/>
<path d="M57.6517 309.288V303.463H64.3986V309.288H57.6517ZM57.6517 338.557V313.025H64.3986V338.557H57.6517Z" fill="#FFFDD0"/>
<path d="M70.5922 338.557V313.025H76.1741L76.708 316.52H77.0478C77.5979 315.679 78.2451 314.951 78.9893 314.336C79.7659 313.721 80.6234 313.252 81.5619 312.928C82.5326 312.605 83.5681 312.443 84.6683 312.443C86.2863 312.443 87.6777 312.767 88.8426 313.414C90.0399 314.061 90.9621 315.096 91.6093 316.52H91.9491C92.4992 315.679 93.1626 314.951 93.9392 314.336C94.7158 313.721 95.6057 313.252 96.6088 312.928C97.6119 312.605 98.6798 312.443 99.8123 312.443C101.43 312.443 102.822 312.734 103.987 313.317C105.184 313.899 106.122 314.854 106.802 316.18C107.481 317.475 107.821 319.157 107.821 321.228V338.557H101.074V322.442C101.074 321.633 100.977 320.953 100.783 320.403C100.621 319.821 100.379 319.368 100.055 319.044C99.7314 318.688 99.3269 318.429 98.8416 318.268C98.3562 318.106 97.8384 318.025 97.2883 318.025C96.3823 318.025 95.5733 318.268 94.8614 318.753C94.1495 319.238 93.5832 319.902 93.1626 320.743C92.7742 321.584 92.5801 322.555 92.5801 323.655V338.557H85.8332V322.442C85.8332 321.633 85.7362 320.953 85.542 320.403C85.3802 319.821 85.1375 319.368 84.8139 319.044C84.4903 318.688 84.0859 318.429 83.6005 318.268C83.1474 318.106 82.6297 318.025 82.0472 318.025C81.1735 318.025 80.3646 318.268 79.6203 318.753C78.9084 319.238 78.3421 319.902 77.9215 320.743C77.5332 321.584 77.339 322.555 77.339 323.655V338.557H70.5922Z" fill="#FFFDD0"/>
<path d="M128.092 339.139C126.442 339.139 124.921 338.816 123.529 338.168C122.17 337.489 121.07 336.47 120.229 335.11H119.889L119.355 338.557H113.822V303.463H120.569V315.841H120.86C121.378 315.096 122.009 314.465 122.753 313.948C123.497 313.43 124.338 313.058 125.277 312.831C126.215 312.572 127.235 312.443 128.335 312.443C130.341 312.443 132.088 312.912 133.577 313.851C135.098 314.789 136.279 316.245 137.12 318.219C137.962 320.161 138.382 322.668 138.382 325.743C138.382 328.817 137.962 331.341 137.12 333.315C136.311 335.288 135.13 336.761 133.577 337.732C132.056 338.67 130.228 339.139 128.092 339.139ZM126.005 333.606C127.364 333.606 128.432 333.347 129.208 332.829C130.017 332.279 130.6 331.47 130.956 330.402C131.312 329.334 131.49 327.991 131.49 326.374V325.257C131.49 323.639 131.312 322.296 130.956 321.228C130.6 320.128 130.017 319.319 129.208 318.802C128.432 318.251 127.364 317.976 126.005 317.976C125.034 317.976 124.209 318.154 123.529 318.51C122.85 318.834 122.284 319.319 121.831 319.966C121.41 320.581 121.086 321.358 120.86 322.296C120.633 323.235 120.52 324.27 120.52 325.403V326.276C120.52 327.797 120.714 329.108 121.103 330.208C121.491 331.308 122.089 332.15 122.898 332.732C123.707 333.315 124.743 333.606 126.005 333.606Z" fill="#FFFDD0"/>
<path d="M143.352 338.557V303.463H150.099V338.557H143.352Z" fill="#FFFDD0"/>
<path d="M167.894 339.139C165.078 339.139 162.716 338.67 160.807 337.732C158.898 336.761 157.458 335.288 156.487 333.315C155.516 331.341 155.031 328.833 155.031 325.791C155.031 322.717 155.516 320.209 156.487 318.268C157.458 316.294 158.882 314.838 160.758 313.899C162.668 312.928 164.997 312.443 167.748 312.443C170.337 312.443 172.521 312.912 174.301 313.851C176.08 314.757 177.423 316.18 178.329 318.122C179.235 320.031 179.688 322.507 179.688 325.548V327.296H161.875C161.94 328.784 162.166 330.046 162.554 331.082C162.975 332.117 163.606 332.894 164.447 333.412C165.321 333.897 166.47 334.14 167.894 334.14C168.67 334.14 169.366 334.043 169.981 333.848C170.628 333.654 171.178 333.363 171.631 332.975C172.084 332.586 172.44 332.101 172.699 331.519C172.958 330.936 173.087 330.273 173.087 329.529H179.688C179.688 331.146 179.397 332.554 178.815 333.751C178.232 334.949 177.423 335.952 176.388 336.761C175.352 337.537 174.107 338.136 172.65 338.557C171.227 338.945 169.641 339.139 167.894 339.139ZM161.972 323.024H172.747C172.747 322.054 172.618 321.212 172.359 320.5C172.133 319.788 171.809 319.206 171.388 318.753C170.968 318.3 170.45 317.976 169.835 317.782C169.253 317.556 168.589 317.442 167.845 317.442C166.615 317.442 165.58 317.653 164.739 318.073C163.93 318.462 163.299 319.077 162.846 319.918C162.425 320.727 162.134 321.762 161.972 323.024Z" fill="#FFFDD0"/>
<path d="M24.409 294.241V265.479H13V262.263H39.621V265.479H28.1181V294.241H24.409Z" fill="#FFFDD0"/>
<path d="M43.6415 294.241V260.538H47.0219V272.891H47.3506C48.0392 271.99 48.7904 271.275 49.6042 270.747C50.418 270.187 51.3101 269.783 52.2804 269.535C53.2507 269.286 54.2993 269.162 55.4261 269.162C56.9911 269.162 58.3527 269.426 59.5108 269.954C60.7002 270.452 61.6236 271.275 62.2809 272.425C62.9382 273.575 63.2668 275.144 63.2668 277.133V294.241H59.8864V277.459C59.8864 276.372 59.7455 275.486 59.4638 274.802C59.1821 274.119 58.7909 273.59 58.2901 273.217C57.7893 272.813 57.1946 272.534 56.5059 272.378C55.8486 272.223 55.1131 272.145 54.2993 272.145C53.0473 272.145 51.8578 272.425 50.731 272.984C49.6355 273.544 48.7435 274.398 48.0548 275.548C47.3662 276.667 47.0219 278.065 47.0219 279.743V294.241H43.6415Z" fill="#FFFDD0"/>
<path d="M79.3584 294.8C76.9796 294.8 74.9451 294.349 73.2548 293.448C71.5959 292.516 70.3282 291.102 69.4518 289.206C68.6067 287.311 68.1842 284.902 68.1842 281.981C68.1842 279.029 68.6067 276.62 69.4518 274.756C70.3282 272.86 71.5959 271.462 73.2548 270.56C74.9451 269.628 76.9796 269.162 79.3584 269.162C81.7998 269.162 83.8344 269.628 85.462 270.56C87.1209 271.462 88.3729 272.86 89.218 274.756C90.0944 276.62 90.5326 279.029 90.5326 281.981C90.5326 284.902 90.0944 287.311 89.218 289.206C88.3729 291.102 87.1209 292.516 85.462 293.448C83.8344 294.349 81.7998 294.8 79.3584 294.8ZM79.3584 291.957C81.0173 291.957 82.4102 291.63 83.537 290.978C84.6638 290.325 85.5246 289.315 86.1193 287.948C86.714 286.549 87.0114 284.747 87.0114 282.54V281.422C87.0114 279.215 86.714 277.428 86.1193 276.061C85.5246 274.662 84.6638 273.637 83.537 272.984C82.4102 272.332 81.0173 272.005 79.3584 272.005C77.6995 272.005 76.3066 272.332 75.1798 272.984C74.053 273.637 73.1922 274.662 72.5975 276.061C72.0028 277.428 71.7055 279.215 71.7055 281.422V282.54C71.7055 284.747 72.0028 286.549 72.5975 287.948C73.1922 289.315 74.053 290.325 75.1798 290.978C76.3066 291.63 77.6995 291.957 79.3584 291.957Z" fill="#FFFDD0"/>
<path d="M95.6814 294.241V269.721H98.3576L98.6863 273.59H99.0149C99.7035 272.472 100.455 271.601 101.269 270.98C102.082 270.327 102.974 269.861 103.945 269.581C104.915 269.302 105.948 269.162 107.043 269.162C108.702 269.162 110.127 269.504 111.316 270.187C112.505 270.84 113.351 271.974 113.851 273.59H114.133C114.79 272.503 115.526 271.648 116.34 271.026C117.154 270.374 118.046 269.908 119.016 269.628C120.017 269.317 121.066 269.162 122.162 269.162C123.633 269.162 124.932 269.41 126.058 269.908C127.185 270.405 128.062 271.228 128.688 272.378C129.345 273.528 129.674 275.082 129.674 277.04V294.241H126.293V277.413C126.293 276.356 126.152 275.486 125.871 274.802C125.62 274.088 125.26 273.544 124.791 273.171C124.321 272.798 123.774 272.534 123.148 272.378C122.522 272.223 121.849 272.145 121.129 272.145C119.939 272.145 118.828 272.456 117.795 273.078C116.794 273.668 115.964 274.523 115.307 275.641C114.681 276.76 114.368 278.127 114.368 279.743V294.241H110.987V277.413C110.987 276.356 110.862 275.486 110.612 274.802C110.361 274.088 110.001 273.544 109.532 273.171C109.062 272.798 108.515 272.534 107.889 272.378C107.294 272.223 106.652 272.145 105.964 272.145C104.774 272.145 103.647 272.456 102.583 273.078C101.55 273.668 100.705 274.523 100.048 275.641C99.3905 276.76 99.0619 278.127 99.0619 279.743V294.241H95.6814Z" fill="#FFFDD0"/>
<path d="M142.18 294.8C141.21 294.8 140.255 294.676 139.316 294.427C138.377 294.21 137.532 293.852 136.781 293.355C136.061 292.827 135.482 292.127 135.044 291.257C134.605 290.387 134.386 289.315 134.386 288.041C134.386 286.363 134.793 284.995 135.607 283.939C136.452 282.851 137.626 282.012 139.128 281.422C140.631 280.8 142.399 280.381 144.434 280.163C146.5 279.945 148.738 279.837 151.148 279.837V276.713C151.148 275.719 150.96 274.88 150.584 274.196C150.24 273.482 149.614 272.938 148.706 272.565C147.83 272.161 146.578 271.959 144.95 271.959C143.385 271.959 142.149 272.161 141.241 272.565C140.333 272.969 139.692 273.497 139.316 274.15C138.972 274.771 138.8 275.47 138.8 276.247V276.993H135.56C135.529 276.838 135.513 276.682 135.513 276.527C135.513 276.372 135.513 276.185 135.513 275.968C135.513 274.414 135.92 273.14 136.734 272.145C137.548 271.151 138.706 270.405 140.208 269.908C141.711 269.41 143.432 269.162 145.373 269.162C147.345 269.162 149.004 269.457 150.35 270.048C151.695 270.607 152.728 271.415 153.448 272.472C154.168 273.528 154.528 274.802 154.528 276.294V290.372C154.528 290.962 154.638 291.382 154.857 291.63C155.107 291.848 155.436 291.957 155.843 291.957H157.815V294.101C157.345 294.287 156.844 294.443 156.312 294.567C155.811 294.691 155.279 294.753 154.716 294.753C153.902 294.753 153.245 294.582 152.744 294.241C152.274 293.899 151.93 293.417 151.711 292.796C151.523 292.174 151.398 291.49 151.335 290.745H151.007C150.412 291.584 149.645 292.314 148.706 292.935C147.799 293.526 146.797 293.976 145.701 294.287C144.606 294.629 143.432 294.8 142.18 294.8ZM142.884 291.957C143.917 291.957 144.919 291.786 145.889 291.444C146.86 291.102 147.736 290.636 148.518 290.045C149.301 289.424 149.927 288.693 150.396 287.854C150.897 287.015 151.148 286.083 151.148 285.058V282.54C148.237 282.54 145.795 282.696 143.823 283.006C141.883 283.317 140.412 283.861 139.41 284.638C138.44 285.415 137.955 286.503 137.955 287.901C137.955 288.833 138.158 289.61 138.565 290.232C139.003 290.822 139.598 291.257 140.349 291.537C141.1 291.817 141.945 291.957 142.884 291.957Z" fill="#FFFDD0"/>
<path d="M169.555 294.8C167.928 294.8 166.488 294.629 165.236 294.287C163.984 293.976 162.935 293.51 162.09 292.889C161.276 292.236 160.65 291.459 160.212 290.558C159.805 289.657 159.602 288.616 159.602 287.435C159.602 287.311 159.602 287.186 159.602 287.062C159.602 286.907 159.617 286.767 159.649 286.642H162.982C162.951 286.798 162.935 286.938 162.935 287.062C162.935 287.155 162.935 287.248 162.935 287.342C162.967 288.554 163.264 289.501 163.827 290.185C164.391 290.838 165.189 291.304 166.222 291.584C167.255 291.863 168.444 292.003 169.79 292.003C170.948 292.003 171.981 291.848 172.889 291.537C173.828 291.195 174.563 290.713 175.095 290.092C175.659 289.47 175.941 288.709 175.941 287.808C175.941 286.658 175.581 285.788 174.861 285.197C174.172 284.607 173.264 284.156 172.138 283.846C171.011 283.504 169.837 283.146 168.616 282.773C167.615 282.494 166.629 282.198 165.658 281.888C164.688 281.546 163.796 281.126 162.982 280.629C162.2 280.132 161.574 279.495 161.104 278.718C160.635 277.941 160.4 276.962 160.4 275.781C160.4 274.756 160.603 273.839 161.01 273.031C161.448 272.223 162.059 271.539 162.841 270.98C163.655 270.389 164.641 269.939 165.799 269.628C166.957 269.317 168.272 269.162 169.743 269.162C171.371 269.162 172.764 269.348 173.922 269.721C175.08 270.094 176.019 270.607 176.739 271.26C177.459 271.881 177.991 272.596 178.335 273.404C178.679 274.181 178.851 275.004 178.851 275.874C178.851 275.999 178.836 276.139 178.805 276.294C178.805 276.449 178.805 276.589 178.805 276.713H175.471V276.107C175.471 275.455 175.299 274.818 174.955 274.196C174.642 273.575 174.062 273.046 173.217 272.611C172.404 272.176 171.183 271.959 169.555 271.959C168.585 271.959 167.74 272.052 167.02 272.238C166.331 272.394 165.737 272.627 165.236 272.938C164.766 273.248 164.406 273.637 164.156 274.103C163.937 274.538 163.827 275.051 163.827 275.641C163.827 276.543 164.109 277.242 164.672 277.739C165.267 278.205 166.034 278.594 166.973 278.904C167.912 279.184 168.914 279.495 169.978 279.837C171.042 280.147 172.122 280.474 173.217 280.816C174.344 281.157 175.377 281.577 176.316 282.074C177.255 282.571 178.006 283.24 178.57 284.079C179.133 284.887 179.415 285.959 179.415 287.295C179.415 288.538 179.164 289.641 178.664 290.605C178.163 291.537 177.474 292.314 176.598 292.935C175.721 293.557 174.673 294.023 173.452 294.334C172.263 294.645 170.964 294.8 169.555 294.8Z" fill="#FFFDD0"/>
</svg>
