<svg width="500" height="500" viewBox="0 0 500 500" fill="none" xmlns="http://www.w3.org/2000/svg">
<path d="M317.04 199.506H324.165C328.757 199.506 332.479 195.784 332.479 191.193V169.364L345.423 156.235C344.743 157.44 344.356 158.832 344.356 160.314V312.927C344.356 317.519 348.078 321.241 352.669 321.241H390.504C395.095 321.241 398.817 317.519 398.817 312.927V260.338H407.895L432.262 314.255C434.184 318.508 438.418 321.241 443.085 321.241H482.846C486.361 321.241 488.659 317.555 487.112 314.399L446.507 231.573L486.572 159.048C488.322 155.882 486.031 152 482.414 152H482.822L483.697 152.078L484.507 152.302L485.243 152.656L485.896 153.124L486.456 153.689L486.913 154.337L487.259 155.05L487.483 155.813L487.577 156.611L487.53 157.426L487.335 158.244L486.98 159.048L446.914 231.573L487.519 314.399L487.827 315.197L487.985 316.002L488 316.8L487.882 317.576L487.641 318.315L487.285 319.004L486.823 319.626L458.729 347.32L458.173 347.861L457.529 348.307L456.808 348.643L456.018 348.856L455.169 348.93H415.511L414.357 348.874L413.228 348.709L412.13 348.438L411.069 348.066L410.053 347.598L409.087 347.037L408.178 346.388L407.332 345.654L406.557 344.841L405.858 343.952L405.242 342.991L404.716 341.963L395.038 320.547L368.93 346.502L368.134 347.203L367.252 347.798L366.295 348.279L365.271 348.634L364.192 348.855L363.067 348.93H325.331L324.206 348.855L323.127 348.634L322.104 348.279L321.146 347.798L320.264 347.203L319.468 346.502L318.767 345.705L318.172 344.823L317.691 343.866L317.336 342.843L317.115 341.764L317.04 340.638V199.506Z" fill="#FFFDD0"/>
<path d="M406.338 183.551L432.182 157.554C432.113 157.664 432.046 157.774 431.98 157.886L401.03 210.871C400.419 211.918 398.817 211.484 398.817 210.272V160.314C398.817 155.722 395.095 152 390.504 152H390.911L392.039 152.076L393.121 152.297L394.147 152.653L395.107 153.135L395.991 153.732L396.79 154.435L397.492 155.233L398.089 156.118L398.571 157.078L398.928 158.103L399.149 159.186L399.225 160.314V194.923L404.436 186.002L405.003 185.123L405.638 184.305L406.338 183.551Z" fill="#FFFDD0"/>
<path d="M317.04 199.506H324.165C328.757 199.506 332.479 195.784 332.479 191.193V169.364L345.423 156.235C344.743 157.44 344.356 158.832 344.356 160.314V312.927C344.356 317.519 348.078 321.241 352.669 321.241H390.504C395.095 321.241 398.817 317.519 398.817 312.927V260.338H407.895L432.262 314.255C434.184 318.508 438.418 321.241 443.085 321.241H482.846C486.361 321.241 488.659 317.555 487.112 314.399L446.507 231.573L486.572 159.048C488.322 155.882 486.031 152 482.414 152H482.822L483.697 152.078L484.507 152.302L485.243 152.656L485.896 153.124L486.456 153.689L486.913 154.337L487.259 155.05L487.483 155.813L487.577 156.611L487.53 157.426L487.335 158.244L486.98 159.048L446.914 231.573L487.519 314.399L487.827 315.197L487.985 316.002L488 316.8L487.882 317.576L487.641 318.315L487.285 319.004L486.823 319.626L458.729 347.32L458.173 347.861L457.529 348.307L456.808 348.643L456.018 348.856L455.169 348.93H415.511L414.357 348.874L413.228 348.709L412.13 348.438L411.069 348.066L410.053 347.598L409.087 347.037L408.178 346.388L407.332 345.654L406.557 344.841L405.858 343.952L405.242 342.991L404.716 341.963L395.038 320.547L368.93 346.502L368.134 347.203L367.252 347.798L366.295 348.279L365.271 348.634L364.192 348.855L363.067 348.93H325.331L324.206 348.855L323.127 348.634L322.104 348.279L321.146 347.798L320.264 347.203L319.468 346.502L318.767 345.705L318.172 344.823L317.691 343.866L317.336 342.843L317.115 341.764L317.04 340.638V199.506Z" stroke="#FFFDD0" stroke-width="4" stroke-linejoin="round"/>
<path d="M406.338 183.551L432.182 157.554C432.113 157.664 432.046 157.774 431.98 157.886L401.03 210.871C400.419 211.918 398.817 211.484 398.817 210.272V160.314C398.817 155.722 395.095 152 390.504 152H390.911L392.039 152.076L393.121 152.297L394.147 152.653L395.107 153.135L395.991 153.732L396.79 154.435L397.492 155.233L398.089 156.118L398.571 157.078L398.928 158.103L399.149 159.186L399.225 160.314V194.923L404.436 186.002L405.003 185.123L405.638 184.305L406.338 183.551Z" stroke="#FFFDD0" stroke-width="4" stroke-linejoin="round"/>
<path d="M344.356 160.314V312.927C344.356 317.519 348.078 321.241 352.67 321.241H390.504C395.095 321.241 398.818 317.519 398.818 312.927V260.338H407.896L432.262 314.255C434.184 318.508 438.418 321.241 443.085 321.241H482.847C486.362 321.241 488.66 317.555 487.112 314.399L446.507 231.573L486.573 159.048C488.322 155.882 486.032 152 482.415 152H442.236C438.014 152 434.11 154.241 431.981 157.886L401.031 210.871C400.419 211.918 398.818 211.484 398.818 210.272V160.314C398.818 155.722 395.095 152 390.504 152H352.67C348.078 152 344.356 155.722 344.356 160.314Z" stroke="#FFFDD0" stroke-width="4" stroke-linejoin="round"/>
<path d="M324.166 152C328.757 152 332.479 155.722 332.479 160.314V191.193C332.479 195.784 328.757 199.506 324.166 199.506H285.99V312.927C285.99 317.519 282.268 321.241 277.677 321.241H239.842C235.251 321.241 231.529 317.519 231.529 312.927V199.506H193.524C188.932 199.506 185.21 195.784 185.21 191.193V160.314C185.21 158.827 185.6 157.431 186.284 156.223L160.323 182.56L159.622 183.356L159.026 184.238L158.546 185.196L158.19 186.219L157.97 187.298L157.894 188.423V219.222L157.97 220.347L158.19 221.426L158.546 222.449L159.026 223.407L159.622 224.289L160.323 225.085L161.119 225.786L162.001 226.381L162.958 226.862L163.982 227.217L165.061 227.438L166.186 227.514H204.092V340.638L204.167 341.764L204.388 342.843L204.743 343.866L205.224 344.823L205.819 345.705L206.52 346.502L207.317 347.203L208.198 347.798L209.156 348.279L210.179 348.634L211.258 348.855L212.384 348.93H250.119L251.244 348.855L252.323 348.634L253.347 348.279L254.304 347.798L255.186 347.203L255.982 346.502L283.957 318.806L284.66 318.007L285.257 317.123L285.739 316.163L286.095 315.137L286.316 314.055L286.392 312.927V227.514H296.487L297.612 227.438L298.691 227.217L299.714 226.862L300.672 226.381L301.554 225.786L302.35 225.085L330.446 197.071L331.149 196.273L331.746 195.389L332.228 194.429L332.584 193.403L332.806 192.321L332.881 191.193V160.314L332.806 159.186L332.584 158.103L332.228 157.078L331.746 156.118L331.149 155.233L330.446 154.435L329.648 153.732L328.764 153.135L327.804 152.653L326.778 152.297L325.696 152.076L324.568 152H324.166Z" fill="#FFFDD0" stroke="#FFFDD0" stroke-width="4" stroke-linejoin="round"/>
<path d="M239.842 321.241H277.677C282.268 321.241 285.99 317.519 285.99 312.927V199.506H324.166C328.757 199.506 332.479 195.784 332.479 191.193V160.314C332.479 155.722 328.757 152 324.166 152H193.524C188.932 152 185.21 155.722 185.21 160.314V191.193C185.21 195.784 188.932 199.506 193.524 199.506H231.529V312.927C231.529 317.519 235.251 321.241 239.842 321.241Z" stroke="#FFFDD0" stroke-width="4" stroke-linejoin="round"/>
<path d="M23.0376 339.088V305.874H30.2517V320.98L44.3896 305.874H53.2983L40.613 319.382L53.5404 339.088H44.9221L35.6261 324.369L30.2517 329.211V339.088H23.0376Z" fill="#FFFDD0"/>
<path d="M57.5401 309.892V304.082H64.2701V309.892H57.5401ZM57.5401 339.088V313.62H64.2701V339.088H57.5401Z" fill="#FFFDD0"/>
<path d="M70.4482 339.088V313.62H76.0161L76.5487 317.106H76.8877C77.4364 316.267 78.0819 315.541 78.8243 314.928C79.599 314.314 80.4544 313.846 81.3904 313.523C82.3588 313.201 83.3917 313.039 84.4891 313.039C86.103 313.039 87.491 313.362 88.653 314.008C89.8473 314.653 90.7672 315.686 91.4128 317.106H91.7517C92.3004 316.267 92.9621 315.541 93.7368 314.928C94.5115 314.314 95.3991 313.846 96.3998 313.523C97.4004 313.201 98.4656 313.039 99.5953 313.039C101.209 313.039 102.597 313.33 103.759 313.911C104.953 314.492 105.89 315.444 106.567 316.767C107.245 318.059 107.584 319.737 107.584 321.803V339.088H100.854V323.013C100.854 322.206 100.757 321.528 100.564 320.98C100.402 320.399 100.16 319.947 99.8374 319.624C99.5146 319.269 99.1111 319.011 98.6269 318.849C98.1428 318.688 97.6263 318.607 97.0776 318.607C96.1738 318.607 95.3669 318.849 94.6567 319.334C93.9466 319.818 93.3818 320.479 92.9621 321.319C92.5748 322.158 92.3811 323.126 92.3811 324.224V339.088H85.6512V323.013C85.6512 322.206 85.5543 321.528 85.3607 320.98C85.1993 320.399 84.9572 319.947 84.6344 319.624C84.3116 319.269 83.9081 319.011 83.424 318.849C82.9721 318.688 82.4556 318.607 81.8746 318.607C81.0031 318.607 80.1962 318.849 79.4538 319.334C78.7436 319.818 78.1788 320.479 77.7592 321.319C77.3718 322.158 77.1782 323.126 77.1782 324.224V339.088H70.4482Z" fill="#FFFDD0"/>
<path d="M127.804 339.669C126.158 339.669 124.641 339.346 123.253 338.7C121.897 338.023 120.8 337.006 119.961 335.65H119.622L119.089 339.088H113.57V304.082H120.3V316.429H120.59C121.107 315.686 121.736 315.057 122.478 314.54C123.221 314.024 124.06 313.653 124.996 313.427C125.932 313.168 126.949 313.039 128.046 313.039C130.048 313.039 131.791 313.507 133.275 314.443C134.793 315.379 135.971 316.832 136.81 318.801C137.649 320.738 138.069 323.239 138.069 326.306C138.069 329.372 137.649 331.89 136.81 333.859C136.003 335.828 134.825 337.296 133.275 338.265C131.758 339.201 129.935 339.669 127.804 339.669ZM125.722 334.149C127.078 334.149 128.143 333.891 128.918 333.375C129.725 332.826 130.306 332.019 130.661 330.954C131.016 329.888 131.194 328.549 131.194 326.935V325.821C131.194 324.208 131.016 322.868 130.661 321.803C130.306 320.705 129.725 319.898 128.918 319.382C128.143 318.833 127.078 318.559 125.722 318.559C124.754 318.559 123.931 318.736 123.253 319.091C122.575 319.414 122.01 319.898 121.559 320.544C121.139 321.157 120.816 321.932 120.59 322.868C120.364 323.804 120.251 324.837 120.251 325.967V326.838C120.251 328.355 120.445 329.663 120.832 330.76C121.22 331.857 121.817 332.697 122.624 333.278C123.431 333.859 124.464 334.149 125.722 334.149Z" fill="#FFFDD0"/>
<path d="M143.027 339.088V304.082H149.757V339.088H143.027Z" fill="#FFFDD0"/>
<path d="M167.506 339.669C164.698 339.669 162.342 339.201 160.437 338.265C158.533 337.296 157.097 335.828 156.128 333.859C155.16 331.89 154.676 329.388 154.676 326.354C154.676 323.288 155.16 320.786 156.128 318.849C157.097 316.88 158.517 315.428 160.389 314.492C162.293 313.523 164.617 313.039 167.361 313.039C169.943 313.039 172.122 313.507 173.897 314.443C175.673 315.347 177.012 316.767 177.916 318.704C178.82 320.609 179.272 323.078 179.272 326.112V327.855H161.503C161.567 329.34 161.793 330.599 162.18 331.632C162.6 332.664 163.23 333.439 164.069 333.956C164.94 334.44 166.086 334.682 167.506 334.682C168.281 334.682 168.975 334.585 169.588 334.391C170.234 334.198 170.783 333.907 171.234 333.52C171.686 333.132 172.041 332.648 172.3 332.067C172.558 331.486 172.687 330.825 172.687 330.082H179.272C179.272 331.696 178.981 333.1 178.4 334.294C177.819 335.489 177.012 336.489 175.979 337.296C174.946 338.071 173.704 338.668 172.251 339.088C170.831 339.475 169.249 339.669 167.506 339.669ZM161.599 323.594H172.348C172.348 322.626 172.219 321.787 171.961 321.077C171.735 320.366 171.412 319.785 170.992 319.334C170.573 318.882 170.056 318.559 169.443 318.365C168.862 318.139 168.2 318.026 167.458 318.026C166.231 318.026 165.198 318.236 164.359 318.656C163.552 319.043 162.923 319.656 162.471 320.496C162.051 321.303 161.761 322.335 161.599 323.594Z" fill="#FFFDD0"/>
<path d="M24.3805 294.882V266.193H13V262.985H39.5544V266.193H28.0803V294.882H24.3805Z" fill="#FFFDD0"/>
<path d="M43.5649 294.882V261.264H46.9369V273.586H47.2647C47.9516 272.687 48.7009 271.974 49.5127 271.447C50.3245 270.889 51.2143 270.486 52.1822 270.238C53.1501 269.99 54.196 269.866 55.32 269.866C56.8811 269.866 58.2393 270.13 59.3945 270.657C60.5809 271.153 61.502 271.974 62.1576 273.121C62.8133 274.268 63.1411 275.834 63.1411 277.818V294.882H59.7692V278.143C59.7692 277.058 59.6287 276.175 59.3477 275.493C59.0667 274.811 58.6764 274.284 58.1768 273.912C57.6773 273.509 57.0841 273.23 56.3972 273.075C55.7415 272.92 55.0078 272.842 54.196 272.842C52.9471 272.842 51.7607 273.121 50.6367 273.679C49.5439 274.237 48.6541 275.09 47.9672 276.237C47.2803 277.353 46.9369 278.748 46.9369 280.422V294.882H43.5649Z" fill="#FFFDD0"/>
<path d="M79.1925 295.44C76.8196 295.44 74.7902 294.991 73.1042 294.092C71.4494 293.162 70.1849 291.752 69.3107 289.861C68.4677 287.97 68.0462 285.567 68.0462 282.653C68.0462 279.709 68.4677 277.306 69.3107 275.446C70.1849 273.555 71.4494 272.16 73.1042 271.261C74.7902 270.331 76.8196 269.866 79.1925 269.866C81.6278 269.866 83.6573 270.331 85.2808 271.261C86.9356 272.16 88.1845 273.555 89.0275 275.446C89.9017 277.306 90.3388 279.709 90.3388 282.653C90.3388 285.567 89.9017 287.97 89.0275 289.861C88.1845 291.752 86.9356 293.162 85.2808 294.092C83.6573 294.991 81.6278 295.44 79.1925 295.44ZM79.1925 292.604C80.8473 292.604 82.2367 292.279 83.3606 291.628C84.4846 290.977 85.3433 289.969 85.9365 288.605C86.5297 287.21 86.8263 285.412 86.8263 283.211V282.095C86.8263 279.895 86.5297 278.112 85.9365 276.748C85.3433 275.353 84.4846 274.33 83.3606 273.679C82.2367 273.028 80.8473 272.703 79.1925 272.703C77.5377 272.703 76.1483 273.028 75.0243 273.679C73.9003 274.33 73.0417 275.353 72.4485 276.748C71.8553 278.112 71.5587 279.895 71.5587 282.095V283.211C71.5587 285.412 71.8553 287.21 72.4485 288.605C73.0417 289.969 73.9003 290.977 75.0243 291.628C76.1483 292.279 77.5377 292.604 79.1925 292.604Z" fill="#FFFDD0"/>
<path d="M95.4747 294.882V270.424H98.1442L98.472 274.284H98.7999C99.4867 273.168 100.236 272.3 101.048 271.68C101.86 271.029 102.749 270.564 103.717 270.285C104.685 270.006 105.716 269.866 106.808 269.866C108.463 269.866 109.884 270.207 111.07 270.889C112.257 271.54 113.1 272.672 113.599 274.284H113.88C114.536 273.199 115.27 272.346 116.081 271.726C116.893 271.075 117.783 270.61 118.751 270.331C119.75 270.021 120.796 269.866 121.889 269.866C123.356 269.866 124.652 270.114 125.776 270.61C126.9 271.106 127.774 271.928 128.398 273.075C129.054 274.222 129.382 275.772 129.382 277.725V294.882H126.01V278.097C126.01 277.043 125.869 276.175 125.588 275.493C125.339 274.78 124.98 274.237 124.511 273.865C124.043 273.493 123.497 273.23 122.872 273.075C122.248 272.92 121.576 272.842 120.858 272.842C119.672 272.842 118.563 273.152 117.533 273.772C116.534 274.361 115.707 275.214 115.051 276.33C114.427 277.446 114.114 278.81 114.114 280.422V294.882H110.742V278.097C110.742 277.043 110.617 276.175 110.368 275.493C110.118 274.78 109.759 274.237 109.29 273.865C108.822 273.493 108.276 273.23 107.651 273.075C107.058 272.92 106.418 272.842 105.731 272.842C104.545 272.842 103.421 273.152 102.359 273.772C101.329 274.361 100.486 275.214 99.8302 276.33C99.1745 277.446 98.8467 278.81 98.8467 280.422V294.882H95.4747Z" fill="#FFFDD0"/>
<path d="M141.857 295.44C140.889 295.44 139.937 295.316 139 295.068C138.064 294.851 137.221 294.495 136.471 293.999C135.753 293.472 135.176 292.775 134.738 291.907C134.301 291.039 134.083 289.969 134.083 288.698C134.083 287.024 134.489 285.66 135.3 284.606C136.143 283.521 137.314 282.684 138.813 282.095C140.312 281.476 142.076 281.057 144.105 280.84C146.166 280.623 148.398 280.515 150.802 280.515V277.399C150.802 276.407 150.615 275.57 150.24 274.888C149.897 274.175 149.272 273.633 148.367 273.261C147.493 272.858 146.244 272.656 144.62 272.656C143.059 272.656 141.826 272.858 140.92 273.261C140.015 273.664 139.375 274.191 139 274.842C138.657 275.462 138.485 276.159 138.485 276.934V277.678H135.254C135.222 277.523 135.207 277.368 135.207 277.213C135.207 277.058 135.207 276.872 135.207 276.655C135.207 275.105 135.613 273.834 136.424 272.842C137.236 271.85 138.391 271.106 139.89 270.61C141.389 270.114 143.106 269.866 145.042 269.866C147.009 269.866 148.664 270.161 150.006 270.75C151.349 271.308 152.379 272.114 153.097 273.168C153.815 274.222 154.174 275.493 154.174 276.981V291.023C154.174 291.612 154.284 292.031 154.502 292.279C154.752 292.496 155.08 292.604 155.486 292.604H157.453V294.743C156.984 294.929 156.485 295.084 155.954 295.208C155.454 295.332 154.924 295.394 154.362 295.394C153.55 295.394 152.894 295.223 152.395 294.882C151.926 294.542 151.583 294.061 151.364 293.441C151.177 292.821 151.052 292.139 150.99 291.395H150.662C150.069 292.232 149.304 292.961 148.367 293.581C147.461 294.17 146.462 294.619 145.37 294.929C144.277 295.27 143.106 295.44 141.857 295.44ZM142.56 292.604C143.59 292.604 144.589 292.434 145.557 292.093C146.525 291.752 147.399 291.287 148.18 290.698C148.96 290.078 149.585 289.349 150.053 288.512C150.552 287.675 150.802 286.745 150.802 285.722V283.211C147.899 283.211 145.463 283.366 143.496 283.676C141.561 283.986 140.093 284.529 139.094 285.304C138.126 286.079 137.642 287.164 137.642 288.559C137.642 289.489 137.845 290.264 138.251 290.884C138.688 291.473 139.281 291.907 140.031 292.186C140.78 292.465 141.623 292.604 142.56 292.604Z" fill="#FFFDD0"/>
<path d="M169.164 295.44C167.54 295.44 166.104 295.27 164.855 294.929C163.606 294.619 162.56 294.154 161.717 293.534C160.906 292.883 160.281 292.108 159.844 291.209C159.438 290.31 159.235 289.272 159.235 288.094C159.235 287.97 159.235 287.846 159.235 287.722C159.235 287.567 159.251 287.427 159.282 287.303H162.607C162.576 287.458 162.56 287.598 162.56 287.722C162.56 287.815 162.56 287.908 162.56 288.001C162.592 289.21 162.888 290.155 163.45 290.837C164.012 291.488 164.808 291.953 165.839 292.232C166.869 292.511 168.055 292.651 169.398 292.651C170.553 292.651 171.584 292.496 172.489 292.186C173.426 291.845 174.159 291.364 174.69 290.744C175.252 290.124 175.533 289.365 175.533 288.466C175.533 287.319 175.174 286.451 174.456 285.862C173.769 285.273 172.864 284.823 171.74 284.513C170.616 284.172 169.445 283.816 168.227 283.444C167.228 283.165 166.245 282.87 165.277 282.56C164.309 282.219 163.419 281.801 162.607 281.305C161.827 280.809 161.202 280.174 160.734 279.399C160.265 278.624 160.031 277.647 160.031 276.469C160.031 275.446 160.234 274.532 160.64 273.726C161.077 272.92 161.686 272.238 162.467 271.68C163.278 271.091 164.262 270.641 165.417 270.331C166.572 270.021 167.884 269.866 169.351 269.866C170.975 269.866 172.364 270.052 173.519 270.424C174.675 270.796 175.611 271.308 176.329 271.959C177.047 272.579 177.578 273.292 177.922 274.098C178.265 274.873 178.437 275.694 178.437 276.562C178.437 276.686 178.421 276.826 178.39 276.981C178.39 277.136 178.39 277.275 178.39 277.399H175.065V276.795C175.065 276.144 174.893 275.508 174.55 274.888C174.237 274.268 173.66 273.741 172.817 273.307C172.005 272.873 170.787 272.656 169.164 272.656C168.196 272.656 167.353 272.749 166.635 272.935C165.948 273.09 165.355 273.323 164.855 273.633C164.387 273.943 164.028 274.33 163.778 274.795C163.559 275.229 163.45 275.741 163.45 276.33C163.45 277.229 163.731 277.926 164.293 278.422C164.886 278.887 165.651 279.275 166.588 279.585C167.525 279.864 168.524 280.174 169.585 280.515C170.647 280.825 171.724 281.15 172.817 281.491C173.941 281.832 174.971 282.25 175.908 282.746C176.844 283.242 177.594 283.909 178.156 284.746C178.718 285.552 178.999 286.621 178.999 287.954C178.999 289.194 178.749 290.295 178.249 291.256C177.75 292.186 177.063 292.961 176.189 293.581C175.315 294.201 174.269 294.666 173.051 294.975C171.865 295.285 170.569 295.44 169.164 295.44Z" fill="#FFFDD0"/>
</svg>
