<svg width="500" height="500" viewBox="0 0 500 500" fill="none" xmlns="http://www.w3.org/2000/svg">
<path d="M40.3548 226.898V157.143H13V141.601H86.4849V157.143H59.0058V226.898H40.3548Z" fill="#FFFDD0"/>
<path d="M97.5045 226.898V137H114.788V168.707H115.658C117.067 166.966 118.725 165.474 120.632 164.23C122.621 162.904 124.818 161.868 127.222 161.122C129.709 160.376 132.403 160.003 135.304 160.003C139.614 160.003 143.386 160.79 146.619 162.365C149.852 163.94 152.338 166.427 154.079 169.826C155.903 173.224 156.815 177.659 156.815 183.13V226.898H139.531V185.866C139.531 183.793 139.283 182.053 138.785 180.643C138.288 179.151 137.542 177.949 136.547 177.037C135.635 176.043 134.475 175.338 133.066 174.924C131.657 174.509 130.082 174.302 128.341 174.302C125.771 174.302 123.45 174.924 121.378 176.167C119.305 177.41 117.689 179.11 116.529 181.265C115.368 183.42 114.788 185.907 114.788 188.725V226.898H97.5045Z" fill="#FFFDD0"/>
<path d="M202.393 228.39C195.264 228.39 189.213 227.188 184.239 224.784C179.266 222.297 175.494 218.526 172.924 213.469C170.355 208.33 169.07 201.905 169.07 194.196C169.07 186.322 170.355 179.897 172.924 174.924C175.494 169.867 179.266 166.137 184.239 163.733C189.213 161.246 195.264 160.003 202.393 160.003C209.688 160.003 215.78 161.246 220.671 163.733C225.645 166.137 229.416 169.867 231.986 174.924C234.556 179.897 235.841 186.322 235.841 194.196C235.841 201.905 234.556 208.33 231.986 213.469C229.416 218.526 225.645 222.297 220.671 224.784C215.78 227.188 209.688 228.39 202.393 228.39ZM202.393 214.961C206.206 214.961 209.232 214.257 211.47 212.847C213.791 211.438 215.49 209.283 216.568 206.382C217.645 203.48 218.184 199.916 218.184 195.688V192.704C218.184 188.477 217.645 184.912 216.568 182.011C215.49 179.11 213.791 176.955 211.47 175.545C209.232 174.053 206.206 173.307 202.393 173.307C198.663 173.307 195.637 174.053 193.316 175.545C191.078 176.955 189.42 179.11 188.343 182.011C187.265 184.912 186.726 188.477 186.726 192.704V195.688C186.726 199.916 187.265 203.48 188.343 206.382C189.42 209.283 191.078 211.438 193.316 212.847C195.637 214.257 198.663 214.961 202.393 214.961Z" fill="#FFFDD0"/>
<path d="M248.558 226.898V161.495H262.857L264.225 170.447H265.095C266.505 168.292 268.162 166.427 270.069 164.852C272.058 163.277 274.255 162.075 276.659 161.246C279.146 160.417 281.798 160.003 284.617 160.003C288.761 160.003 292.326 160.832 295.31 162.49C298.377 164.148 300.74 166.8 302.397 170.447H303.268C304.677 168.292 306.376 166.427 308.366 164.852C310.355 163.277 312.635 162.075 315.204 161.246C317.774 160.417 320.51 160.003 323.411 160.003C327.556 160.003 331.12 160.749 334.104 162.241C337.171 163.733 339.575 166.178 341.316 169.577C343.057 172.893 343.927 177.203 343.927 182.508V226.898H326.644V185.617C326.644 183.545 326.395 181.804 325.898 180.395C325.483 178.903 324.861 177.742 324.033 176.913C323.204 176.001 322.167 175.338 320.924 174.924C319.681 174.509 318.354 174.302 316.945 174.302C314.624 174.302 312.552 174.924 310.728 176.167C308.904 177.41 307.454 179.11 306.376 181.265C305.382 183.42 304.884 185.907 304.884 188.725V226.898H287.601V185.617C287.601 183.545 287.352 181.804 286.855 180.395C286.44 178.903 285.819 177.742 284.99 176.913C284.161 176.001 283.125 175.338 281.881 174.924C280.721 174.509 279.394 174.302 277.902 174.302C275.664 174.302 273.592 174.924 271.685 176.167C269.862 177.41 268.411 179.11 267.334 181.265C266.339 183.42 265.841 185.907 265.841 188.725V226.898H248.558Z" fill="#FFFDD0"/>
<path d="M376.582 228.39C374.426 228.39 372.105 228.141 369.619 227.644C367.215 227.146 364.935 226.276 362.78 225.033C360.625 223.706 358.843 221.841 357.433 219.437C356.107 216.951 355.444 213.801 355.444 209.988C355.444 205.428 356.439 201.657 358.428 198.673C360.418 195.688 363.236 193.367 366.883 191.71C370.613 189.969 375.048 188.767 380.188 188.104C385.327 187.441 391.005 187.109 397.222 187.109V182.26C397.222 180.353 396.891 178.695 396.227 177.286C395.647 175.877 394.57 174.758 392.995 173.929C391.503 173.1 389.389 172.686 386.653 172.686C383.918 172.686 381.68 173.017 379.939 173.68C378.281 174.343 377.079 175.214 376.333 176.291C375.67 177.286 375.338 178.405 375.338 179.649V181.141H358.552C358.47 180.726 358.428 180.353 358.428 180.022C358.428 179.607 358.428 179.11 358.428 178.53C358.428 174.716 359.589 171.442 361.91 168.707C364.231 165.888 367.505 163.733 371.732 162.241C375.96 160.749 380.892 160.003 386.529 160.003C392.58 160.003 397.637 160.79 401.698 162.365C405.843 163.94 408.993 166.261 411.148 169.328C413.386 172.395 414.505 176.25 414.505 180.892V210.609C414.505 212.101 414.92 213.22 415.749 213.966C416.661 214.63 417.655 214.961 418.733 214.961H422.836V226.276C422.007 226.691 420.722 227.105 418.982 227.519C417.241 228.017 415.127 228.266 412.64 228.266C410.236 228.266 408.081 227.893 406.175 227.146C404.351 226.483 402.817 225.53 401.574 224.287C400.331 222.96 399.46 221.385 398.963 219.562H398.093C396.683 221.302 394.943 222.836 392.87 224.162C390.881 225.489 388.518 226.525 385.783 227.271C383.13 228.017 380.063 228.39 376.582 228.39ZM382.426 215.334C384.747 215.334 386.819 215.003 388.643 214.339C390.466 213.593 392 212.64 393.243 211.48C394.487 210.236 395.44 208.744 396.103 207.003C396.849 205.263 397.222 203.398 397.222 201.408V197.802C392.58 197.802 388.435 198.134 384.788 198.797C381.141 199.377 378.24 200.413 376.084 201.905C374.012 203.398 372.976 205.47 372.976 208.122C372.976 209.615 373.349 210.899 374.095 211.977C374.841 213.055 375.919 213.884 377.328 214.464C378.737 215.044 380.436 215.334 382.426 215.334Z" fill="#FFFDD0"/>
<path d="M457.91 228.39C453.351 228.39 449.247 227.893 445.6 226.898C441.953 225.903 438.844 224.535 436.275 222.795C433.705 220.971 431.715 218.816 430.306 216.329C428.98 213.842 428.317 211.024 428.317 207.874C428.317 207.542 428.317 207.211 428.317 206.879C428.317 206.547 428.358 206.299 428.441 206.133H445.103C445.103 206.299 445.103 206.465 445.103 206.63C445.103 206.796 445.103 206.962 445.103 207.128C445.186 209.2 445.849 210.899 447.092 212.226C448.336 213.469 449.952 214.381 451.941 214.961C454.014 215.541 456.169 215.832 458.407 215.832C460.397 215.832 462.303 215.666 464.127 215.334C466.033 214.92 467.608 214.215 468.852 213.22C470.178 212.226 470.841 210.941 470.841 209.366C470.841 207.376 470.012 205.843 468.354 204.765C466.779 203.688 464.666 202.817 462.013 202.154C459.443 201.491 456.625 200.745 453.558 199.916C450.739 199.253 447.921 198.507 445.103 197.678C442.284 196.766 439.715 195.606 437.394 194.196C435.156 192.787 433.332 190.964 431.923 188.725C430.514 186.404 429.809 183.503 429.809 180.022C429.809 176.623 430.555 173.68 432.047 171.193C433.539 168.624 435.57 166.51 438.14 164.852C440.792 163.194 443.859 161.992 447.341 161.246C450.905 160.417 454.718 160.003 458.78 160.003C462.593 160.003 466.158 160.417 469.473 161.246C472.789 161.992 475.69 163.153 478.177 164.728C480.664 166.22 482.612 168.126 484.021 170.447C485.43 172.686 486.135 175.214 486.135 178.032C486.135 178.612 486.135 179.151 486.135 179.649C486.135 180.146 486.093 180.478 486.011 180.643H469.473V179.649C469.473 178.157 469.017 176.913 468.106 175.918C467.194 174.841 465.868 174.012 464.127 173.432C462.469 172.851 460.438 172.561 458.034 172.561C456.376 172.561 454.843 172.686 453.434 172.934C452.107 173.183 450.947 173.556 449.952 174.053C448.957 174.551 448.17 175.172 447.59 175.918C447.092 176.582 446.843 177.41 446.843 178.405C446.843 179.814 447.424 180.975 448.584 181.887C449.828 182.716 451.444 183.42 453.434 184.001C455.423 184.581 457.62 185.202 460.024 185.866C463.008 186.695 466.116 187.523 469.349 188.352C472.665 189.098 475.732 190.135 478.55 191.461C481.369 192.787 483.648 194.694 485.389 197.181C487.13 199.584 488 202.859 488 207.003C488 210.982 487.213 214.339 485.638 217.075C484.145 219.81 482.032 222.007 479.296 223.665C476.561 225.323 473.369 226.525 469.722 227.271C466.075 228.017 462.137 228.39 457.91 228.39Z" fill="#FFFDD0"/>
<path d="M86.6112 361.185V275.888H105.138V314.682L141.445 275.888H164.324L131.747 310.579L164.945 361.185H142.813L118.94 323.386L105.138 335.82V361.185H86.6112Z" fill="#FFFDD0"/>
<path d="M175.217 286.208V271.287H192.5V286.208H175.217ZM175.217 361.185V295.782H192.5V361.185H175.217Z" fill="#FFFDD0"/>
<path d="M208.366 361.185V295.782H222.665L224.033 304.735H224.903C226.313 302.579 227.971 300.714 229.877 299.139C231.866 297.564 234.063 296.362 236.467 295.533C238.954 294.705 241.606 294.29 244.425 294.29C248.569 294.29 252.134 295.119 255.118 296.777C258.185 298.435 260.548 301.087 262.205 304.735H263.076C264.485 302.579 266.184 300.714 268.174 299.139C270.163 297.564 272.443 296.362 275.012 295.533C277.582 294.705 280.318 294.29 283.219 294.29C287.364 294.29 290.928 295.036 293.912 296.528C296.979 298.02 299.383 300.466 301.124 303.864C302.865 307.18 303.735 311.49 303.735 316.796V361.185H286.452V319.904C286.452 317.832 286.203 316.091 285.706 314.682C285.291 313.19 284.67 312.029 283.841 311.2C283.012 310.288 281.976 309.625 280.732 309.211C279.489 308.796 278.162 308.589 276.753 308.589C274.432 308.589 272.36 309.211 270.536 310.454C268.713 311.698 267.262 313.397 266.184 315.552C265.19 317.707 264.692 320.194 264.692 323.013V361.185H247.409V319.904C247.409 317.832 247.16 316.091 246.663 314.682C246.248 313.19 245.627 312.029 244.798 311.2C243.969 310.288 242.933 309.625 241.689 309.211C240.529 308.796 239.203 308.589 237.71 308.589C235.472 308.589 233.4 309.211 231.493 310.454C229.67 311.698 228.219 313.397 227.142 315.552C226.147 317.707 225.65 320.194 225.65 323.013V361.185H208.366Z" fill="#FFFDD0"/>
<path d="M355.662 362.677C351.435 362.677 347.539 361.848 343.975 360.19C340.493 358.449 337.675 355.838 335.519 352.357H334.649L333.281 361.185H319.107V271.287H336.39V302.994H337.136C338.462 301.087 340.079 299.471 341.985 298.145C343.892 296.818 346.047 295.865 348.451 295.285C350.855 294.622 353.466 294.29 356.284 294.29C361.424 294.29 365.9 295.492 369.713 297.896C373.609 300.3 376.634 304.03 378.79 309.087C380.945 314.06 382.023 320.484 382.023 328.359C382.023 336.234 380.945 342.7 378.79 347.756C376.717 352.813 373.692 356.584 369.713 359.071C365.817 361.475 361.133 362.677 355.662 362.677ZM350.316 348.502C353.797 348.502 356.533 347.839 358.522 346.513C360.595 345.104 362.087 343.031 362.999 340.296C363.91 337.56 364.366 334.12 364.366 329.976V327.116C364.366 322.971 363.91 319.531 362.999 316.796C362.087 313.977 360.595 311.905 358.522 310.579C356.533 309.169 353.797 308.465 350.316 308.465C347.829 308.465 345.715 308.921 343.975 309.833C342.234 310.661 340.783 311.905 339.623 313.563C338.545 315.138 337.716 317.127 337.136 319.531C336.556 321.935 336.265 324.588 336.265 327.489V329.727C336.265 333.623 336.763 336.98 337.758 339.798C338.752 342.617 340.286 344.772 342.358 346.264C344.43 347.756 347.083 348.502 350.316 348.502Z" fill="#FFFDD0"/>
<path d="M394.755 361.185V271.287H412.038V361.185H394.755Z" fill="#FFFDD0"/>
<path d="M457.621 362.677C450.41 362.677 444.358 361.475 439.468 359.071C434.577 356.584 430.888 352.813 428.401 347.756C425.915 342.7 424.671 336.275 424.671 328.484C424.671 320.609 425.915 314.184 428.401 309.211C430.888 304.154 434.535 300.424 439.343 298.02C444.234 295.533 450.202 294.29 457.248 294.29C463.88 294.29 469.475 295.492 474.034 297.896C478.593 300.217 482.033 303.864 484.354 308.838C486.675 313.729 487.836 320.07 487.836 327.862V332.338H442.203C442.369 336.151 442.949 339.384 443.944 342.037C445.021 344.689 446.638 346.679 448.793 348.005C451.031 349.248 453.974 349.87 457.621 349.87C459.611 349.87 461.393 349.621 462.968 349.124C464.626 348.627 466.035 347.881 467.195 346.886C468.356 345.891 469.268 344.648 469.931 343.156C470.594 341.664 470.926 339.964 470.926 338.058H487.836C487.836 342.202 487.09 345.808 485.598 348.875C484.106 351.942 482.033 354.512 479.381 356.584C476.728 358.574 473.537 360.107 469.807 361.185C466.159 362.18 462.097 362.677 457.621 362.677ZM442.452 321.396H470.055C470.055 318.909 469.724 316.754 469.061 314.93C468.48 313.107 467.651 311.615 466.574 310.454C465.496 309.294 464.17 308.465 462.595 307.967C461.103 307.387 459.403 307.097 457.497 307.097C454.347 307.097 451.694 307.636 449.539 308.713C447.467 309.708 445.85 311.283 444.69 313.438C443.612 315.511 442.866 318.163 442.452 321.396Z" fill="#FFFDD0"/>
</svg>
