<svg width="500" height="500" viewBox="0 0 500 500" fill="none" xmlns="http://www.w3.org/2000/svg">
<path d="M307.314 156.872V249.423M307.314 249.423V342.901M307.314 249.423H374.877M374.877 249.423L426.706 157.797M374.877 249.423H386.909L430.408 342.901M264.741 368.815V130.957C264.741 123.801 270.542 118 277.698 118H336.665C343.821 118 349.622 123.801 349.622 130.957V208.821C349.622 210.71 352.119 211.385 353.072 209.754L401.309 127.174C404.628 121.493 410.713 118 417.293 118H479.913C485.551 118 489.121 124.05 486.394 128.984L423.949 242.019L487.235 371.109C489.647 376.028 486.066 381.772 480.587 381.772H418.616C411.342 381.772 404.743 377.513 401.748 370.885L363.771 286.851H349.622V368.815C349.622 375.971 343.821 381.772 336.665 381.772H277.698C270.542 381.772 264.741 375.971 264.741 368.815Z" stroke="#FFFDD0" stroke-width="4" stroke-linecap="round" stroke-linejoin="round"/>
<path d="M50.0207 155.021H127.764M127.764 155.021H205.507M127.764 155.021L127.631 344.752M157.115 381.772H98.1475C90.9914 381.772 85.1903 375.971 85.1903 368.815V192.041H25.9572C18.8011 192.041 13 186.24 13 179.084V130.957C13 123.801 18.8011 118 25.9572 118H229.571C236.727 118 242.528 123.801 242.528 130.957V179.084C242.528 186.24 236.727 192.041 229.571 192.041H170.072V368.815C170.072 375.971 164.271 381.772 157.115 381.772Z" stroke="#FFFDD0" stroke-width="4" stroke-linecap="round" stroke-linejoin="round"/>
</svg>
