<svg width="500" height="500" viewBox="0 0 500 500" fill="none" xmlns="http://www.w3.org/2000/svg">
<path d="M242 176.358H252.254C258.861 176.358 264.216 171.002 264.216 164.395V132.985L282.842 114.094C281.864 115.828 281.306 117.83 281.306 119.963V339.563C281.306 346.17 286.662 351.526 293.269 351.526H347.71C354.317 351.526 359.672 346.17 359.672 339.563V263.89H372.735L407.797 341.474C410.562 347.593 416.655 351.526 423.37 351.526H480.584C485.643 351.526 488.949 346.223 486.722 341.681L428.294 222.5L485.946 118.141C488.463 113.585 485.168 108 479.963 108H480.549L481.808 108.113L482.974 108.435L484.034 108.944L484.973 109.617L485.778 110.431L486.436 111.362L486.934 112.389L487.256 113.487L487.391 114.635L487.325 115.808L487.043 116.985L486.533 118.141L428.881 222.5L487.309 341.681L487.752 342.829L487.978 343.987L488 345.135L487.831 346.252L487.484 347.316L486.971 348.307L486.307 349.203L445.881 389.052L445.081 389.83L444.155 390.472L443.118 390.956L441.981 391.263L440.758 391.369H383.693L382.033 391.288L380.409 391.05L378.829 390.661L377.303 390.126L375.84 389.452L374.45 388.645L373.142 387.711L371.925 386.655L370.81 385.485L369.804 384.205L368.918 382.823L368.161 381.344L354.234 350.528L316.667 387.875L315.521 388.883L314.252 389.74L312.875 390.432L311.402 390.943L309.849 391.26L308.23 391.369H253.931L252.312 391.26L250.76 390.943L249.287 390.432L247.909 389.74L246.64 388.883L245.495 387.875L244.486 386.729L243.629 385.46L242.938 384.082L242.426 382.61L242.109 381.057L242 379.438V176.358Z" fill="#FFFDD0"/>
<path d="M370.494 153.4L407.682 115.992C407.583 116.15 407.486 116.309 407.392 116.47L362.857 192.712C361.977 194.217 359.672 193.594 359.672 191.85V119.963C359.672 113.356 354.317 108 347.71 108H348.296L349.919 108.109L351.476 108.427L352.952 108.94L354.334 109.633L355.606 110.493L356.755 111.504L357.766 112.653L358.625 113.925L359.318 115.306L359.831 116.782L360.149 118.339L360.259 119.963V169.763L367.757 156.927L368.573 155.662L369.488 154.485L370.494 153.4Z" fill="#FFFDD0"/>
<path d="M242 176.358H252.254C258.861 176.358 264.216 171.002 264.216 164.395V132.985L282.842 114.094C281.864 115.828 281.306 117.83 281.306 119.963V339.563C281.306 346.17 286.662 351.526 293.269 351.526H347.71C354.317 351.526 359.672 346.17 359.672 339.563V263.89H372.735L407.797 341.474C410.562 347.593 416.655 351.526 423.37 351.526H480.584C485.643 351.526 488.949 346.223 486.722 341.681L428.294 222.5L485.946 118.141C488.463 113.585 485.168 108 479.963 108H480.549L481.808 108.113L482.974 108.435L484.034 108.944L484.973 109.617L485.778 110.431L486.436 111.362L486.934 112.389L487.256 113.487L487.391 114.635L487.325 115.808L487.043 116.985L486.533 118.141L428.881 222.5L487.309 341.681L487.752 342.829L487.978 343.987L488 345.135L487.831 346.252L487.484 347.316L486.971 348.307L486.307 349.203L445.881 389.052L445.081 389.83L444.155 390.472L443.118 390.956L441.981 391.263L440.758 391.369H383.693L382.033 391.288L380.409 391.05L378.829 390.661L377.303 390.126L375.84 389.452L374.45 388.645L373.142 387.711L371.925 386.655L370.81 385.485L369.804 384.205L368.918 382.823L368.161 381.344L354.234 350.528L316.667 387.875L315.521 388.883L314.252 389.74L312.875 390.432L311.402 390.943L309.849 391.26L308.23 391.369H253.931L252.312 391.26L250.76 390.943L249.287 390.432L247.909 389.74L246.64 388.883L245.495 387.875L244.486 386.729L243.629 385.46L242.938 384.082L242.426 382.61L242.109 381.057L242 379.438V176.358Z" stroke="#FFFDD0" stroke-width="4" stroke-linejoin="round"/>
<path d="M370.494 153.4L407.682 115.992C407.583 116.15 407.486 116.309 407.392 116.47L362.857 192.712C361.977 194.217 359.672 193.594 359.672 191.85V119.963C359.672 113.356 354.317 108 347.71 108H348.296L349.919 108.109L351.476 108.427L352.952 108.94L354.334 109.633L355.606 110.493L356.755 111.504L357.766 112.653L358.625 113.925L359.318 115.306L359.831 116.782L360.149 118.339L360.259 119.963V169.763L367.757 156.927L368.573 155.662L369.488 154.485L370.494 153.4Z" stroke="#FFFDD0" stroke-width="4" stroke-linejoin="round"/>
<path d="M281.306 119.963V339.563C281.306 346.17 286.662 351.526 293.268 351.526H347.709C354.316 351.526 359.672 346.17 359.672 339.563V263.89H372.735L407.797 341.474C410.562 347.593 416.655 351.526 423.37 351.526H480.584C485.642 351.526 488.949 346.223 486.722 341.681L428.294 222.5L485.946 118.141C488.463 113.585 485.168 108 479.963 108H422.148C416.074 108 410.456 111.225 407.392 116.47L362.857 192.712C361.977 194.217 359.672 193.594 359.672 191.85V119.963C359.672 113.356 354.316 108 347.709 108H293.268C286.662 108 281.306 113.356 281.306 119.963Z" stroke="#FFFDD0" stroke-width="4" stroke-linejoin="round"/>
<path d="M252.254 108C258.86 108 264.216 113.356 264.216 119.963V164.395C264.216 171.002 258.86 176.358 252.254 176.358H197.322V339.563C197.322 346.17 191.966 351.526 185.359 351.526H130.918C124.311 351.526 118.955 346.17 118.955 339.563V176.358H64.2686C57.6618 176.358 52.3059 171.002 52.3059 164.395V119.963C52.3059 117.823 52.8676 115.815 53.8515 114.077L16.4947 151.974L15.486 153.12L14.629 154.389L13.9376 155.766L13.4262 157.239L13.1089 158.792L13 160.411V204.727L13.1089 206.346L13.4262 207.899L13.9376 209.372L14.629 210.749L15.486 212.018L16.4947 213.164L17.6405 214.173L18.9094 215.03L20.2872 215.721L21.7596 216.233L23.3124 216.55L24.9314 216.659H79.4752V379.438L79.5841 381.057L79.9014 382.61L80.4128 384.082L81.1042 385.46L81.9613 386.729L82.9698 387.875L84.1156 388.883L85.3846 389.74L86.7624 390.432L88.2348 390.943L89.7876 391.26L91.4066 391.369H145.706L147.325 391.26L148.878 390.943L150.35 390.432L151.728 389.74L152.997 388.883L154.142 387.875L194.396 348.022L195.407 346.873L196.267 345.601L196.96 344.22L197.473 342.744L197.791 341.187L197.9 339.563V216.659H212.425L214.045 216.55L215.597 216.233L217.07 215.721L218.448 215.03L219.716 214.173L220.862 213.164L261.291 172.854L262.302 171.705L263.162 170.433L263.855 169.052L264.368 167.576L264.686 166.019L264.795 164.395V119.963L264.686 118.339L264.368 116.782L263.855 115.306L263.162 113.925L262.302 112.653L261.291 111.504L260.142 110.493L258.87 109.633L257.489 108.94L256.012 108.427L254.455 108.109L252.832 108H252.254Z" fill="#FFFDD0" stroke="#FFFDD0" stroke-width="4" stroke-linejoin="round"/>
<path d="M130.918 351.526H185.359C191.966 351.526 197.322 346.17 197.322 339.563V176.358H252.254C258.861 176.358 264.216 171.002 264.216 164.395V119.963C264.216 113.356 258.861 108 252.254 108H64.2688C57.662 108 52.3062 113.356 52.3062 119.963V164.395C52.3062 171.002 57.662 176.358 64.2688 176.358H118.955V339.563C118.955 346.17 124.311 351.526 130.918 351.526Z" stroke="#FFFDD0" stroke-width="4" stroke-linejoin="round"/>
</svg>
