<svg width="500" height="500" viewBox="0 0 500 500" fill="none" xmlns="http://www.w3.org/2000/svg">
<path d="M328.352 417.935C341.581 417.935 358.052 414.373 371 414.373C382.286 410.235 393.184 409.857 403.513 404.119C406.872 402.252 409.539 399.647 412.908 397.794C420.142 393.815 424.026 385.65 430.593 380.907C440.517 373.74 445.034 363.228 451.593 353.582C456.865 345.83 462.309 335.118 462.646 325.335C462.788 321.245 463.859 313.99 462.094 310.106C460.02 305.545 462.207 299.076 460.988 294.202C458.792 285.416 458.484 273.678 458.24 264.386L458.225 263.807C457.99 254.858 455.63 246.235 454.971 237.341C454.068 225.159 452.242 212.534 449.997 200.559C448.105 190.469 445.04 178.82 439.435 170.102C434.332 162.164 427.626 156.718 420.645 150.513C408.587 139.795 395.167 129.725 381.468 121.223C367.366 112.469 351.257 104.973 334.37 102.862C327.508 102.005 320.176 99.7987 313.431 98.257C307.507 96.903 300.207 97.4458 294.641 94.9411C283.184 89.7856 269.315 92.9761 257.06 92.9761C235.501 92.9761 214.241 99.0512 193.643 104.937L192.953 105.134C176.358 109.876 159.313 113.615 142.969 118.644C129.283 122.855 115.052 135.513 106.371 146.399C97.4605 157.572 87.3241 167.512 79.1068 179.251C75.1496 184.904 72.6218 191.603 69.0976 197.55C58.9258 214.715 50.0244 230.883 43.6757 249.929C40.0485 260.811 36 269.717 36 281.369C36 289.74 38.2106 297.84 38.2106 306.054C38.2106 313.062 38.4512 320.933 41.2809 327.3C44.963 335.585 43.5496 345.195 52.0269 351.064C58.8176 355.765 66.1755 360.791 71.9223 366.538C77.0785 371.694 85.9528 375.338 89.9142 381.46C92.0704 384.792 96.6926 386.887 99.5548 389.75C102.094 392.289 104.677 395.502 107.845 397.18C116.811 401.926 126.154 405.878 134.924 410.75C141.396 414.346 151.498 413.424 158.566 414.373C172.214 416.207 185.696 417.935 199.523 417.935H226.358C240.227 417.935 254.049 420.145 267.868 420.145C288.238 420.145 308.074 417.935 328.352 417.935Z" fill="#0000FF" stroke="#0000FF" stroke-width="5" stroke-linecap="round"/>
</svg>
