<svg width="500" height="500" viewBox="0 0 500 500" fill="none" xmlns="http://www.w3.org/2000/svg">
<path d="M375.393 111.328C384.801 111.85 396.913 112.797 405.666 116.916C413.47 116.916 427.141 123.743 432.132 129.565C435.663 133.684 439.528 136.144 442.141 141.232C450.303 157.126 458.012 173.417 463.019 190.664C471.499 219.873 470.879 250.699 470.879 280.869C470.879 289.394 465.737 301.146 462.282 308.747C456.637 321.166 457.199 337.227 449.326 348.599C440.188 361.798 429.405 368.5 414.509 375.556C394.64 384.968 375.313 391.173 353.84 396.004C341.449 398.792 330.594 403.948 318.716 407.856C290.657 417.085 263.835 421.253 234.345 426.032C214.264 429.286 194.132 431.097 173.799 429.041C151.014 426.736 129.952 418.543 109.138 409.207C94.0713 402.447 79.7141 393.236 66.3387 383.539C46.7705 369.352 36.8317 356.49 34.2236 331.713C30.7485 298.699 34.0997 264.419 38.7676 231.744C40.2254 221.54 41.5429 210.228 46.1977 200.919C48.2047 196.905 51.7201 193.741 53.9348 189.866C58.453 181.959 64.8062 175.089 70.2073 167.698C82.4654 150.924 94.2864 136.547 110.612 123.486C139.042 100.742 182.514 97.0202 217.519 97.0202C240.37 97.0202 262.227 95.5198 284.943 97.8799C306.365 100.106 327.697 106.936 349.296 108.073C358.103 108.537 366.455 110.831 375.393 111.328Z" fill="#0000FF" stroke="#0000FF" stroke-width="5" stroke-linecap="round"/>
</svg>
