<svg width="500" height="500" viewBox="0 0 500 500" fill="none" xmlns="http://www.w3.org/2000/svg">
<path d="M421.092 163.014C424.607 165.447 432.757 170.696 437.119 171.181C441.542 171.181 446.942 178.681 449.032 182.234C452.087 187.427 456.203 191.541 458.98 197.094C463.757 206.649 462.122 222.872 460.085 232.832C456.857 248.613 454.5 266.21 448.602 281.281C440.527 301.917 432.698 323.077 422.259 342.564C416.681 352.977 412.601 364.308 406.171 374.311C399.734 384.324 394.779 395.896 386.275 404.4C379.948 410.727 372.691 414.76 365.766 420.426C361.406 423.993 355.509 426.139 350.046 427.12C337.387 429.392 324.523 430.927 311.667 430.927C291.256 430.927 270.85 429.822 250.507 429.822C243.993 429.822 236.437 428.097 229.998 427.058C219.762 425.407 209.073 425.879 198.988 423.19C182.537 418.803 165.341 415.781 149.127 411.277C132.122 406.553 114.407 405.36 97.7916 399.426C78.4654 392.524 67.2409 379.188 60.7026 359.573C57.9483 351.311 55.4923 342.692 53.3339 334.274C52.4089 330.667 51.1431 321.22 48.9127 318.432C45.2971 313.912 43.8769 300.856 43.6318 294.729C43.23 284.684 37 274.123 37 263.781C37 255.041 38.1053 246.594 38.1053 238.113C38.1053 222.606 44.4716 207.007 47.5618 191.997C49.9359 180.466 53.999 164.298 61.9307 155.645C67.5903 149.471 75.1214 145.241 82.0717 140.724C98.6353 129.957 117.947 123.221 135.126 113.46C144.863 107.927 156.838 100.184 167.917 98.1696C186.285 94.8299 205.056 95.7139 223.98 94.8537C239.27 94.1587 253.735 93.0842 268.991 95.4678C275.772 96.5274 283.01 95.1587 289.561 97.6784C292.903 98.9634 298.201 99.9428 301.843 100.503C313.794 102.342 325.479 107.703 336.782 111.74C346.292 115.137 356.589 121.45 365.029 126.969C371.911 131.469 379.049 136.762 385.723 141.952C390.27 145.489 394.464 149.488 398.986 153.005C401.838 155.223 405.108 156.292 407.829 158.409C411.091 160.946 417.506 160.531 421.092 163.014Z" fill="#0000FF" stroke="#0000FF" stroke-width="5" stroke-linecap="round"/>
</svg>
