<svg width="500" height="500" viewBox="0 0 500 500" fill="none" xmlns="http://www.w3.org/2000/svg">
<path fill-rule="evenodd" clip-rule="evenodd" d="M395.518 392C391.17 392.001 387.242 392.003 383.099 391.69C382.445 391.641 381.792 391.591 381.138 391.542C368.889 390.621 356.666 389.702 344.507 387.71C338.756 386.768 332.545 386.889 326.466 387.008C323.466 387.067 320.498 387.125 317.633 387.054C313.785 386.959 309.949 386.987 306.117 387.015C298.892 387.067 291.684 387.12 284.451 386.347C276.048 385.45 267.601 385.013 259.151 384.575C248.584 384.028 238.013 383.481 227.524 382.033C222.673 381.364 217.803 381.339 212.925 381.314C207.577 381.287 202.219 381.259 196.864 380.382C193.87 379.892 190.861 379.819 187.848 379.746C184.826 379.673 181.799 379.6 178.776 379.105L166.564 377.105C159.765 375.992 153.625 372.109 147.562 368.276C143.982 366.012 140.429 363.766 136.783 362.116C127.384 357.864 121.597 349.492 116.87 340.738C112.845 333.285 109.985 323.258 108.463 314.879C107.6 310.126 106.037 305.48 104.468 300.811C102.876 296.077 101.277 291.32 100.39 286.405C95.4757 259.173 98.9715 232.55 103.407 205.399C104.007 201.727 105.872 198.477 107.993 195.523C109.986 192.746 112.209 190.548 114.619 188.164L114.685 188.099C115.602 187.193 116.479 185.977 117.381 184.727C118.965 182.53 120.627 180.226 122.717 179.303C124.494 178.519 127.49 174.74 129.19 172.596C129.413 172.315 129.614 172.062 129.786 171.848C130.967 170.381 133.395 168.95 135.599 167.652C136.664 167.025 137.677 166.429 138.471 165.874C142.065 163.363 145.571 159.66 149.14 155.891C154.594 150.129 160.197 144.21 166.494 142.151C171.196 140.614 175.956 139.285 180.714 137.956C184.8 136.815 188.885 135.675 192.93 134.403C201.96 131.565 211.019 127.15 219.696 122.921C221.496 122.044 223.28 121.175 225.044 120.329C239.927 113.194 256.952 111.629 274.321 110.032C279.141 109.589 283.988 109.143 288.823 108.576C298.748 108.141 322.186 107.533 336.54 108.576C345.575 108.855 354.997 109.726 363.93 111.189C374.176 112.867 383.726 117.115 393.144 121.404C403.219 125.991 411.538 130.863 417.726 139.282C427.701 148.25 429.308 149.721 437.122 159.359C453.639 179.73 462.555 205.113 471.168 229.631C472.086 232.243 473 234.845 473.919 237.43C477.134 246.469 480.149 256.65 481.819 266.11C482.532 270.145 482.581 274.279 482.63 278.385C482.683 282.91 482.737 287.401 483.677 291.693C484.565 295.742 483.455 299.67 482.363 303.538C481.845 305.37 481.331 307.189 481.035 309.002C480.544 312.01 479.441 314.676 478.344 317.326C477.555 319.233 476.769 321.132 476.217 323.146C475.697 325.041 474.276 326.707 472.854 328.373C471.522 329.935 470.189 331.498 469.597 333.25C468.656 336.036 466.407 338.485 464.163 340.928C461.778 343.525 459.398 346.115 458.602 349.098C458.16 350.756 453.374 356.703 451.881 357.266C451.06 357.575 447.793 361.431 447.053 362.373C445.257 364.66 442.784 366.488 440.292 368.331C437.386 370.481 434.453 372.649 432.541 375.585C429.957 379.553 426.28 381.516 422.43 383.571C421.833 383.89 421.231 384.211 420.629 384.542C417.903 386.041 414.807 387.209 411.874 388.317C411.035 388.633 410.209 388.945 409.41 389.258C408.673 389.546 408.013 389.881 407.373 390.205C406.184 390.809 405.064 391.377 403.649 391.545C401.907 391.751 399.336 392 396.423 392C396.119 392 395.818 392 395.518 392ZM168.182 225.512C171.437 226.101 174.439 226.263 177.684 225.904H185.9C186.022 225.904 186.143 225.904 186.263 225.904C189.188 225.9 191.795 225.897 193.66 228.218C194.236 228.935 194.181 230.356 194.137 231.477C194.127 231.749 194.117 232.004 194.117 232.226C194.117 233.933 194.024 235.66 193.932 237.395C193.838 239.15 193.743 240.915 193.743 242.68C193.743 244.608 193.903 246.542 194.065 248.515C194.235 250.566 194.407 252.658 194.407 254.828C194.407 259.082 194.445 263.35 194.947 266.844C195.236 268.86 195.153 270.725 195.057 272.876C195.004 274.065 194.947 275.341 194.947 276.778C194.947 278.816 195.045 280.724 195.139 282.563C195.318 286.047 195.485 289.283 194.947 292.676C194.865 293.192 194.782 293.706 194.699 294.22C194.06 298.187 193.433 302.085 193.37 306.146C193.351 307.362 193.297 308.624 193.243 309.904C193.095 313.357 192.942 316.95 193.453 320.194C193.651 321.451 193.65 322.86 193.649 324.291C193.647 327.584 193.646 330.991 196.067 332.92C196.44 333.217 197.553 333.29 198.474 333.35C198.934 333.38 199.347 333.407 199.594 333.457C199.927 333.525 200.285 333.623 200.649 333.724C201.354 333.917 202.084 334.118 202.706 334.118C204.344 334.118 205.99 334.303 207.643 334.488C209.311 334.675 210.985 334.862 212.666 334.862C215.021 334.862 217.448 334.679 219.894 334.495C222.38 334.307 224.885 334.118 227.355 334.118C228.13 334.118 228.902 334.028 229.682 333.936C230.482 333.842 231.293 333.747 232.127 333.747C232.536 333.747 232.96 333.759 233.39 333.772C235.157 333.825 237.05 333.881 238.559 333.085C241.578 331.494 241.921 328.585 241.921 325.565V292.552C241.921 285.79 241.561 279.108 241.2 272.409L241.2 272.402C241.06 269.799 240.919 267.193 240.8 264.579C240.738 263.21 240.864 261.877 240.991 260.536C241.063 259.782 241.135 259.024 241.174 258.257C241.403 253.695 242.307 248.752 243.331 244.291C243.995 241.4 243.795 238.165 243.599 234.983C243.506 233.481 243.414 231.99 243.414 230.553C243.414 230.038 243.73 227.374 244.067 227.105C244.173 227.02 244.278 226.933 244.383 226.845C244.952 226.372 245.513 225.904 246.249 225.904H248.083C249.908 225.904 251.741 225.926 253.579 225.947H253.58C260.984 226.034 268.452 226.121 275.699 224.809C276.114 224.734 276.557 224.666 277.015 224.596L277.017 224.596C279.819 224.168 283.15 223.659 283.77 220.884C285.061 215.097 285.243 209.227 285.243 203.179V194.481C285.243 193.054 284.286 188.055 282.836 187.23C282.321 186.937 281.794 186.619 281.256 186.294C278.765 184.79 276.029 183.139 273.105 183.139C269.987 183.139 266.852 183.233 263.724 183.326C260.612 183.419 257.506 183.511 254.432 183.511C252.996 183.511 251.558 183.528 250.118 183.544C247.051 183.579 243.979 183.615 240.925 183.491C238.787 183.404 236.673 183.183 234.56 182.962C231.854 182.679 229.149 182.396 226.401 182.396C221.012 182.396 215.628 182.489 210.244 182.582L210.243 182.582C204.857 182.675 199.47 182.768 194.075 182.768H184.033C182.894 182.768 181.721 182.808 180.534 182.849C177.652 182.949 174.691 183.051 171.958 182.582C168.33 181.959 164.207 183.126 160.642 184.136L160.639 184.137C160.298 184.233 159.963 184.328 159.633 184.42C157.562 184.998 156.067 187.313 155.629 189.275C155.502 189.844 155.363 190.373 155.229 190.887C154.865 192.277 154.529 193.558 154.529 195.225C154.529 196.113 154.434 197.007 154.34 197.891C154.247 198.758 154.156 199.617 154.156 200.452C154.156 201.762 154.114 203.109 154.071 204.469C153.846 211.686 153.609 219.295 159.571 224.045C161.099 225.262 163.181 225.29 165.213 225.317C166.242 225.331 167.257 225.344 168.182 225.512ZM299.533 228.465V253.382C299.533 255.072 299.689 257.018 299.821 258.646C299.915 259.819 299.996 260.827 299.996 261.457C299.996 264.182 300.281 268.476 300.622 271.19C300.961 273.892 301.361 278.822 301.361 281.529C301.361 283.811 301.483 285.526 301.595 287.088C301.788 289.785 301.947 292.024 301.386 295.935C300.38 302.95 299.447 310.346 299.996 317.449C300.058 318.252 300.064 319.214 300.07 320.245C300.088 323.287 300.11 326.926 301.592 328.824C302.535 330.031 303.546 330.888 304.592 331.775C305.246 332.329 305.913 332.896 306.587 333.566C307.851 334.825 311.07 334.529 313.667 334.291C314.579 334.207 315.414 334.13 316.061 334.13C318.973 334.13 321.858 334.016 324.752 333.9C327.661 333.785 330.579 333.669 333.541 333.669C333.94 333.669 334.386 333.681 334.86 333.694C336.913 333.749 339.484 333.819 341.007 332.977C341.474 332.718 342.256 332.56 343.113 332.387C344.931 332.018 347.084 331.583 347.263 329.977C347.471 328.112 347.404 326.357 347.335 324.541C347.299 323.609 347.263 322.66 347.263 321.672V313.93C347.263 313.036 347.367 311.895 347.474 310.727L347.475 310.726C347.587 309.498 347.702 308.24 347.702 307.203C347.702 307.054 347.702 306.903 347.701 306.751V306.75C347.697 305.335 347.692 303.874 348.087 302.651C348.641 300.934 348.64 299.051 348.638 297.246L348.638 296.958C348.638 295.998 348.654 295.056 348.671 294.126C348.725 291.045 348.777 288.091 348.216 285.015C347.783 282.645 348.376 279.683 351.202 279.683C351.715 279.683 352.208 279.656 352.68 279.63C354.689 279.521 356.303 279.433 357.355 281.529C358.567 283.943 360.078 286.237 361.628 288.552C362.741 290.956 363.435 292.942 364.109 294.873C365.009 297.45 365.875 299.928 367.657 303.167C367.939 304.081 368.783 305.623 369.511 306.953C369.893 307.652 370.244 308.293 370.463 308.752C370.78 309.415 371.097 310.238 371.414 311.064L371.415 311.065C371.821 312.121 372.229 313.183 372.646 313.93C373.13 315.458 373.661 316.634 374.167 317.754C374.78 319.113 375.356 320.388 375.764 322.105C376.153 323.746 376.703 325.126 377.237 326.467C377.603 327.388 377.963 328.29 378.258 329.246C378.947 331.476 382.276 333.372 384.806 333.669C385.664 333.769 386.509 333.872 387.348 333.974C391.895 334.526 396.231 335.053 401.12 335.053C402.205 335.053 403.292 335.062 404.379 335.071C408.676 335.107 412.983 335.143 417.211 334.617C419.646 334.314 421.958 334.13 424.419 334.13C430.623 334.13 426.141 326.53 424.298 323.405C424.108 323.083 423.946 322.809 423.827 322.595C422.105 319.509 420.694 315.876 419.579 312.546C419.177 311.344 418.58 309.917 418.06 308.752C417.794 308.156 417.357 307.667 416.926 307.185C416.506 306.715 416.092 306.252 415.846 305.702C414.889 303.557 413.485 301.588 412.083 299.622C411.035 298.151 409.987 296.682 409.127 295.14C406.593 290.598 404.481 285.634 402.414 280.772L402.412 280.767C401.724 279.149 401.041 277.542 400.348 275.966C399.564 274.181 398.838 272.385 398.115 270.594L398.114 270.593C396.391 266.327 394.68 262.09 392.213 258.099C392.005 257.762 391.76 257.455 391.518 257.152C390.96 256.451 390.415 255.768 390.359 254.766C390.318 254.025 390.558 253.51 390.813 252.965C390.982 252.604 391.157 252.23 391.26 251.767C391.638 250.076 392.933 246.245 394.272 245.102C395.69 243.892 396.833 241.742 397.888 239.757C398.395 238.802 398.882 237.885 399.37 237.13C400.466 235.432 401.534 233.718 402.601 232.005C405.395 227.52 408.184 223.042 411.47 218.878C416.643 212.323 421.079 205.58 424.393 198.037C424.574 197.627 424.657 197.203 424.739 196.781C424.854 196.193 424.968 195.607 425.346 195.064C425.442 194.926 425.546 194.788 425.652 194.648C425.996 194.195 426.355 193.722 426.479 193.167C426.52 192.983 426.597 192.746 426.684 192.481C426.97 191.605 427.357 190.421 426.865 189.809C426.554 189.422 426.241 188.848 425.9 188.222C425.037 186.64 423.992 184.722 422.334 184.631C419.649 184.482 417.05 184.658 414.45 184.833C412.534 184.963 410.617 185.092 408.664 185.092C407.245 185.092 405.788 184.979 404.317 184.865C402.819 184.748 401.307 184.631 399.807 184.631C398.967 184.631 398.135 184.623 397.31 184.615C391.432 184.561 385.946 184.509 380.628 187.297C379.265 188.011 378.195 189.328 377.152 190.61C376.616 191.269 376.088 191.92 375.53 192.475C374.468 193.533 373.74 194.847 373.016 196.153C372.381 197.301 371.749 198.441 370.896 199.396C369.994 200.406 369.341 201.684 368.689 202.957C368.191 203.932 367.693 204.905 367.086 205.753C367.031 205.83 366.976 205.908 366.921 205.985L366.786 206.173C365.161 208.442 363.401 210.898 362.349 213.469C360.823 217.2 359.384 220.589 357.355 224.108C357.085 224.576 356.812 225.043 356.538 225.512C354.984 228.173 353.415 230.859 352.36 233.746C352.052 234.592 351.583 235.322 351.114 236.052C350.728 236.654 350.342 237.256 350.043 237.925C349.731 238.625 347.318 239.874 347.263 238.514C347.141 235.488 347.427 232.505 347.712 229.523C347.951 227.026 348.19 224.528 348.19 222.006C348.19 217.724 348.422 213.514 348.653 209.307C348.885 205.103 349.117 200.9 349.117 196.628C349.117 193.715 348.952 190.704 347.495 188.091C345.918 185.266 344.624 185.092 341.471 185.092C339.91 185.092 338.432 184.86 336.948 184.627C335.657 184.425 334.36 184.221 333.001 184.169C331.718 184.12 330.416 184.049 329.102 183.978C326.649 183.844 324.156 183.708 321.673 183.708C318.416 183.708 315.344 183.823 312.173 184.195C311.541 184.269 310.884 184.324 310.216 184.379C307.491 184.605 304.591 184.846 302.545 186.476C302.084 186.844 302.194 188.25 302.27 189.219C302.293 189.512 302.313 189.765 302.313 189.937C302.313 191.743 302.08 193.56 301.847 195.38C301.638 197.01 301.429 198.641 301.386 200.268C301.274 204.586 300.875 208.885 300.476 213.186C300.004 218.266 299.533 223.348 299.533 228.465Z" fill="#0000FF"/>
</svg>
