<svg width="500" height="500" viewBox="0 0 500 500" fill="none" xmlns="http://www.w3.org/2000/svg">
<path d="M361.567 185.2V249.962M361.567 249.962V315.372M361.567 249.962H408.843M408.843 249.962L445.11 185.848M408.843 249.962H417.262L447.701 315.372M331.776 333.505V167.067C331.776 162.059 335.836 158 340.843 158H382.105C387.112 158 391.172 162.059 391.172 167.067V221.551C391.172 222.873 392.919 223.346 393.585 222.204L427.339 164.419C429.661 160.444 433.919 158 438.523 158H482.341C486.286 158 488.784 162.233 486.876 165.686L443.181 244.781L487.465 335.111C489.152 338.553 486.646 342.572 482.813 342.572H439.449C434.36 342.572 429.742 339.592 427.646 334.954L401.072 276.152H391.172V333.505C391.172 338.513 387.112 342.572 382.105 342.572H340.843C335.836 342.572 331.776 338.513 331.776 333.505Z" stroke="#0000FF" stroke-width="4" stroke-linecap="round" stroke-linejoin="round"/>
<path d="M181.528 183.905H235.929M235.929 183.905H290.329M235.929 183.905L235.836 316.667M256.467 342.572H215.205C210.197 342.572 206.138 338.513 206.138 333.505V209.81H164.69C159.683 209.81 155.624 205.75 155.624 200.743V167.067C155.624 162.059 159.683 158 164.69 158H307.167C312.174 158 316.234 162.059 316.234 167.067V200.743C316.234 205.75 312.174 209.81 307.167 209.81H265.533V333.505C265.533 338.513 261.474 342.572 256.467 342.572Z" stroke="#0000FF" stroke-width="4" stroke-linecap="round" stroke-linejoin="round"/>
<path d="M43.9163 329.12V296.573H47.6645V314.792L65.1718 296.573H69.9164L57.5806 309.478L70.4383 329.12H65.931L54.9236 312.182L47.6645 319.252V329.12H43.9163Z" fill="#0000FF"/>
<path d="M73.5927 299.04V294.817H77.0087V299.04H73.5927ZM73.5927 329.12V304.164H77.0087V329.12H73.5927Z" fill="#0000FF"/>
<path d="M83.6934 329.12V304.164H86.3978L86.7299 308.102H87.062C87.7579 306.963 88.517 306.078 89.3394 305.445C90.1618 304.781 91.0632 304.306 92.0438 304.022C93.0243 303.737 94.0681 303.595 95.1752 303.595C96.8516 303.595 98.2908 303.943 99.4927 304.638C100.695 305.303 101.549 306.457 102.055 308.102H102.339C103.004 306.995 103.747 306.125 104.569 305.492C105.392 304.828 106.293 304.354 107.274 304.069C108.286 303.753 109.346 303.595 110.453 303.595C111.939 303.595 113.252 303.848 114.391 304.354C115.529 304.86 116.415 305.698 117.048 306.868C117.712 308.039 118.044 309.62 118.044 311.613V329.12H114.628V311.993C114.628 310.917 114.485 310.031 114.201 309.336C113.948 308.608 113.584 308.055 113.11 307.675C112.635 307.295 112.082 307.027 111.449 306.868C110.816 306.71 110.136 306.631 109.409 306.631C108.207 306.631 107.084 306.947 106.04 307.58C105.028 308.181 104.19 309.051 103.526 310.19C102.893 311.328 102.577 312.72 102.577 314.365V329.12H99.1606V311.993C99.1606 310.917 99.0341 310.031 98.781 309.336C98.528 308.608 98.1642 308.055 97.6898 307.675C97.2153 307.295 96.6618 307.027 96.0292 306.868C95.4282 306.71 94.7798 306.631 94.0839 306.631C92.882 306.631 91.7433 306.947 90.6678 307.58C89.624 308.181 88.77 309.051 88.1058 310.19C87.4416 311.328 87.1094 312.72 87.1094 314.365V329.12H83.6934Z" fill="#0000FF"/>
<path d="M135.711 329.69C134.003 329.69 132.485 329.342 131.157 328.646C129.86 327.95 128.769 326.89 127.883 325.467H127.551L127.171 329.12H124.467V294.817H127.883V307.39H128.215C128.784 306.473 129.464 305.746 130.255 305.208C131.046 304.638 131.916 304.227 132.865 303.974C133.814 303.721 134.794 303.595 135.806 303.595C137.799 303.595 139.523 304.053 140.978 304.971C142.464 305.888 143.603 307.295 144.394 309.193C145.185 311.059 145.58 313.463 145.58 316.405C145.58 319.536 145.185 322.083 144.394 324.044C143.635 325.973 142.512 327.396 141.025 328.314C139.57 329.231 137.799 329.69 135.711 329.69ZM135.142 326.701C136.534 326.701 137.736 326.4 138.748 325.799C139.792 325.198 140.598 324.218 141.168 322.858C141.737 321.466 142.022 319.6 142.022 317.259V316.073C142.022 313.827 141.753 312.008 141.215 310.617C140.709 309.225 139.918 308.213 138.843 307.58C137.799 306.916 136.486 306.584 134.905 306.584C134.051 306.584 133.197 306.726 132.343 307.011C131.52 307.264 130.777 307.738 130.113 308.434C129.449 309.13 128.911 310.111 128.5 311.376C128.088 312.641 127.883 314.254 127.883 316.215V317.069C127.883 319.125 128.12 320.865 128.595 322.288C129.101 323.712 129.891 324.803 130.967 325.562C132.042 326.321 133.434 326.701 135.142 326.701Z" fill="#0000FF"/>
<path d="M150.784 329.12V294.817H154.2V329.12H150.784Z" fill="#0000FF"/>
<path d="M170.516 329.69C168.144 329.69 166.136 329.231 164.491 328.314C162.846 327.365 161.597 325.926 160.743 323.996C159.889 322.067 159.462 319.615 159.462 316.642C159.462 313.637 159.889 311.186 160.743 309.288C161.597 307.359 162.862 305.935 164.538 305.018C166.215 304.069 168.302 303.595 170.801 303.595C173.11 303.595 175.04 304.053 176.589 304.971C178.171 305.888 179.357 307.216 180.148 308.956C180.97 310.696 181.381 312.831 181.381 315.361V317.544H163.02C163.02 319.726 163.32 321.513 163.921 322.905C164.522 324.297 165.376 325.309 166.484 325.941C167.622 326.542 169.014 326.843 170.659 326.843C171.861 326.843 172.904 326.685 173.79 326.369C174.707 326.052 175.451 325.625 176.02 325.087C176.621 324.518 177.08 323.854 177.396 323.095C177.712 322.336 177.87 321.545 177.87 320.722H181.192C181.192 321.956 180.954 323.126 180.48 324.233C180.037 325.309 179.373 326.258 178.487 327.08C177.633 327.903 176.542 328.551 175.213 329.025C173.885 329.468 172.319 329.69 170.516 329.69ZM163.02 314.839H177.823C177.823 313.258 177.633 311.945 177.254 310.901C176.906 309.826 176.415 308.972 175.783 308.339C175.15 307.675 174.391 307.201 173.505 306.916C172.651 306.631 171.687 306.489 170.611 306.489C169.061 306.489 167.733 306.789 166.626 307.39C165.519 307.96 164.665 308.861 164.064 310.095C163.494 311.328 163.147 312.91 163.02 314.839Z" fill="#0000FF"/>
<path d="M24.5293 281.675V252.401H13V249.127H39.9016V252.401H28.2774V281.675H24.5293Z" fill="#0000FF"/>
<path d="M43.9645 281.675V247.372H47.3806V259.945H47.7127C48.4085 259.028 49.1677 258.3 49.9901 257.762C50.8124 257.193 51.7139 256.782 52.6944 256.529C53.675 256.276 54.7346 256.149 55.8733 256.149C57.4548 256.149 58.8307 256.418 60.0011 256.956C61.203 257.462 62.1361 258.3 62.8003 259.47C63.4646 260.641 63.7967 262.238 63.7967 264.262V281.675H60.3806V264.594C60.3806 263.487 60.2383 262.586 59.9536 261.89C59.6689 261.194 59.2736 260.657 58.7675 260.277C58.2614 259.866 57.6604 259.581 56.9645 259.423C56.3003 259.265 55.557 259.186 54.7346 259.186C53.4694 259.186 52.2674 259.47 51.1287 260.04C50.0217 260.609 49.1202 261.479 48.4244 262.649C47.7285 263.788 47.3806 265.211 47.3806 266.919V281.675H43.9645Z" fill="#0000FF"/>
<path d="M80.0579 282.244C77.654 282.244 75.598 281.786 73.89 280.868C72.2136 279.919 70.9325 278.48 70.0469 276.551C69.1929 274.621 68.7659 272.17 68.7659 269.197C68.7659 266.192 69.1929 263.74 70.0469 261.843C70.9325 259.913 72.2136 258.49 73.89 257.573C75.598 256.624 77.654 256.149 80.0579 256.149C82.5251 256.149 84.581 256.624 86.2258 257.573C87.9022 258.49 89.1674 259.913 90.0214 261.843C90.9071 263.74 91.3499 266.192 91.3499 269.197C91.3499 272.17 90.9071 274.621 90.0214 276.551C89.1674 278.48 87.9022 279.919 86.2258 280.868C84.581 281.786 82.5251 282.244 80.0579 282.244ZM80.0579 279.35C81.7343 279.35 83.1418 279.018 84.2805 278.354C85.4192 277.689 86.2891 276.661 86.89 275.27C87.491 273.846 87.7915 272.012 87.7915 269.766V268.627C87.7915 266.382 87.491 264.563 86.89 263.171C86.2891 261.748 85.4192 260.704 84.2805 260.04C83.1418 259.375 81.7343 259.043 80.0579 259.043C78.3815 259.043 76.9739 259.375 75.8352 260.04C74.6965 260.704 73.8267 261.748 73.2257 263.171C72.6248 264.563 72.3243 266.382 72.3243 268.627V269.766C72.3243 272.012 72.6248 273.846 73.2257 275.27C73.8267 276.661 74.6965 277.689 75.8352 278.354C76.9739 279.018 78.3815 279.35 80.0579 279.35Z" fill="#0000FF"/>
<path d="M96.553 281.675V256.719H99.2574L99.5895 260.657H99.9216C100.617 259.518 101.377 258.632 102.199 258C103.021 257.335 103.923 256.861 104.903 256.576C105.884 256.292 106.928 256.149 108.035 256.149C109.711 256.149 111.15 256.497 112.352 257.193C113.554 257.857 114.408 259.012 114.914 260.657H115.199C115.863 259.549 116.607 258.68 117.429 258.047C118.251 257.383 119.153 256.908 120.133 256.624C121.146 256.307 122.205 256.149 123.312 256.149C124.799 256.149 126.112 256.402 127.25 256.908C128.389 257.414 129.275 258.253 129.907 259.423C130.571 260.593 130.904 262.175 130.904 264.167V281.675H127.487V264.547C127.487 263.472 127.345 262.586 127.06 261.89C126.807 261.163 126.444 260.609 125.969 260.229C125.495 259.85 124.941 259.581 124.309 259.423C123.676 259.265 122.996 259.186 122.268 259.186C121.066 259.186 119.944 259.502 118.9 260.135C117.888 260.736 117.049 261.605 116.385 262.744C115.753 263.883 115.436 265.275 115.436 266.919V281.675H112.02V264.547C112.02 263.472 111.894 262.586 111.641 261.89C111.388 261.163 111.024 260.609 110.549 260.229C110.075 259.85 109.521 259.581 108.889 259.423C108.288 259.265 107.639 259.186 106.944 259.186C105.742 259.186 104.603 259.502 103.527 260.135C102.484 260.736 101.63 261.605 100.965 262.744C100.301 263.883 99.9691 265.275 99.9691 266.919V281.675H96.553Z" fill="#0000FF"/>
<path d="M143.542 282.244C142.561 282.244 141.597 282.118 140.648 281.865C139.699 281.643 138.845 281.279 138.086 280.773C137.358 280.236 136.773 279.524 136.33 278.638C135.887 277.753 135.666 276.661 135.666 275.365C135.666 273.657 136.077 272.265 136.899 271.189C137.753 270.082 138.94 269.228 140.458 268.627C141.976 267.995 143.763 267.568 145.819 267.346C147.907 267.125 150.168 267.014 152.604 267.014V263.835C152.604 262.823 152.414 261.969 152.035 261.273C151.687 260.546 151.054 259.992 150.137 259.613C149.251 259.202 147.986 258.996 146.341 258.996C144.76 258.996 143.51 259.202 142.593 259.613C141.676 260.024 141.027 260.562 140.648 261.226C140.3 261.858 140.126 262.57 140.126 263.361V264.12H136.852C136.82 263.962 136.805 263.804 136.805 263.646C136.805 263.487 136.805 263.298 136.805 263.076C136.805 261.495 137.216 260.198 138.038 259.186C138.861 258.174 140.031 257.414 141.549 256.908C143.067 256.402 144.807 256.149 146.768 256.149C148.761 256.149 150.437 256.45 151.797 257.051C153.157 257.62 154.201 258.442 154.929 259.518C155.656 260.593 156.02 261.89 156.02 263.408V277.737C156.02 278.338 156.131 278.765 156.352 279.018C156.605 279.239 156.937 279.35 157.348 279.35H159.341V281.533C158.867 281.722 158.361 281.88 157.823 282.007C157.317 282.133 156.779 282.197 156.21 282.197C155.387 282.197 154.723 282.023 154.217 281.675C153.743 281.327 153.395 280.837 153.173 280.204C152.983 279.571 152.857 278.876 152.794 278.116H152.462C151.861 278.97 151.086 279.714 150.137 280.346C149.219 280.947 148.207 281.406 147.1 281.722C145.993 282.07 144.807 282.244 143.542 282.244ZM144.253 279.35C145.297 279.35 146.309 279.176 147.29 278.828C148.271 278.48 149.156 278.006 149.947 277.405C150.738 276.772 151.37 276.029 151.845 275.175C152.351 274.321 152.604 273.372 152.604 272.328V269.766C149.662 269.766 147.195 269.924 145.202 270.24C143.241 270.557 141.755 271.11 140.743 271.901C139.762 272.692 139.272 273.799 139.272 275.222C139.272 276.171 139.477 276.962 139.888 277.595C140.331 278.196 140.932 278.638 141.691 278.923C142.451 279.208 143.305 279.35 144.253 279.35Z" fill="#0000FF"/>
<path d="M171.205 282.244C169.561 282.244 168.106 282.07 166.84 281.722C165.575 281.406 164.516 280.932 163.662 280.299C162.839 279.635 162.207 278.844 161.764 277.927C161.353 277.009 161.147 275.95 161.147 274.748C161.147 274.621 161.147 274.495 161.147 274.368C161.147 274.21 161.163 274.068 161.194 273.941H164.563C164.531 274.099 164.516 274.242 164.516 274.368C164.516 274.463 164.516 274.558 164.516 274.653C164.547 275.887 164.848 276.851 165.417 277.547C165.986 278.211 166.793 278.686 167.837 278.97C168.881 279.255 170.083 279.397 171.443 279.397C172.613 279.397 173.657 279.239 174.574 278.923C175.523 278.575 176.266 278.085 176.804 277.452C177.373 276.82 177.658 276.045 177.658 275.127C177.658 273.957 177.294 273.071 176.567 272.47C175.871 271.869 174.954 271.411 173.815 271.095C172.676 270.747 171.49 270.383 170.257 270.003C169.244 269.719 168.248 269.418 167.268 269.102C166.287 268.754 165.385 268.327 164.563 267.821C163.772 267.315 163.14 266.666 162.665 265.876C162.191 265.085 161.954 264.088 161.954 262.886C161.954 261.843 162.159 260.91 162.57 260.087C163.013 259.265 163.63 258.569 164.421 258C165.243 257.399 166.24 256.94 167.41 256.624C168.58 256.307 169.909 256.149 171.395 256.149C173.04 256.149 174.448 256.339 175.618 256.719C176.788 257.098 177.737 257.62 178.465 258.284C179.192 258.917 179.73 259.644 180.078 260.467C180.426 261.257 180.6 262.096 180.6 262.981C180.6 263.108 180.584 263.25 180.552 263.408C180.552 263.566 180.552 263.709 180.552 263.835H177.184V263.219C177.184 262.554 177.01 261.906 176.662 261.273C176.345 260.641 175.76 260.103 174.906 259.66C174.084 259.217 172.85 258.996 171.205 258.996C170.225 258.996 169.371 259.091 168.643 259.281C167.948 259.439 167.347 259.676 166.84 259.992C166.366 260.309 166.002 260.704 165.749 261.178C165.528 261.621 165.417 262.143 165.417 262.744C165.417 263.661 165.702 264.373 166.271 264.879C166.872 265.354 167.647 265.749 168.596 266.065C169.545 266.35 170.557 266.666 171.632 267.014C172.708 267.33 173.799 267.663 174.906 268.011C176.045 268.358 177.089 268.785 178.038 269.292C178.987 269.798 179.746 270.478 180.315 271.332C180.884 272.154 181.169 273.245 181.169 274.605C181.169 275.871 180.916 276.994 180.41 277.974C179.904 278.923 179.208 279.714 178.322 280.346C177.437 280.979 176.377 281.453 175.143 281.77C173.942 282.086 172.629 282.244 171.205 282.244Z" fill="#0000FF"/>
</svg>
