<svg width="500" height="500" viewBox="0 0 500 500" fill="none" xmlns="http://www.w3.org/2000/svg">
<path d="M168.218 225.203C171.478 225.793 174.484 225.956 177.734 225.596H185.962C189.038 225.596 191.788 225.492 193.733 227.914C194.449 228.807 194.19 230.79 194.19 231.93C194.19 235.37 193.816 238.888 193.816 242.405C193.816 246.346 194.481 250.314 194.481 254.577C194.481 258.84 194.519 263.116 195.021 266.617C195.471 269.755 195.021 272.528 195.021 276.572C195.021 282.482 195.844 287.307 195.021 292.501C194.305 297.016 193.513 301.402 193.442 305.998C193.372 310.505 192.823 315.618 193.525 320.074C194.18 324.233 192.664 330.054 196.143 332.826C196.704 333.273 198.933 333.213 199.675 333.364C200.652 333.564 201.846 334.027 202.792 334.027C206.087 334.027 209.414 334.772 212.765 334.772C217.52 334.772 222.568 334.027 227.476 334.027C229.048 334.027 230.603 333.654 232.255 333.654C234.342 333.654 236.815 333.984 238.696 332.992C241.719 331.397 242.062 328.482 242.062 325.457V292.377C242.062 282.966 241.367 273.711 240.94 264.348C240.842 262.204 241.207 260.148 241.314 258.013C241.543 253.442 242.449 248.49 243.475 244.02C244.453 239.755 243.558 234.743 243.558 230.254C243.558 229.738 243.874 227.068 244.211 226.799C244.897 226.252 245.524 225.596 246.397 225.596H248.233C257.427 225.596 266.831 226.14 275.888 224.499C278.851 223.962 283.249 223.8 283.971 220.566C285.264 214.767 285.446 208.885 285.446 202.825V194.11C285.446 192.68 284.488 187.671 283.036 186.844C280.134 185.192 276.852 182.745 273.291 182.745C267.06 182.745 260.763 183.118 254.591 183.118C250.092 183.118 245.559 183.28 241.065 183.097C236.181 182.899 231.421 182 226.52 182C215.724 182 204.951 182.373 194.148 182.373H184.092C180.181 182.373 175.864 182.85 171.999 182.186C168.019 181.503 163.442 182.973 159.657 184.029C157.583 184.607 156.086 186.927 155.647 188.893C155.176 191.006 154.546 192.567 154.546 194.855C154.546 196.616 154.172 198.401 154.172 200.093C154.172 208.373 152.499 218.077 159.595 223.733C161.899 225.569 165.462 224.703 168.218 225.203Z" fill="#0000FF"/>
<path d="M299.756 228.162V253.129C299.756 256.04 300.221 259.711 300.221 261.22C300.221 263.95 300.506 268.253 300.847 270.972C301.187 273.68 301.587 278.619 301.587 281.332C301.587 287.569 302.5 289.58 301.613 295.767C300.605 302.796 299.671 310.207 300.22 317.324C300.466 320.502 299.831 326.175 301.819 328.722C303.354 330.688 305.067 331.726 306.821 333.474C308.53 335.177 313.814 334.039 316.308 334.039C322.158 334.039 327.898 333.576 333.813 333.576C335.948 333.576 339.414 333.921 341.29 332.883C342.751 332.074 347.291 332.243 347.555 329.878C347.87 327.049 347.555 324.475 347.555 321.555V313.798C347.555 311.96 347.995 309.086 347.995 307.058C347.995 305.503 347.942 303.854 348.38 302.497C348.965 300.684 348.932 298.688 348.932 296.792C348.932 292.643 349.241 288.838 348.509 284.825C348.075 282.45 348.67 279.482 351.499 279.482C354.201 279.482 356.36 278.739 357.661 281.332C358.875 283.751 360.388 286.049 361.941 288.369C364.544 293.992 364.856 297.337 367.978 303.014C368.409 304.41 370.15 307.274 370.788 308.61C371.512 310.124 372.23 312.463 372.974 313.798C374.047 317.187 375.352 318.851 376.096 321.99C376.754 324.762 377.868 326.792 378.594 329.145C379.284 331.379 382.618 333.279 385.151 333.576C390.669 334.223 395.69 334.963 401.489 334.963C406.867 334.963 412.297 335.187 417.602 334.527C420.042 334.223 422.357 334.039 424.821 334.039C431.674 334.039 425.507 324.773 424.228 322.48C422.504 319.388 421.091 315.748 419.974 312.411C419.571 311.206 418.974 309.777 418.453 308.61C417.928 307.431 416.734 306.67 416.236 305.553C414.56 301.797 411.52 298.581 409.507 294.971C406.123 288.902 403.493 282.082 400.716 275.758C398.059 269.708 396.077 263.534 392.569 257.855C391.879 256.738 390.793 255.954 390.713 254.516C390.644 253.281 391.356 252.673 391.615 251.51C391.993 249.816 393.29 245.978 394.631 244.832C396.734 243.036 398.233 239.174 399.736 236.844C403.709 230.687 407.306 224.321 411.853 218.556C417.034 211.987 421.477 205.231 424.795 197.673C425.228 196.688 425.1 195.628 425.749 194.694C426.157 194.107 426.721 193.521 426.884 192.793C427.061 191.997 427.912 190.227 427.27 189.428C426.173 188.061 425.051 184.368 422.733 184.24C418.063 183.981 413.654 184.702 409.043 184.702C406.175 184.702 403.15 184.24 400.174 184.24C393.331 184.24 387.04 183.726 380.967 186.911C378.901 187.994 377.507 190.462 375.863 192.099C373.863 194.091 373.047 196.989 371.222 199.035C369.628 200.822 368.808 203.443 367.406 205.405C365.699 207.794 363.781 210.4 362.663 213.136C361.134 216.875 359.693 220.27 357.661 223.796C355.856 226.927 353.901 230.051 352.66 233.453C352.096 234.999 351.001 236.157 350.339 237.64C350.026 238.342 347.61 239.593 347.555 238.231C347.331 232.659 348.483 227.236 348.483 221.689C348.483 213.111 349.411 204.825 349.411 196.26C349.411 193.342 349.247 190.325 347.787 187.707C346.208 184.876 344.912 184.702 341.754 184.702C338.832 184.702 336.199 183.889 333.272 183.777C329.591 183.636 325.746 183.315 321.928 183.315C318.666 183.315 315.591 183.431 312.415 183.803C309.201 184.18 305.325 184.055 302.773 186.089C302.171 186.568 302.541 188.813 302.541 189.556C302.541 192.985 301.703 196.457 301.613 199.908C301.367 209.346 299.756 218.694 299.756 228.162Z" fill="#0000FF"/>
<path d="M29.4512 331.527V303.561H35.5254V316.28L47.4294 303.561H54.9305L44.2496 314.935L55.1344 331.527H47.8778L40.0506 319.134L35.5254 323.21V331.527H29.4512Z" fill="#0000FF"/>
<path d="M58.5021 306.944V302.052H64.1687V306.944H58.5021ZM58.5021 331.527V310.083H64.1687V331.527H58.5021Z" fill="#0000FF"/>
<path d="M69.3706 331.527V310.083H74.0588L74.5073 313.019H74.7926C75.2546 312.312 75.7982 311.701 76.4233 311.184C77.0756 310.668 77.7958 310.274 78.5839 310.002C79.3993 309.73 80.269 309.594 81.193 309.594C82.5519 309.594 83.7206 309.866 84.699 310.41C85.7046 310.953 86.4792 311.823 87.0227 313.019H87.3081C87.7701 312.312 88.3272 311.701 88.9795 311.184C89.6318 310.668 90.3792 310.274 91.2217 310.002C92.0642 309.73 92.9611 309.594 93.9123 309.594C95.2712 309.594 96.4399 309.839 97.4183 310.328C98.4239 310.817 99.212 311.619 99.7828 312.733C100.354 313.82 100.639 315.234 100.639 316.973V331.527H94.9723V317.992C94.9723 317.313 94.8907 316.742 94.7277 316.28C94.5918 315.791 94.3879 315.41 94.1162 315.139C93.8444 314.84 93.5047 314.622 93.097 314.486C92.6893 314.35 92.2545 314.282 91.7924 314.282C91.0315 314.282 90.352 314.486 89.7541 314.894C89.1562 315.302 88.6806 315.859 88.3273 316.565C88.0011 317.272 87.838 318.087 87.838 319.011V331.527H82.1714V317.992C82.1714 317.313 82.0899 316.742 81.9268 316.28C81.791 315.791 81.5871 315.41 81.3153 315.139C81.0436 314.84 80.7038 314.622 80.2962 314.486C79.9157 314.35 79.4808 314.282 78.9916 314.282C78.2578 314.282 77.5784 314.486 76.9533 314.894C76.3554 315.302 75.8797 315.859 75.5264 316.565C75.2003 317.272 75.0372 318.087 75.0372 319.011V331.527H69.3706Z" fill="#0000FF"/>
<path d="M117.664 332.016C116.278 332.016 115.001 331.744 113.832 331.201C112.691 330.63 111.767 329.774 111.06 328.632H110.775L110.326 331.527H105.679V302.052H111.345V312.448H111.59C112.025 311.823 112.555 311.293 113.18 310.858C113.805 310.423 114.512 310.111 115.3 309.92C116.088 309.703 116.944 309.594 117.868 309.594C119.553 309.594 121.021 309.988 122.271 310.776C123.548 311.565 124.54 312.788 125.247 314.446C125.953 316.076 126.307 318.182 126.307 320.764C126.307 323.346 125.953 325.466 125.247 327.124C124.567 328.782 123.575 330.019 122.271 330.834C120.993 331.622 119.458 332.016 117.664 332.016ZM115.911 327.369C117.053 327.369 117.95 327.151 118.602 326.716C119.281 326.254 119.77 325.575 120.069 324.678C120.368 323.781 120.518 322.653 120.518 321.294V320.357C120.518 318.998 120.368 317.87 120.069 316.973C119.77 316.049 119.281 315.37 118.602 314.935C117.95 314.473 117.053 314.242 115.911 314.242C115.096 314.242 114.403 314.391 113.832 314.69C113.261 314.962 112.786 315.37 112.405 315.913C112.052 316.43 111.78 317.082 111.59 317.87C111.4 318.658 111.305 319.528 111.305 320.479V321.213C111.305 322.49 111.468 323.591 111.794 324.515C112.12 325.439 112.623 326.146 113.302 326.635C113.982 327.124 114.851 327.369 115.911 327.369Z" fill="#0000FF"/>
<path d="M130.481 331.527V302.052H136.148V331.527H130.481Z" fill="#0000FF"/>
<path d="M151.093 332.016C148.729 332.016 146.745 331.622 145.141 330.834C143.538 330.019 142.328 328.782 141.513 327.124C140.697 325.466 140.29 323.36 140.29 320.805C140.29 318.223 140.697 316.117 141.513 314.486C142.328 312.828 143.524 311.605 145.1 310.817C146.704 310.002 148.661 309.594 150.971 309.594C153.145 309.594 154.98 309.988 156.474 310.776C157.969 311.537 159.097 312.733 159.858 314.364C160.619 315.967 160.999 318.047 160.999 320.601V322.069H146.038C146.092 323.319 146.283 324.379 146.609 325.249C146.962 326.118 147.492 326.771 148.199 327.206C148.932 327.613 149.897 327.817 151.093 327.817C151.745 327.817 152.33 327.736 152.846 327.572C153.39 327.409 153.852 327.165 154.232 326.839C154.613 326.513 154.912 326.105 155.129 325.616C155.346 325.126 155.455 324.569 155.455 323.944H160.999C160.999 325.303 160.755 326.485 160.266 327.491C159.776 328.497 159.097 329.339 158.227 330.019C157.358 330.671 156.311 331.174 155.088 331.527C153.892 331.853 152.561 332.016 151.093 332.016ZM146.119 318.481H155.17C155.17 317.666 155.061 316.959 154.844 316.362C154.653 315.764 154.382 315.274 154.028 314.894C153.675 314.513 153.24 314.242 152.724 314.079C152.235 313.888 151.677 313.793 151.052 313.793C150.02 313.793 149.15 313.97 148.443 314.323C147.764 314.649 147.234 315.166 146.853 315.872C146.5 316.552 146.255 317.422 146.119 318.481Z" fill="#0000FF"/>
<path d="M30.5823 294.306V270.15H21V267.449H43.3587V270.15H33.6975V294.306H30.5823Z" fill="#0000FF"/>
<path d="M46.7355 294.306V266H49.5747V276.375H49.8507C50.429 275.618 51.06 275.018 51.7435 274.574C52.427 274.104 53.1762 273.765 53.9912 273.556C54.8061 273.347 55.6868 273.243 56.6332 273.243C57.9477 273.243 59.0912 273.465 60.0639 273.909C61.0629 274.326 61.8384 275.018 62.3905 275.984C62.9425 276.949 63.2186 278.267 63.2186 279.938V294.306H60.3794V280.212C60.3794 279.298 60.2611 278.555 60.0245 277.98C59.7879 277.406 59.4593 276.962 59.0386 276.649C58.618 276.31 58.1185 276.075 57.5402 275.944C56.9881 275.814 56.3703 275.749 55.6868 275.749C54.6353 275.749 53.6363 275.984 52.6899 276.453C51.7698 276.923 51.0205 277.641 50.4422 278.607C49.8638 279.546 49.5747 280.721 49.5747 282.13V294.306H46.7355Z" fill="#0000FF"/>
<path d="M76.7337 294.776C74.7358 294.776 73.027 294.398 71.6074 293.641C70.2141 292.858 69.1494 291.67 68.4133 290.078C67.7035 288.486 67.3486 286.463 67.3486 284.01C67.3486 281.53 67.7035 279.507 68.4133 277.941C69.1494 276.349 70.2141 275.174 71.6074 274.418C73.027 273.634 74.7358 273.243 76.7337 273.243C78.7842 273.243 80.493 273.634 81.86 274.418C83.2533 275.174 84.3049 276.349 85.0147 277.941C85.7508 279.507 86.1188 281.53 86.1188 284.01C86.1188 286.463 85.7508 288.486 85.0147 290.078C84.3049 291.67 83.2533 292.858 81.86 293.641C80.493 294.398 78.7842 294.776 76.7337 294.776ZM76.7337 292.388C78.127 292.388 79.2969 292.114 80.2433 291.566C81.1897 291.018 81.9126 290.169 82.4121 289.021C82.9116 287.846 83.1613 286.333 83.1613 284.479V283.54C83.1613 281.687 82.9116 280.186 82.4121 279.037C81.9126 277.863 81.1897 277.002 80.2433 276.453C79.2969 275.905 78.127 275.631 76.7337 275.631C75.3404 275.631 74.1705 275.905 73.2242 276.453C72.2778 277.002 71.5548 277.863 71.0553 279.037C70.5558 280.186 70.3061 281.687 70.3061 283.54V284.479C70.3061 286.333 70.5558 287.846 71.0553 289.021C71.5548 290.169 72.2778 291.018 73.2242 291.566C74.1705 292.114 75.3404 292.388 76.7337 292.388Z" fill="#0000FF"/>
<path d="M90.4432 294.306V273.713H92.6909L92.967 276.962H93.243C93.8214 276.023 94.4523 275.292 95.1358 274.77C95.8193 274.222 96.5686 273.83 97.3835 273.595C98.1985 273.36 99.066 273.243 99.9861 273.243C101.379 273.243 102.576 273.53 103.575 274.104C104.574 274.652 105.283 275.605 105.704 276.962H105.941C106.493 276.049 107.11 275.331 107.794 274.809C108.477 274.261 109.227 273.869 110.042 273.634C110.883 273.373 111.764 273.243 112.684 273.243C113.919 273.243 115.01 273.452 115.957 273.869C116.903 274.287 117.639 274.979 118.165 275.944C118.717 276.91 118.993 278.215 118.993 279.86V294.306H116.154V280.173C116.154 279.285 116.035 278.555 115.799 277.98C115.589 277.38 115.286 276.923 114.892 276.61C114.498 276.297 114.038 276.075 113.512 275.944C112.986 275.814 112.421 275.749 111.816 275.749C110.817 275.749 109.884 276.01 109.016 276.532C108.175 277.028 107.478 277.745 106.926 278.685C106.401 279.625 106.138 280.773 106.138 282.13V294.306H103.298V280.173C103.298 279.285 103.193 278.555 102.983 277.98C102.773 277.38 102.47 276.923 102.076 276.61C101.682 276.297 101.222 276.075 100.696 275.944C100.196 275.814 99.6575 275.749 99.0791 275.749C98.0802 275.749 97.1338 276.01 96.2399 276.532C95.3724 277.028 94.6626 277.745 94.1105 278.685C93.5585 279.625 93.2824 280.773 93.2824 282.13V294.306H90.4432Z" fill="#0000FF"/>
<path d="M129.497 294.776C128.682 294.776 127.88 294.672 127.092 294.463C126.303 294.28 125.593 293.98 124.962 293.562C124.358 293.119 123.871 292.532 123.503 291.801C123.135 291.07 122.951 290.169 122.951 289.099C122.951 287.69 123.293 286.541 123.976 285.654C124.686 284.74 125.672 284.036 126.934 283.54C128.196 283.018 129.681 282.665 131.39 282.483C133.125 282.3 135.005 282.209 137.029 282.209V279.585C137.029 278.75 136.871 278.046 136.556 277.471C136.266 276.871 135.741 276.414 134.978 276.101C134.242 275.762 133.191 275.592 131.824 275.592C130.509 275.592 129.471 275.762 128.708 276.101C127.946 276.44 127.407 276.884 127.092 277.432C126.802 277.954 126.658 278.541 126.658 279.194V279.82H123.937C123.911 279.69 123.897 279.559 123.897 279.429C123.897 279.298 123.897 279.142 123.897 278.959C123.897 277.654 124.239 276.584 124.923 275.749C125.606 274.913 126.579 274.287 127.841 273.869C129.103 273.452 130.549 273.243 132.178 273.243C133.835 273.243 135.228 273.491 136.358 273.987C137.489 274.457 138.356 275.135 138.961 276.023C139.566 276.91 139.868 277.98 139.868 279.233V291.057C139.868 291.553 139.96 291.905 140.144 292.114C140.354 292.297 140.63 292.388 140.972 292.388H142.628V294.189C142.234 294.346 141.813 294.476 141.366 294.58C140.946 294.685 140.499 294.737 140.026 294.737C139.342 294.737 138.79 294.593 138.369 294.306C137.975 294.019 137.686 293.615 137.502 293.093C137.344 292.571 137.239 291.996 137.186 291.37H136.91C136.411 292.075 135.767 292.688 134.978 293.21C134.216 293.706 133.375 294.085 132.454 294.346C131.534 294.633 130.549 294.776 129.497 294.776ZM130.088 292.388C130.956 292.388 131.797 292.244 132.612 291.957C133.427 291.67 134.163 291.279 134.82 290.783C135.478 290.261 136.003 289.647 136.398 288.943C136.818 288.238 137.029 287.455 137.029 286.594V284.479C134.584 284.479 132.533 284.61 130.877 284.871C129.247 285.132 128.012 285.589 127.17 286.241C126.355 286.894 125.948 287.807 125.948 288.982C125.948 289.765 126.119 290.417 126.461 290.939C126.829 291.435 127.328 291.801 127.959 292.036C128.59 292.27 129.3 292.388 130.088 292.388Z" fill="#0000FF"/>
<path d="M152.489 294.776C151.122 294.776 149.913 294.633 148.861 294.346C147.81 294.085 146.929 293.693 146.219 293.171C145.536 292.623 145.01 291.97 144.642 291.213C144.3 290.456 144.129 289.582 144.129 288.59C144.129 288.486 144.129 288.381 144.129 288.277C144.129 288.147 144.142 288.029 144.169 287.925H146.968C146.942 288.055 146.929 288.173 146.929 288.277C146.929 288.355 146.929 288.434 146.929 288.512C146.955 289.53 147.205 290.326 147.678 290.9C148.151 291.448 148.822 291.84 149.689 292.075C150.557 292.31 151.556 292.427 152.686 292.427C153.659 292.427 154.526 292.297 155.289 292.036C156.077 291.748 156.695 291.344 157.142 290.822C157.615 290.3 157.852 289.66 157.852 288.903C157.852 287.938 157.55 287.207 156.945 286.711C156.367 286.215 155.604 285.837 154.658 285.576C153.711 285.289 152.726 284.988 151.7 284.675C150.859 284.44 150.031 284.192 149.216 283.931C148.401 283.644 147.652 283.292 146.968 282.874C146.311 282.457 145.785 281.922 145.391 281.269C144.997 280.616 144.8 279.794 144.8 278.802C144.8 277.941 144.97 277.171 145.312 276.493C145.68 275.814 146.193 275.24 146.85 274.77C147.534 274.274 148.362 273.896 149.334 273.634C150.307 273.373 151.411 273.243 152.647 273.243C154.014 273.243 155.184 273.4 156.156 273.713C157.129 274.026 157.918 274.457 158.522 275.005C159.127 275.527 159.574 276.127 159.863 276.806C160.152 277.458 160.297 278.15 160.297 278.881C160.297 278.985 160.284 279.103 160.257 279.233C160.257 279.364 160.257 279.481 160.257 279.585H157.458V279.077C157.458 278.528 157.313 277.993 157.024 277.471C156.761 276.949 156.275 276.506 155.565 276.14C154.881 275.775 153.856 275.592 152.489 275.592C151.674 275.592 150.964 275.67 150.36 275.827C149.781 275.957 149.282 276.153 148.861 276.414C148.467 276.675 148.165 277.002 147.954 277.393C147.77 277.758 147.678 278.189 147.678 278.685C147.678 279.442 147.915 280.029 148.388 280.447C148.887 280.838 149.532 281.165 150.32 281.426C151.109 281.661 151.95 281.922 152.844 282.209C153.738 282.47 154.645 282.744 155.565 283.031C156.511 283.318 157.379 283.67 158.167 284.088C158.956 284.505 159.587 285.067 160.06 285.771C160.533 286.45 160.77 287.35 160.77 288.473C160.77 289.517 160.56 290.443 160.139 291.253C159.718 292.036 159.14 292.688 158.404 293.21C157.668 293.732 156.787 294.124 155.762 294.385C154.763 294.646 153.672 294.776 152.489 294.776Z" fill="#0000FF"/>
</svg>
