<svg width="500" height="500" viewBox="0 0 500 500" fill="none" xmlns="http://www.w3.org/2000/svg">
<path d="M168.218 225.203C171.478 225.793 174.484 225.956 177.734 225.596H185.962C189.038 225.596 191.788 225.492 193.733 227.914C194.449 228.807 194.19 230.79 194.19 231.93C194.19 235.37 193.816 238.888 193.816 242.405C193.816 246.346 194.481 250.314 194.481 254.577C194.481 258.84 194.519 263.116 195.021 266.617C195.471 269.755 195.021 272.528 195.021 276.572C195.021 282.482 195.844 287.307 195.021 292.501C194.305 297.016 193.513 301.402 193.442 305.998C193.372 310.505 192.823 315.618 193.525 320.074C194.18 324.233 192.664 330.054 196.143 332.826C196.704 333.273 198.933 333.213 199.675 333.364C200.652 333.564 201.846 334.027 202.792 334.027C206.087 334.027 209.414 334.772 212.765 334.772C217.52 334.772 222.568 334.027 227.476 334.027C229.048 334.027 230.603 333.654 232.255 333.654C234.342 333.654 236.815 333.984 238.696 332.992C241.719 331.397 242.062 328.482 242.062 325.457V292.377C242.062 282.966 241.367 273.711 240.94 264.348C240.842 262.204 241.207 260.148 241.314 258.013C241.543 253.442 242.449 248.49 243.475 244.02C244.453 239.755 243.558 234.743 243.558 230.254C243.558 229.738 243.874 227.068 244.211 226.799C244.897 226.252 245.524 225.596 246.397 225.596H248.233C257.427 225.596 266.831 226.14 275.888 224.499C278.851 223.962 283.249 223.8 283.971 220.566C285.264 214.767 285.446 208.885 285.446 202.825V194.11C285.446 192.68 284.488 187.671 283.036 186.844C280.134 185.192 276.852 182.745 273.291 182.745C267.06 182.745 260.763 183.118 254.591 183.118C250.092 183.118 245.559 183.28 241.065 183.097C236.181 182.899 231.421 182 226.52 182C215.724 182 204.951 182.373 194.148 182.373H184.092C180.181 182.373 175.864 182.85 171.999 182.186C168.019 181.503 163.442 182.973 159.657 184.029C157.583 184.607 156.086 186.927 155.647 188.893C155.176 191.006 154.546 192.567 154.546 194.855C154.546 196.616 154.172 198.401 154.172 200.093C154.172 208.373 152.499 218.077 159.595 223.733C161.899 225.569 165.462 224.703 168.218 225.203Z" fill="#0000FF"/>
<path d="M299.756 228.162V253.129C299.756 256.04 300.221 259.711 300.221 261.22C300.221 263.95 300.506 268.253 300.847 270.972C301.187 273.68 301.587 278.619 301.587 281.332C301.587 287.569 302.5 289.58 301.613 295.767C300.605 302.796 299.671 310.207 300.22 317.324C300.466 320.502 299.831 326.175 301.819 328.722C303.354 330.688 305.067 331.726 306.821 333.474C308.53 335.177 313.814 334.039 316.308 334.039C322.158 334.039 327.898 333.576 333.813 333.576C335.948 333.576 339.414 333.921 341.29 332.883C342.751 332.074 347.291 332.243 347.555 329.878C347.87 327.049 347.555 324.475 347.555 321.555V313.798C347.555 311.96 347.995 309.086 347.995 307.058C347.995 305.503 347.942 303.854 348.38 302.497C348.965 300.684 348.932 298.688 348.932 296.792C348.932 292.643 349.241 288.838 348.509 284.825C348.075 282.45 348.67 279.482 351.499 279.482C354.201 279.482 356.36 278.739 357.661 281.332C358.875 283.751 360.388 286.049 361.941 288.369C364.544 293.992 364.856 297.337 367.978 303.014C368.409 304.41 370.15 307.274 370.788 308.61C371.512 310.124 372.23 312.463 372.974 313.798C374.047 317.187 375.352 318.851 376.096 321.99C376.754 324.762 377.868 326.792 378.594 329.145C379.284 331.379 382.618 333.279 385.151 333.576C390.669 334.223 395.69 334.963 401.489 334.963C406.867 334.963 412.297 335.187 417.602 334.527C420.042 334.223 422.357 334.039 424.821 334.039C431.674 334.039 425.507 324.773 424.228 322.48C422.504 319.388 421.091 315.748 419.974 312.411C419.571 311.206 418.974 309.777 418.453 308.61C417.928 307.431 416.734 306.67 416.236 305.553C414.56 301.797 411.52 298.581 409.507 294.971C406.123 288.902 403.493 282.082 400.716 275.758C398.059 269.708 396.077 263.534 392.569 257.855C391.879 256.738 390.793 255.954 390.713 254.516C390.644 253.281 391.356 252.673 391.615 251.51C391.993 249.816 393.29 245.978 394.631 244.832C396.734 243.036 398.233 239.174 399.736 236.844C403.709 230.687 407.306 224.321 411.853 218.556C417.034 211.987 421.477 205.231 424.795 197.673C425.228 196.688 425.1 195.628 425.749 194.694C426.157 194.107 426.721 193.521 426.884 192.793C427.061 191.997 427.912 190.227 427.27 189.428C426.173 188.061 425.051 184.368 422.733 184.24C418.063 183.981 413.654 184.702 409.043 184.702C406.175 184.702 403.15 184.24 400.174 184.24C393.331 184.24 387.04 183.726 380.967 186.911C378.901 187.994 377.507 190.462 375.863 192.099C373.863 194.091 373.047 196.989 371.222 199.035C369.628 200.822 368.808 203.443 367.406 205.405C365.699 207.794 363.781 210.4 362.663 213.136C361.134 216.875 359.693 220.27 357.661 223.796C355.856 226.927 353.901 230.051 352.66 233.453C352.096 234.999 351.001 236.157 350.339 237.64C350.026 238.342 347.61 239.593 347.555 238.231C347.331 232.659 348.483 227.236 348.483 221.689C348.483 213.111 349.411 204.825 349.411 196.26C349.411 193.342 349.247 190.325 347.787 187.707C346.208 184.876 344.912 184.702 341.754 184.702C338.832 184.702 336.199 183.889 333.272 183.777C329.591 183.636 325.746 183.315 321.928 183.315C318.666 183.315 315.591 183.431 312.415 183.803C309.201 184.18 305.325 184.055 302.773 186.089C302.171 186.568 302.541 188.813 302.541 189.556C302.541 192.985 301.703 196.457 301.613 199.908C301.367 209.346 299.756 218.694 299.756 228.162Z" fill="#0000FF"/>
</svg>
