<svg width="500" height="370" viewBox="0 0 500 370" fill="none" xmlns="http://www.w3.org/2000/svg">
<path fill-rule="evenodd" clip-rule="evenodd" d="M127.885 277.833C127.309 281.004 127.999 284.405 128.589 287.314L128.591 287.324C128.624 287.484 128.656 287.643 128.688 287.801C128.713 287.927 128.738 288.052 128.763 288.176H143.568C145.745 288.176 147.923 287.995 150.099 287.815L150.102 287.815C153.003 287.574 155.903 287.334 158.793 287.522C162.101 287.737 164.759 287.437 167.555 287.121C169.791 286.868 172.114 286.606 174.928 286.589C175.918 286.867 180.065 287.214 180.811 285.794C181.75 284.006 181.425 280.57 181.163 277.801C181.058 276.696 180.963 275.697 180.963 274.951V268.565C180.963 264.589 180.907 260.597 180.85 256.599L180.85 256.596C180.675 244.227 180.499 231.799 181.994 219.581C182.404 216.224 182.56 212.841 182.715 209.46C182.908 205.25 183.101 201.043 183.787 196.896L183.802 196.802C185.12 188.84 186.404 181.076 186.458 172.981C186.461 172.598 186.398 171.868 186.318 170.935C185.97 166.899 185.296 159.062 188.175 159.062C193.921 159.062 199.657 158.88 205.396 158.697L205.398 158.697C213.186 158.449 220.981 158.201 228.814 158.409C229.795 158.435 230.75 158.566 231.661 158.691C234.517 159.083 236.956 159.418 238.506 156.294C239.093 155.111 240.032 153.172 240.032 151.796C240.032 147.873 239.92 143.986 239.809 140.109C239.587 132.384 239.365 124.698 240.032 116.846C240.067 116.44 240.181 115.716 240.326 114.794C241.042 110.26 242.514 100.928 239.002 100.928C228.569 100.928 218.127 101.331 207.693 101.735L207.69 101.735C203.867 101.883 200.046 102.03 196.227 102.158C192.217 102.292 188.234 102.384 184.262 102.475L184.261 102.475C170.786 102.785 157.436 103.093 143.568 105.048C122.169 105.048 100.023 105.324 78.6228 107.579C74.1907 108.046 75.3342 112.241 76.4503 116.335C76.7576 117.462 77.0628 118.582 77.2491 119.614C77.4667 120.82 77.5536 122.141 77.6414 123.476C77.7828 125.627 77.9265 127.813 78.6227 129.611C80.1715 133.609 80.9203 138.257 81.6526 142.801C82.0545 145.295 82.4514 147.758 82.9728 150.065C83.147 150.837 83.2455 151.705 83.3464 152.594C83.5361 154.267 83.7343 156.014 84.461 157.332C85.5607 159.327 87.8114 159.214 89.9082 159.108C90.3686 159.085 90.8215 159.062 91.2531 159.062C92.7226 159.062 94.1538 159.234 95.5903 159.407C97.0372 159.58 98.4894 159.754 99.9914 159.754C100.633 159.754 101.875 159.696 103.499 159.62C111.651 159.236 129.45 158.398 129.45 162.215C129.45 166.252 130.086 170.735 130.722 175.219C131.358 179.702 131.994 184.185 131.994 188.222C131.994 195.902 131.531 203.172 131.067 210.45L131.067 210.451C130.602 217.743 130.136 225.043 130.136 232.769C130.136 233.352 130.104 233.953 130.071 234.559C130.005 235.784 129.938 237.029 130.136 238.178C130.136 241.589 129.772 245.083 129.418 248.475C129.101 251.52 128.792 254.484 128.763 257.233C128.73 260.323 128.802 262.556 128.864 264.46C129 268.647 129.084 271.237 127.885 277.833ZM264.253 194.381C264.253 188.125 264.19 180.613 264.124 172.639C263.876 142.689 263.573 106.223 266.315 105.334C270.611 105.334 276.02 106.023 281.437 106.714C286.868 107.407 292.306 108.101 296.637 108.101C298.835 108.101 301.033 108.095 303.231 108.09C307.628 108.078 312.025 108.067 316.421 108.101C316.648 108.102 316.901 108.097 317.171 108.091C318.577 108.06 320.438 108.019 321.462 108.946L321.514 108.993C322.204 109.618 323.646 110.922 323.677 111.713C323.73 113.039 324.038 113.335 324.267 113.556C324.536 113.815 324.697 113.971 324.212 115.559C322.233 122.03 322.683 132.359 323.091 141.725V141.727C323.322 147.029 323.539 152.023 323.295 155.833C322.884 162.252 322.951 167.132 323.142 173.381C323.277 174.197 323.291 174.954 323.304 175.68C323.329 177.066 323.352 178.341 324.212 179.7C324.448 180.074 324.45 180.071 324.533 179.933C324.568 179.873 324.619 179.79 324.708 179.7C329.125 175.255 331.329 169.549 333.553 163.795C334.481 161.393 335.413 158.982 336.51 156.651C337.725 154.071 339.295 151.401 340.881 148.705L340.883 148.703C342.814 145.42 344.769 142.097 346.134 138.846C348.264 133.771 350.774 128.906 353.286 124.038L353.286 124.036C354.88 120.948 356.475 117.857 357.973 114.711C358.672 113.243 360.146 112.168 362.327 111.865C366.91 111.229 371.773 111.198 376.602 111.168C380.127 111.146 383.634 111.123 386.999 110.866C395.716 110.198 404.519 110.033 413.266 109.869L415.414 109.828C416.086 109.815 417.032 109.657 418.011 109.494C420.373 109.1 422.927 108.674 422.288 110.174C421.979 110.899 422.017 111.643 422.055 112.386C422.087 113.011 422.118 113.635 421.944 114.248C421.591 115.493 421.308 115.56 421.006 115.632C420.697 115.705 420.367 115.782 419.92 117.132C417.691 123.862 415.413 130.704 411.671 136.771C410.795 138.191 409.905 139.592 409.016 140.992L409.012 140.999L409.009 141.004C407.702 143.061 406.397 145.116 405.14 147.224C404.279 148.669 403.211 149.923 402.145 151.175C400.905 152.633 399.667 154.087 398.762 155.833C396.801 159.616 394.761 163.382 392.728 167.132C391.16 170.025 388.473 173.024 385.716 176.101C381.702 180.582 377.537 185.23 376.46 189.961C375.979 192.074 377.449 195.801 378.457 197.576C379.434 199.296 380.089 202.54 380.683 205.486C381.052 207.313 381.398 209.026 381.783 210.189L381.785 210.195C383.728 216.06 384.655 218.861 387.994 224.165C389.058 225.857 389.815 227.625 390.572 229.394C391.283 231.055 391.993 232.715 392.959 234.311C395.138 237.914 396.974 241.721 398.813 245.536L398.813 245.537C400.683 249.415 402.557 253.301 404.798 256.986C406.008 258.975 407.296 260.904 408.585 262.833L408.586 262.834C410.316 265.424 412.046 268.013 413.582 270.745C413.987 271.465 414.531 272.475 415.161 273.647L415.162 273.649C417.507 278.009 421.058 284.612 423.198 286.884C427.038 290.964 417.982 289.253 413.679 288.44C412.825 288.279 412.158 288.153 411.817 288.114C398.755 286.647 386.47 287.289 373.36 287.973L373.322 287.975C372.434 288.022 371.542 288.068 370.646 288.114C370.139 288.14 369.539 288.219 368.894 288.303L368.893 288.303C366.403 288.628 363.239 289.04 362.167 286.884C362.024 286.597 361.886 286.256 361.74 285.899L361.74 285.897L361.739 285.896C361.366 284.978 360.948 283.95 360.296 283.426C359.137 282.493 353.894 273.113 353.583 271.706C353.286 270.361 352.388 269.249 351.499 268.147L351.498 268.146C350.889 267.391 350.284 266.642 349.879 265.826C349.42 264.903 349.052 263.917 348.681 262.922C348.302 261.908 347.92 260.885 347.434 259.907C346.519 258.065 345.687 256.225 344.859 254.394L344.858 254.392L344.857 254.391C343.565 251.534 342.283 248.7 340.713 245.918C337.987 241.091 335.486 234.641 333.952 229.493C333.653 227.454 331.627 223.32 329.092 223.32C327.917 223.32 326.604 223.065 325.276 222.808C322.574 222.284 319.811 221.749 318.027 223.32C317.728 223.583 317.78 224.511 317.819 225.2C317.835 225.477 317.848 225.716 317.836 225.856C317.676 227.629 317.546 229.408 317.416 231.188L317.416 231.19C317.23 233.747 317.043 236.305 316.766 238.846C316.575 240.598 316.383 242.337 316.192 244.068L316.191 244.069L316.191 244.07C315.27 252.396 314.371 260.527 313.745 268.874C313.624 270.496 312.374 286.5 311.699 286.5C309.965 286.5 308.267 286.442 306.598 286.384C303.343 286.272 300.195 286.164 297.096 286.5C292.799 286.966 258.502 289.615 258.751 285.09C258.906 282.287 259.634 273.817 260.281 271.052C261.506 265.813 262.19 259.123 262.19 253.72V228.201C262.19 223.689 262.633 219.48 263.527 215.057C264.56 209.945 264.442 204.6 264.326 199.337L264.326 199.333C264.289 197.671 264.253 196.017 264.253 194.381Z" fill="#0000FF"/>
</svg>
