<svg width="500" height="500" viewBox="0 0 500 500" fill="none" xmlns="http://www.w3.org/2000/svg">
<path d="M316.611 198.625H323.755C328.358 198.625 332.09 194.894 332.09 190.291V168.407L345.066 155.246C344.385 156.454 343.996 157.849 343.996 159.334V312.331C343.996 316.934 347.727 320.665 352.33 320.665H390.26C394.863 320.665 398.594 316.934 398.594 312.331V259.609H407.695L432.122 313.662C434.049 317.925 438.294 320.665 442.972 320.665H482.834C486.358 320.665 488.661 316.97 487.11 313.806L446.403 230.772L486.569 158.065C488.323 154.891 486.027 151 482.401 151H482.809L483.686 151.078L484.499 151.303L485.237 151.658L485.891 152.126L486.452 152.693L486.911 153.342L487.257 154.058L487.482 154.823L487.576 155.622L487.53 156.44L487.333 157.26L486.978 158.065L446.811 230.772L487.518 313.806L487.827 314.606L487.985 315.413L488 316.213L487.882 316.991L487.64 317.732L487.283 318.422L486.821 319.046L458.656 346.809L458.098 347.352L457.453 347.799L456.73 348.136L455.938 348.35L455.087 348.424H415.329L414.173 348.368L413.041 348.202L411.94 347.93L410.877 347.558L409.858 347.088L408.889 346.526L407.978 345.875L407.13 345.14L406.353 344.324L405.653 343.433L405.035 342.47L404.508 341.439L394.805 319.97L368.632 345.989L367.834 346.692L366.95 347.289L365.99 347.771L364.964 348.127L363.882 348.348L362.754 348.424H324.924L323.796 348.348L322.714 348.127L321.688 347.771L320.728 347.289L319.844 346.692L319.046 345.989L318.343 345.191L317.746 344.307L317.265 343.347L316.908 342.321L316.687 341.239L316.611 340.111V198.625Z" fill="#0000FF"/>
<path d="M406.133 182.63L432.042 156.568C431.973 156.678 431.906 156.789 431.84 156.901L400.813 210.019C400.2 211.068 398.594 210.633 398.594 209.418V159.334C398.594 154.731 394.863 151 390.26 151H390.668L391.799 151.076L392.884 151.298L393.912 151.655L394.874 152.138L395.761 152.737L396.561 153.441L397.266 154.242L397.864 155.128L398.347 156.09L398.705 157.119L398.926 158.204L399.002 159.334V194.031L404.226 185.087L404.795 184.206L405.432 183.386L406.133 182.63Z" fill="#0000FF"/>
<path d="M316.611 198.625H323.755C328.358 198.625 332.09 194.894 332.09 190.291V168.407L345.066 155.246C344.385 156.454 343.996 157.849 343.996 159.334V312.331C343.996 316.934 347.727 320.665 352.33 320.665H390.26C394.863 320.665 398.594 316.934 398.594 312.331V259.609H407.695L432.122 313.662C434.049 317.925 438.294 320.665 442.972 320.665H482.834C486.358 320.665 488.661 316.97 487.11 313.806L446.403 230.772L486.569 158.065C488.323 154.891 486.027 151 482.401 151H482.809L483.686 151.078L484.499 151.303L485.237 151.658L485.891 152.126L486.452 152.693L486.911 153.342L487.257 154.058L487.482 154.823L487.576 155.622L487.53 156.44L487.333 157.26L486.978 158.065L446.811 230.772L487.518 313.806L487.827 314.606L487.985 315.413L488 316.213L487.882 316.991L487.64 317.732L487.283 318.422L486.821 319.046L458.656 346.809L458.098 347.352L457.453 347.799L456.73 348.136L455.938 348.35L455.087 348.424H415.329L414.173 348.368L413.041 348.202L411.94 347.93L410.877 347.558L409.858 347.088L408.889 346.526L407.978 345.875L407.13 345.14L406.353 344.324L405.653 343.433L405.035 342.47L404.508 341.439L394.805 319.97L368.632 345.989L367.834 346.692L366.95 347.289L365.99 347.771L364.964 348.127L363.882 348.348L362.754 348.424H324.924L323.796 348.348L322.714 348.127L321.688 347.771L320.728 347.289L319.844 346.692L319.046 345.989L318.343 345.191L317.746 344.307L317.265 343.347L316.908 342.321L316.687 341.239L316.611 340.111V198.625Z" stroke="#0000FF" stroke-width="4" stroke-linecap="round" stroke-linejoin="round"/>
<path d="M406.133 182.63L432.042 156.568C431.973 156.678 431.906 156.789 431.84 156.901L400.813 210.019C400.2 211.068 398.594 210.633 398.594 209.418V159.334C398.594 154.731 394.863 151 390.26 151H390.668L391.799 151.076L392.884 151.298L393.912 151.655L394.874 152.138L395.761 152.737L396.561 153.441L397.266 154.242L397.864 155.128L398.347 156.09L398.705 157.119L398.926 158.204L399.002 159.334V194.031L404.226 185.087L404.795 184.206L405.432 183.386L406.133 182.63Z" stroke="#0000FF" stroke-width="4" stroke-linecap="round" stroke-linejoin="round"/>
<path d="M372.571 174.813V234.344M372.571 234.344V294.471M372.571 234.344H416.029M416.029 234.344H423.768L451.748 294.471M416.029 234.344L449.367 175.408" stroke="#0000FF" stroke-width="4" stroke-linecap="round" stroke-linejoin="round"/>
<path d="M343.996 159.334V312.331C343.996 316.934 347.727 320.665 352.33 320.665H390.259C394.862 320.665 398.594 316.934 398.594 312.331V259.609H407.694L432.122 313.662C434.049 317.925 438.294 320.665 442.972 320.665H482.833C486.357 320.665 488.661 316.97 487.11 313.806L446.403 230.772L486.569 158.065C488.322 154.891 486.027 151 482.4 151H442.121C437.889 151 433.975 153.247 431.84 156.901L400.812 210.019C400.2 211.068 398.594 210.633 398.594 209.418V159.334C398.594 154.731 394.862 151 390.259 151H352.33C347.727 151 343.996 154.731 343.996 159.334Z" stroke="#0000FF" stroke-width="4" stroke-linecap="round" stroke-linejoin="round"/>
<path d="M323.755 151C328.358 151 332.089 154.731 332.089 159.334V190.291C332.089 194.894 328.358 198.625 323.755 198.625H285.484V312.331C285.484 316.934 281.752 320.665 277.149 320.665H239.22C234.617 320.665 230.886 316.934 230.886 312.331V198.625H192.785C188.182 198.625 184.451 194.894 184.451 190.291V159.334C184.451 157.844 184.842 156.445 185.528 155.234L159.501 181.637L158.798 182.435L158.201 183.319L157.72 184.279L157.363 185.305L157.142 186.387L157.066 187.515V218.39L157.142 219.518L157.363 220.6L157.72 221.626L158.201 222.586L158.798 223.47L159.501 224.268L160.299 224.971L161.183 225.568L162.143 226.05L163.169 226.406L164.251 226.627L165.379 226.703H203.38V340.111L203.456 341.239L203.677 342.321L204.033 343.347L204.515 344.307L205.112 345.191L205.815 345.989L206.613 346.692L207.497 347.289L208.457 347.771L209.483 348.127L210.564 348.348L211.692 348.424H249.523L250.651 348.348L251.733 348.127L252.758 347.771L253.718 347.289L254.602 346.692L255.401 345.989L283.446 318.224L284.15 317.424L284.749 316.537L285.232 315.575L285.589 314.546L285.811 313.462L285.887 312.331V226.703H296.007L297.135 226.627L298.216 226.406L299.242 226.05L300.202 225.568L301.086 224.971L301.885 224.268L330.051 196.184L330.756 195.384L331.354 194.497L331.837 193.535L332.195 192.507L332.416 191.422L332.492 190.291V159.334L332.416 158.204L332.195 157.119L331.837 156.09L331.354 155.128L330.756 154.242L330.051 153.441L329.251 152.737L328.365 152.138L327.402 151.655L326.374 151.298L325.289 151.076L324.158 151H323.755Z" fill="#0000FF" stroke="#0000FF" stroke-width="4" stroke-linecap="round" stroke-linejoin="round"/>
<path d="M208.264 174.813H258.27M258.27 174.813H308.277M258.27 174.813L258.227 235.833L258.185 296.852" stroke="#0000FF" stroke-width="4" stroke-linecap="round" stroke-linejoin="round"/>
<path d="M239.22 320.665H277.15C281.752 320.665 285.484 316.934 285.484 312.331V198.625H323.755C328.358 198.625 332.09 194.894 332.09 190.291V159.334C332.09 154.731 328.358 151 323.755 151H192.786C188.183 151 184.451 154.731 184.451 159.334V190.291C184.451 194.894 188.183 198.625 192.786 198.625H230.886V312.331C230.886 316.934 234.617 320.665 239.22 320.665Z" stroke="#0000FF" stroke-width="4" stroke-linecap="round" stroke-linejoin="round"/>
</svg>
