<svg width="500" height="370" viewBox="0 0 500 370" fill="none" xmlns="http://www.w3.org/2000/svg">
<path fill-rule="evenodd" clip-rule="evenodd" d="M382.677 366.6C377.158 366.602 372.172 366.603 366.913 366.204C366.083 366.141 365.254 366.078 364.424 366.016C348.875 364.839 333.359 363.665 317.924 361.123C310.623 359.92 302.739 360.075 295.022 360.227C291.213 360.301 287.446 360.375 283.809 360.285C278.924 360.164 274.054 360.199 269.19 360.235C260.018 360.302 250.868 360.369 241.686 359.383C231.02 358.237 220.296 357.679 209.57 357.12C196.155 356.422 182.737 355.723 169.421 353.875C163.264 353.02 157.082 352.988 150.89 352.957C144.101 352.922 137.299 352.887 130.502 351.767C126.7 351.141 122.881 351.048 119.056 350.955C115.219 350.862 111.377 350.769 107.539 350.136L92.0369 347.583C83.4064 346.161 75.6117 341.204 67.9149 336.31C63.3706 333.42 58.8604 330.552 54.2326 328.446C42.3008 323.016 34.9542 312.327 28.9541 301.151C23.8449 291.635 20.2145 278.832 18.282 268.135C17.1859 262.067 15.203 256.135 13.2104 250.173C11.1901 244.129 9.15984 238.055 8.03401 231.781C1.79559 197.012 6.23325 163.02 11.864 128.355C12.6254 123.667 14.9935 119.518 17.6849 115.746C20.215 112.201 23.0369 109.394 26.0973 106.351L26.1809 106.268C27.3442 105.111 28.4574 103.558 29.6025 101.962C31.6137 99.157 33.7234 96.2151 36.3763 95.0372C38.6328 94.0353 42.4358 89.2112 44.5941 86.4733C44.8768 86.1147 45.1313 85.7918 45.3504 85.518C46.8495 83.6451 49.9315 81.8192 52.7297 80.1615C54.0813 79.3608 55.3667 78.5993 56.3754 77.8907C60.938 74.6856 65.3877 69.958 69.9182 65.1447C76.8424 57.7882 83.9553 50.2313 91.9479 47.603C97.917 45.6402 103.96 43.9432 110 42.247C115.187 40.7903 120.372 39.3342 125.507 37.7106C136.97 34.0864 148.469 28.45 159.485 23.0507C161.77 21.9307 164.034 20.8208 166.273 19.7413C185.166 10.6312 206.778 8.63297 228.827 6.5945C234.946 6.02872 241.099 5.45983 247.237 4.73492C259.836 4.18033 289.589 3.4039 307.81 4.73493C319.279 5.09149 331.24 6.20368 342.58 8.07164C355.586 10.214 367.709 15.638 379.665 21.1135C392.454 26.9706 403.015 33.1911 410.869 43.9397C423.532 55.3898 425.572 57.2679 435.492 69.5736C456.459 95.5819 467.778 127.99 478.711 159.294C479.876 162.628 481.036 165.951 482.203 169.252C486.284 180.792 490.111 193.791 492.232 205.868C493.137 211.021 493.199 216.298 493.261 221.541C493.329 227.318 493.396 233.053 494.59 238.531C495.717 243.702 494.309 248.716 492.922 253.655C492.264 255.995 491.612 258.317 491.236 260.631C490.612 264.472 489.212 267.876 487.82 271.26C486.819 273.694 485.821 276.119 485.12 278.69C484.459 281.109 482.656 283.236 480.851 285.364C479.16 287.358 477.468 289.353 476.716 291.59C475.521 295.147 472.666 298.274 469.818 301.393C466.79 304.709 463.77 308.016 462.759 311.824C462.197 313.942 456.123 321.534 454.227 322.253C453.185 322.647 449.038 327.57 448.098 328.774C445.818 331.693 442.679 334.028 439.516 336.381C435.826 339.125 432.104 341.894 429.677 345.642C426.396 350.708 421.728 353.214 416.841 355.838C416.083 356.245 415.319 356.655 414.555 357.078C411.094 358.991 407.164 360.484 403.441 361.897C402.376 362.302 401.328 362.7 400.313 363.099C399.377 363.467 398.54 363.894 397.728 364.309C396.218 365.079 394.796 365.804 393 366.019C390.789 366.283 387.524 366.6 383.827 366.6C383.441 366.6 383.058 366.6 382.677 366.6ZM128.589 287.314C127.999 284.405 127.309 281.004 127.885 277.833C129.084 271.237 129 268.647 128.864 264.46C128.803 262.557 128.73 260.323 128.763 257.233C128.792 254.484 129.101 251.521 129.419 248.475C129.772 245.083 130.137 241.59 130.137 238.178C129.938 237.029 130.005 235.785 130.071 234.559C130.104 233.953 130.137 233.352 130.137 232.769C130.137 225.043 130.602 217.743 131.067 210.451L131.067 210.45C131.531 203.172 131.994 195.902 131.994 188.222C131.994 184.185 131.358 179.702 130.722 175.219C130.086 170.736 129.45 166.252 129.45 162.215C129.45 158.398 111.651 159.236 103.499 159.62C101.875 159.696 100.633 159.755 99.9915 159.755C98.4895 159.755 97.0373 159.58 95.5904 159.407C94.1539 159.234 92.7227 159.062 91.2532 159.062C90.8216 159.062 90.3687 159.085 89.9084 159.108C87.8116 159.214 85.5608 159.327 84.4611 157.332C83.7344 156.014 83.5362 154.267 83.3465 152.594C83.2456 151.705 83.1471 150.837 82.9729 150.065C82.4515 147.758 82.0546 145.295 81.6528 142.801C80.9205 138.257 80.1716 133.609 78.6229 129.611C77.9267 127.813 77.7829 125.627 77.6415 123.476C77.5537 122.141 77.4668 120.82 77.2492 119.614C77.0629 118.582 76.7577 117.462 76.4504 116.335C75.3343 112.241 74.1909 108.046 78.6229 107.579C100.023 105.324 122.169 105.048 143.568 105.048C157.436 103.093 170.786 102.786 184.261 102.475L184.262 102.475C188.234 102.384 192.217 102.292 196.227 102.158C200.046 102.03 203.867 101.883 207.69 101.735L207.693 101.735C218.127 101.331 228.569 100.928 239.002 100.928C242.514 100.928 241.042 110.26 240.327 114.794C240.181 115.716 240.067 116.44 240.032 116.846C239.366 124.699 239.587 132.384 239.809 140.109C239.921 143.986 240.032 147.873 240.032 151.796C240.032 153.172 239.093 155.111 238.506 156.294C236.956 159.418 234.517 159.083 231.662 158.691C230.75 158.566 229.795 158.435 228.814 158.409C220.981 158.201 213.186 158.449 205.398 158.697L205.396 158.697C199.657 158.88 193.921 159.062 188.175 159.062C185.296 159.062 185.97 166.899 186.318 170.935C186.398 171.868 186.461 172.598 186.458 172.981C186.404 181.076 185.12 188.84 183.803 196.803L183.787 196.896C183.101 201.043 182.908 205.249 182.715 209.459C182.56 212.84 182.404 216.224 181.994 219.581C180.499 231.799 180.675 244.228 180.85 256.597L180.85 256.599C180.907 260.597 180.963 264.589 180.963 268.565V274.951C180.963 275.697 181.058 276.696 181.163 277.801C181.425 280.57 181.75 284.006 180.811 285.794C180.065 287.214 175.918 286.867 174.928 286.589C172.114 286.606 169.791 286.868 167.555 287.121C164.76 287.437 162.101 287.737 158.793 287.522C155.902 287.334 153.004 287.574 150.102 287.815L150.1 287.815C147.924 287.995 145.746 288.176 143.568 288.176H128.763C128.738 288.052 128.713 287.927 128.688 287.801C128.655 287.64 128.623 287.478 128.589 287.314ZM264.124 172.639C264.19 180.613 264.253 188.125 264.253 194.381C264.253 196.018 264.289 197.673 264.326 199.337C264.442 204.6 264.56 209.945 263.527 215.057C262.633 219.48 262.19 223.689 262.19 228.201V253.72C262.19 259.123 261.506 265.813 260.281 271.053C259.634 273.817 258.906 282.287 258.752 285.09C258.502 289.615 292.799 286.966 297.096 286.5C300.196 286.164 303.343 286.273 306.599 286.384C308.268 286.442 309.965 286.5 311.699 286.5C312.374 286.5 313.624 270.496 313.745 268.874C314.371 260.527 315.271 252.396 316.191 244.069L316.192 244.068C316.383 242.337 316.575 240.598 316.766 238.847C317.044 236.305 317.23 233.747 317.416 231.19L317.416 231.188C317.546 229.409 317.676 227.629 317.836 225.857C317.848 225.716 317.835 225.477 317.819 225.2C317.78 224.511 317.728 223.583 318.027 223.32C319.811 221.749 322.575 222.285 325.276 222.808C326.604 223.066 327.917 223.32 329.092 223.32C331.627 223.32 333.653 227.454 333.952 229.493C335.486 234.641 337.987 241.091 340.713 245.918C342.284 248.7 343.565 251.535 344.858 254.393L344.859 254.394C345.687 256.225 346.519 258.065 347.434 259.907C347.92 260.885 348.302 261.908 348.681 262.922C349.052 263.917 349.42 264.903 349.879 265.826C350.284 266.642 350.889 267.392 351.499 268.147C352.388 269.249 353.286 270.361 353.583 271.706C353.894 273.113 359.138 282.493 360.296 283.426C360.948 283.95 361.366 284.978 361.739 285.896L361.74 285.897L361.741 285.899C361.886 286.256 362.024 286.597 362.167 286.885C363.239 289.041 366.403 288.628 368.893 288.303C369.539 288.219 370.139 288.14 370.646 288.114C371.555 288.068 372.459 288.02 373.36 287.973C386.47 287.289 398.755 286.647 411.817 288.114C412.158 288.153 412.825 288.279 413.679 288.44C417.982 289.253 427.038 290.964 423.198 286.885C421.058 284.612 417.507 278.009 415.162 273.649L415.161 273.647C414.531 272.475 413.988 271.465 413.583 270.745C412.046 268.013 410.316 265.424 408.586 262.834L408.585 262.833C407.297 260.904 406.008 258.975 404.798 256.986C402.557 253.301 400.683 249.415 398.814 245.537L398.813 245.536C396.974 241.722 395.138 237.914 392.959 234.312C391.993 232.715 391.283 231.055 390.572 229.394C389.815 227.625 389.059 225.857 387.994 224.166C384.656 218.861 383.728 216.06 381.785 210.195L381.783 210.189C381.398 209.026 381.052 207.313 380.683 205.486C380.089 202.54 379.434 199.296 378.458 197.576C377.449 195.801 375.979 192.074 376.46 189.961C377.538 185.23 381.701 180.582 385.716 176.101C388.473 173.024 391.16 170.025 392.728 167.132C394.761 163.382 396.801 159.616 398.762 155.833C399.667 154.087 400.905 152.633 402.146 151.176C403.211 149.924 404.279 148.669 405.14 147.225C406.397 145.116 407.702 143.061 409.009 141.004L409.012 140.999L409.016 140.992C409.905 139.592 410.795 138.191 411.671 136.771C415.413 130.704 417.691 123.862 419.92 117.132C420.367 115.782 420.697 115.705 421.006 115.632C421.308 115.56 421.591 115.494 421.944 114.248C422.118 113.635 422.087 113.011 422.055 112.386C422.017 111.643 421.979 110.899 422.288 110.174C422.927 108.674 420.374 109.1 418.011 109.494C417.032 109.657 416.086 109.815 415.414 109.828L413.267 109.869C404.519 110.033 395.716 110.198 386.999 110.866C383.634 111.123 380.127 111.146 376.602 111.168C371.773 111.198 366.91 111.229 362.327 111.865C360.146 112.168 358.672 113.243 357.973 114.711C356.475 117.858 354.88 120.948 353.286 124.038C350.774 128.906 348.264 133.771 346.134 138.846C344.77 142.097 342.814 145.42 340.883 148.703C339.296 151.4 337.725 154.07 336.51 156.651C335.413 158.982 334.481 161.393 333.553 163.796C331.33 169.549 329.125 175.255 324.708 179.7C324.619 179.79 324.569 179.874 324.533 179.933C324.45 180.072 324.449 180.074 324.212 179.7C323.352 178.341 323.329 177.066 323.304 175.681C323.291 174.955 323.278 174.197 323.142 173.381C322.951 167.132 322.884 162.252 323.295 155.833C323.539 152.023 323.322 147.029 323.091 141.727V141.726C322.683 132.359 322.233 122.03 324.212 115.559C324.697 113.971 324.536 113.816 324.267 113.556C324.038 113.335 323.73 113.039 323.677 111.713C323.646 110.923 322.204 109.618 321.514 108.993L321.462 108.946C320.438 108.019 318.578 108.06 317.172 108.091C316.902 108.097 316.648 108.102 316.421 108.101C312.025 108.067 307.628 108.078 303.232 108.09C301.033 108.095 298.835 108.101 296.637 108.101C292.306 108.101 286.868 107.407 281.437 106.714C276.021 106.024 270.611 105.334 266.315 105.334C263.574 106.223 263.876 142.689 264.124 172.639Z" fill="#0000FF"/>
<path fill-rule="evenodd" clip-rule="evenodd" d="M127.885 277.833C127.309 281.004 127.999 284.405 128.589 287.314L128.591 287.324C128.624 287.484 128.656 287.643 128.688 287.801C128.713 287.927 128.738 288.052 128.763 288.176H143.568C145.745 288.176 147.923 287.995 150.099 287.815L150.102 287.815C153.003 287.574 155.903 287.334 158.793 287.522C162.101 287.737 164.759 287.437 167.555 287.121C169.791 286.868 172.114 286.606 174.928 286.589C175.918 286.867 180.065 287.214 180.811 285.794C181.75 284.006 181.425 280.57 181.163 277.801C181.058 276.696 180.963 275.697 180.963 274.951V268.565C180.963 264.589 180.907 260.597 180.85 256.599L180.85 256.596C180.675 244.227 180.499 231.799 181.994 219.581C182.404 216.224 182.56 212.841 182.715 209.46C182.908 205.25 183.101 201.043 183.787 196.896L183.802 196.802C185.12 188.84 186.404 181.076 186.458 172.981C186.461 172.598 186.398 171.868 186.318 170.935C185.97 166.899 185.296 159.062 188.175 159.062C193.921 159.062 199.657 158.88 205.396 158.697L205.398 158.697C213.186 158.449 220.981 158.201 228.814 158.409C229.795 158.435 230.75 158.566 231.661 158.691C234.517 159.083 236.956 159.418 238.506 156.294C239.093 155.111 240.032 153.172 240.032 151.796C240.032 147.873 239.92 143.986 239.809 140.109C239.587 132.384 239.365 124.698 240.032 116.846C240.067 116.44 240.181 115.716 240.326 114.794C241.042 110.26 242.514 100.928 239.002 100.928C228.569 100.928 218.127 101.331 207.693 101.735L207.69 101.735C203.867 101.883 200.046 102.03 196.227 102.158C192.217 102.292 188.234 102.384 184.262 102.475L184.261 102.475C170.786 102.785 157.436 103.093 143.568 105.048C122.169 105.048 100.023 105.324 78.6228 107.579C74.1907 108.046 75.3342 112.241 76.4503 116.335C76.7576 117.462 77.0628 118.582 77.2491 119.614C77.4667 120.82 77.5536 122.141 77.6414 123.476C77.7828 125.627 77.9265 127.813 78.6227 129.611C80.1715 133.609 80.9203 138.257 81.6526 142.801C82.0545 145.295 82.4514 147.758 82.9728 150.065C83.147 150.837 83.2455 151.705 83.3464 152.594C83.5361 154.267 83.7343 156.014 84.461 157.332C85.5607 159.327 87.8114 159.214 89.9082 159.108C90.3686 159.085 90.8215 159.062 91.2531 159.062C92.7226 159.062 94.1538 159.234 95.5903 159.407C97.0372 159.58 98.4894 159.754 99.9914 159.754C100.633 159.754 101.875 159.696 103.499 159.62C111.651 159.236 129.45 158.398 129.45 162.215C129.45 166.252 130.086 170.735 130.722 175.219C131.358 179.702 131.994 184.185 131.994 188.222C131.994 195.902 131.531 203.172 131.067 210.45L131.067 210.451C130.602 217.743 130.136 225.043 130.136 232.769C130.136 233.352 130.104 233.953 130.071 234.559C130.005 235.784 129.938 237.029 130.136 238.178C130.136 241.589 129.772 245.083 129.418 248.475C129.101 251.52 128.792 254.484 128.763 257.233C128.73 260.323 128.802 262.556 128.864 264.46C129 268.647 129.084 271.237 127.885 277.833ZM264.253 194.381C264.253 188.125 264.19 180.613 264.124 172.639C263.876 142.689 263.573 106.223 266.315 105.334C270.611 105.334 276.02 106.023 281.437 106.714C286.868 107.407 292.306 108.101 296.637 108.101C298.835 108.101 301.033 108.095 303.231 108.09C307.628 108.078 312.025 108.067 316.421 108.101C316.648 108.102 316.901 108.097 317.171 108.091C318.577 108.06 320.438 108.019 321.462 108.946L321.514 108.993C322.204 109.618 323.646 110.922 323.677 111.713C323.73 113.039 324.038 113.335 324.267 113.556C324.536 113.815 324.697 113.971 324.212 115.559C322.233 122.03 322.683 132.359 323.091 141.725V141.727C323.322 147.029 323.539 152.023 323.295 155.833C322.884 162.252 322.951 167.132 323.142 173.381C323.277 174.197 323.291 174.954 323.304 175.68C323.329 177.066 323.352 178.341 324.212 179.7C324.448 180.074 324.45 180.071 324.533 179.933C324.568 179.873 324.619 179.79 324.708 179.7C329.125 175.255 331.329 169.549 333.553 163.795C334.481 161.393 335.413 158.982 336.51 156.651C337.725 154.071 339.295 151.401 340.881 148.705L340.883 148.703C342.814 145.42 344.769 142.097 346.134 138.846C348.264 133.771 350.774 128.906 353.286 124.038L353.286 124.036C354.88 120.948 356.475 117.857 357.973 114.711C358.672 113.243 360.146 112.168 362.327 111.865C366.91 111.229 371.773 111.198 376.602 111.168C380.127 111.146 383.634 111.123 386.999 110.866C395.716 110.198 404.519 110.033 413.266 109.869L415.414 109.828C416.086 109.815 417.032 109.657 418.011 109.494C420.373 109.1 422.927 108.674 422.288 110.174C421.979 110.899 422.017 111.643 422.055 112.386C422.087 113.011 422.118 113.635 421.944 114.248C421.591 115.493 421.308 115.56 421.006 115.632C420.697 115.705 420.367 115.782 419.92 117.132C417.691 123.862 415.413 130.704 411.671 136.771C410.795 138.191 409.905 139.592 409.016 140.992L409.012 140.999L409.009 141.004C407.702 143.061 406.397 145.116 405.14 147.224C404.279 148.669 403.211 149.923 402.145 151.175C400.905 152.633 399.667 154.087 398.762 155.833C396.801 159.616 394.761 163.382 392.728 167.132C391.16 170.025 388.473 173.024 385.716 176.101C381.702 180.582 377.537 185.23 376.46 189.961C375.979 192.074 377.449 195.801 378.457 197.576C379.434 199.296 380.089 202.54 380.683 205.486C381.052 207.313 381.398 209.026 381.783 210.189L381.785 210.195C383.728 216.06 384.655 218.861 387.994 224.165C389.058 225.857 389.815 227.625 390.572 229.394C391.283 231.055 391.993 232.715 392.959 234.311C395.138 237.914 396.974 241.721 398.813 245.536L398.813 245.537C400.683 249.415 402.557 253.301 404.798 256.986C406.008 258.975 407.296 260.904 408.585 262.833L408.586 262.834C410.316 265.424 412.046 268.013 413.582 270.745C413.987 271.465 414.531 272.475 415.161 273.647L415.162 273.649C417.507 278.009 421.058 284.612 423.198 286.884C427.038 290.964 417.982 289.253 413.679 288.44C412.825 288.279 412.158 288.153 411.817 288.114C398.755 286.647 386.47 287.289 373.36 287.973L373.322 287.975C372.434 288.022 371.542 288.068 370.646 288.114C370.139 288.14 369.539 288.219 368.894 288.303L368.893 288.303C366.403 288.628 363.239 289.04 362.167 286.884C362.024 286.597 361.886 286.256 361.74 285.899L361.74 285.897L361.739 285.896C361.366 284.978 360.948 283.95 360.296 283.426C359.137 282.493 353.894 273.113 353.583 271.706C353.286 270.361 352.388 269.249 351.499 268.147L351.498 268.146C350.889 267.391 350.284 266.642 349.879 265.826C349.42 264.903 349.052 263.917 348.681 262.922C348.302 261.908 347.92 260.885 347.434 259.907C346.519 258.065 345.687 256.225 344.859 254.394L344.858 254.392L344.857 254.391C343.565 251.534 342.283 248.7 340.713 245.918C337.987 241.091 335.486 234.641 333.952 229.493C333.653 227.454 331.627 223.32 329.092 223.32C327.917 223.32 326.604 223.065 325.276 222.808C322.574 222.284 319.811 221.749 318.027 223.32C317.728 223.583 317.78 224.511 317.819 225.2C317.835 225.477 317.848 225.716 317.836 225.856C317.676 227.629 317.546 229.408 317.416 231.188L317.416 231.19C317.23 233.747 317.043 236.305 316.766 238.846C316.575 240.598 316.383 242.337 316.192 244.068L316.191 244.069L316.191 244.07C315.27 252.396 314.371 260.527 313.745 268.874C313.624 270.496 312.374 286.5 311.699 286.5C309.965 286.5 308.267 286.442 306.598 286.384C303.343 286.272 300.195 286.164 297.096 286.5C292.799 286.966 258.502 289.615 258.751 285.09C258.906 282.287 259.634 273.817 260.281 271.052C261.506 265.813 262.19 259.123 262.19 253.72V228.201C262.19 223.689 262.633 219.48 263.527 215.057C264.56 209.945 264.442 204.6 264.326 199.337L264.326 199.333C264.289 197.671 264.253 196.017 264.253 194.381Z" fill="#FFFDD0"/>
</svg>
