<svg width="500" height="90" viewBox="0 0 500 90" fill="none" xmlns="http://www.w3.org/2000/svg">
<path d="M32.7969 18.8569C30.3436 33.8742 30 49.7633 30 65.0055C30 68.9025 30.9323 80.5561 30.9323 76.6592M34.1953 21.6538C38.2332 19.169 44.3777 18.6353 48.9566 17.9506C55.0708 17.0363 61.5595 16.268 67.7579 16.5262C72.0987 16.7071 70.5912 27.6925 70.5289 29.656C70.0544 44.6016 50.7449 37.5028 41.6537 37.5028C40.9367 37.5028 40.0465 37.0885 39.556 37.0885C38.8917 37.0885 41.8853 40.6049 41.9644 40.7141C48.5371 49.7906 54.9623 59.0232 62.0605 67.6988C63.3514 69.2766 65.3495 70.4375 66.3595 72.2049C67.9846 75.0489 72.9052 76.2324 74.284 78.9899M121.094 20.2552C110.299 19.7412 95.4567 17.2283 89.8882 29.2933C85.5093 38.7809 89.4802 49.2726 93.8246 57.9613C98.8228 67.9577 107.327 72.9431 117.987 75.5195C121.398 76.344 124.885 76.9805 128.345 77.5654C130.033 77.8507 132.662 78.5692 134.353 77.8503C137.39 76.5598 138.726 71.8489 139.378 68.9417C140.957 61.8929 141.047 55.8906 139.481 48.8456C138.703 45.3458 137.968 41.7046 136.322 38.4867C134.632 35.1851 131.833 32.6093 129.485 29.7853C125.689 25.2213 121.892 18.9673 115.967 16.9922M242.829 22.7676C239.686 22.3184 236.603 21.7002 233.408 21.7002C231.253 21.7002 228.931 21.3393 226.954 22.7972C225.131 24.1419 223.47 25.9189 221.767 27.5412C218.067 31.065 215.188 36.5471 215.188 43.0479C215.188 46.9462 216.9 50.8242 217.99 54.2851C221.857 66.5647 229.765 77.0256 239.426 77.6192C242.416 77.803 245.101 77.3726 247.996 76.374C250.629 75.4661 253.975 75.2029 256.359 73.2311C257.241 72.5016 258.222 70.3924 258.704 69.1691C260.169 65.4489 260.789 59.5719 261.049 55.3821C261.394 49.8107 261.152 43.7292 259.721 38.4819C257.349 29.7834 251.362 24.3687 245.07 24.3687M296.672 20.9849C296.672 25.1566 297.648 29.1209 297.967 33.2601C298.306 37.6741 298.544 41.899 299.469 46.2604C300.607 51.6244 299.935 56.3124 299.935 61.5396V71.3287M272.433 28.7136C274.013 28.538 275.56 27.334 277.016 26.7713C282.575 24.6237 288.233 22.6513 293.824 20.5819C303.702 16.9252 313.955 13.5549 324.175 11M340.49 15.1201C340.49 20.068 340.357 25.0387 340.49 29.985C340.631 35.2407 341.465 40.4751 342.147 45.6786C342.648 49.503 342.779 53.7241 343.96 57.4359C344.331 58.601 344.685 60.5465 344.685 61.7348C344.685 64.4412 344.219 67.2925 344.219 70.1255M407.15 30.909C404.809 27.2518 402.29 25.6436 397.775 24.5901C389.638 22.6916 379.708 21.5114 371.463 23.0104C367.969 23.6457 365.596 25.4236 364.73 28.8372C363.406 34.0547 362.566 39.9982 362.425 45.3595C362.183 54.5506 360.787 64.9722 372.085 68.0972C380.239 70.3526 387.223 69.0104 394.279 63.7464C396.163 62.3405 399.236 60.1286 400.106 57.7383C400.401 56.9249 400.1 56.4004 400.624 55.6148M457.688 26.7739C457.555 25.5765 455.531 24.8415 454.684 24.3395C450.709 21.9836 446.699 20.1821 442.098 19.5745C437.281 18.9382 432.457 19.5742 426.688 24.3398C424.319 26.2974 426.204 30.4219 429.564 32.742C434.419 36.094 442.254 35.9547 447.847 37.4035C450.64 38.127 453.47 39.0832 456.134 40.2004C460 41.8216 463.804 43.5579 467.607 45.328C469.301 46.1165 470.521 47.042 470.714 48.9795C471.037 52.2091 468.994 60.7263 465.768 61.9498C462.083 63.3475 457.506 64.315 453.648 64.6073C445.276 65.2415 437.37 66.3604 429.409 69.0616C426.074 70.193 423.027 71.9879 419.723 73.2051C418.842 73.5298 417.6 74.8748 417.6 73.4641M157.494 16.6606C159.383 21.1464 158.057 27.0574 158.318 31.8801C158.537 35.9366 158.95 39.8952 159.055 43.9776C159.191 49.2835 160.616 54.5147 160.616 59.9341C160.616 62.7419 160.477 65.0897 159.879 67.7823C159.63 68.9019 160.616 75.1021 160.616 72.8554M155.188 14.6606C168.742 14.6606 177.959 17.1606 189.146 24.292C192.079 25.1718 181.913 33.4258 180.864 34.1782C176.909 37.0157 172.41 39.8687 167.64 41.0291C167.157 41.1465 158.426 43.3142 159.835 43.8041C164.994 45.5987 172.656 42.7187 177.959 42.4599C182.197 42.2532 186.823 42.0015 191.011 42.8068C195.563 43.6822 197.551 46.8504 199.249 51.0019C203.245 60.7688 195.073 63.4135 188.149 68.8229C183.107 72.7622 178.837 75.2402 172.322 75.8039C168.611 76.1251 164.68 75.4554 161.005 76.0207" stroke="#0000FF" stroke-width="6.41" stroke-linecap="round"/>
</svg>
