<svg width="500" height="90" viewBox="0 0 500 90" fill="none" xmlns="http://www.w3.org/2000/svg">
<path d="M144.517 17.5386V39.562C144.517 43.251 144.067 46.9424 144.067 50.6018C144.067 54.1652 145.022 57.7476 145.022 61.2483C145.022 64.2121 145.528 73.0889 145.528 70.1251M143 15.0103C143.755 16.4355 144.391 16.8475 145.95 17.3418C149.434 18.4467 152.719 20.0579 156.034 21.5836C161.245 23.9814 166.9 26.2004 171.316 29.9266C174.596 32.6944 177.673 35.8689 178.872 40.0675C180.95 47.3385 176.526 55.6886 172.102 60.9673C165.392 68.9743 157.626 73.6835 148.562 78.2153M186.665 73.1591C189.923 66.2807 193.491 59.5514 197.161 52.8718M197.161 52.8718C203.527 41.2862 210.202 29.85 216.105 18.0444C216.311 17.6307 216.167 16.6193 216.61 16.7522C217.767 17.0992 218.99 21.0355 219.419 21.9771C222.996 29.8149 225.568 37.9998 228.505 46.0441M197.161 52.8718C197.034 52.8926 196.906 52.9132 196.778 52.9336M197.161 52.8718C207.694 51.1587 218.08 48.3264 228.505 46.0441M228.505 46.0441C229.973 50.0626 231.532 54.0461 233.352 57.9338C235.74 63.0325 237.491 67.2677 238.353 72.6535C238.597 74.1803 239.252 78.7505 239.252 77.2043M228.505 46.0441C228.623 46.0183 228.741 45.9926 228.858 45.967C230.728 45.56 239.206 44.9363 240.263 42.8208M272.118 24.6177C272.329 25.8285 272.489 27.0692 272.611 28.3277M272.611 28.3277C273.054 32.8799 273.008 37.6656 273.102 42.1184C273.242 48.7968 271.758 54.9999 271.22 61.5856C270.823 66.4384 271.783 71.4684 270.602 76.193M272.611 28.3277C268.737 29.9903 264.809 31.5311 260.826 32.8763C258.989 33.4965 252.925 34.1821 251.893 36.2472M272.611 28.3277C275.892 26.9199 279.135 25.4248 282.343 23.8871C289.235 20.5838 295.863 16.8387 302.962 13.999M302.592 75.1477C305.392 71.6473 306.493 66.1178 308.828 62.2258C312.65 55.8558 316.654 49.687 320.775 43.6078M320.775 43.6078C325.655 36.4066 330.699 29.3312 335.796 22.196C338.11 18.9555 338.542 15.3046 340.515 12.0551C341.613 10.2458 341.56 10.8622 342.256 13.1506C344.566 20.7398 347.154 28.4653 348.97 36.1854C349.606 38.8859 350.312 41.6954 350.962 44.5453M320.775 43.6078C318.779 43.3673 316.769 43.0929 314.728 42.7866M320.775 43.6078C327.23 44.3859 333.529 44.8092 340.234 44.8092C342.933 44.8092 347.773 43.8467 350.962 44.5453M350.962 44.5453C352.065 49.386 353.005 54.343 353.156 59.0796C353.19 60.1509 354.01 70.0913 353.661 70.0913M350.962 44.5453C351.389 44.6388 351.786 44.7621 352.145 44.9215C353.69 45.6081 355.494 46.3261 357.201 46.3261" stroke="#0000FF" stroke-width="6.41" stroke-linecap="round"/>
</svg>
