<svg width="500" height="500" viewBox="0 0 500 500" fill="none" xmlns="http://www.w3.org/2000/svg">
<path d="M44.0214 225.441V145.841H12.9998V134.884H87.8478V145.841H56.5621V225.441H44.0214Z" fill="#0000FF"/>
<path d="M99.6553 225.441V130H111.272V164.718H112.196C113.956 162.342 115.936 160.406 118.136 158.91C120.336 157.413 122.757 156.313 125.397 155.609C128.125 154.817 131.073 154.421 134.241 154.421C138.641 154.421 142.47 155.169 145.726 156.665C149.07 158.162 151.666 160.582 153.514 163.926C155.45 167.27 156.418 171.802 156.418 177.523V225.441H144.802V179.107C144.802 176.203 144.406 173.826 143.614 171.978C142.91 170.13 141.898 168.678 140.577 167.622C139.345 166.566 137.805 165.818 135.957 165.378C134.197 164.938 132.217 164.718 130.017 164.718C126.761 164.718 123.681 165.51 120.776 167.094C117.872 168.59 115.54 170.834 113.78 173.826C112.108 176.731 111.272 180.339 111.272 184.651V225.441H99.6553Z" fill="#0000FF"/>
<path d="M202.552 227.025C195.511 227.025 189.571 225.749 184.731 223.197C179.979 220.557 176.326 216.553 173.774 211.184C171.31 205.816 170.078 198.996 170.078 190.723C170.078 182.363 171.31 175.542 173.774 170.262C176.326 164.894 179.979 160.934 184.731 158.382C189.571 155.741 195.511 154.421 202.552 154.421C209.592 154.421 215.488 155.741 220.241 158.382C225.081 160.934 228.733 164.894 231.197 170.262C233.661 175.542 234.894 182.363 234.894 190.723C234.894 198.996 233.661 205.816 231.197 211.184C228.733 216.553 225.081 220.557 220.241 223.197C215.488 225.749 209.592 227.025 202.552 227.025ZM202.552 217.257C207.04 217.257 210.78 216.377 213.772 214.617C216.765 212.857 219.009 210.128 220.505 206.432C222.089 202.648 222.881 197.896 222.881 192.175V189.271C222.881 183.463 222.089 178.711 220.505 175.014C219.009 171.318 216.765 168.59 213.772 166.83C210.78 165.07 207.04 164.19 202.552 164.19C198.064 164.19 194.279 165.07 191.199 166.83C188.207 168.59 185.963 171.318 184.467 175.014C182.971 178.711 182.223 183.463 182.223 189.271V192.175C182.223 197.896 182.971 202.648 184.467 206.432C185.963 210.128 188.207 212.857 191.199 214.617C194.279 216.377 198.064 217.257 202.552 217.257Z" fill="#0000FF"/>
<path d="M249.324 225.441V156.005H258.696L259.752 166.434H260.676C262.436 163.618 264.416 161.33 266.616 159.57C268.817 157.81 271.237 156.533 273.877 155.741C276.517 154.861 279.377 154.421 282.457 154.421C286.946 154.421 290.818 155.345 294.074 157.193C297.33 158.954 299.75 162.034 301.334 166.434H302.126C303.799 163.618 305.735 161.374 307.935 159.702C310.135 157.942 312.599 156.621 315.327 155.741C318.055 154.861 320.959 154.421 324.04 154.421C328.264 154.421 331.96 155.169 335.128 156.665C338.296 158.074 340.761 160.45 342.521 163.794C344.369 167.05 345.293 171.45 345.293 176.995V225.441H333.676V178.843C333.676 176.027 333.324 173.694 332.62 171.846C332.004 169.998 331.08 168.59 329.848 167.622C328.616 166.566 327.164 165.818 325.492 165.378C323.908 164.938 322.192 164.718 320.343 164.718C317.263 164.718 314.403 165.51 311.763 167.094C309.211 168.678 307.143 170.966 305.559 173.958C303.975 176.951 303.182 180.515 303.182 184.651V225.441H291.566V178.843C291.566 176.027 291.214 173.694 290.51 171.846C289.806 169.998 288.882 168.59 287.738 167.622C286.594 166.566 285.185 165.818 283.513 165.378C281.929 164.938 280.257 164.718 278.497 164.718C275.329 164.718 272.381 165.51 269.653 167.094C267.013 168.678 264.9 170.966 263.316 173.958C261.732 176.951 260.94 180.515 260.94 184.651V225.441H249.324Z" fill="#0000FF"/>
<path d="M380.321 227.025C377.769 227.025 375.217 226.717 372.665 226.101C370.113 225.485 367.736 224.473 365.536 223.065C363.336 221.657 361.576 219.721 360.256 217.257C358.936 214.705 358.276 211.536 358.276 207.752C358.276 203 359.42 199.084 361.708 196.004C363.996 192.923 367.164 190.547 371.213 188.875C375.349 187.115 380.233 185.927 385.865 185.311C391.498 184.607 397.614 184.255 404.214 184.255V176.335C404.214 173.782 403.774 171.582 402.894 169.734C402.014 167.886 400.43 166.478 398.142 165.51C395.942 164.454 392.774 163.926 388.638 163.926C384.677 163.926 381.509 164.454 379.133 165.51C376.845 166.478 375.217 167.754 374.249 169.338C373.369 170.922 372.929 172.682 372.929 174.618V176.599H361.708C361.62 176.159 361.576 175.718 361.576 175.278C361.576 174.838 361.576 174.31 361.576 173.694C361.576 169.47 362.72 165.95 365.008 163.134C367.384 160.23 370.685 158.074 374.909 156.665C379.133 155.169 383.973 154.421 389.43 154.421C395.238 154.421 400.078 155.257 403.95 156.929C407.911 158.602 410.859 160.978 412.795 164.058C414.819 167.138 415.831 170.834 415.831 175.146V212.769C415.831 214.441 416.227 215.629 417.019 216.333C417.811 216.949 418.779 217.257 419.923 217.257H425.072V224.913C423.839 225.441 422.475 225.881 420.979 226.233C419.483 226.673 417.767 226.893 415.831 226.893C413.543 226.893 411.651 226.409 410.155 225.441C408.659 224.561 407.515 223.329 406.723 221.745C405.93 220.073 405.402 218.225 405.138 216.201H404.214C402.63 218.401 400.606 220.337 398.142 222.009C395.766 223.593 393.082 224.825 390.09 225.705C387.097 226.585 383.841 227.025 380.321 227.025ZM383.225 217.257C386.041 217.257 388.682 216.817 391.146 215.937C393.698 215.057 395.942 213.825 397.878 212.24C399.814 210.568 401.354 208.588 402.498 206.3C403.642 204.012 404.214 201.504 404.214 198.776V192.967C397.086 192.967 391.014 193.363 385.997 194.155C380.981 194.948 377.109 196.356 374.381 198.38C371.741 200.404 370.421 203.264 370.421 206.96C370.421 209.336 370.949 211.272 372.005 212.769C373.061 214.265 374.557 215.409 376.493 216.201C378.429 216.905 380.673 217.257 383.225 217.257Z" fill="#0000FF"/>
<path d="M459.119 227.025C454.367 227.025 450.187 226.541 446.578 225.573C442.97 224.605 439.978 223.197 437.602 221.349C435.226 219.501 433.422 217.301 432.19 214.749C430.958 212.196 430.341 209.292 430.341 206.036C430.341 205.596 430.341 205.2 430.341 204.848C430.341 204.408 430.386 204.056 430.474 203.792H441.958C441.87 204.144 441.826 204.452 441.826 204.716C441.826 204.98 441.826 205.244 441.826 205.508C441.914 208.588 442.706 211.008 444.202 212.769C445.786 214.529 447.942 215.761 450.671 216.465C453.399 217.169 456.435 217.521 459.779 217.521C462.683 217.521 465.367 217.169 467.832 216.465C470.296 215.673 472.232 214.529 473.64 213.033C475.136 211.448 475.884 209.468 475.884 207.092C475.884 204.188 474.916 201.988 472.98 200.492C471.132 198.908 468.668 197.676 465.587 196.796C462.507 195.916 459.295 194.992 455.951 194.023C453.135 193.231 450.319 192.351 447.502 191.383C444.686 190.415 442.134 189.227 439.846 187.819C437.646 186.411 435.842 184.607 434.434 182.407C433.114 180.119 432.454 177.259 432.454 173.826C432.454 170.746 433.07 168.018 434.302 165.642C435.622 163.266 437.47 161.242 439.846 159.57C442.222 157.898 445.082 156.665 448.426 155.873C451.859 154.993 455.643 154.553 459.779 154.553C464.179 154.553 468.008 155.037 471.264 156.005C474.608 156.973 477.38 158.338 479.58 160.098C481.78 161.858 483.408 163.882 484.464 166.17C485.521 168.37 486.049 170.746 486.049 173.298C486.049 173.826 486.049 174.354 486.049 174.882C486.049 175.322 486.005 175.674 485.917 175.939H474.564V174.486C474.564 172.726 474.08 171.054 473.112 169.47C472.232 167.798 470.648 166.478 468.36 165.51C466.159 164.454 463.079 163.926 459.119 163.926C456.567 163.926 454.367 164.146 452.519 164.586C450.671 164.938 449.131 165.554 447.898 166.434C446.666 167.226 445.742 168.194 445.126 169.338C444.51 170.394 444.202 171.626 444.202 173.034C444.202 175.322 444.95 177.083 446.446 178.315C447.942 179.547 449.923 180.559 452.387 181.351C454.939 182.143 457.667 183.023 460.571 183.991C463.651 184.871 466.775 185.795 469.944 186.763C473.2 187.643 476.148 188.787 478.788 190.195C481.516 191.603 483.672 193.539 485.256 196.004C486.929 198.38 487.765 201.548 487.765 205.508C487.765 209.204 487.061 212.416 485.653 215.145C484.244 217.873 482.22 220.117 479.58 221.877C477.028 223.637 473.992 224.913 470.472 225.705C467.039 226.585 463.255 227.025 459.119 227.025Z" fill="#0000FF"/>
<path d="M62.0342 368.009V277.452H81.7033V318.638L120.249 277.452H144.539L109.953 314.282L145.199 368.009H121.701L96.3561 327.879L81.7033 341.079V368.009H62.0342Z" fill="#0000FF"/>
<path d="M156.104 288.409V272.568H174.453V288.409H156.104ZM156.104 368.009V298.573H174.453V368.009H156.104Z" fill="#0000FF"/>
<path d="M191.297 368.009V298.573H206.478L207.93 308.078H208.854C210.35 305.79 212.11 303.809 214.134 302.137C216.246 300.465 218.579 299.189 221.131 298.309C223.771 297.429 226.587 296.989 229.579 296.989C233.979 296.989 237.764 297.869 240.932 299.629C244.188 301.389 246.696 304.205 248.456 308.078H249.38C250.876 305.79 252.68 303.809 254.793 302.137C256.905 300.465 259.325 299.189 262.053 298.309C264.781 297.429 267.685 296.989 270.765 296.989C275.166 296.989 278.95 297.781 282.118 299.365C285.374 300.949 287.926 303.545 289.774 307.154C291.623 310.674 292.547 315.25 292.547 320.882V368.009H274.198V324.183C274.198 321.982 273.934 320.134 273.406 318.638C272.966 317.054 272.306 315.822 271.425 314.942C270.545 313.974 269.445 313.27 268.125 312.83C266.805 312.39 265.397 312.17 263.901 312.17C261.437 312.17 259.237 312.83 257.301 314.15C255.365 315.47 253.825 317.274 252.68 319.562C251.624 321.85 251.096 324.491 251.096 327.483V368.009H232.747V324.183C232.747 321.982 232.483 320.134 231.955 318.638C231.515 317.054 230.855 315.822 229.975 314.942C229.095 313.974 227.995 313.27 226.675 312.83C225.443 312.39 224.035 312.17 222.451 312.17C220.075 312.17 217.875 312.83 215.85 314.15C213.914 315.47 212.374 317.274 211.23 319.562C210.174 321.85 209.646 324.491 209.646 327.483V368.009H191.297Z" fill="#0000FF"/>
<path d="M347.676 369.593C343.188 369.593 339.052 368.713 335.267 366.953C331.571 365.105 328.579 362.333 326.291 358.636H325.367L323.915 368.009H308.866V272.568H327.215V306.23H328.007C329.415 304.205 331.131 302.489 333.155 301.081C335.179 299.673 337.468 298.661 340.02 298.045C342.572 297.341 345.344 296.989 348.336 296.989C353.792 296.989 358.545 298.265 362.593 300.817C366.729 303.369 369.941 307.33 372.229 312.698C374.518 317.978 375.662 324.799 375.662 333.159C375.662 341.52 374.518 348.384 372.229 353.752C370.029 359.12 366.817 363.125 362.593 365.765C358.457 368.317 353.484 369.593 347.676 369.593ZM342 354.544C345.696 354.544 348.6 353.84 350.712 352.432C352.912 350.936 354.496 348.736 355.465 345.832C356.433 342.928 356.917 339.275 356.917 334.875V331.839C356.917 327.439 356.433 323.787 355.465 320.882C354.496 317.89 352.912 315.69 350.712 314.282C348.6 312.786 345.696 312.038 342 312.038C339.36 312.038 337.116 312.522 335.267 313.49C333.419 314.37 331.879 315.69 330.647 317.45C329.503 319.122 328.623 321.234 328.007 323.787C327.391 326.339 327.083 329.155 327.083 332.235V334.611C327.083 338.747 327.611 342.312 328.667 345.304C329.723 348.296 331.351 350.584 333.551 352.168C335.751 353.752 338.568 354.544 342 354.544Z" fill="#0000FF"/>
<path d="M389.179 368.009V272.568H407.528V368.009H389.179Z" fill="#0000FF"/>
<path d="M455.922 369.593C448.266 369.593 441.841 368.317 436.649 365.765C431.457 363.125 427.54 359.12 424.9 353.752C422.26 348.384 420.94 341.564 420.94 333.291C420.94 324.931 422.26 318.11 424.9 312.83C427.54 307.462 431.413 303.501 436.517 300.949C441.709 298.309 448.046 296.989 455.526 296.989C462.566 296.989 468.507 298.265 473.347 300.817C478.187 303.281 481.839 307.154 484.304 312.434C486.768 317.626 488 324.359 488 332.631V337.383H439.553C439.729 341.432 440.345 344.864 441.401 347.68C442.545 350.496 444.261 352.608 446.549 354.016C448.926 355.336 452.05 355.996 455.922 355.996C458.034 355.996 459.926 355.732 461.598 355.204C463.358 354.676 464.855 353.884 466.087 352.828C467.319 351.772 468.287 350.452 468.991 348.868C469.695 347.284 470.047 345.48 470.047 343.456H488C488 347.856 487.208 351.684 485.624 354.94C484.04 358.196 481.839 360.925 479.023 363.125C476.207 365.237 472.819 366.865 468.859 368.009C464.987 369.065 460.674 369.593 455.922 369.593ZM439.817 325.767H469.123C469.123 323.127 468.771 320.838 468.067 318.902C467.451 316.966 466.571 315.382 465.427 314.15C464.282 312.918 462.874 312.038 461.202 311.51C459.618 310.894 457.814 310.586 455.79 310.586C452.446 310.586 449.63 311.158 447.342 312.302C445.141 313.358 443.425 315.03 442.193 317.318C441.049 319.518 440.257 322.334 439.817 325.767Z" fill="#0000FF"/>
</svg>
