<svg width="500" height="500" viewBox="0 0 500 500" fill="none" xmlns="http://www.w3.org/2000/svg">
<path d="M29.0861 274.491V233.214H12.9998V227.533H51.8124V233.214H35.5891V274.491H29.0861Z" fill="#0000FF"/>
<path d="M57.9351 274.491V225H63.959V243.003H64.4381C65.3508 241.771 66.3776 240.767 67.5185 239.991C68.6594 239.215 69.9143 238.645 71.2834 238.28C72.6981 237.869 74.2269 237.664 75.8697 237.664C78.1515 237.664 80.1366 238.052 81.8251 238.827C83.5592 239.603 84.9055 240.858 85.8638 242.592C86.8678 244.326 87.3697 246.677 87.3697 249.643V274.491H81.3459V250.464C81.3459 248.958 81.1406 247.726 80.7298 246.768C80.3648 245.81 79.84 245.057 79.1554 244.509C78.5165 243.961 77.7179 243.573 76.7596 243.345C75.8469 243.117 74.8201 243.003 73.6792 243.003C71.9907 243.003 70.3935 243.414 68.8875 244.235C67.3816 245.011 66.1723 246.175 65.2596 247.726C64.3925 249.232 63.959 251.103 63.959 253.339V274.491H57.9351Z" fill="#0000FF"/>
<path d="M111.292 275.313C107.642 275.313 104.561 274.651 102.051 273.328C99.5869 271.958 97.6931 269.882 96.3697 267.098C95.0919 264.315 94.453 260.778 94.453 256.488C94.453 252.153 95.0919 248.616 96.3697 245.878C97.6931 243.094 99.5869 241.041 102.051 239.717C104.561 238.348 107.642 237.664 111.292 237.664C114.943 237.664 118.001 238.348 120.465 239.717C122.975 241.041 124.869 243.094 126.147 245.878C127.424 248.616 128.063 252.153 128.063 256.488C128.063 260.778 127.424 264.315 126.147 267.098C124.869 269.882 122.975 271.958 120.465 273.328C118.001 274.651 114.943 275.313 111.292 275.313ZM111.292 270.247C113.62 270.247 115.559 269.791 117.111 268.878C118.662 267.965 119.826 266.551 120.602 264.634C121.423 262.672 121.834 260.207 121.834 257.241V255.735C121.834 252.723 121.423 250.259 120.602 248.342C119.826 246.426 118.662 245.011 117.111 244.098C115.559 243.186 113.62 242.729 111.292 242.729C108.965 242.729 107.003 243.186 105.405 244.098C103.854 245.011 102.69 246.426 101.914 248.342C101.139 250.259 100.751 252.723 100.751 255.735V257.241C100.751 260.207 101.139 262.672 101.914 264.634C102.69 266.551 103.854 267.965 105.405 268.878C107.003 269.791 108.965 270.247 111.292 270.247Z" fill="#0000FF"/>
<path d="M135.546 274.491V238.485H140.406L140.954 243.893H141.433C142.346 242.433 143.372 241.246 144.513 240.333C145.654 239.421 146.909 238.759 148.278 238.348C149.647 237.892 151.13 237.664 152.728 237.664C155.055 237.664 157.063 238.143 158.751 239.101C160.44 240.014 161.695 241.611 162.516 243.893H162.927C163.794 242.433 164.798 241.269 165.939 240.402C167.08 239.489 168.358 238.805 169.772 238.348C171.187 237.892 172.693 237.664 174.29 237.664C176.481 237.664 178.397 238.052 180.04 238.827C181.683 239.558 182.961 240.79 183.873 242.524C184.832 244.212 185.311 246.494 185.311 249.369V274.491H179.287V250.327C179.287 248.867 179.105 247.658 178.74 246.699C178.42 245.741 177.941 245.011 177.302 244.509C176.663 243.961 175.91 243.573 175.043 243.345C174.222 243.117 173.332 243.003 172.373 243.003C170.776 243.003 169.293 243.414 167.924 244.235C166.601 245.057 165.528 246.243 164.707 247.795C163.885 249.346 163.475 251.195 163.475 253.339V274.491H157.451V250.327C157.451 248.867 157.268 247.658 156.903 246.699C156.538 245.741 156.059 245.011 155.466 244.509C154.872 243.961 154.142 243.573 153.275 243.345C152.454 243.117 151.587 243.003 150.674 243.003C149.031 243.003 147.502 243.414 146.088 244.235C144.719 245.057 143.623 246.243 142.802 247.795C141.98 249.346 141.57 251.195 141.57 253.339V274.491H135.546Z" fill="#0000FF"/>
<path d="M203.475 275.313C202.152 275.313 200.828 275.153 199.505 274.833C198.181 274.514 196.949 273.989 195.808 273.259C194.667 272.529 193.755 271.525 193.07 270.247C192.386 268.924 192.043 267.281 192.043 265.319C192.043 262.854 192.637 260.824 193.823 259.226C195.01 257.629 196.653 256.397 198.752 255.53C200.897 254.617 203.429 254.001 206.35 253.682C209.271 253.317 212.442 253.134 215.865 253.134V249.027C215.865 247.703 215.637 246.563 215.18 245.604C214.724 244.646 213.903 243.916 212.716 243.414C211.575 242.866 209.932 242.592 207.787 242.592C205.734 242.592 204.091 242.866 202.859 243.414C201.672 243.916 200.828 244.577 200.326 245.399C199.87 246.22 199.642 247.133 199.642 248.137V249.164H193.823C193.778 248.936 193.755 248.707 193.755 248.479C193.755 248.251 193.755 247.977 193.755 247.658C193.755 245.467 194.348 243.642 195.534 242.182C196.767 240.676 198.478 239.558 200.668 238.827C202.859 238.052 205.369 237.664 208.198 237.664C211.21 237.664 213.72 238.097 215.728 238.964C217.782 239.831 219.31 241.064 220.314 242.661C221.364 244.258 221.889 246.175 221.889 248.411V267.92C221.889 268.787 222.094 269.403 222.505 269.768C222.915 270.087 223.417 270.247 224.011 270.247H226.68V274.217C226.041 274.491 225.334 274.719 224.558 274.902C223.783 275.13 222.893 275.244 221.889 275.244C220.702 275.244 219.721 274.993 218.945 274.491C218.169 274.035 217.576 273.396 217.165 272.575C216.755 271.707 216.481 270.749 216.344 269.7H215.865C215.043 270.84 213.994 271.844 212.716 272.711C211.484 273.533 210.092 274.172 208.54 274.628C206.989 275.084 205.3 275.313 203.475 275.313ZM204.981 270.247C206.441 270.247 207.81 270.019 209.088 269.563C210.411 269.106 211.575 268.467 212.579 267.646C213.583 266.779 214.382 265.752 214.975 264.566C215.568 263.379 215.865 262.078 215.865 260.664V257.652C212.168 257.652 209.02 257.857 206.418 258.268C203.817 258.679 201.809 259.409 200.395 260.458C199.026 261.508 198.341 262.991 198.341 264.908C198.341 266.14 198.615 267.144 199.162 267.92C199.71 268.696 200.486 269.289 201.49 269.7C202.494 270.065 203.657 270.247 204.981 270.247Z" fill="#0000FF"/>
<path d="M244.336 275.313C241.872 275.313 239.704 275.062 237.833 274.56C235.962 274.058 234.41 273.328 233.178 272.369C231.946 271.411 231.01 270.27 230.371 268.947C229.733 267.623 229.413 266.117 229.413 264.429C229.413 264.201 229.413 263.995 229.413 263.813C229.413 263.584 229.436 263.402 229.482 263.265H235.437C235.391 263.448 235.369 263.607 235.369 263.744C235.369 263.881 235.369 264.018 235.369 264.155C235.414 265.752 235.825 267.007 236.601 267.92C237.422 268.832 238.54 269.471 239.955 269.836C241.37 270.202 242.944 270.384 244.678 270.384C246.184 270.384 247.576 270.202 248.854 269.836C250.131 269.426 251.135 268.832 251.866 268.057C252.641 267.235 253.029 266.208 253.029 264.976C253.029 263.47 252.527 262.329 251.523 261.554C250.565 260.732 249.287 260.093 247.69 259.637C246.093 259.181 244.427 258.701 242.693 258.2C241.233 257.789 239.772 257.332 238.312 256.83C236.852 256.328 235.528 255.712 234.342 254.982C233.201 254.252 232.265 253.317 231.535 252.176C230.851 250.989 230.508 249.506 230.508 247.726C230.508 246.129 230.828 244.714 231.467 243.482C232.151 242.25 233.11 241.2 234.342 240.333C235.574 239.466 237.057 238.827 238.791 238.417C240.571 237.96 242.533 237.732 244.678 237.732C246.96 237.732 248.945 237.983 250.633 238.485C252.368 238.987 253.805 239.694 254.946 240.607C256.087 241.52 256.931 242.569 257.479 243.756C258.026 244.897 258.3 246.129 258.3 247.452C258.3 247.726 258.3 248 258.3 248.274C258.3 248.502 258.277 248.685 258.232 248.822H252.345V248.069C252.345 247.156 252.094 246.289 251.592 245.467C251.135 244.6 250.314 243.916 249.127 243.414C247.987 242.866 246.389 242.592 244.336 242.592C243.012 242.592 241.872 242.706 240.913 242.935C239.955 243.117 239.156 243.437 238.517 243.893C237.878 244.304 237.399 244.806 237.08 245.399C236.76 245.946 236.601 246.585 236.601 247.316C236.601 248.502 236.989 249.415 237.764 250.054C238.54 250.693 239.567 251.217 240.845 251.628C242.168 252.039 243.583 252.495 245.089 252.997C246.686 253.453 248.306 253.933 249.949 254.435C251.637 254.891 253.166 255.484 254.535 256.214C255.95 256.945 257.068 257.949 257.889 259.226C258.756 260.458 259.19 262.101 259.19 264.155C259.19 266.072 258.825 267.737 258.095 269.152C257.365 270.567 256.315 271.73 254.946 272.643C253.623 273.556 252.048 274.217 250.223 274.628C248.443 275.084 246.481 275.313 244.336 275.313Z" fill="#0000FF"/>
<path d="M267.114 274.491V227.533H277.314V248.89L297.302 227.533H309.897L291.963 246.631L310.24 274.491H298.055L284.912 253.682L277.314 260.527V274.491H267.114Z" fill="#0000FF"/>
<path d="M315.894 233.214V225H325.409V233.214H315.894ZM315.894 274.491V238.485H325.409V274.491H315.894Z" fill="#0000FF"/>
<path d="M334.144 274.491V238.485H342.016L342.769 243.414H343.248C344.024 242.227 344.937 241.2 345.986 240.333C347.082 239.466 348.291 238.805 349.614 238.348C350.983 237.892 352.444 237.664 353.995 237.664C356.277 237.664 358.239 238.12 359.882 239.033C361.571 239.945 362.871 241.406 363.784 243.414H364.263C365.039 242.227 365.974 241.2 367.07 240.333C368.165 239.466 369.42 238.805 370.835 238.348C372.249 237.892 373.755 237.664 375.352 237.664C377.634 237.664 379.596 238.074 381.239 238.896C382.928 239.717 384.251 241.064 385.21 242.935C386.168 244.76 386.647 247.133 386.647 250.054V274.491H377.132V251.765C377.132 250.624 376.995 249.666 376.722 248.89C376.493 248.069 376.151 247.43 375.695 246.973C375.238 246.471 374.668 246.106 373.983 245.878C373.299 245.65 372.569 245.536 371.793 245.536C370.515 245.536 369.374 245.878 368.37 246.563C367.366 247.247 366.568 248.183 365.974 249.369C365.427 250.556 365.153 251.925 365.153 253.476V274.491H355.638V251.765C355.638 250.624 355.501 249.666 355.227 248.89C354.999 248.069 354.657 247.43 354.201 246.973C353.744 246.471 353.174 246.106 352.489 245.878C351.85 245.65 351.12 245.536 350.299 245.536C349.067 245.536 347.926 245.878 346.876 246.563C345.872 247.247 345.074 248.183 344.48 249.369C343.933 250.556 343.659 251.925 343.659 253.476V274.491H334.144Z" fill="#0000FF"/>
<path d="M415.235 275.313C412.907 275.313 410.762 274.856 408.8 273.944C406.883 272.985 405.332 271.548 404.145 269.631H403.666L402.913 274.491H395.11V225H404.624V242.455H405.035C405.765 241.406 406.655 240.516 407.705 239.786C408.754 239.056 409.941 238.531 411.264 238.211C412.588 237.846 414.025 237.664 415.577 237.664C418.406 237.664 420.871 238.325 422.97 239.649C425.115 240.972 426.78 243.026 427.967 245.81C429.153 248.548 429.747 252.084 429.747 256.42C429.747 260.755 429.153 264.315 427.967 267.098C426.826 269.882 425.16 271.958 422.97 273.328C420.825 274.651 418.247 275.313 415.235 275.313ZM412.291 267.509C414.208 267.509 415.714 267.144 416.809 266.414C417.95 265.638 418.771 264.497 419.273 262.991C419.775 261.485 420.026 259.591 420.026 257.31V255.735C420.026 253.453 419.775 251.56 419.273 250.054C418.771 248.502 417.95 247.361 416.809 246.631C415.714 245.855 414.208 245.467 412.291 245.467C410.922 245.467 409.758 245.718 408.8 246.22C407.842 246.677 407.043 247.361 406.404 248.274C405.811 249.141 405.355 250.236 405.035 251.56C404.716 252.883 404.556 254.343 404.556 255.941V257.173C404.556 259.318 404.83 261.166 405.377 262.717C405.925 264.269 406.769 265.455 407.91 266.277C409.051 267.098 410.511 267.509 412.291 267.509Z" fill="#0000FF"/>
<path d="M436.756 274.491V225H446.271V274.491H436.756Z" fill="#0000FF"/>
<path d="M471.366 275.313C467.396 275.313 464.064 274.651 461.372 273.328C458.679 271.958 456.648 269.882 455.279 267.098C453.91 264.315 453.226 260.778 453.226 256.488C453.226 252.153 453.91 248.616 455.279 245.878C456.648 243.094 458.656 241.041 461.303 239.717C463.996 238.348 467.281 237.664 471.16 237.664C474.811 237.664 477.892 238.325 480.401 239.649C482.911 240.927 484.805 242.935 486.083 245.673C487.361 248.365 488 251.856 488 256.146V258.61H462.878C462.969 260.709 463.288 262.489 463.836 263.95C464.429 265.41 465.319 266.505 466.506 267.235C467.738 267.92 469.358 268.262 471.366 268.262C472.461 268.262 473.442 268.125 474.309 267.851C475.222 267.578 475.998 267.167 476.637 266.619C477.275 266.072 477.777 265.387 478.143 264.566C478.508 263.744 478.69 262.809 478.69 261.759H488C488 264.041 487.589 266.026 486.768 267.714C485.946 269.403 484.805 270.818 483.345 271.958C481.885 273.054 480.128 273.898 478.074 274.491C476.066 275.039 473.83 275.313 471.366 275.313ZM463.015 252.586H478.211C478.211 251.217 478.028 250.031 477.663 249.027C477.344 248.023 476.888 247.201 476.294 246.563C475.701 245.924 474.971 245.467 474.104 245.194C473.282 244.874 472.347 244.714 471.297 244.714C469.563 244.714 468.103 245.011 466.916 245.604C465.775 246.152 464.886 247.019 464.247 248.205C463.653 249.346 463.243 250.807 463.015 252.586Z" fill="#0000FF"/>
</svg>
