<svg width="500" height="500" viewBox="0 0 500 500" fill="none" xmlns="http://www.w3.org/2000/svg">
<path d="M29.702 275.385V232.529H13V226.63H53.298V232.529H36.4539V275.385H29.702Z" fill="#0000FF"/>
<path d="M59.6551 275.385V224H65.9094V242.692H66.4069C67.3546 241.413 68.4207 240.37 69.6052 239.565C70.7897 238.759 72.0927 238.167 73.5142 237.788C74.983 237.362 76.5703 237.148 78.276 237.148C80.6451 237.148 82.7062 237.551 84.4593 238.357C86.2598 239.162 87.6576 240.465 88.6526 242.266C89.695 244.066 90.2162 246.506 90.2162 249.586V275.385H83.9618V250.439C83.9618 248.875 83.7486 247.596 83.3221 246.601C82.9431 245.606 82.3982 244.824 81.6875 244.256C81.0241 243.687 80.195 243.284 79.1999 243.047C78.2523 242.81 77.1862 242.692 76.0017 242.692C74.2486 242.692 72.5902 243.118 71.0266 243.971C69.463 244.777 68.2074 245.985 67.2598 247.596C66.3596 249.16 65.9094 251.102 65.9094 253.424V275.385H59.6551Z" fill="#0000FF"/>
<path d="M115.054 276.238C111.264 276.238 108.065 275.551 105.459 274.177C102.901 272.756 100.935 270.6 99.5605 267.709C98.2338 264.819 97.5705 261.147 97.5705 256.693C97.5705 252.192 98.2338 248.52 99.5605 245.677C100.935 242.787 102.901 240.655 105.459 239.281C108.065 237.859 111.264 237.148 115.054 237.148C118.845 237.148 122.019 237.859 124.578 239.281C127.184 240.655 129.15 242.787 130.477 245.677C131.804 248.52 132.467 252.192 132.467 256.693C132.467 261.147 131.804 264.819 130.477 267.709C129.15 270.6 127.184 272.756 124.578 274.177C122.019 275.551 118.845 276.238 115.054 276.238ZM115.054 270.979C117.471 270.979 119.484 270.505 121.095 269.557C122.706 268.61 123.915 267.141 124.72 265.151C125.573 263.113 125.999 260.555 125.999 257.475V255.911C125.999 252.784 125.573 250.226 124.72 248.236C123.915 246.246 122.706 244.777 121.095 243.829C119.484 242.882 117.471 242.408 115.054 242.408C112.638 242.408 110.6 242.882 108.942 243.829C107.331 244.777 106.123 246.246 105.317 248.236C104.512 250.226 104.109 252.784 104.109 255.911V257.475C104.109 260.555 104.512 263.113 105.317 265.151C106.123 267.141 107.331 268.61 108.942 269.557C110.6 270.505 112.638 270.979 115.054 270.979Z" fill="#0000FF"/>
<path d="M140.236 275.385V238.001H145.282L145.851 243.616H146.348C147.296 242.1 148.362 240.868 149.547 239.92C150.731 238.973 152.034 238.286 153.455 237.859C154.877 237.385 156.417 237.148 158.075 237.148C160.492 237.148 162.576 237.646 164.33 238.641C166.083 239.589 167.386 241.247 168.239 243.616H168.665C169.565 242.1 170.608 240.892 171.792 239.991C172.977 239.044 174.303 238.333 175.772 237.859C177.241 237.385 178.805 237.148 180.463 237.148C182.737 237.148 184.727 237.551 186.433 238.357C188.139 239.115 189.465 240.394 190.413 242.195C191.408 243.948 191.906 246.317 191.906 249.302V275.385H185.651V250.297C185.651 248.781 185.462 247.525 185.083 246.53C184.751 245.535 184.253 244.777 183.59 244.256C182.927 243.687 182.145 243.284 181.245 243.047C180.392 242.81 179.468 242.692 178.473 242.692C176.815 242.692 175.275 243.118 173.853 243.971C172.479 244.824 171.366 246.056 170.513 247.667C169.66 249.278 169.234 251.197 169.234 253.424V275.385H162.979V250.297C162.979 248.781 162.79 247.525 162.411 246.53C162.032 245.535 161.534 244.777 160.918 244.256C160.302 243.687 159.544 243.284 158.644 243.047C157.791 242.81 156.891 242.692 155.943 242.692C154.237 242.692 152.65 243.118 151.181 243.971C149.76 244.824 148.623 246.056 147.77 247.667C146.917 249.278 146.49 251.197 146.49 253.424V275.385H140.236Z" fill="#0000FF"/>
<path d="M210.765 276.238C209.391 276.238 208.017 276.072 206.643 275.741C205.268 275.409 203.989 274.864 202.805 274.106C201.62 273.348 200.672 272.305 199.962 270.979C199.251 269.605 198.896 267.899 198.896 265.862C198.896 263.303 199.512 261.194 200.744 259.536C201.975 257.878 203.681 256.598 205.861 255.698C208.088 254.751 210.717 254.111 213.75 253.779C216.782 253.4 220.075 253.211 223.629 253.211V248.946C223.629 247.572 223.392 246.388 222.918 245.393C222.444 244.398 221.591 243.64 220.36 243.118C219.175 242.55 217.469 242.266 215.242 242.266C213.11 242.266 211.404 242.55 210.125 243.118C208.893 243.64 208.017 244.327 207.495 245.18C207.022 246.032 206.785 246.98 206.785 248.022V249.089H200.744C200.696 248.852 200.672 248.615 200.672 248.378C200.672 248.141 200.672 247.857 200.672 247.525C200.672 245.251 201.288 243.355 202.52 241.839C203.8 240.276 205.576 239.115 207.851 238.357C210.125 237.551 212.731 237.148 215.669 237.148C218.796 237.148 221.402 237.598 223.487 238.499C225.619 239.399 227.206 240.678 228.249 242.337C229.338 243.995 229.883 245.985 229.883 248.307V268.562C229.883 269.463 230.096 270.102 230.523 270.481C230.949 270.813 231.47 270.979 232.086 270.979H234.858V275.101C234.195 275.385 233.46 275.622 232.655 275.812C231.85 276.049 230.926 276.167 229.883 276.167C228.651 276.167 227.633 275.906 226.827 275.385C226.022 274.911 225.406 274.248 224.979 273.395C224.553 272.495 224.268 271.5 224.126 270.41H223.629C222.776 271.595 221.686 272.637 220.36 273.537C219.08 274.39 217.635 275.054 216.024 275.527C214.413 276.001 212.66 276.238 210.765 276.238ZM212.328 270.979C213.845 270.979 215.266 270.742 216.593 270.268C217.967 269.794 219.175 269.131 220.217 268.278C221.26 267.378 222.089 266.312 222.705 265.08C223.321 263.848 223.629 262.497 223.629 261.029V257.901C219.791 257.901 216.522 258.115 213.821 258.541C211.12 258.968 209.035 259.726 207.567 260.815C206.145 261.905 205.434 263.445 205.434 265.435C205.434 266.714 205.719 267.757 206.287 268.562C206.856 269.368 207.661 269.984 208.704 270.41C209.746 270.789 210.954 270.979 212.328 270.979Z" fill="#0000FF"/>
<path d="M253.189 276.238C250.631 276.238 248.38 275.978 246.437 275.456C244.495 274.935 242.884 274.177 241.605 273.182C240.325 272.187 239.354 271.002 238.691 269.628C238.027 268.254 237.696 266.691 237.696 264.938C237.696 264.701 237.696 264.488 237.696 264.298C237.696 264.061 237.719 263.872 237.767 263.729H243.95C243.903 263.919 243.879 264.085 243.879 264.227C243.879 264.369 243.879 264.511 243.879 264.653C243.926 266.312 244.353 267.615 245.158 268.562C246.011 269.51 247.172 270.173 248.641 270.552C250.11 270.931 251.744 271.121 253.545 271.121C255.108 271.121 256.553 270.931 257.88 270.552C259.207 270.126 260.249 269.51 261.007 268.704C261.813 267.852 262.216 266.786 262.216 265.506C262.216 263.943 261.694 262.758 260.652 261.953C259.657 261.1 258.33 260.436 256.672 259.963C255.014 259.489 253.284 258.991 251.484 258.47C249.967 258.044 248.451 257.57 246.935 257.049C245.419 256.527 244.045 255.888 242.813 255.13C241.628 254.372 240.657 253.4 239.899 252.216C239.188 250.984 238.833 249.444 238.833 247.596C238.833 245.938 239.164 244.469 239.828 243.19C240.538 241.91 241.533 240.82 242.813 239.92C244.092 239.02 245.632 238.357 247.432 237.93C249.28 237.456 251.318 237.219 253.545 237.219C255.914 237.219 257.975 237.48 259.728 238.001C261.528 238.522 263.021 239.257 264.206 240.204C265.39 241.152 266.267 242.242 266.835 243.474C267.404 244.658 267.688 245.938 267.688 247.312C267.688 247.596 267.688 247.88 267.688 248.165C267.688 248.401 267.664 248.591 267.617 248.733H261.505V247.951C261.505 247.004 261.244 246.103 260.723 245.251C260.249 244.35 259.396 243.64 258.164 243.118C256.98 242.55 255.322 242.266 253.189 242.266C251.815 242.266 250.631 242.384 249.636 242.621C248.641 242.81 247.812 243.142 247.148 243.616C246.485 244.042 245.987 244.564 245.656 245.18C245.324 245.748 245.158 246.411 245.158 247.17C245.158 248.401 245.561 249.349 246.366 250.012C247.172 250.676 248.238 251.221 249.565 251.647C250.939 252.074 252.408 252.547 253.971 253.069C255.629 253.542 257.312 254.04 259.017 254.561C260.77 255.035 262.358 255.651 263.779 256.409C265.248 257.167 266.409 258.209 267.262 259.536C268.162 260.815 268.612 262.521 268.612 264.653C268.612 266.643 268.233 268.373 267.475 269.842C266.717 271.31 265.627 272.519 264.206 273.466C262.831 274.414 261.197 275.101 259.302 275.527C257.454 276.001 255.416 276.238 253.189 276.238Z" fill="#0000FF"/>
<path d="M277.55 275.385V226.63H284.302V252.429L309.107 226.63H317.493L298.943 246.103L318.133 275.385H310.102L294.252 250.936L284.302 260.318V275.385H277.55Z" fill="#0000FF"/>
<path d="M323.4 230.965V224H329.654V230.965H323.4ZM323.4 275.385V238.001H329.654V275.385H323.4Z" fill="#0000FF"/>
<path d="M339.363 275.385V238.001H344.41L344.978 243.616H345.476C346.423 242.1 347.489 240.868 348.674 239.92C349.858 238.973 351.161 238.286 352.583 237.859C354.004 237.385 355.544 237.148 357.203 237.148C359.619 237.148 361.704 237.646 363.457 238.641C365.21 239.589 366.513 241.247 367.366 243.616H367.792C368.693 242.1 369.735 240.892 370.919 239.991C372.104 239.044 373.431 238.333 374.9 237.859C376.368 237.385 377.932 237.148 379.59 237.148C381.865 237.148 383.855 237.551 385.56 238.357C387.266 239.115 388.593 240.394 389.54 242.195C390.535 243.948 391.033 246.317 391.033 249.302V275.385H384.779V250.297C384.779 248.781 384.589 247.525 384.21 246.53C383.878 245.535 383.381 244.777 382.717 244.256C382.054 243.687 381.272 243.284 380.372 243.047C379.519 242.81 378.595 242.692 377.6 242.692C375.942 242.692 374.402 243.118 372.981 243.971C371.607 244.824 370.493 246.056 369.64 247.667C368.787 249.278 368.361 251.197 368.361 253.424V275.385H362.107V250.297C362.107 248.781 361.917 247.525 361.538 246.53C361.159 245.535 360.661 244.777 360.045 244.256C359.429 243.687 358.671 243.284 357.771 243.047C356.918 242.81 356.018 242.692 355.07 242.692C353.365 242.692 351.777 243.118 350.309 243.971C348.887 244.824 347.75 246.056 346.897 247.667C346.044 249.278 345.618 251.197 345.618 253.424V275.385H339.363Z" fill="#0000FF"/>
<path d="M418.279 276.238C415.767 276.238 413.517 275.741 411.527 274.746C409.537 273.703 407.902 272.14 406.623 270.055H406.125L405.486 275.385H400.511V224H406.765V242.692H407.191C408.044 241.365 409.039 240.299 410.176 239.494C411.314 238.688 412.593 238.096 414.014 237.717C415.436 237.338 416.952 237.148 418.563 237.148C421.453 237.148 423.988 237.835 426.168 239.209C428.347 240.584 430.029 242.692 431.214 245.535C432.446 248.378 433.062 252.002 433.062 256.409C433.062 261.052 432.469 264.843 431.285 267.781C430.1 270.671 428.418 272.803 426.239 274.177C424.059 275.551 421.406 276.238 418.279 276.238ZM416.786 270.766C418.918 270.766 420.695 270.339 422.117 269.486C423.585 268.633 424.699 267.236 425.457 265.293C426.215 263.303 426.594 260.697 426.594 257.475V255.983C426.594 252.855 426.239 250.32 425.528 248.378C424.817 246.388 423.727 244.943 422.259 244.042C420.79 243.095 418.895 242.621 416.573 242.621C415.246 242.621 413.991 242.834 412.806 243.261C411.621 243.687 410.555 244.421 409.608 245.464C408.708 246.506 407.997 247.904 407.476 249.657C407.002 251.41 406.765 253.566 406.765 256.125V257.262C406.765 260.199 407.097 262.663 407.76 264.653C408.471 266.643 409.56 268.16 411.029 269.202C412.545 270.244 414.464 270.766 416.786 270.766Z" fill="#0000FF"/>
<path d="M440.836 275.385V224H447.09V275.385H440.836Z" fill="#0000FF"/>
<path d="M471.724 276.238C468.029 276.238 464.901 275.551 462.343 274.177C459.832 272.756 457.913 270.6 456.586 267.709C455.307 264.819 454.667 261.147 454.667 256.693C454.667 252.192 455.307 248.52 456.586 245.677C457.913 242.787 459.855 240.655 462.414 239.281C464.973 237.859 468.171 237.148 472.009 237.148C475.515 237.148 478.453 237.835 480.822 239.209C483.191 240.536 484.968 242.55 486.152 245.251C487.384 247.904 488 251.244 488 255.272V258.257H461.135C461.229 261.242 461.656 263.706 462.414 265.648C463.219 267.544 464.404 268.941 465.968 269.842C467.531 270.694 469.497 271.121 471.867 271.121C473.478 271.121 474.875 270.931 476.06 270.552C477.292 270.126 478.31 269.534 479.116 268.776C479.969 268.017 480.608 267.117 481.035 266.075C481.461 265.032 481.698 263.895 481.746 262.663H487.858C487.81 264.653 487.431 266.501 486.721 268.207C486.01 269.865 484.968 271.287 483.593 272.471C482.219 273.656 480.537 274.58 478.547 275.243C476.557 275.906 474.283 276.238 471.724 276.238ZM461.277 253.566H481.532C481.532 251.481 481.295 249.728 480.822 248.307C480.348 246.885 479.661 245.724 478.761 244.824C477.908 243.924 476.889 243.284 475.704 242.905C474.567 242.479 473.264 242.266 471.795 242.266C469.616 242.266 467.768 242.668 466.252 243.474C464.736 244.279 463.575 245.511 462.769 247.17C461.964 248.828 461.466 250.96 461.277 253.566Z" fill="#0000FF"/>
</svg>
