<svg width="500" height="500" viewBox="0 0 500 500" fill="none" xmlns="http://www.w3.org/2000/svg">
<path d="M27.5956 273.967V236.748H13V228.455H52.2092V236.748H37.5472V273.967H27.5956Z" fill="#0000FF"/>
<path d="M58.0889 273.967V226H67.3107V242.918H67.7751C68.527 241.989 69.4116 241.193 70.4289 240.529C71.4904 239.822 72.6625 239.269 73.9451 238.871C75.272 238.473 76.7094 238.274 78.2574 238.274C80.5574 238.274 82.5698 238.694 84.2947 239.534C86.0197 240.374 87.3465 241.701 88.2754 243.515C89.2484 245.328 89.7349 247.694 89.7349 250.614V273.967H80.5131V252.073C80.5131 250.967 80.3805 250.039 80.1151 249.287C79.8497 248.491 79.4516 247.849 78.9209 247.363C78.4344 246.832 77.8152 246.456 77.0633 246.235C76.3114 246.014 75.471 245.903 74.5422 245.903C73.1711 245.903 71.9327 246.235 70.8269 246.898C69.7212 247.562 68.8587 248.468 68.2395 249.618C67.6203 250.768 67.3107 252.095 67.3107 253.599V273.967H58.0889Z" fill="#0000FF"/>
<path d="M114.054 274.763C110.25 274.763 107.022 274.121 104.368 272.839C101.714 271.512 99.7017 269.499 98.3306 266.801C96.9595 264.059 96.2739 260.631 96.2739 256.518C96.2739 252.316 96.9595 248.889 98.3306 246.235C99.7017 243.537 101.714 241.547 104.368 240.264C107.022 238.937 110.25 238.274 114.054 238.274C117.946 238.274 121.197 238.937 123.807 240.264C126.46 241.547 128.473 243.537 129.844 246.235C131.215 248.889 131.901 252.316 131.901 256.518C131.901 260.631 131.215 264.059 129.844 266.801C128.473 269.499 126.46 271.512 123.807 272.839C121.197 274.121 117.946 274.763 114.054 274.763ZM114.054 267.598C116.089 267.598 117.703 267.222 118.897 266.47C120.136 265.718 121.042 264.568 121.617 263.02C122.192 261.472 122.48 259.57 122.48 257.314V255.722C122.48 253.466 122.192 251.564 121.617 250.016C121.042 248.468 120.136 247.318 118.897 246.567C117.703 245.77 116.089 245.372 114.054 245.372C112.064 245.372 110.449 245.77 109.211 246.567C108.017 247.318 107.132 248.468 106.557 250.016C105.982 251.564 105.695 253.466 105.695 255.722V257.314C105.695 259.57 105.982 261.472 106.557 263.02C107.132 264.568 108.017 265.718 109.211 266.47C110.449 267.222 112.064 267.598 114.054 267.598Z" fill="#0000FF"/>
<path d="M138.686 273.967V239.07H146.316L147.046 243.846H147.51C148.262 242.697 149.147 241.701 150.164 240.861C151.225 240.021 152.397 239.379 153.68 238.937C155.007 238.495 156.422 238.274 157.926 238.274C160.137 238.274 162.039 238.716 163.632 239.6C165.268 240.485 166.529 241.9 167.413 243.846H167.878C168.629 242.697 169.536 241.701 170.598 240.861C171.659 240.021 172.875 239.379 174.247 238.937C175.618 238.495 177.077 238.274 178.625 238.274C180.837 238.274 182.739 238.672 184.331 239.468C185.967 240.264 187.25 241.569 188.179 243.382C189.108 245.151 189.572 247.451 189.572 250.282V273.967H180.35V251.94C180.35 250.835 180.218 249.906 179.952 249.154C179.731 248.358 179.399 247.739 178.957 247.296C178.515 246.81 177.962 246.456 177.298 246.235C176.635 246.014 175.927 245.903 175.175 245.903C173.937 245.903 172.831 246.235 171.858 246.898C170.885 247.562 170.111 248.468 169.536 249.618C169.005 250.768 168.74 252.095 168.74 253.599V273.967H159.518V251.94C159.518 250.835 159.386 249.906 159.12 249.154C158.899 248.358 158.567 247.739 158.125 247.296C157.683 246.81 157.13 246.456 156.466 246.235C155.847 246.014 155.14 245.903 154.343 245.903C153.149 245.903 152.044 246.235 151.026 246.898C150.053 247.562 149.279 248.468 148.704 249.618C148.173 250.768 147.908 252.095 147.908 253.599V273.967H138.686Z" fill="#0000FF"/>
<path d="M206.996 274.763C205.846 274.763 204.607 274.63 203.28 274.365C201.998 274.099 200.781 273.635 199.631 272.971C198.481 272.264 197.531 271.269 196.779 269.986C196.071 268.659 195.717 266.978 195.717 264.944C195.717 262.511 196.248 260.499 197.309 258.907C198.371 257.314 199.875 256.076 201.821 255.191C203.811 254.262 206.177 253.621 208.92 253.267C211.662 252.913 214.691 252.737 218.009 252.737V250.149C218.009 249.132 217.832 248.247 217.478 247.495C217.168 246.744 216.593 246.146 215.753 245.704C214.957 245.262 213.829 245.041 212.369 245.041C210.91 245.041 209.716 245.218 208.787 245.571C207.902 245.925 207.261 246.39 206.863 246.965C206.509 247.495 206.332 248.092 206.332 248.756V249.552H197.376C197.331 249.331 197.309 249.132 197.309 248.955C197.309 248.734 197.309 248.468 197.309 248.159C197.309 246.124 197.929 244.377 199.167 242.918C200.405 241.414 202.152 240.264 204.408 239.468C206.664 238.672 209.295 238.274 212.303 238.274C215.532 238.274 218.23 238.694 220.397 239.534C222.608 240.374 224.289 241.613 225.439 243.249C226.633 244.886 227.23 246.943 227.23 249.419V265.276C227.23 266.072 227.452 266.669 227.894 267.067C228.38 267.421 228.911 267.598 229.486 267.598H231.675V273.635C231.233 273.856 230.548 274.077 229.619 274.298C228.69 274.564 227.562 274.696 226.235 274.696C224.953 274.696 223.803 274.497 222.785 274.099C221.812 273.745 220.994 273.237 220.331 272.573C219.667 271.866 219.203 271.025 218.937 270.052H218.473C217.721 270.981 216.792 271.799 215.687 272.507C214.625 273.215 213.365 273.768 211.905 274.166C210.49 274.564 208.853 274.763 206.996 274.763ZM210.114 267.797C211.352 267.797 212.458 267.62 213.431 267.266C214.404 266.868 215.222 266.359 215.886 265.74C216.549 265.077 217.058 264.28 217.412 263.352C217.81 262.423 218.009 261.428 218.009 260.366V258.442C215.532 258.442 213.32 258.619 211.374 258.973C209.428 259.282 207.88 259.835 206.73 260.631C205.624 261.428 205.072 262.533 205.072 263.949C205.072 264.745 205.271 265.43 205.669 266.005C206.067 266.58 206.642 267.023 207.394 267.332C208.146 267.642 209.052 267.797 210.114 267.797Z" fill="#0000FF"/>
<path d="M250.39 274.763C247.957 274.763 245.768 274.497 243.822 273.967C241.875 273.436 240.217 272.706 238.846 271.777C237.475 270.804 236.413 269.654 235.661 268.327C234.954 267 234.6 265.497 234.6 263.816C234.6 263.639 234.6 263.462 234.6 263.285C234.6 263.108 234.622 262.976 234.666 262.887H243.556C243.556 262.976 243.556 263.064 243.556 263.153C243.556 263.241 243.556 263.329 243.556 263.418C243.6 264.524 243.954 265.43 244.618 266.138C245.281 266.801 246.144 267.288 247.205 267.598C248.311 267.907 249.461 268.062 250.655 268.062C251.716 268.062 252.734 267.974 253.707 267.797C254.724 267.575 255.564 267.2 256.228 266.669C256.936 266.138 257.289 265.452 257.289 264.612C257.289 263.551 256.847 262.732 255.962 262.157C255.122 261.582 253.994 261.118 252.579 260.764C251.208 260.41 249.704 260.012 248.068 259.57C246.564 259.216 245.06 258.818 243.556 258.376C242.052 257.889 240.681 257.27 239.443 256.518C238.249 255.766 237.276 254.793 236.524 253.599C235.772 252.361 235.396 250.813 235.396 248.955C235.396 247.142 235.794 245.571 236.59 244.245C237.386 242.873 238.47 241.746 239.841 240.861C241.256 239.976 242.893 239.335 244.75 238.937C246.652 238.495 248.687 238.274 250.854 238.274C252.889 238.274 254.79 238.495 256.56 238.937C258.329 239.335 259.877 239.954 261.204 240.795C262.531 241.591 263.57 242.608 264.322 243.846C265.074 245.041 265.45 246.39 265.45 247.893C265.45 248.203 265.45 248.491 265.45 248.756C265.45 249.021 265.428 249.198 265.383 249.287H256.56V248.756C256.56 247.96 256.316 247.296 255.83 246.766C255.343 246.191 254.636 245.748 253.707 245.439C252.822 245.129 251.739 244.974 250.456 244.974C249.571 244.974 248.753 245.041 248.001 245.173C247.294 245.306 246.674 245.505 246.144 245.77C245.613 246.036 245.193 246.368 244.883 246.766C244.618 247.119 244.485 247.562 244.485 248.092C244.485 248.844 244.795 249.464 245.414 249.95C246.077 250.392 246.94 250.768 248.001 251.078C249.063 251.388 250.235 251.719 251.517 252.073C253.11 252.515 254.768 252.958 256.493 253.4C258.262 253.798 259.899 254.351 261.403 255.059C262.906 255.766 264.123 256.784 265.052 258.11C265.98 259.393 266.445 261.14 266.445 263.352C266.445 265.475 266.025 267.266 265.184 268.725C264.388 270.185 263.26 271.357 261.801 272.242C260.341 273.126 258.638 273.768 256.692 274.166C254.746 274.564 252.645 274.763 250.39 274.763Z" fill="#0000FF"/>
<path d="M273.919 273.967V228.455H283.805V249.154L303.177 228.455H315.384L298.002 246.965L315.716 273.967H303.907L291.169 253.798L283.805 260.432V273.967H273.919Z" fill="#0000FF"/>
<path d="M321.197 233.961V226H330.418V233.961H321.197ZM321.197 273.967V239.07H330.418V273.967H321.197Z" fill="#0000FF"/>
<path d="M338.884 273.967V239.07H346.514L347.243 243.846H347.708C348.46 242.697 349.344 241.701 350.361 240.861C351.423 240.021 352.595 239.379 353.878 238.937C355.205 238.495 356.62 238.274 358.124 238.274C360.335 238.274 362.237 238.716 363.829 239.6C365.466 240.485 366.726 241.9 367.611 243.846H368.075C368.827 242.697 369.734 241.701 370.795 240.861C371.857 240.021 373.073 239.379 374.444 238.937C375.815 238.495 377.275 238.274 378.823 238.274C381.034 238.274 382.936 238.672 384.529 239.468C386.165 240.264 387.448 241.569 388.376 243.382C389.305 245.151 389.77 247.451 389.77 250.282V273.967H380.548V251.94C380.548 250.835 380.415 249.906 380.15 249.154C379.929 248.358 379.597 247.739 379.155 247.296C378.712 246.81 378.16 246.456 377.496 246.235C376.833 246.014 376.125 245.903 375.373 245.903C374.135 245.903 373.029 246.235 372.056 246.898C371.083 247.562 370.309 248.468 369.734 249.618C369.203 250.768 368.938 252.095 368.938 253.599V273.967H359.716V251.94C359.716 250.835 359.583 249.906 359.318 249.154C359.097 248.358 358.765 247.739 358.323 247.296C357.88 246.81 357.328 246.456 356.664 246.235C356.045 246.014 355.337 245.903 354.541 245.903C353.347 245.903 352.241 246.235 351.224 246.898C350.251 247.562 349.477 248.468 348.902 249.618C348.371 250.768 348.106 252.095 348.106 253.599V273.967H338.884Z" fill="#0000FF"/>
<path d="M417.477 274.763C415.221 274.763 413.142 274.32 411.24 273.436C409.383 272.507 407.879 271.114 406.729 269.256H406.264L405.535 273.967H397.971V226H407.193V242.918H407.591C408.299 241.9 409.161 241.038 410.179 240.33C411.196 239.623 412.346 239.114 413.629 238.804C414.911 238.451 416.304 238.274 417.808 238.274C420.55 238.274 422.939 238.915 424.973 240.198C427.052 241.48 428.667 243.471 429.817 246.169C430.966 248.822 431.541 252.25 431.541 256.452C431.541 260.654 430.966 264.103 429.817 266.801C428.711 269.499 427.096 271.512 424.973 272.839C422.895 274.121 420.396 274.763 417.477 274.763ZM414.624 267.2C416.481 267.2 417.941 266.846 419.002 266.138C420.108 265.386 420.904 264.28 421.391 262.821C421.877 261.361 422.121 259.526 422.121 257.314V255.788C422.121 253.577 421.877 251.741 421.391 250.282C420.904 248.778 420.108 247.672 419.002 246.965C417.941 246.213 416.481 245.837 414.624 245.837C413.297 245.837 412.169 246.08 411.24 246.567C410.311 247.009 409.537 247.672 408.918 248.557C408.343 249.397 407.901 250.459 407.591 251.741C407.282 253.024 407.127 254.439 407.127 255.987V257.182C407.127 259.26 407.392 261.052 407.923 262.555C408.454 264.059 409.272 265.209 410.378 266.005C411.483 266.801 412.899 267.2 414.624 267.2Z" fill="#0000FF"/>
<path d="M438.335 273.967V226H447.557V273.967H438.335Z" fill="#0000FF"/>
<path d="M471.878 274.763C468.031 274.763 464.802 274.121 462.192 272.839C459.583 271.512 457.615 269.499 456.288 266.801C454.961 264.103 454.297 260.676 454.297 256.518C454.297 252.316 454.961 248.889 456.288 246.235C457.615 243.537 459.561 241.547 462.126 240.264C464.735 238.937 467.92 238.274 471.679 238.274C475.218 238.274 478.203 238.915 480.636 240.198C483.068 241.436 484.904 243.382 486.142 246.036C487.381 248.645 488 252.029 488 256.186V258.575H463.652C463.74 260.609 464.05 262.334 464.581 263.75C465.156 265.165 466.018 266.226 467.168 266.934C468.362 267.598 469.932 267.929 471.878 267.929C472.94 267.929 473.891 267.797 474.731 267.531C475.616 267.266 476.368 266.868 476.987 266.337C477.606 265.806 478.093 265.143 478.447 264.347C478.8 263.551 478.977 262.644 478.977 261.627H488C488 263.838 487.602 265.762 486.806 267.399C486.01 269.035 484.904 270.406 483.489 271.512C482.073 272.573 480.37 273.392 478.38 273.967C476.434 274.497 474.267 274.763 471.878 274.763ZM463.785 252.737H478.513C478.513 251.41 478.336 250.26 477.982 249.287C477.673 248.314 477.23 247.518 476.655 246.898C476.08 246.279 475.373 245.837 474.532 245.571C473.736 245.262 472.829 245.107 471.812 245.107C470.131 245.107 468.716 245.395 467.566 245.969C466.46 246.5 465.598 247.341 464.979 248.491C464.404 249.596 464.006 251.012 463.785 252.737Z" fill="#0000FF"/>
</svg>
