<svg width="500" height="75" viewBox="0 0 500 75" fill="none" xmlns="http://www.w3.org/2000/svg">
<path fill-rule="evenodd" clip-rule="evenodd" d="M54.9995 14.1186C54.4155 12.7314 52.8175 12.0804 51.4304 12.6645C50.0432 13.2485 49.3922 14.8465 49.9763 16.2336C50.1204 16.5759 50.1189 16.8753 50.1142 17.8109C50.1132 18.0035 50.1121 18.2231 50.1121 18.4755V27.4811C50.1121 28.5073 50.13 29.4921 50.1475 30.4466C50.1964 33.127 50.241 35.5689 49.8709 38.0208C49.399 41.147 49.406 44.6053 49.412 47.5768C49.4127 47.9039 49.4134 48.2252 49.4134 48.5394C49.4134 49.6772 49.3655 50.7523 49.3143 51.9011C49.2771 52.7367 49.2381 53.6112 49.2146 54.5771C49.1628 56.7043 49.2045 59.0095 49.6634 61.2387C49.7492 61.6552 49.8316 62.0159 49.9131 62.3135C49.9704 62.5226 50.0976 62.982 50.3433 63.4003C50.4173 63.5263 50.5508 63.7344 50.7593 63.9511C50.9534 64.1529 51.3618 64.5188 52.0056 64.7018C52.7543 64.9146 53.5203 64.7941 54.1381 64.4376C54.6654 64.1333 54.9588 63.7334 55.0927 63.5246C55.3518 63.1205 55.45 62.7351 55.4794 62.6187C55.5239 62.4432 55.5505 62.2819 55.5672 62.1656C55.6268 61.749 55.6538 61.1965 55.6735 60.7931L55.6812 60.6363C55.7014 60.2187 55.7191 59.8539 55.7459 59.5517C55.8653 58.2039 55.9389 56.9315 56.0097 55.7059C56.148 53.3126 56.2761 51.0974 56.7153 48.8482C57.2741 45.9864 58.208 42.84 59.6029 40.7612C61.4176 38.057 63.5487 35.6231 65.8029 33.0485C66.3994 32.3673 67.0048 31.6759 67.6149 30.9673C68.3708 30.0895 68.6446 29.9412 68.7525 29.8939C68.8648 29.8447 69.1315 29.7568 70.2515 29.7788C70.5458 29.7846 70.9563 29.916 71.6914 30.537C72.0559 30.845 72.4189 31.2015 72.8625 31.6405L72.906 31.6835C73.3112 32.0845 73.7994 32.5677 74.3139 33.001C74.6929 33.3201 75.1931 34.1905 75.6076 35.7906C75.9923 37.2755 76.1847 38.8933 76.3303 40.2035C76.5637 42.3041 76.9378 44.4299 77.2942 46.4548L77.2947 46.4578C77.4071 47.0963 77.5177 47.7248 77.6216 48.3392C78.0665 50.9714 78.4098 53.4536 78.4098 55.8952C78.4098 56.2593 78.4393 56.8107 78.4679 57.3462L78.4809 57.5889C78.5158 58.2512 78.5508 58.9732 78.5605 59.6566C78.5697 60.3062 78.5539 60.8261 78.5151 61.1803C77.9938 61.9668 77.8959 63.0025 78.3481 63.907C79.0212 65.2532 80.6581 65.7988 82.0043 65.1257C83.0609 64.5974 83.4645 63.6442 83.5991 63.2879C83.7737 62.8254 83.8588 62.3538 83.9076 61.9843C84.0077 61.2269 84.0213 60.3535 84.0103 59.5792C83.999 58.7815 83.9588 57.968 83.9237 57.3022L83.9114 57.0696C83.8802 56.4814 83.8601 56.1015 83.8601 55.8952C83.8601 52.977 83.451 50.1243 82.9957 47.4308C82.8779 46.7335 82.758 46.0523 82.6402 45.3823C82.2914 43.3994 81.9598 41.5141 81.7473 39.6016C81.6037 38.309 81.3782 36.3321 80.8838 34.4238C80.4193 32.6308 79.5794 30.3096 77.8247 28.8319C77.4902 28.5502 77.1453 28.2106 76.696 27.7661L76.6764 27.7467C76.2609 27.3356 75.7553 26.8353 75.2088 26.3736C74.1045 25.4406 72.5003 24.3715 70.3584 24.3295C69.1394 24.3056 67.8397 24.3432 66.5648 24.9019C65.2854 25.4626 64.3512 26.4047 63.4848 27.4108C62.9435 28.0395 62.3846 28.6772 61.8166 29.3253C59.6774 31.7663 57.4087 34.3551 55.4609 37.162C55.6837 34.7328 55.6372 32.2596 55.5945 29.986C55.5782 29.1175 55.5624 28.2777 55.5624 27.4811V18.4755C55.5624 18.372 55.5652 18.2497 55.5682 18.1115C55.5885 17.2018 55.6242 15.6021 54.9995 14.1186ZM55.2002 60.9745C55.2001 60.9748 55.1969 60.9661 55.1909 60.9467C55.1974 60.9644 55.2004 60.9742 55.2002 60.9745Z" fill="#000000"/>
<path fill-rule="evenodd" clip-rule="evenodd" d="M16.8073 17.3009C17.9401 17.3831 19.0657 17.4648 20.181 17.5404C20.4961 16.486 21.4361 15.6852 22.5988 15.6022C23.9963 15.5023 25.2229 16.4748 25.4722 17.8208C26.2946 17.8381 27.1323 17.8401 28.003 17.8422C28.5592 17.8436 29.129 17.845 29.7168 17.8504C31.6923 17.8687 33.7973 17.9343 35.8555 18.2461C36.6423 18.3653 38.1958 18.5896 39.6076 18.6158C40.2634 18.6279 40.7613 18.5935 41.0839 18.5341C41.8882 17.6911 43.1777 17.4308 44.2742 17.979C45.6204 18.6521 46.166 20.2891 45.4929 21.6353C44.7118 23.1975 43.1178 23.6669 42.359 23.8359C41.4238 24.0441 40.3953 24.0817 39.5065 24.0652C37.6995 24.0317 35.8304 23.7549 35.039 23.635C33.3779 23.3833 31.5899 23.3183 29.6665 23.3006C29.164 23.2959 28.6451 23.2947 28.1171 23.2934C27.4463 23.2917 26.7601 23.29 26.0742 23.2814C26.1574 24.1581 26.2168 25.0721 26.2168 26.0062C26.2168 26.6256 26.1708 27.3809 26.1313 28.0296C26.1128 28.3336 26.0957 28.6143 26.0854 28.8466C26.0461 29.7349 26.0683 30.3663 26.1713 30.83C26.5499 32.5336 26.3986 34.1791 26.2331 35.4932C26.1885 35.8474 26.1439 36.1743 26.1019 36.482C25.9721 37.4332 25.8675 38.1994 25.8675 39.01C25.8675 41.5771 25.9437 44.1652 26.0216 46.7952L26.0226 46.83C26.0997 49.4348 26.178 52.0819 26.178 54.7115C26.178 55.8871 26.0948 57.0487 26.0192 58.1025L26.0158 58.1509C25.937 59.2503 25.8675 60.239 25.8675 61.2133C25.8675 61.3502 25.8802 61.5428 25.9047 61.9135L25.9048 61.9156C25.9262 62.2392 25.954 62.6723 25.9538 63.1142C25.9536 63.5462 25.9282 64.1039 25.7993 64.6742C25.6746 65.2262 25.3996 66.0318 24.7199 66.7115C23.6557 67.7758 21.9302 67.7758 20.8659 66.7115C19.9429 65.7884 19.8204 64.3679 20.4986 63.3129C20.5016 63.257 20.5034 63.1903 20.5034 63.1115C20.5036 62.8727 20.4882 62.606 20.4663 62.275L20.4606 62.1886C20.442 61.9117 20.4171 61.5408 20.4171 61.2133C20.4171 60.0254 20.5009 58.856 20.5767 57.7979L20.5793 57.7614C20.6582 56.6608 20.7276 55.6771 20.7276 54.7115C20.7276 52.1645 20.6514 49.5869 20.5736 46.9564L20.5734 46.9513C20.496 44.3364 20.4171 41.6695 20.4171 39.01C20.4171 37.7893 20.5907 36.5318 20.7303 35.5206C20.7652 35.2677 20.798 35.03 20.8254 34.8123C20.9794 33.5896 21.0125 32.7401 20.8508 32.0124C20.5846 30.8145 20.597 29.5859 20.6404 28.6058C20.6605 28.1514 20.6846 27.771 20.7063 27.4282C20.7391 26.9107 20.7665 26.4786 20.7665 26.0062C20.7665 25.0496 20.6851 24.0757 20.5686 23.0305C19.0572 22.9327 17.5698 22.824 16.096 22.7163C11.7788 22.4007 7.57789 22.0936 3.22909 22.0936C1.72401 22.0936 0.503906 20.8735 0.503906 19.3685C0.503906 17.8634 1.72401 16.6433 3.22909 16.6433C7.74324 16.6433 12.332 16.9762 16.8073 17.3009ZM41.3514 18.4632C41.3536 18.4644 41.3338 18.4737 41.2851 18.4879C41.3248 18.4692 41.3491 18.4621 41.3514 18.4632Z" fill="#000000"/>
<path fill-rule="evenodd" clip-rule="evenodd" d="M247.484 28.1798C246.794 27.9959 246.077 27.7596 245.269 27.4887L245.074 27.4232C244.343 27.1775 243.538 26.9072 242.722 26.6725C240.944 26.1613 238.847 25.7355 236.601 26.035C235.936 26.1236 235.007 26.4517 234.235 26.7646C233.365 27.1175 232.326 27.6044 231.36 28.1829C230.458 28.7227 229.347 29.5014 228.604 30.5159C228.217 31.0444 227.803 31.8091 227.73 32.7678C227.651 33.811 228.001 34.7687 228.621 35.5276C231.39 38.9112 235.007 40.1142 238.091 41.1397C238.533 41.2867 238.963 41.43 239.379 41.5756C244.287 43.2932 247.786 44.5498 250.605 48.0195C251.952 49.6768 253.203 51.5518 253.913 53.4274C254.618 55.2861 254.712 56.9171 254.123 58.3404C253.893 58.8971 253.649 59.0697 253.372 59.1962C252.938 59.3944 252.312 59.5079 251.172 59.6205C249.393 59.7962 247.684 59.5893 245.837 59.189C244.905 58.9872 243.968 58.7434 242.959 58.479L242.85 58.4504C241.89 58.1986 240.864 57.9298 239.807 57.6933L239.497 57.6242C237.465 57.1708 235.916 56.8252 234.612 56.0609C234.213 55.8268 233.829 55.6986 233.596 55.6284C233.383 55.3343 233.126 55.0611 232.815 54.8195C232.281 54.4041 231.732 54.1976 231.379 54.0798C229.951 53.6039 228.408 54.3755 227.932 55.8034C227.494 57.1176 228.113 58.5296 229.327 59.1172C230.006 60.1859 231.047 60.5554 231.481 60.6921C231.616 60.7347 231.742 60.7692 231.825 60.7917L231.865 60.8026C231.916 60.8165 231.95 60.8258 231.979 60.8339C234.027 62.0015 236.334 62.5093 238.132 62.9049L238.133 62.9052C238.299 62.9417 238.461 62.9772 238.617 63.0123C239.576 63.2267 240.516 63.4731 241.501 63.7313L241.578 63.7513C242.574 64.0123 243.62 64.2855 244.683 64.5158C246.824 64.9798 249.148 65.2972 251.707 65.0445C252.797 64.9369 254.275 64.7756 255.636 64.154C257.154 63.4606 258.396 62.2683 259.159 60.4243C260.451 57.3034 260.019 54.1595 259.01 51.4964C258.008 48.8503 256.358 46.4567 254.836 44.5825C251.002 39.8645 246.153 38.1694 241.527 36.5525L241.18 36.4312C240.674 36.2542 240.194 36.0905 239.738 35.9349C237.153 35.0534 235.321 34.4288 233.803 33.083C233.91 33.0123 234.029 32.9374 234.16 32.8588C234.829 32.4583 235.605 32.0908 236.284 31.8152C236.62 31.6788 236.911 31.5738 237.13 31.5032C237.264 31.4599 237.341 31.4397 237.369 31.4323L237.375 31.4306C238.508 31.2906 239.739 31.486 241.216 31.9106C241.911 32.1105 242.604 32.3433 243.358 32.5962L243.536 32.656C244.333 32.9235 245.202 33.2122 246.079 33.4461C248.761 34.1613 250.726 35.1395 251.515 36.6296C252.22 37.9598 253.869 38.4673 255.199 37.7631C256.529 37.0588 257.037 35.4097 256.332 34.0795C254.353 30.3409 250.196 28.9031 247.484 28.1798ZM233.002 33.7351C232.998 33.7414 232.997 33.7417 233.002 33.736L233.002 33.7351Z" fill="#000000"/>
<path fill-rule="evenodd" clip-rule="evenodd" d="M211.101 27.318C208.859 26.6401 206.699 26.3972 204.456 26.4252C200.684 26.4724 196.101 27.7448 192.904 30.3599C190.615 32.2328 189.675 34.828 189.266 37.1521C188.903 39.2105 188.91 41.3724 188.915 43.0464C188.915 43.234 188.916 43.4157 188.916 43.5902C188.916 46.6694 188.94 49.8712 189.889 53.2863C189.981 53.6189 190.062 53.9939 190.167 54.4842L190.169 54.4909C190.267 54.949 190.386 55.503 190.54 56.0567C190.839 57.1361 191.357 58.5725 192.509 59.7242C194.783 61.9978 197.735 63.0123 200.557 63.3992C203.38 63.7863 206.292 63.5775 208.771 63.2102C211.363 62.8261 213.797 62.1185 215.361 60.131C215.918 59.4238 216.297 58.6355 216.554 57.7992C216.877 58.3362 217.27 58.8469 217.751 59.2997C217.799 59.4149 217.859 59.5885 217.926 59.8273C218.003 60.1003 218.072 60.3967 218.141 60.7054C218.155 60.7721 218.171 60.8451 218.188 60.9212C218.238 61.1499 218.294 61.4062 218.343 61.6024C218.708 63.0625 220.188 63.9503 221.648 63.5852C223.108 63.2202 223.996 61.7406 223.631 60.2805C223.625 60.2576 223.609 60.1853 223.586 60.0793L223.585 60.0777C223.5 59.6933 223.318 58.8692 223.172 58.3505C223.056 57.937 222.899 57.4485 222.684 56.979C222.492 56.5572 222.14 55.8922 221.518 55.3593C221.221 55.1042 220.828 54.4048 220.557 52.9404C220.369 51.9235 220.297 50.9341 220.224 49.9371L220.224 49.936C220.195 49.5389 220.166 49.1407 220.13 48.739C220.015 47.4825 219.883 46.2811 219.755 45.1097L219.754 45.1084C219.495 42.7466 219.249 40.5067 219.189 38.183C219.176 37.6838 219.168 36.9378 219.163 36.0964C219.234 34.9563 219.21 33.7126 219.188 32.6274C219.179 32.1562 219.17 31.7139 219.17 31.324C219.17 31.1056 219.17 30.9567 219.169 30.8776C219.169 30.8597 219.169 30.8305 219.168 30.801C219.168 30.7929 219.167 30.7433 219.163 30.6855C219.162 30.6676 219.159 30.6312 219.155 30.5856C219.153 30.57 219.141 30.4321 219.102 30.2621C219.073 30.1444 218.945 29.7789 218.828 29.54C218.331 28.8936 216.165 28.1482 214.752 28.7222C214.708 28.7659 214.664 28.8126 214.621 28.8614C214.34 28.7054 214.026 28.5972 213.69 28.549C213.678 28.5443 213.661 28.5377 213.639 28.5286C213.523 28.4791 213.368 28.4002 213.124 28.2666C213.077 28.2407 213.023 28.2106 212.964 28.1777L212.962 28.1766C212.767 28.0686 212.519 27.9309 212.292 27.8143C211.982 27.6556 211.568 27.4591 211.101 27.318ZM217.696 59.1828C217.696 59.1823 217.7 59.1894 217.708 59.2054C217.7 59.1913 217.696 59.1833 217.696 59.1828ZM213 33.9548C213.241 33.9816 213.478 33.9761 213.707 33.9418C213.707 34.5915 213.708 35.2769 213.712 35.9269L213.709 35.9671C213.534 38.2441 213.157 40.508 212.758 42.911C212.683 43.3575 212.608 43.8092 212.534 44.2663C212.067 47.1199 211.624 50.1543 211.624 53.2556C211.624 55.7015 211.32 56.4534 211.079 56.7597C210.894 56.994 210.339 57.468 207.972 57.8187C205.759 58.1465 203.413 58.2894 201.297 57.9993C199.179 57.709 197.51 57.0173 196.363 55.8702C196.217 55.7247 196.011 55.3922 195.792 54.6014C195.687 54.2228 195.599 53.819 195.496 53.339L195.484 53.2815C195.39 52.8438 195.278 52.3243 195.14 51.8275C194.414 49.2128 194.366 46.6995 194.366 43.5902C194.366 43.4136 194.366 43.2378 194.366 43.0627C194.363 41.319 194.36 39.6495 194.634 38.0974C194.928 36.4244 195.483 35.2924 196.356 34.5782C198.389 32.9148 201.689 31.9106 204.524 31.8752C206.303 31.8529 207.897 32.0435 209.523 32.535L209.526 32.5358C209.533 32.5382 209.555 32.5461 209.595 32.5633C209.647 32.5858 209.715 32.6181 209.805 32.6643C209.946 32.7367 210.075 32.8082 210.242 32.9008C210.318 32.9433 210.403 32.9903 210.5 33.0438C210.769 33.1912 211.124 33.382 211.508 33.5448C211.885 33.7053 212.402 33.8884 213 33.9548Z" fill="#000000"/>
<path fill-rule="evenodd" clip-rule="evenodd" d="M143.391 34.231C144.701 33.5292 146.11 32.8445 147.354 32.6109C148.509 32.3941 148.892 32.644 149.168 33.0184C152.271 37.2295 153.224 42.5881 153.552 48.4843C152.848 52.4834 152.987 55.6066 153.816 60.682C153.879 61.0696 153.934 61.3841 153.981 61.6154C154.002 61.7216 154.034 61.8683 154.075 62.0138C154.092 62.0749 154.136 62.2271 154.212 62.4039C154.248 62.4857 154.331 62.6706 154.476 62.8807L154.48 62.8868C154.565 63.0096 154.995 63.6367 155.866 63.9265C156.405 64.1057 157.038 64.1271 157.657 63.903C158.229 63.6959 158.6 63.3484 158.808 63.1037C159.178 62.6682 159.311 62.2298 159.344 62.1197L159.344 62.1183C159.432 61.8296 159.452 61.5836 159.457 61.5235L159.457 61.5189C159.472 61.3456 159.471 61.183 159.47 61.1006C159.467 60.9027 159.456 60.6532 159.443 60.4037C159.427 60.1115 159.407 59.7751 159.385 59.41C159.327 58.4387 159.257 57.2643 159.23 56.1766C159.214 55.528 159.2 54.8614 159.186 54.1823L159.186 54.175C159.151 52.449 159.115 50.6419 159.028 48.8441C159.269 47.6019 159.606 46.2129 160.053 44.5178C160.237 43.8204 160.368 43.0487 160.478 42.3536C160.509 42.1617 160.538 41.9746 160.567 41.7908C160.649 41.2647 160.727 40.7657 160.821 40.2599C161.092 38.7987 161.388 37.9913 161.665 37.6359C161.967 37.2471 162.599 36.891 164.032 36.7602C164.713 36.6981 165.452 36.6976 166.254 36.717C166.458 36.7219 166.677 36.7286 166.902 36.7355C167.488 36.7535 168.12 36.7729 168.669 36.7663C169.064 36.7616 169.404 36.7544 169.702 36.7481C170.677 36.7275 171.2 36.7164 171.72 36.8314C172.103 36.9159 172.548 37.0847 173.203 37.9443C174.882 40.1487 175.678 43.0235 176.395 46.3236C176.609 47.3051 176.825 48.166 177.026 48.9642C177.454 50.6623 177.81 52.0768 177.91 53.7652C177.931 54.1252 178.008 54.4984 178.058 54.7287C178.116 55.001 178.192 55.3137 178.264 55.6118C178.415 56.2395 178.572 56.892 178.686 57.5212C178.768 57.9755 178.809 58.3268 178.822 58.5775C178.204 59.3794 178.059 60.4954 178.542 61.4616C179.215 62.8078 180.852 63.3535 182.198 62.6804C183.966 61.7968 184.211 59.9499 184.26 59.2321C184.323 58.3118 184.19 57.3328 184.05 56.5541C183.907 55.7651 183.718 54.9802 183.575 54.3857L183.562 54.3336C183.464 53.9261 183.409 53.6853 183.38 53.5573C183.355 53.444 183.349 53.4191 183.351 53.4451C183.22 51.2184 182.672 49.0363 182.193 47.1273C182.019 46.4341 181.854 45.7761 181.721 45.1658C181.008 41.8851 180.027 37.9079 177.538 34.6412C176.194 32.8767 174.678 31.9029 172.896 31.5093C171.668 31.2381 170.304 31.2742 169.234 31.3025C169.009 31.3084 168.798 31.314 168.603 31.3164C168.176 31.3215 167.733 31.3078 167.206 31.2915C166.954 31.2838 166.683 31.2754 166.385 31.2682C165.53 31.2475 164.539 31.241 163.537 31.3324C161.608 31.5084 159.069 32.0962 157.363 34.2897C157.079 34.6538 156.838 35.0479 156.63 35.4568C155.871 33.4833 154.873 31.5731 153.556 29.7852C151.55 27.0631 148.602 26.831 146.348 27.2541C144.183 27.6605 142.104 28.7375 140.817 29.4266C138.748 30.5353 136.806 32.069 135.159 33.8875C135.15 33.3568 135.145 32.8261 135.145 32.2946C135.145 30.7895 133.924 29.5694 132.419 29.5694C130.914 29.5694 129.694 30.7895 129.694 32.2946C129.694 35.4751 129.874 38.6678 130.05 41.773L130.05 41.7772C130.093 42.546 130.137 43.3094 130.177 44.0659C129.593 47.5195 129.725 51.214 129.871 54.4965C129.775 55.1263 129.694 55.8319 129.694 56.5747C129.694 57.2673 129.797 58.4524 129.885 59.2513C129.928 59.6372 129.983 60.0782 130.042 60.3745L130.042 60.378C130.054 60.4364 130.092 60.6282 130.167 60.8403L130.168 60.8428C130.181 60.8819 130.328 61.3278 130.699 61.7499C130.879 61.9539 131.541 62.649 132.683 62.6772C133.956 62.7087 134.696 61.9079 134.947 61.5675C135.206 61.2172 135.315 60.8899 135.352 60.7743C135.401 60.6216 135.427 60.4944 135.441 60.421C135.468 60.2733 135.478 60.1504 135.483 60.0888C135.492 59.9554 135.494 59.8284 135.494 59.7383C135.494 58.1721 135.42 56.5344 135.347 54.9407L135.342 54.826C135.365 54.6968 135.391 54.5587 135.418 54.4132C135.6 53.439 135.843 52.1296 135.843 50.888C135.843 48.7082 135.76 46.5477 135.653 44.4221C135.734 44.0164 135.828 43.6234 135.935 43.2432C136.964 39.5965 139.92 36.0906 143.391 34.231ZM178.809 58.9527C178.808 58.9623 178.808 58.9678 178.808 58.9687C178.81 58.9707 178.815 58.949 178.819 58.8975C178.814 58.9218 178.811 58.9405 178.809 58.9527Z" fill="#000000"/>
<path fill-rule="evenodd" clip-rule="evenodd" d="M108.566 27.4732C105.352 27.4732 102.339 27.6959 99.0836 28.6261C96.2813 29.4268 93.8837 31.6352 92.1912 33.8915C90.4741 36.1808 89.1305 38.9864 88.752 41.5412C88.226 45.0917 87.9684 47.7868 89.2894 51.7497C89.6409 52.8044 90.1528 54.1694 90.7629 55.5043C91.3543 56.7985 92.1166 58.241 93.0068 59.329C94.0981 60.6628 95.3646 61.5928 96.9569 62.2297C97.4745 62.4367 97.9904 62.6705 98.572 62.934L98.5742 62.935C99.1356 63.1894 99.7625 63.4735 100.409 63.7293C101.714 64.2457 103.26 64.7148 105.034 64.7148C105.888 64.7148 106.754 64.7898 107.76 64.8789L107.806 64.8829C108.762 64.9676 109.851 65.0642 110.973 65.0642C111.667 65.0642 112.891 65.0155 114.106 64.8392C114.713 64.7513 115.386 64.6219 116.02 64.4237C116.584 64.247 117.435 63.9218 118.123 63.2722C120.261 61.2527 121.105 58.1104 121.548 55.6075C121.843 53.9444 122.028 52.0266 122.175 50.5049L122.175 50.5038C122.246 49.7617 122.309 49.1139 122.371 48.6359C123.001 43.7495 122.652 36.749 120.242 31.9298C119.697 30.8388 119.001 29.5159 117.774 28.6226C116.442 27.6518 114.92 27.4732 113.457 27.4732C112.384 27.4732 111.456 28.0932 111.012 28.9944C110.567 28.0932 109.639 27.4732 108.566 27.4732ZM108.566 32.9236C109.639 32.9236 110.567 32.3036 111.012 31.4024C111.456 32.3036 112.384 32.9236 113.457 32.9236C114.221 32.9236 114.498 33.0027 114.569 33.0314C114.588 33.0477 114.649 33.1082 114.755 33.2648C114.909 33.4915 115.096 33.8254 115.367 34.3672C117.099 37.8314 117.525 43.5989 116.965 47.9384C116.858 48.7701 116.781 49.5903 116.703 50.422C116.577 51.7705 116.448 53.15 116.182 54.6571C115.779 56.9313 115.195 58.4314 114.504 59.1841C114.475 59.1949 114.438 59.2077 114.392 59.2221C114.136 59.3023 113.772 59.3803 113.324 59.4453C112.43 59.5749 111.477 59.6138 110.973 59.6138C110.114 59.6138 109.246 59.5388 108.241 59.4497L108.189 59.4452C107.235 59.3606 106.149 59.2644 105.034 59.2644C104.23 59.2644 103.413 59.0561 102.414 58.6611C101.91 58.4616 101.401 58.232 100.822 57.9696L100.774 57.9478C100.226 57.6998 99.614 57.4223 98.9811 57.1691C98.2486 56.8762 97.7357 56.5016 97.2251 55.8776C96.7841 55.3386 96.253 54.405 95.7202 53.2389C95.2059 52.1137 94.7628 50.9345 94.4601 50.0261C93.5437 47.277 93.6609 45.5972 94.1435 42.34C94.3546 40.9149 95.2168 38.9411 96.5513 37.162C97.9106 35.3499 99.4104 34.2012 100.581 33.8668C103.163 33.129 105.619 32.9236 108.566 32.9236ZM114.589 33.0417C114.589 33.042 114.582 33.0392 114.571 33.0323C114.585 33.0378 114.59 33.0413 114.589 33.0417Z" fill="#000000"/>
<path fill-rule="evenodd" clip-rule="evenodd" d="M409.409 7.03382C411.968 6.74944 414.311 8.28616 415.142 10.6094C415.164 10.6471 415.188 10.6872 415.212 10.7292C415.385 11.0325 415.638 11.5182 415.834 12.1449C416.441 14.0858 416.643 16.4588 416.762 17.8591C416.787 18.1504 416.808 18.3996 416.829 18.5941C417.191 22.0244 417.517 25.4636 417.789 28.915C418.766 28.2865 419.793 27.7344 420.863 27.2547C424.687 25.5405 428.704 25.3011 432.812 27.4633C436.377 29.3399 438.292 31.5108 440.169 34.5958C443.387 39.882 443.889 45.9405 443.076 51.2747C442.769 53.2841 442.071 55.024 440.835 56.5594C439.854 57.7776 438.633 58.703 437.843 59.3019L437.684 59.4224L437.65 59.4484C433.61 62.5219 427.89 64.4684 423.416 65.1396C421.164 65.4773 418.379 65.7404 415.545 65.5368C412.751 65.3361 409.492 64.654 406.638 62.7512C404.134 61.0815 403.457 57.6975 405.127 55.1929C405.763 54.238 406.649 53.5488 407.64 53.154C407.645 52.0514 407.664 50.8682 407.705 49.7946V48.2596C407.705 38.7748 407 29.3264 405.988 19.7383C405.919 19.0848 405.869 18.5307 405.825 18.05C405.737 17.0746 405.676 16.4008 405.541 15.8109C405.269 15.3578 404.74 14.3654 404.594 13.0527C404.261 10.061 406.417 7.36623 409.409 7.03382ZM418.605 50.0131V54.6839C419.663 54.6358 420.744 54.5176 421.799 54.3594C425 53.8793 428.846 52.4491 431.049 50.7733L431.083 50.7471C431.574 50.3741 431.861 50.1532 432.094 49.9555C432.173 49.8878 432.23 49.8364 432.269 49.7992C432.278 49.7577 432.289 49.7023 432.299 49.6309C432.847 46.0392 432.379 42.7625 430.858 40.2636C429.735 38.4179 429.145 37.8517 427.735 37.1095C427.22 36.8387 426.927 36.8059 426.74 36.8061C426.517 36.8063 426.087 36.8585 425.322 37.2017C423.625 37.9622 422.284 38.9739 421.216 40.2794C419.69 42.1444 419.261 44.2123 418.716 48.4331C418.678 48.7259 418.637 49.2571 418.605 50.0131Z" fill="#000000"/>
<path fill-rule="evenodd" clip-rule="evenodd" d="M459.438 12.8423C459.438 9.83217 456.998 7.39196 453.988 7.39196C450.978 7.39196 448.537 9.83217 448.537 12.8423C448.537 14.4157 448.552 15.932 448.567 17.41V17.4118C448.612 22.0824 448.654 26.3704 448.214 30.8663C447.82 34.8972 447.489 39.0233 447.489 43.2944V43.2865L447.489 43.2904C447.489 43.3038 447.487 43.3533 447.48 43.4526C447.471 43.5921 447.457 43.7598 447.438 43.9897L447.431 44.0783C447.395 44.4954 447.347 45.0733 447.321 45.6613C447.294 46.2807 447.283 47.0929 447.377 47.9347C447.43 48.4142 447.54 49.1454 447.831 49.9547C447.816 50.0197 447.8 50.0934 447.784 50.1661C447.744 50.3528 447.692 50.6008 447.645 50.8691C447.599 51.1367 447.548 51.4806 447.522 51.8667C447.497 52.2255 447.508 52.5298 447.517 52.6959C447.527 52.8866 447.543 53.0638 447.557 53.2079C447.586 53.493 447.627 53.7921 447.663 54.0503C447.703 54.3331 447.737 54.5597 447.769 54.775C447.809 55.0488 447.847 55.3045 447.892 55.6345C447.91 55.7668 447.925 55.8843 447.937 55.988C447.942 56.0298 447.947 56.0694 447.951 56.1068C447.711 57.2645 447.844 58.5082 448.414 59.6478C449.76 62.3401 453.034 63.4314 455.727 62.0853C457.22 61.3386 457.95 60.1574 458.265 59.5126C458.591 58.8444 458.723 58.2458 458.783 57.9101C458.903 57.2323 458.899 56.6202 458.89 56.2833C458.87 55.5469 458.772 54.7518 458.694 54.1745C458.648 53.8332 458.582 53.3814 458.528 53.0178L458.525 52.9947C458.497 52.803 458.472 52.6375 458.457 52.5283L458.445 52.4424L458.464 52.3574C458.52 52.104 458.622 51.6459 458.693 51.2195C458.823 50.448 459.117 48.4811 458.203 46.4269C458.204 46.3422 458.207 46.2448 458.211 46.1337C458.227 45.7763 458.258 45.4028 458.297 44.9378L458.298 44.9315L458.3 44.903C458.319 44.6816 458.341 44.4229 458.357 44.174C458.373 43.9326 458.39 43.6201 458.39 43.2944C458.39 39.5615 458.679 35.8546 459.063 31.9276C459.565 26.7911 459.514 21.7128 459.466 16.9232C459.452 15.537 459.438 14.1746 459.438 12.8423ZM447.993 56.5776C447.994 56.6031 447.993 56.5974 447.993 56.5657L447.993 56.5776Z" fill="#000000"/>
<path fill-rule="evenodd" clip-rule="evenodd" d="M278.612 13.8904C278.612 10.8802 276.172 8.43999 273.162 8.43999C270.151 8.43999 267.711 10.8802 267.711 13.8904C267.711 15.0313 267.681 16.2997 267.648 17.644C267.567 20.9851 267.475 24.7944 267.815 28.2773C268.397 34.2493 268.759 40.125 268.759 46.0309C268.759 47.0231 268.777 47.7919 268.793 48.5218C268.813 49.4023 268.831 50.2272 268.817 51.3187C268.794 53.0197 268.67 54.3281 268.415 55.2991C268.01 56.8359 268.044 58.4531 268.057 59.1015C268.059 59.1878 268.061 59.2569 268.061 59.3064C268.061 59.3818 268.061 59.5114 268.067 59.6547C268.07 59.7191 268.077 59.8652 268.097 60.0455C268.106 60.1336 268.126 60.2994 268.166 60.5042L268.167 60.51C268.192 60.639 268.292 61.1545 268.57 61.7557C268.702 62.042 269.049 62.7421 269.76 63.4191C270.568 64.188 272.101 65.1251 274.151 64.8858C275.959 64.6749 277.064 63.6599 277.492 63.2044C277.965 62.7015 278.232 62.2232 278.349 62.0005C278.592 61.5373 278.71 61.1437 278.745 61.0271C278.797 60.8555 278.829 60.715 278.847 60.6358C278.903 60.3829 278.932 60.1627 278.939 60.1121L278.94 60.1064C278.967 59.9024 278.999 59.5848 279.022 59.3579L279.033 59.2425C279.042 59.1582 279.05 59.079 279.058 59.005C279.309 58.5177 279.489 57.9858 279.584 57.4215C279.643 57.323 279.729 57.1911 279.862 57.0024C279.934 56.8997 280.011 56.7925 280.102 56.6664L280.15 56.5996C280.225 56.4953 280.313 56.3745 280.396 56.2575C282.022 53.9741 283.673 51.6764 285.331 49.3684L286.134 48.2495C290.167 52.4553 294.62 56.1317 298.909 59.4984C300.012 60.3643 301.255 61.1765 302.251 61.8272C302.404 61.9271 302.551 62.0234 302.691 62.1153C302.769 62.1667 302.845 62.2168 302.919 62.2655C304.097 63.0466 304.913 63.645 305.524 64.2476L305.615 64.3478C305.694 64.4347 305.872 64.63 306.067 64.8221L306.069 64.8246C306.115 64.8721 306.788 65.5719 307.767 66.0366L307.778 66.0421C308.083 66.1879 310.463 67.3236 313.005 65.7753C315.644 64.1676 315.643 61.413 315.643 61.0586V61.053C315.643 59.1527 314.671 57.4795 313.196 56.504C311.778 55.1024 310.206 54.0178 308.943 53.1806C308.604 52.9561 308.292 52.7515 308 52.5604L307.996 52.5578C307.06 51.9443 306.336 51.47 305.64 50.9237C300.86 47.1719 296.375 43.4073 292.598 39.191C293.24 38.2803 293.88 37.3689 294.517 36.457C295.294 35.3428 296.348 34.3188 297.918 32.7992L297.94 32.7783C299.353 31.4103 301.239 29.5856 302.71 27.3219C303.288 26.4325 303.781 25.5247 304.161 24.8245L304.226 24.7036C304.647 23.9288 304.948 23.3852 305.266 22.9067C305.268 22.9042 305.272 22.899 305.279 22.8906C305.296 22.8685 305.33 22.8248 305.39 22.753C305.447 22.6854 305.505 22.6166 305.587 22.5204L305.609 22.4941C305.695 22.3935 305.806 22.2635 305.919 22.1258C306.291 21.6751 307.184 20.5891 307.678 19.1074C308.63 16.2517 307.087 13.1651 304.231 12.2132C301.544 11.3174 298.652 12.6313 297.527 15.1691L297.512 15.1875C297.457 15.2538 297.395 15.3265 297.309 15.4279L297.284 15.4575C297.247 15.5009 297.205 15.5504 297.16 15.6031C297.114 15.6576 297.065 15.7154 297.017 15.7736C296.809 16.023 296.503 16.3992 296.206 16.8448C295.576 17.7906 295.055 18.7507 294.656 19.4849L294.646 19.5026C294.209 20.3072 293.904 20.869 293.571 21.3812C292.862 22.4712 291.852 23.5004 290.338 24.9659L290.074 25.2205C288.739 26.5088 286.983 28.2041 285.578 30.2184C283.567 33.0999 281.539 35.9486 279.499 38.7974C279.331 34.9164 279.039 31.0638 278.664 27.2188C278.39 24.412 278.458 21.7271 278.534 18.7202C278.572 17.2103 278.612 15.6188 278.612 13.8904ZM304.743 61.0439C304.743 61.0129 304.743 60.9573 304.745 60.8809C304.746 60.8679 304.746 60.8543 304.747 60.8401C304.744 60.9107 304.743 60.9817 304.743 61.053L304.743 61.0439Z" fill="#000000"/>
<path d="M324.898 9.43292C321.887 9.43292 319.447 11.8731 319.447 14.8833C319.447 17.8935 321.887 20.3337 324.898 20.3337H325.247C328.257 20.3337 330.697 17.8935 330.697 14.8833C330.697 11.8731 328.257 9.43292 325.247 9.43292H324.898Z" fill="#000000"/>
<path fill-rule="evenodd" clip-rule="evenodd" d="M381.07 33.5026C381.505 33.4252 381.818 33.4671 382.156 33.5901C382.566 33.7388 383.13 34.0542 383.923 34.7031C385.019 35.5994 385.994 37.5108 387.246 40.4689C387.635 41.3889 388.064 42.2545 388.428 42.982L388.56 43.2456C388.886 43.896 389.154 44.4295 389.398 44.9684C389.938 46.1632 390.135 46.9157 390.157 47.5386C390.174 48.0418 390.234 48.5585 390.278 48.9199C390.295 49.0521 390.331 49.3364 390.366 49.6006C390.393 49.8132 390.419 50.0128 390.431 50.1094C390.478 50.4865 390.516 50.8281 390.543 51.1363C389.244 52.1326 388.407 53.7003 388.407 55.4636C388.407 58.4737 390.847 60.9139 393.857 60.9139C395.132 60.9139 396.495 60.6159 397.755 59.8465C399.006 59.0829 399.842 58.0477 400.377 57.0574C401.349 55.2571 401.475 53.335 401.487 52.1869C401.5 50.9057 401.359 49.6469 401.248 48.7587C401.224 48.5689 401.206 48.43 401.191 48.316C401.181 48.2357 401.172 48.1677 401.163 48.103L401.163 48.0998C401.143 47.9504 401.126 47.8176 401.098 47.5891C401.055 47.2425 401.05 47.1432 401.051 47.163C400.958 44.4753 400.115 42.2126 399.33 40.476C398.989 39.7234 398.617 38.9818 398.302 38.3535L398.176 38.1017C397.814 37.3791 397.525 36.789 397.285 36.2215L397.192 36.0023C396.153 33.5406 394.273 29.0866 390.826 26.2664C388.1 24.0364 384.239 21.8674 379.162 22.7701C377.023 23.1503 374.634 23.7976 372.518 25.4283C370.616 26.8946 369.395 28.7912 368.51 30.8425C367.66 28.9479 366.304 26.7758 363.681 25.6248C362.329 25.0312 361.021 24.8875 360.049 24.8454C359.183 24.8079 358.227 24.8445 357.415 24.8756L357.222 24.883C353.972 25.0056 351.47 26.2146 349.522 27.5638C349.342 27.6884 349.156 27.8226 348.968 27.9634C348.882 27.1747 348.621 26.3926 348.172 25.6746C346.576 23.122 343.214 22.346 340.661 23.9414C338.948 25.0121 338.308 26.6022 338.086 27.2449C337.82 28.0149 337.721 28.7294 337.675 29.159C337.625 29.6263 337.609 30.0558 337.601 30.3181C337.592 30.5998 337.591 30.6537 337.592 30.6427C337.353 33.4871 337.373 36.4019 337.392 39.0099V39.0138C337.396 39.68 337.401 40.3261 337.401 40.946C337.401 42.2509 337.406 43.5306 337.412 44.7968V44.8004C337.422 47.2803 337.432 49.7084 337.401 52.1729C337.401 52.1802 337.396 52.2783 337.348 52.5319C337.337 52.5927 337.325 52.6515 337.313 52.7106C337.281 52.866 337.245 53.0242 337.198 53.2302C337.178 53.3183 337.156 53.4151 337.131 53.5241C337.121 53.5684 337.111 53.6147 337.1 53.6633L337.094 53.6897C336.901 54.5506 336.517 56.2683 336.769 58.1636C336.769 58.1572 336.769 58.1579 336.77 58.1684C336.772 58.185 336.777 58.226 336.785 58.3019C336.797 58.4077 336.811 58.54 336.828 58.6969L336.83 58.7107C336.862 59.013 336.904 59.3928 336.944 59.7374C336.978 60.029 337.031 60.4768 337.089 60.8121C337.102 60.8843 337.143 61.1156 337.216 61.3846L337.217 61.3916C337.243 61.4867 337.352 61.8886 337.578 62.356C337.666 62.5382 337.995 63.2148 338.672 63.8784C339.369 64.5616 341.544 66.1716 344.417 65.0852C346.489 64.3019 347.283 62.6066 347.418 62.3176L347.425 62.3035C347.67 61.7822 347.775 61.3403 347.813 61.1688C347.9 60.7834 347.925 60.4706 347.932 60.3773C347.952 60.1318 347.952 59.9205 347.952 59.8305C347.952 57.8729 348.109 55.9359 348.287 53.7318C348.311 53.4232 348.337 53.1093 348.362 52.7894C348.559 50.308 349.155 48.3213 349.968 45.614L349.968 45.6129C350.206 44.822 350.462 43.9697 350.731 43.0256C350.8 42.7856 350.862 42.5672 350.918 42.367L350.921 42.3585C351.199 41.3745 351.353 40.8304 351.578 40.3106C351.776 39.8534 351.926 39.6863 352.086 39.5553C352.642 39.1006 353.218 38.599 353.702 38.1768L353.71 38.1695C353.883 38.0192 354.044 37.8791 354.188 37.755C354.806 37.2218 355.284 36.8326 355.728 36.5252C356.531 35.9688 357.052 35.7979 357.633 35.776L357.743 35.7718C358.135 35.757 358.456 35.7448 358.747 35.7374L358.752 35.7502C359.848 38.4913 360.366 41.5424 360.972 45.1123C361.112 45.9419 361.258 46.7996 361.416 47.6878C361.801 49.8432 362.584 51.982 363.162 53.5595L363.163 53.5632C363.309 53.9618 363.442 54.3245 363.552 54.6425C363.68 55.0132 363.832 55.3651 363.958 55.6369C363.952 56.2129 363.952 56.779 363.952 57.3268C363.952 57.4569 363.954 57.7687 364.006 58.1475C364.03 58.3266 364.089 58.7069 364.242 59.1651L364.244 59.171C364.338 59.4511 364.761 60.7172 366.043 61.7284C366.811 62.3346 367.879 62.8344 369.166 62.895C370.406 62.9533 371.403 62.5837 372.058 62.2228C373.197 61.5945 373.789 60.7303 373.934 60.5175C374.316 59.9594 374.51 59.4442 374.554 59.3265L374.558 59.3166C374.767 58.7637 374.886 58.1791 374.928 57.9718L374.928 57.97C375.018 57.5233 375.239 56.3491 375.198 55.3234C375.172 54.6885 375.054 54.0985 374.913 53.6004C374.963 52.5239 375.053 51.5186 375.21 50.5477C375.362 49.6071 375.504 48.6851 375.643 47.7816L375.645 47.7698C376.34 43.2622 376.965 39.214 378.338 35.6081C378.596 34.9329 378.806 34.5464 378.95 34.3292C379.078 34.1351 379.152 34.0786 379.172 34.0628C379.224 34.0231 379.559 33.771 381.07 33.5026ZM337.401 52.1729C337.401 52.1724 337.401 52.1723 337.401 52.1729Z" fill="#000000"/>
<path fill-rule="evenodd" clip-rule="evenodd" d="M495.876 31.13C494.726 29.4388 493.113 28.2445 491.693 27.4261C490.21 26.571 488.559 25.9092 486.93 25.4389C483.924 24.5714 479.871 24.0433 476.494 25.1916C472.909 26.4106 470.23 29.0524 468.38 31.3195C466.472 33.6573 464.941 36.2387 463.887 38.0266C463.003 39.5271 461.971 41.6176 461.597 43.9928C461.197 46.5252 461.539 49.5682 463.687 52.2531C466.354 55.5871 469.847 57.8217 472.692 59.4779C473.042 59.6816 473.426 59.9223 473.928 60.2371L474.142 60.3706C474.712 60.7276 475.395 61.152 476.114 61.56C477.449 62.317 479.428 63.3288 481.632 63.6678C481.78 63.6907 482.018 63.7328 482.31 63.7848C483.138 63.9318 484.408 64.1573 485.37 64.2482C486.964 64.3989 489.047 64.3911 491.248 63.5352C492.465 63.0622 494.104 62.1176 495.427 61.1507C496.109 60.6524 496.928 59.9889 497.636 59.2019C498.095 58.6917 499.614 56.9708 499.614 54.4573C499.614 51.4471 497.174 49.0069 494.164 49.0069C491.962 49.0069 490.066 50.3121 489.205 52.1909C489.142 52.2406 489.071 52.2939 488.994 52.3504C488.649 52.6025 488.252 52.856 487.884 53.0667C487.703 53.1701 487.548 53.2524 487.429 53.3117C487.347 53.3528 487.3 53.3736 487.287 53.3794C487.238 53.3962 487.021 53.4549 486.395 53.3958C486.044 53.3626 485.642 53.3012 485.107 53.2074C484.986 53.1864 484.85 53.1618 484.702 53.1353L484.698 53.1347C484.275 53.0586 483.76 52.9663 483.289 52.8938C483.289 52.8938 483.286 52.8933 483.28 52.8921C483.273 52.8908 483.264 52.8888 483.251 52.8859C483.225 52.8799 483.188 52.8704 483.14 52.8558C483.042 52.8262 482.911 52.78 482.744 52.7103C482.401 52.5672 481.989 52.3597 481.492 52.0783C480.996 51.797 480.488 51.4828 479.924 51.1302L479.722 51.0032L479.717 51C479.343 50.7659 478.928 50.5058 478.52 50.261C481.068 49.8935 483.636 49.5081 486.155 49.0773C488.219 48.7242 490.241 48.3473 492.763 46.7865C498.526 43.2187 499.104 35.8773 495.876 31.13ZM476.825 38.2122C476.452 38.6697 476.091 39.1508 475.742 39.6469C478.619 39.2372 481.45 38.823 484.317 38.3326C485.991 38.0463 486.333 37.9387 486.944 37.5677C486.946 37.5314 486.945 37.4841 486.933 37.4307C486.924 37.3878 486.91 37.3489 486.894 37.3148C486.839 37.2655 486.652 37.1023 486.249 36.8699C485.654 36.527 484.842 36.1822 483.907 35.9121C482.975 35.6433 482.052 35.4864 481.269 35.4445C480.883 35.4238 480.57 35.4334 480.335 35.4573C480.117 35.4794 480.014 35.5091 480.003 35.5121C480.002 35.5125 480.002 35.5125 480.003 35.5121C479.29 35.7546 478.2 36.5271 476.825 38.2122Z" fill="#000000"/>
<path fill-rule="evenodd" clip-rule="evenodd" d="M331.141 28.5632C331.141 25.5531 328.701 23.1129 325.691 23.1129C322.681 23.1129 320.24 25.5531 320.24 28.5632C320.24 32.6047 319.761 36.6728 319.231 41.1138L319.213 41.2658C318.7 45.5558 318.144 50.2087 318.144 54.9395C318.144 56.4931 318.289 58.0232 318.643 59.6154C318.687 59.8134 318.725 60.0307 318.794 60.426C318.855 60.772 318.942 61.2732 319.066 61.7969L319.07 61.8155C319.1 61.9494 319.25 62.6121 319.543 63.2356L319.549 63.249C319.618 63.3966 319.961 64.136 320.677 64.8382C321.057 65.2107 322.01 66.0409 323.537 66.315C325.377 66.6453 326.998 65.9945 328.061 65.0798C328.936 64.3265 329.341 63.4939 329.496 63.1434C329.68 62.7267 329.774 62.3725 329.82 62.1746C329.913 61.7783 329.942 61.4548 329.953 61.3205C330.004 60.6811 329.934 59.876 329.911 59.6151L329.907 59.5654C329.887 59.3357 329.864 59.0831 329.842 58.8424C329.831 58.7308 329.821 58.6218 329.811 58.5189L329.786 58.2491C329.768 58.0616 329.758 57.9387 329.752 57.8658C329.746 57.8052 329.744 57.7792 329.743 57.7792C329.742 57.7793 329.744 57.8302 329.744 57.909C329.744 56.9406 329.491 56.0313 329.048 55.2431C329.046 55.1435 329.045 55.0424 329.045 54.9395C329.045 50.9103 329.524 46.8489 330.055 42.4066L330.071 42.2713C330.584 37.9753 331.141 33.3114 331.141 28.5632ZM329.705 59.4118C329.705 59.4145 329.697 59.3859 329.681 59.3183C329.697 59.3754 329.705 59.4092 329.705 59.4118Z" fill="#000000"/>
</svg>
