<svg width="500" height="500" viewBox="0 0 500 500" fill="none" xmlns="http://www.w3.org/2000/svg">
<path d="M332.153 167V333.519C332.153 337.385 335.287 340.519 339.153 340.519H383.244C387.11 340.519 390.244 337.385 390.244 333.519V275.557H399.927L426.627 334.637C428.245 338.218 431.81 340.519 435.739 340.519H481.585C484.544 340.519 486.479 337.416 485.176 334.758L441.112 244.876L484.722 165.934C486.195 163.268 484.267 160 481.221 160H435.025C431.47 160 428.183 161.887 426.39 164.956L392.108 223.646C391.593 224.527 390.244 224.162 390.244 223.141V167C390.244 163.134 387.11 160 383.244 160H339.153C335.287 160 332.153 163.134 332.153 167Z" fill="black"/>
<path d="M218.807 340.519H262.898C266.764 340.519 269.898 337.385 269.898 333.519V210.672H312.485C316.351 210.672 319.485 207.538 319.485 203.672V167C319.485 163.134 316.351 160 312.485 160H169.402C165.536 160 162.402 163.134 162.402 167V203.672C162.402 207.538 165.536 210.672 169.402 210.672H211.807V333.519C211.807 337.385 214.941 340.519 218.807 340.519Z" fill="black"/>
<path d="M39.6992 330.911V299.973H46.4189V314.044L59.5877 299.973H67.8859L56.07 312.556L68.1114 330.911H60.0838L51.4249 317.201L46.4189 321.711V330.911H39.6992Z" fill="black"/>
<path d="M71.837 303.717V298.305H78.1057V303.717H71.837ZM71.837 330.911V307.189H78.1057V330.911H71.837Z" fill="black"/>
<path d="M83.8604 330.911V307.189H89.0467L89.5428 310.436H89.8585C90.3696 309.655 90.9709 308.978 91.6624 308.407C92.384 307.836 93.1808 307.4 94.0527 307.099C94.9546 306.798 95.9167 306.648 96.939 306.648C98.4423 306.648 99.7351 306.949 100.817 307.55C101.93 308.151 102.787 309.113 103.388 310.436H103.704C104.215 309.655 104.831 308.978 105.553 308.407C106.274 307.836 107.101 307.4 108.033 307.099C108.965 306.798 109.957 306.648 111.01 306.648C112.513 306.648 113.806 306.919 114.888 307.46C116.001 308.001 116.873 308.888 117.504 310.121C118.135 311.323 118.451 312.887 118.451 314.811V330.911H112.182V315.938C112.182 315.187 112.092 314.555 111.912 314.044C111.761 313.503 111.536 313.082 111.235 312.781C110.935 312.451 110.559 312.21 110.108 312.06C109.657 311.91 109.176 311.834 108.665 311.834C107.823 311.834 107.071 312.06 106.41 312.511C105.748 312.962 105.222 313.578 104.831 314.36C104.47 315.142 104.29 316.044 104.29 317.066V330.911H98.0214V315.938C98.0214 315.187 97.9312 314.555 97.7508 314.044C97.6004 313.503 97.3749 313.082 97.0743 312.781C96.7736 312.451 96.3978 312.21 95.9468 312.06C95.5259 311.91 95.0448 311.834 94.5037 311.834C93.6919 311.834 92.9402 312.06 92.2487 312.511C91.5873 312.962 91.0611 313.578 90.6703 314.36C90.3095 315.142 90.1291 316.044 90.1291 317.066V330.911H83.8604Z" fill="black"/>
<path d="M137.285 331.452C135.752 331.452 134.339 331.152 133.046 330.55C131.783 329.919 130.761 328.972 129.979 327.709H129.664L129.168 330.911H124.026V298.305H130.295V309.805H130.566C131.047 309.113 131.633 308.527 132.325 308.046C133.016 307.565 133.798 307.219 134.67 307.009C135.542 306.768 136.489 306.648 137.511 306.648C139.375 306.648 140.999 307.084 142.382 307.956C143.795 308.828 144.892 310.181 145.674 312.015C146.455 313.819 146.846 316.149 146.846 319.005C146.846 321.861 146.455 324.206 145.674 326.04C144.922 327.874 143.825 329.242 142.382 330.144C140.968 331.016 139.27 331.452 137.285 331.452ZM135.346 326.311C136.609 326.311 137.601 326.071 138.323 325.589C139.074 325.078 139.616 324.327 139.946 323.335C140.277 322.342 140.442 321.095 140.442 319.591V318.554C140.442 317.051 140.277 315.803 139.946 314.811C139.616 313.789 139.074 313.037 138.323 312.556C137.601 312.045 136.609 311.789 135.346 311.789C134.444 311.789 133.678 311.955 133.046 312.285C132.415 312.586 131.889 313.037 131.468 313.638C131.077 314.21 130.776 314.931 130.566 315.803C130.355 316.675 130.25 317.637 130.25 318.689V319.501C130.25 320.914 130.43 322.132 130.791 323.154C131.152 324.176 131.708 324.958 132.46 325.499C133.211 326.04 134.174 326.311 135.346 326.311Z" fill="black"/>
<path d="M151.464 330.911V298.305H157.733V330.911H151.464Z" fill="black"/>
<path d="M174.266 331.452C171.651 331.452 169.456 331.016 167.682 330.144C165.908 329.242 164.57 327.874 163.668 326.04C162.766 324.206 162.315 321.876 162.315 319.05C162.315 316.194 162.766 313.864 163.668 312.06C164.57 310.226 165.893 308.873 167.637 308.001C169.411 307.099 171.575 306.648 174.131 306.648C176.536 306.648 178.566 307.084 180.219 307.956C181.873 308.798 183.121 310.121 183.963 311.925C184.804 313.698 185.225 315.998 185.225 318.825V320.448H168.674C168.734 321.831 168.945 323.004 169.305 323.966C169.696 324.928 170.283 325.65 171.064 326.131C171.876 326.582 172.943 326.807 174.266 326.807C174.988 326.807 175.634 326.717 176.206 326.537C176.807 326.356 177.318 326.086 177.739 325.725C178.16 325.364 178.491 324.913 178.731 324.372C178.972 323.831 179.092 323.214 179.092 322.523H185.225C185.225 324.026 184.955 325.334 184.414 326.446C183.872 327.559 183.121 328.491 182.159 329.242C181.197 329.964 180.039 330.52 178.686 330.911C177.363 331.272 175.89 331.452 174.266 331.452ZM168.764 316.48H178.776C178.776 315.578 178.656 314.796 178.415 314.134C178.205 313.473 177.904 312.932 177.513 312.511C177.123 312.09 176.642 311.789 176.07 311.609C175.529 311.398 174.913 311.293 174.221 311.293C173.079 311.293 172.117 311.489 171.335 311.879C170.583 312.24 169.997 312.811 169.576 313.593C169.185 314.345 168.915 315.307 168.764 316.48Z" fill="black"/>
<path d="M22.9217 287.616V262.316H13V256.679H39.6533V262.316H29.6865V287.616H22.9217Z" fill="black"/>
<path d="M43.6502 287.616V255.01H49.9189V266.51H50.2346C50.7457 265.879 51.347 265.338 52.0386 264.887C52.7601 264.406 53.5569 264.03 54.4288 263.759C55.3308 263.489 56.3079 263.353 57.3602 263.353C58.9236 263.353 60.2916 263.639 61.4642 264.21C62.6368 264.781 63.5387 265.683 64.1701 266.916C64.8316 268.149 65.1623 269.757 65.1623 271.742V287.616H58.8936V272.734C58.8936 271.982 58.8034 271.351 58.623 270.84C58.4426 270.298 58.172 269.863 57.8112 269.532C57.4805 269.171 57.0595 268.915 56.5484 268.765C56.0373 268.615 55.4661 268.54 54.8347 268.54C53.9026 268.54 53.0608 268.765 52.3092 269.216C51.5575 269.667 50.9712 270.283 50.5503 271.065C50.1294 271.847 49.9189 272.749 49.9189 273.771V287.616H43.6502Z" fill="black"/>
<path d="M81.6938 288.158C79.1081 288.158 76.9133 287.722 75.1094 286.85C73.3054 285.948 71.9374 284.58 71.0054 282.746C70.0733 280.882 69.6073 278.552 69.6073 275.755C69.6073 272.899 70.0733 270.569 71.0054 268.765C71.9374 266.931 73.3054 265.578 75.1094 264.706C76.9133 263.804 79.1081 263.353 81.6938 263.353C84.3396 263.353 86.5494 263.804 88.3233 264.706C90.1272 265.578 91.4952 266.931 92.4273 268.765C93.3593 270.569 93.8253 272.899 93.8253 275.755C93.8253 278.552 93.3593 280.882 92.4273 282.746C91.4952 284.58 90.1272 285.948 88.3233 286.85C86.5494 287.722 84.3396 288.158 81.6938 288.158ZM81.6938 283.287C83.0768 283.287 84.1742 283.031 84.986 282.52C85.8278 282.009 86.4442 281.227 86.835 280.175C87.2259 279.123 87.4213 277.83 87.4213 276.297V275.214C87.4213 273.681 87.2259 272.388 86.835 271.336C86.4442 270.283 85.8278 269.502 84.986 268.991C84.1742 268.449 83.0768 268.179 81.6938 268.179C80.3408 268.179 79.2434 268.449 78.4016 268.991C77.5898 269.502 76.9885 270.283 76.5976 271.336C76.2068 272.388 76.0113 273.681 76.0113 275.214V276.297C76.0113 277.83 76.2068 279.123 76.5976 280.175C76.9885 281.227 77.5898 282.009 78.4016 282.52C79.2434 283.031 80.3408 283.287 81.6938 283.287Z" fill="black"/>
<path d="M98.4381 287.616V263.894H103.624L104.121 267.142H104.436C104.947 266.36 105.549 265.683 106.24 265.112C106.962 264.541 107.758 264.105 108.63 263.804C109.532 263.504 110.494 263.353 111.517 263.353C113.02 263.353 114.313 263.654 115.395 264.255C116.508 264.857 117.364 265.819 117.966 267.142H118.281C118.793 266.36 119.409 265.683 120.131 265.112C120.852 264.541 121.679 264.105 122.611 263.804C123.543 263.504 124.535 263.353 125.587 263.353C127.091 263.353 128.384 263.624 129.466 264.165C130.578 264.706 131.45 265.593 132.082 266.826C132.713 268.029 133.029 269.592 133.029 271.516V287.616H126.76V272.644C126.76 271.892 126.67 271.261 126.489 270.749C126.339 270.208 126.114 269.787 125.813 269.487C125.512 269.156 125.137 268.915 124.686 268.765C124.235 268.615 123.753 268.54 123.242 268.54C122.401 268.54 121.649 268.765 120.987 269.216C120.326 269.667 119.8 270.283 119.409 271.065C119.048 271.847 118.868 272.749 118.868 273.771V287.616H112.599V272.644C112.599 271.892 112.509 271.261 112.328 270.749C112.178 270.208 111.953 269.787 111.652 269.487C111.351 269.156 110.976 268.915 110.525 268.765C110.104 268.615 109.623 268.54 109.081 268.54C108.27 268.54 107.518 268.765 106.826 269.216C106.165 269.667 105.639 270.283 105.248 271.065C104.887 271.847 104.707 272.749 104.707 273.771V287.616H98.4381Z" fill="black"/>
<path d="M144.873 288.158C144.091 288.158 143.249 288.067 142.347 287.887C141.475 287.707 140.649 287.391 139.867 286.94C139.085 286.459 138.439 285.782 137.928 284.91C137.447 284.008 137.206 282.866 137.206 281.483C137.206 279.829 137.567 278.461 138.288 277.379C139.01 276.297 140.032 275.455 141.355 274.853C142.708 274.222 144.317 273.786 146.181 273.546C148.045 273.305 150.104 273.185 152.359 273.185V271.426C152.359 270.734 152.239 270.133 151.998 269.622C151.788 269.111 151.397 268.705 150.826 268.404C150.285 268.104 149.518 267.953 148.526 267.953C147.534 267.953 146.722 268.074 146.09 268.314C145.489 268.555 145.053 268.87 144.783 269.261C144.542 269.622 144.422 270.028 144.422 270.479V271.02H138.334C138.303 270.87 138.288 270.734 138.288 270.614C138.288 270.464 138.288 270.283 138.288 270.073C138.288 268.69 138.709 267.502 139.551 266.51C140.393 265.488 141.581 264.706 143.114 264.165C144.647 263.624 146.436 263.353 148.481 263.353C150.676 263.353 152.51 263.639 153.983 264.21C155.486 264.781 156.629 265.623 157.41 266.736C158.222 267.848 158.628 269.246 158.628 270.93V281.708C158.628 282.25 158.778 282.656 159.079 282.926C159.41 283.167 159.77 283.287 160.161 283.287H161.65V287.391C161.349 287.541 160.883 287.692 160.251 287.842C159.62 288.022 158.853 288.112 157.951 288.112C157.08 288.112 156.298 287.977 155.606 287.707C154.945 287.466 154.389 287.12 153.938 286.669C153.487 286.188 153.171 285.617 152.991 284.956H152.675C152.164 285.587 151.532 286.143 150.781 286.624C150.059 287.105 149.202 287.481 148.21 287.752C147.248 288.022 146.136 288.158 144.873 288.158ZM146.992 283.422C147.834 283.422 148.586 283.302 149.247 283.061C149.909 282.791 150.465 282.445 150.916 282.024C151.367 281.573 151.713 281.032 151.953 280.401C152.224 279.769 152.359 279.093 152.359 278.371V277.063C150.676 277.063 149.172 277.184 147.849 277.424C146.526 277.635 145.474 278.01 144.692 278.552C143.941 279.093 143.565 279.844 143.565 280.806C143.565 281.348 143.7 281.814 143.971 282.205C144.241 282.595 144.632 282.896 145.143 283.106C145.655 283.317 146.271 283.422 146.992 283.422Z" fill="black"/>
<path d="M174.371 288.158C172.717 288.158 171.229 287.977 169.906 287.616C168.583 287.256 167.456 286.759 166.524 286.128C165.592 285.467 164.87 284.685 164.359 283.783C163.878 282.881 163.637 281.859 163.637 280.716C163.637 280.596 163.637 280.476 163.637 280.355C163.637 280.235 163.652 280.145 163.683 280.085H169.726C169.726 280.145 169.726 280.205 169.726 280.265C169.726 280.325 169.726 280.386 169.726 280.446C169.756 281.197 169.996 281.814 170.447 282.295C170.898 282.746 171.485 283.076 172.206 283.287C172.958 283.497 173.74 283.603 174.551 283.603C175.273 283.603 175.964 283.542 176.626 283.422C177.317 283.272 177.889 283.016 178.34 282.656C178.821 282.295 179.061 281.829 179.061 281.257C179.061 280.536 178.761 279.98 178.159 279.589C177.588 279.198 176.821 278.882 175.859 278.642C174.927 278.401 173.905 278.131 172.792 277.83C171.77 277.589 170.748 277.319 169.726 277.018C168.703 276.687 167.771 276.267 166.93 275.755C166.118 275.244 165.456 274.583 164.945 273.771C164.434 272.929 164.179 271.877 164.179 270.614C164.179 269.381 164.449 268.314 164.99 267.412C165.532 266.48 166.268 265.713 167.2 265.112C168.162 264.511 169.275 264.075 170.538 263.804C171.83 263.504 173.213 263.353 174.687 263.353C176.07 263.353 177.362 263.504 178.565 263.804C179.768 264.075 180.82 264.496 181.722 265.067C182.624 265.608 183.331 266.3 183.842 267.142C184.353 267.953 184.608 268.87 184.608 269.893C184.608 270.103 184.608 270.298 184.608 270.479C184.608 270.659 184.593 270.78 184.563 270.84H178.565V270.479C178.565 269.938 178.4 269.487 178.069 269.126C177.738 268.735 177.257 268.434 176.626 268.224C176.025 268.013 175.288 267.908 174.416 267.908C173.815 267.908 173.258 267.953 172.747 268.044C172.266 268.134 171.845 268.269 171.485 268.449C171.124 268.63 170.838 268.855 170.628 269.126C170.447 269.366 170.357 269.667 170.357 270.028C170.357 270.539 170.568 270.96 170.988 271.291C171.439 271.591 172.026 271.847 172.747 272.057C173.469 272.268 174.266 272.493 175.138 272.734C176.22 273.034 177.347 273.335 178.52 273.636C179.723 273.906 180.835 274.282 181.857 274.763C182.88 275.244 183.706 275.936 184.338 276.838C184.969 277.71 185.285 278.897 185.285 280.401C185.285 281.844 184.999 283.061 184.428 284.054C183.887 285.046 183.12 285.842 182.128 286.444C181.136 287.045 179.978 287.481 178.655 287.752C177.332 288.022 175.904 288.158 174.371 288.158Z" fill="black"/>
</svg>
