<svg width="500" height="500" viewBox="0 0 500 500" fill="none" xmlns="http://www.w3.org/2000/svg">
<path d="M487.647 318.248C486.953 319.951 485.296 321.234 483.216 321.234H443.22C438.526 321.234 434.267 318.485 432.334 314.208L407.825 259.974H398.693V312.872C398.693 317.49 394.949 321.234 390.331 321.234H352.274C347.656 321.234 343.912 317.49 343.912 312.872V159.362C343.912 157.872 344.302 156.472 344.986 155.26L331.966 168.466V190.423C331.966 195.041 328.222 198.785 323.603 198.785H316.436V340.746L316.512 341.878L316.733 342.963L317.091 343.992L317.574 344.955L318.173 345.843L318.878 346.644L319.679 347.349L320.566 347.948L321.53 348.431L322.559 348.788L323.644 349.01L324.776 349.086H362.733L363.865 349.01L364.951 348.788L365.98 348.431L366.943 347.948L367.83 347.349L368.631 346.644L394.892 320.537L404.627 342.078L405.156 343.112L405.776 344.079L406.479 344.973L407.258 345.791L408.109 346.529L409.023 347.182L409.995 347.746L411.017 348.218L412.084 348.591L413.189 348.864L414.324 349.03L415.485 349.086H455.375L456.23 349.012L457.025 348.798L457.75 348.459L458.397 348.011L458.957 347.467L486.749 319.675L487.267 318.996L487.647 318.248Z" fill="black"/>
<path d="M432.254 156.587L406.258 182.736L405.554 183.495L404.915 184.317L404.345 185.202L399.103 194.175V194.171L398.693 194.881V209.614C398.693 210.833 400.305 211.27 400.919 210.217L432.051 156.921C432.117 156.808 432.185 156.697 432.254 156.587Z" fill="black"/>
<path d="M343.912 159.362V312.872C343.912 317.49 347.656 321.234 352.274 321.234H390.331C394.949 321.234 398.693 317.49 398.693 312.872V259.974H407.824L432.334 314.208C434.267 318.485 438.526 321.234 443.22 321.234H483.215C486.751 321.234 489.062 317.527 487.506 314.352L446.662 231.04L486.963 158.089C488.723 154.904 486.419 151 482.781 151H442.366C438.12 151 434.193 153.254 432.051 156.921L400.919 210.217C400.304 211.269 398.693 210.833 398.693 209.614V159.362C398.693 154.744 394.949 151 390.331 151H352.274C347.656 151 343.912 154.744 343.912 159.362Z" fill="black" fill-opacity="0.5"/>
<path d="M329.456 196.448C327.948 197.926 325.882 198.838 323.603 198.838H285.204V226.971H296.33L296.894 226.933L297.979 226.711L299.008 226.354L299.972 225.871L300.859 225.271L301.66 224.566L329.861 196.448H329.456Z" fill="black"/>
<path d="M282.632 318.957L255.02 346.696L254.219 347.401L253.332 348L252.369 348.483L251.339 348.841L250.254 349.063L249.122 349.139H211.165L210.033 349.063L208.948 348.841L207.918 348.483L206.955 348L206.068 347.401L205.267 346.696L204.562 345.895L203.963 345.008L203.48 344.045L203.122 343.016L202.9 341.93L202.824 340.798V227.009H164.696L163.564 226.933L162.479 226.711L161.449 226.354L160.486 225.871L159.599 225.271L158.798 224.566L158.093 223.765L157.494 222.878L157.011 221.915L156.653 220.886L156.432 219.8L156.355 218.669V187.69L156.432 186.558L156.653 185.472L157.011 184.443L157.494 183.48L158.093 182.593L158.798 181.792L184.912 155.301C184.225 156.515 183.832 157.919 183.832 159.415V190.475C183.832 195.094 187.576 198.838 192.194 198.838H230.422V312.924C230.422 317.543 234.166 321.287 238.785 321.287H276.841C279.089 321.287 281.129 320.4 282.632 318.957Z" fill="black"/>
<path d="M238.784 321.234H276.841C281.459 321.234 285.203 317.49 285.203 312.872V198.785H323.603C328.221 198.785 331.965 195.041 331.965 190.423V159.362C331.965 154.744 328.221 151 323.603 151H192.194C187.576 151 183.832 154.744 183.832 159.362V190.423C183.832 195.041 187.576 198.785 192.194 198.785H230.422V312.872C230.422 317.49 234.166 321.234 238.784 321.234Z" fill="black" fill-opacity="0.5"/>
<path d="M23.0967 337.991V304.582H30.3532V319.777L44.574 304.582H53.535L40.7753 318.17L53.7785 337.991H45.1097L35.759 323.186L30.3532 328.056V337.991H23.0967Z" fill="black"/>
<path d="M57.8017 308.625V302.78H64.5712V308.625H57.8017ZM57.8017 337.991V312.375H64.5712V337.991H57.8017Z" fill="black"/>
<path d="M70.7856 337.991V312.375H76.3862L76.922 315.881H77.2629C77.8148 315.037 78.4642 314.306 79.2109 313.689C79.9901 313.073 80.8505 312.602 81.7921 312.277C82.7661 311.952 83.8051 311.79 84.909 311.79C86.5324 311.79 87.9285 312.115 89.0973 312.764C90.2986 313.413 91.2239 314.452 91.8733 315.881H92.2142C92.7661 315.037 93.4317 314.306 94.2109 313.689C94.9902 313.073 95.883 312.602 96.8895 312.277C97.896 311.952 98.9674 311.79 100.104 311.79C101.727 311.79 103.123 312.082 104.292 312.667C105.493 313.251 106.435 314.209 107.117 315.54C107.799 316.839 108.14 318.527 108.14 320.605V337.991H101.37V321.823C101.37 321.011 101.273 320.329 101.078 319.777C100.916 319.193 100.672 318.738 100.347 318.414C100.023 318.056 99.6168 317.797 99.1298 317.634C98.6428 317.472 98.1233 317.391 97.5713 317.391C96.6623 317.391 95.8506 317.634 95.1363 318.121C94.422 318.608 93.8538 319.274 93.4317 320.118C93.0421 320.962 92.8473 321.936 92.8473 323.04V337.991H86.0778V321.823C86.0778 321.011 85.9804 320.329 85.7856 319.777C85.6233 319.193 85.3798 318.738 85.0551 318.414C84.7304 318.056 84.3246 317.797 83.8376 317.634C83.383 317.472 82.8635 317.391 82.2791 317.391C81.4025 317.391 80.5908 317.634 79.844 318.121C79.1298 318.608 78.5616 319.274 78.1395 320.118C77.7499 320.962 77.5551 321.936 77.5551 323.04V337.991H70.7856Z" fill="black"/>
<path d="M128.478 338.576C126.823 338.576 125.297 338.251 123.901 337.602C122.537 336.92 121.433 335.897 120.589 334.534H120.248L119.712 337.991H114.16V302.78H120.93V315.199H121.222C121.741 314.452 122.375 313.819 123.121 313.3C123.868 312.78 124.712 312.407 125.654 312.18C126.595 311.92 127.618 311.79 128.722 311.79C130.735 311.79 132.488 312.261 133.982 313.202C135.508 314.144 136.693 315.605 137.537 317.586C138.381 319.534 138.803 322.05 138.803 325.134C138.803 328.219 138.381 330.751 137.537 332.732C136.725 334.712 135.54 336.19 133.982 337.164C132.456 338.105 130.621 338.576 128.478 338.576ZM126.384 333.024C127.748 333.024 128.819 332.764 129.599 332.245C130.41 331.693 130.995 330.881 131.352 329.81C131.709 328.738 131.888 327.391 131.888 325.767V324.647C131.888 323.024 131.709 321.676 131.352 320.605C130.995 319.501 130.41 318.689 129.599 318.17C128.819 317.618 127.748 317.342 126.384 317.342C125.41 317.342 124.582 317.521 123.901 317.878C123.219 318.202 122.651 318.689 122.196 319.339C121.774 319.956 121.449 320.735 121.222 321.676C120.995 322.618 120.881 323.657 120.881 324.793V325.67C120.881 327.196 121.076 328.511 121.465 329.615C121.855 330.719 122.456 331.563 123.267 332.147C124.079 332.732 125.118 333.024 126.384 333.024Z" fill="black"/>
<path d="M143.79 337.991V302.78H150.56V337.991H143.79Z" fill="black"/>
<path d="M168.414 338.576C165.589 338.576 163.219 338.105 161.303 337.164C159.388 336.19 157.943 334.712 156.969 332.732C155.995 330.751 155.508 328.235 155.508 325.183C155.508 322.099 155.995 319.582 156.969 317.634C157.943 315.654 159.371 314.193 161.254 313.251C163.17 312.277 165.508 311.79 168.267 311.79C170.865 311.79 173.056 312.261 174.842 313.202C176.628 314.112 177.975 315.54 178.884 317.488C179.793 319.404 180.248 321.888 180.248 324.939V326.693H162.375C162.44 328.186 162.667 329.452 163.056 330.491C163.479 331.53 164.112 332.31 164.956 332.829C165.832 333.316 166.985 333.56 168.414 333.56C169.193 333.56 169.891 333.462 170.508 333.267C171.157 333.073 171.709 332.78 172.164 332.391C172.618 332.001 172.975 331.514 173.235 330.93C173.495 330.345 173.625 329.68 173.625 328.933H180.248C180.248 330.556 179.956 331.969 179.371 333.17C178.787 334.371 177.975 335.378 176.936 336.19C175.897 336.969 174.647 337.569 173.186 337.991C171.758 338.381 170.167 338.576 168.414 338.576ZM162.472 322.407H173.284C173.284 321.433 173.154 320.589 172.894 319.875C172.667 319.16 172.342 318.576 171.92 318.121C171.498 317.667 170.979 317.342 170.362 317.147C169.777 316.92 169.112 316.806 168.365 316.806C167.131 316.806 166.092 317.017 165.248 317.439C164.436 317.829 163.803 318.446 163.349 319.29C162.927 320.102 162.634 321.141 162.472 322.407Z" fill="black"/>
<path d="M24.4473 293.527V264.669H13V261.442H39.7103V264.669H28.1688V293.527H24.4473Z" fill="black"/>
<path d="M43.7443 293.527V259.711H47.1361V272.105H47.4659C48.1568 271.201 48.9105 270.484 49.727 269.954C50.5436 269.393 51.4386 268.987 52.4122 268.738C53.3858 268.489 54.4379 268.364 55.5685 268.364C57.1387 268.364 58.5049 268.629 59.6669 269.159C60.8603 269.658 61.7867 270.484 62.4462 271.638C63.1058 272.791 63.4355 274.366 63.4355 276.362V293.527H60.0437V276.689C60.0437 275.598 59.9024 274.709 59.6198 274.023C59.3371 273.337 58.9445 272.807 58.4421 272.433C57.9396 272.028 57.3429 271.747 56.6519 271.591C55.9924 271.435 55.2544 271.357 54.4379 271.357C53.1816 271.357 51.9882 271.638 50.8576 272.199C49.7585 272.76 48.8634 273.618 48.1725 274.771C47.4816 275.894 47.1361 277.297 47.1361 278.981V293.527H43.7443Z" fill="black"/>
<path d="M79.5811 294.088C77.1943 294.088 75.1529 293.636 73.457 292.732C71.7925 291.796 70.5206 290.377 69.6413 288.475C68.7933 286.573 68.3694 284.157 68.3694 281.226C68.3694 278.264 68.7933 275.847 69.6413 273.976C70.5206 272.074 71.7925 270.671 73.457 269.767C75.1529 268.831 77.1943 268.364 79.5811 268.364C82.0307 268.364 84.0721 268.831 85.7051 269.767C87.3696 270.671 88.6258 272.074 89.4738 273.976C90.3531 275.847 90.7928 278.264 90.7928 281.226C90.7928 284.157 90.3531 286.573 89.4738 288.475C88.6258 290.377 87.3696 291.796 85.7051 292.732C84.0721 293.636 82.0307 294.088 79.5811 294.088ZM79.5811 291.235C81.2456 291.235 82.6431 290.908 83.7737 290.253C84.9043 289.598 85.768 288.585 86.3647 287.213C86.9614 285.809 87.2597 284.001 87.2597 281.787V280.665C87.2597 278.451 86.9614 276.658 86.3647 275.286C85.768 273.883 84.9043 272.854 83.7737 272.199C82.6431 271.544 81.2456 271.217 79.5811 271.217C77.9166 271.217 76.5191 271.544 75.3885 272.199C74.2579 272.854 73.3942 273.883 72.7975 275.286C72.2008 276.658 71.9025 278.451 71.9025 280.665V281.787C71.9025 284.001 72.2008 285.809 72.7975 287.213C73.3942 288.585 74.2579 289.598 75.3885 290.253C76.5191 290.908 77.9166 291.235 79.5811 291.235Z" fill="black"/>
<path d="M95.9589 293.527V268.925H98.6441L98.9738 272.807H99.3036C99.9945 271.685 100.748 270.811 101.565 270.188C102.381 269.533 103.276 269.065 104.25 268.785C105.223 268.504 106.26 268.364 107.359 268.364C109.024 268.364 110.452 268.707 111.646 269.393C112.839 270.048 113.687 271.186 114.19 272.807H114.472C115.132 271.716 115.87 270.858 116.686 270.235C117.503 269.58 118.398 269.112 119.372 268.831C120.377 268.52 121.429 268.364 122.528 268.364C124.004 268.364 125.307 268.613 126.438 269.112C127.568 269.611 128.448 270.437 129.076 271.591C129.735 272.745 130.065 274.304 130.065 276.268V293.527H126.673V276.642C126.673 275.582 126.532 274.709 126.249 274.023C125.998 273.306 125.637 272.76 125.166 272.386C124.695 272.012 124.145 271.747 123.517 271.591C122.889 271.435 122.214 271.357 121.492 271.357C120.298 271.357 119.183 271.669 118.147 272.293C117.142 272.885 116.31 273.742 115.65 274.865C115.022 275.987 114.708 277.359 114.708 278.981V293.527H111.316V276.642C111.316 275.582 111.191 274.709 110.939 274.023C110.688 273.306 110.327 272.76 109.856 272.386C109.385 272.012 108.835 271.747 108.207 271.591C107.61 271.435 106.966 271.357 106.276 271.357C105.082 271.357 103.952 271.669 102.884 272.293C101.847 272.885 100.999 273.742 100.34 274.865C99.6804 275.987 99.3507 277.359 99.3507 278.981V293.527H95.9589Z" fill="black"/>
<path d="M142.614 294.088C141.64 294.088 140.682 293.963 139.74 293.714C138.798 293.496 137.95 293.137 137.196 292.638C136.474 292.108 135.893 291.406 135.453 290.533C135.013 289.66 134.794 288.585 134.794 287.306C134.794 285.622 135.202 284.25 136.018 283.19C136.866 282.099 138.044 281.257 139.552 280.665C141.059 280.041 142.833 279.62 144.875 279.402C146.948 279.184 149.193 279.074 151.611 279.074V275.941C151.611 274.943 151.423 274.101 151.046 273.415C150.701 272.698 150.072 272.152 149.162 271.778C148.282 271.373 147.026 271.17 145.393 271.17C143.823 271.17 142.582 271.373 141.671 271.778C140.761 272.183 140.117 272.714 139.74 273.368C139.395 273.992 139.222 274.693 139.222 275.473V276.221H135.971C135.94 276.065 135.924 275.91 135.924 275.754C135.924 275.598 135.924 275.411 135.924 275.192C135.924 273.633 136.333 272.355 137.149 271.357C137.966 270.359 139.128 269.611 140.635 269.112C142.143 268.613 143.87 268.364 145.817 268.364C147.795 268.364 149.46 268.66 150.81 269.252C152.161 269.814 153.197 270.624 153.92 271.685C154.642 272.745 155.003 274.023 155.003 275.52V289.645C155.003 290.237 155.113 290.658 155.333 290.908C155.584 291.126 155.914 291.235 156.322 291.235H158.301V293.386C157.83 293.573 157.327 293.729 156.793 293.854C156.291 293.979 155.757 294.041 155.191 294.041C154.375 294.041 153.715 293.87 153.213 293.527C152.742 293.184 152.396 292.7 152.177 292.077C151.988 291.453 151.863 290.767 151.8 290.019H151.47C150.873 290.861 150.104 291.593 149.162 292.217C148.251 292.81 147.246 293.262 146.147 293.573C145.048 293.916 143.87 294.088 142.614 294.088ZM143.32 291.235C144.357 291.235 145.362 291.063 146.335 290.72C147.309 290.377 148.188 289.91 148.973 289.317C149.758 288.694 150.386 287.961 150.858 287.119C151.36 286.277 151.611 285.342 151.611 284.313V281.787C148.691 281.787 146.241 281.943 144.262 282.255C142.315 282.567 140.839 283.112 139.834 283.892C138.861 284.671 138.374 285.763 138.374 287.166C138.374 288.101 138.578 288.881 138.986 289.504C139.426 290.097 140.023 290.533 140.776 290.814C141.53 291.095 142.378 291.235 143.32 291.235Z" fill="black"/>
<path d="M170.081 294.088C168.448 294.088 167.003 293.916 165.747 293.573C164.49 293.262 163.438 292.794 162.59 292.17C161.774 291.516 161.146 290.736 160.706 289.832C160.298 288.928 160.094 287.883 160.094 286.698C160.094 286.573 160.094 286.449 160.094 286.324C160.094 286.168 160.109 286.028 160.141 285.903H163.485C163.454 286.059 163.438 286.199 163.438 286.324C163.438 286.417 163.438 286.511 163.438 286.605C163.47 287.821 163.768 288.772 164.333 289.458C164.899 290.112 165.7 290.58 166.736 290.861C167.772 291.141 168.966 291.282 170.316 291.282C171.478 291.282 172.515 291.126 173.425 290.814C174.367 290.471 175.105 289.988 175.639 289.364C176.205 288.74 176.487 287.977 176.487 287.072C176.487 285.919 176.126 285.046 175.404 284.453C174.713 283.861 173.802 283.409 172.672 283.097C171.541 282.754 170.363 282.395 169.138 282.021C168.133 281.74 167.144 281.444 166.171 281.132C165.197 280.789 164.302 280.368 163.485 279.87C162.7 279.371 162.072 278.731 161.601 277.952C161.13 277.172 160.895 276.19 160.895 275.005C160.895 273.976 161.099 273.056 161.507 272.246C161.947 271.435 162.559 270.749 163.344 270.188C164.161 269.595 165.15 269.143 166.312 268.831C167.474 268.52 168.793 268.364 170.269 268.364C171.902 268.364 173.3 268.551 174.462 268.925C175.624 269.299 176.566 269.814 177.288 270.468C178.01 271.092 178.544 271.809 178.89 272.62C179.235 273.399 179.408 274.226 179.408 275.099C179.408 275.224 179.392 275.364 179.361 275.52C179.361 275.676 179.361 275.816 179.361 275.941H176.016V275.333C176.016 274.678 175.843 274.039 175.498 273.415C175.184 272.791 174.603 272.261 173.755 271.825C172.938 271.388 171.714 271.17 170.081 271.17C169.107 271.17 168.259 271.264 167.537 271.451C166.846 271.607 166.249 271.84 165.747 272.152C165.276 272.464 164.914 272.854 164.663 273.322C164.443 273.758 164.333 274.273 164.333 274.865C164.333 275.769 164.616 276.471 165.181 276.97C165.778 277.437 166.547 277.827 167.49 278.139C168.432 278.42 169.437 278.731 170.505 279.074C171.572 279.386 172.656 279.714 173.755 280.057C174.886 280.4 175.922 280.821 176.864 281.319C177.806 281.818 178.56 282.489 179.125 283.331C179.691 284.141 179.973 285.217 179.973 286.558C179.973 287.805 179.722 288.912 179.22 289.879C178.717 290.814 178.026 291.593 177.147 292.217C176.267 292.841 175.215 293.308 173.991 293.62C172.797 293.932 171.494 294.088 170.081 294.088Z" fill="black"/>
</svg>
