<svg width="500" height="500" viewBox="0 0 500 500" fill="none" xmlns="http://www.w3.org/2000/svg">
<path d="M329.673 165V334.392C329.673 338.258 332.807 341.392 336.673 341.392H381.688C385.554 341.392 388.688 338.258 388.688 334.392V275.396H398.525L425.692 335.51C427.31 339.091 430.875 341.392 434.805 341.392H481.584C484.544 341.392 486.479 338.289 485.176 335.631L440.365 244.226L484.722 163.934C486.195 161.268 484.266 158 481.221 158H434.09C430.535 158 427.248 159.887 425.455 162.956L390.552 222.709C390.037 223.59 388.688 223.225 388.688 222.205V165C388.688 161.134 385.554 158 381.688 158H336.673C332.807 158 329.673 161.134 329.673 165Z" stroke="black" stroke-width="4" stroke-linejoin="round"/>
<path d="M214.412 341.392H259.427C263.293 341.392 266.427 338.258 266.427 334.392V209.478H309.803C313.669 209.478 316.803 206.344 316.803 202.478V165C316.803 161.134 313.669 158 309.803 158H164.22C160.354 158 157.22 161.134 157.22 165V202.478C157.22 206.344 160.354 209.478 164.22 209.478H207.412V334.392C207.412 338.258 210.546 341.392 214.412 341.392Z" stroke="black" stroke-width="4" stroke-linejoin="round"/>
<path d="M43.7183 328.026V295.687H47.4425V313.789L64.8379 295.687H69.5521L57.2952 308.509L70.0707 328.026H65.5922L54.6552 311.196L47.4425 318.22V328.026H43.7183Z" fill="black"/>
<path d="M73.2049 298.138V293.942H76.5991V298.138H73.2049ZM73.2049 328.026V303.229H76.5991V328.026H73.2049Z" fill="black"/>
<path d="M83.241 328.026V303.229H85.9281L86.2581 307.142H86.5881C87.2795 306.011 88.0338 305.131 88.8509 304.502C89.668 303.842 90.5637 303.371 91.538 303.088C92.5123 302.805 93.5494 302.664 94.6494 302.664C96.315 302.664 97.745 303.009 98.9393 303.701C100.134 304.361 100.982 305.508 101.485 307.142H101.768C102.428 306.042 103.166 305.178 103.983 304.549C104.801 303.889 105.696 303.418 106.671 303.135C107.676 302.821 108.729 302.664 109.829 302.664C111.306 302.664 112.61 302.915 113.742 303.418C114.873 303.921 115.753 304.754 116.382 305.916C117.042 307.079 117.372 308.651 117.372 310.631V328.026H113.978V311.008C113.978 309.939 113.836 309.059 113.553 308.368C113.302 307.645 112.94 307.095 112.469 306.718C111.998 306.341 111.448 306.073 110.819 305.916C110.191 305.759 109.515 305.681 108.792 305.681C107.598 305.681 106.482 305.995 105.445 306.623C104.439 307.221 103.606 308.085 102.946 309.216C102.318 310.348 102.004 311.731 102.004 313.365V328.026H98.6093V311.008C98.6093 309.939 98.4836 309.059 98.2322 308.368C97.9807 307.645 97.6193 307.095 97.1479 306.718C96.6765 306.341 96.1265 306.073 95.4979 305.916C94.9008 305.759 94.2565 305.681 93.5651 305.681C92.3708 305.681 91.2394 305.995 90.1709 306.623C89.1337 307.221 88.2852 308.085 87.6252 309.216C86.9652 310.348 86.6352 311.731 86.6352 313.365V328.026H83.241Z" fill="black"/>
<path d="M134.926 328.592C133.229 328.592 131.721 328.246 130.401 327.555C129.112 326.863 128.028 325.81 127.148 324.396H126.818L126.441 328.026H123.754V293.942H127.148V306.435H127.478C128.044 305.523 128.719 304.801 129.505 304.266C130.291 303.701 131.155 303.292 132.098 303.041C133.041 302.789 134.015 302.664 135.021 302.664C137.001 302.664 138.713 303.119 140.159 304.031C141.636 304.942 142.768 306.341 143.553 308.226C144.339 310.081 144.732 312.469 144.732 315.392C144.732 318.503 144.339 321.033 143.553 322.982C142.799 324.899 141.683 326.313 140.206 327.225C138.761 328.136 137.001 328.592 134.926 328.592ZM134.361 325.622C135.743 325.622 136.938 325.323 137.943 324.726C138.981 324.129 139.782 323.155 140.348 321.803C140.913 320.42 141.196 318.566 141.196 316.24V315.062C141.196 312.831 140.929 311.023 140.395 309.641C139.892 308.258 139.106 307.252 138.038 306.623C137.001 305.963 135.696 305.633 134.125 305.633C133.276 305.633 132.428 305.775 131.579 306.058C130.762 306.309 130.024 306.781 129.364 307.472C128.704 308.163 128.169 309.138 127.761 310.395C127.352 311.652 127.148 313.255 127.148 315.203V316.052C127.148 318.095 127.384 319.823 127.855 321.238C128.358 322.652 129.144 323.736 130.212 324.49C131.281 325.245 132.664 325.622 134.361 325.622Z" fill="black"/>
<path d="M149.903 328.026V293.942H153.297V328.026H149.903Z" fill="black"/>
<path d="M169.509 328.592C167.152 328.592 165.156 328.136 163.522 327.225C161.887 326.282 160.646 324.852 159.797 322.935C158.949 321.018 158.525 318.582 158.525 315.628C158.525 312.642 158.949 310.206 159.797 308.321C160.646 306.403 161.903 304.989 163.569 304.078C165.235 303.135 167.309 302.664 169.792 302.664C172.086 302.664 174.003 303.119 175.543 304.031C177.114 304.942 178.293 306.262 179.079 307.991C179.896 309.719 180.304 311.841 180.304 314.355V316.523H162.06C162.06 318.692 162.359 320.468 162.956 321.85C163.553 323.233 164.402 324.239 165.502 324.867C166.633 325.465 168.016 325.763 169.65 325.763C170.844 325.763 171.882 325.606 172.762 325.292C173.673 324.977 174.412 324.553 174.977 324.019C175.574 323.453 176.03 322.793 176.344 322.039C176.659 321.285 176.816 320.499 176.816 319.682H180.116C180.116 320.908 179.88 322.07 179.409 323.17C178.969 324.239 178.309 325.182 177.429 325.999C176.58 326.816 175.496 327.46 174.176 327.932C172.856 328.372 171.3 328.592 169.509 328.592ZM162.06 313.836H176.769C176.769 312.265 176.58 310.961 176.203 309.923C175.857 308.855 175.37 308.006 174.742 307.378C174.113 306.718 173.359 306.246 172.479 305.963C171.63 305.681 170.672 305.539 169.603 305.539C168.063 305.539 166.743 305.838 165.643 306.435C164.543 307.001 163.695 307.896 163.097 309.122C162.532 310.348 162.186 311.919 162.06 313.836Z" fill="black"/>
<path d="M24.4555 280.884V251.797H13V248.544H39.7296V251.797H28.1797V280.884H24.4555Z" fill="black"/>
<path d="M43.7665 280.884V246.8H47.1607V259.293H47.4907C48.1821 258.381 48.9364 257.659 49.7535 257.124C50.5706 256.559 51.4663 256.15 52.4406 255.899C53.4149 255.647 54.4677 255.522 55.5991 255.522C57.1705 255.522 58.5376 255.789 59.7005 256.323C60.8947 256.826 61.8219 257.659 62.4819 258.821C63.1418 259.984 63.4718 261.571 63.4718 263.583V280.884H60.0776V263.913C60.0776 262.813 59.9362 261.917 59.6533 261.226C59.3705 260.534 58.9776 260 58.4748 259.623C57.9719 259.214 57.3748 258.931 56.6834 258.774C56.0234 258.617 55.2848 258.539 54.4677 258.539C53.2106 258.539 52.0163 258.821 50.8849 259.387C49.7849 259.953 48.8892 260.817 48.1978 261.98C47.5064 263.111 47.1607 264.526 47.1607 266.223V280.884H43.7665Z" fill="black"/>
<path d="M79.629 281.45C77.2405 281.45 75.1977 280.994 73.5006 280.083C71.8349 279.14 70.5621 277.71 69.6821 275.793C68.8335 273.875 68.4092 271.44 68.4092 268.486C68.4092 265.5 68.8335 263.064 69.6821 261.179C70.5621 259.261 71.8349 257.847 73.5006 256.936C75.1977 255.993 77.2405 255.522 79.629 255.522C82.0804 255.522 84.1233 255.993 85.7575 256.936C87.4232 257.847 88.6803 259.261 89.5289 261.179C90.4089 263.064 90.8489 265.5 90.8489 268.486C90.8489 271.44 90.4089 273.875 89.5289 275.793C88.6803 277.71 87.4232 279.14 85.7575 280.083C84.1233 280.994 82.0804 281.45 79.629 281.45ZM79.629 278.574C81.2947 278.574 82.6933 278.244 83.8247 277.584C84.9561 276.924 85.8204 275.903 86.4175 274.52C87.0146 273.106 87.3132 271.283 87.3132 269.051V267.92C87.3132 265.688 87.0146 263.881 86.4175 262.499C85.8204 261.084 84.9561 260.047 83.8247 259.387C82.6933 258.727 81.2947 258.397 79.629 258.397C77.9634 258.397 76.5648 258.727 75.4334 259.387C74.302 260.047 73.4377 261.084 72.8406 262.499C72.2435 263.881 71.9449 265.688 71.9449 267.92V269.051C71.9449 271.283 72.2435 273.106 72.8406 274.52C73.4377 275.903 74.302 276.924 75.4334 277.584C76.5648 278.244 77.9634 278.574 79.629 278.574Z" fill="black"/>
<path d="M96.0186 280.884V256.087H98.7057L99.0357 260H99.3657C100.057 258.869 100.811 257.989 101.629 257.36C102.446 256.7 103.341 256.229 104.316 255.946C105.29 255.663 106.327 255.522 107.427 255.522C109.093 255.522 110.523 255.867 111.717 256.559C112.911 257.219 113.76 258.366 114.263 260H114.545C115.205 258.9 115.944 258.036 116.761 257.407C117.578 256.747 118.474 256.276 119.448 255.993C120.454 255.679 121.507 255.522 122.607 255.522C124.084 255.522 125.388 255.773 126.52 256.276C127.651 256.779 128.531 257.611 129.16 258.774C129.82 259.937 130.15 261.509 130.15 263.489V280.884H126.755V263.866C126.755 262.797 126.614 261.917 126.331 261.226C126.08 260.503 125.718 259.953 125.247 259.576C124.775 259.199 124.225 258.931 123.597 258.774C122.968 258.617 122.292 258.539 121.57 258.539C120.375 258.539 119.26 258.853 118.223 259.481C117.217 260.079 116.384 260.943 115.724 262.074C115.095 263.206 114.781 264.589 114.781 266.223V280.884H111.387V263.866C111.387 262.797 111.261 261.917 111.01 261.226C110.758 260.503 110.397 259.953 109.926 259.576C109.454 259.199 108.904 258.931 108.276 258.774C107.678 258.617 107.034 258.539 106.343 258.539C105.148 258.539 104.017 258.853 102.949 259.481C101.911 260.079 101.063 260.943 100.403 262.074C99.7429 263.206 99.4129 264.589 99.4129 266.223V280.884H96.0186Z" fill="black"/>
<path d="M142.707 281.45C141.733 281.45 140.774 281.324 139.831 281.073C138.888 280.853 138.04 280.491 137.286 279.988C136.563 279.454 135.981 278.747 135.541 277.867C135.101 276.987 134.881 275.903 134.881 274.614C134.881 272.917 135.29 271.534 136.107 270.466C136.956 269.366 138.134 268.517 139.643 267.92C141.151 267.291 142.927 266.867 144.97 266.647C147.044 266.427 149.291 266.317 151.711 266.317V263.159C151.711 262.153 151.523 261.304 151.145 260.613C150.8 259.89 150.171 259.34 149.26 258.963C148.38 258.554 147.123 258.35 145.488 258.35C143.917 258.35 142.676 258.554 141.764 258.963C140.853 259.371 140.208 259.906 139.831 260.566C139.486 261.194 139.313 261.901 139.313 262.687V263.441H136.06C136.029 263.284 136.013 263.127 136.013 262.97C136.013 262.813 136.013 262.624 136.013 262.404C136.013 260.833 136.421 259.544 137.238 258.539C138.056 257.533 139.218 256.779 140.727 256.276C142.236 255.773 143.964 255.522 145.913 255.522C147.893 255.522 149.558 255.82 150.91 256.417C152.261 256.983 153.298 257.8 154.021 258.869C154.744 259.937 155.105 261.226 155.105 262.734V276.971C155.105 277.568 155.215 277.993 155.435 278.244C155.687 278.464 156.017 278.574 156.425 278.574H158.405V280.743C157.934 280.931 157.431 281.088 156.897 281.214C156.394 281.34 155.86 281.403 155.294 281.403C154.477 281.403 153.817 281.23 153.314 280.884C152.843 280.538 152.497 280.051 152.277 279.423C152.088 278.794 151.963 278.103 151.9 277.348H151.57C150.973 278.197 150.203 278.935 149.26 279.564C148.348 280.161 147.343 280.617 146.243 280.931C145.143 281.277 143.964 281.45 142.707 281.45ZM143.414 278.574C144.451 278.574 145.457 278.401 146.431 278.055C147.405 277.71 148.285 277.238 149.071 276.641C149.857 276.013 150.485 275.274 150.957 274.425C151.46 273.577 151.711 272.634 151.711 271.597V269.051C148.788 269.051 146.337 269.208 144.357 269.523C142.408 269.837 140.931 270.387 139.926 271.173C138.951 271.958 138.464 273.058 138.464 274.473C138.464 275.415 138.668 276.201 139.077 276.83C139.517 277.427 140.114 277.867 140.868 278.15C141.623 278.433 142.471 278.574 143.414 278.574Z" fill="black"/>
<path d="M170.194 281.45C168.559 281.45 167.114 281.277 165.857 280.931C164.6 280.617 163.547 280.145 162.698 279.517C161.881 278.857 161.252 278.071 160.812 277.16C160.404 276.248 160.2 275.195 160.2 274.001C160.2 273.875 160.2 273.75 160.2 273.624C160.2 273.467 160.215 273.326 160.247 273.2H163.594C163.562 273.357 163.547 273.498 163.547 273.624C163.547 273.718 163.547 273.813 163.547 273.907C163.578 275.133 163.877 276.091 164.442 276.783C165.008 277.443 165.81 277.914 166.847 278.197C167.884 278.48 169.078 278.621 170.429 278.621C171.592 278.621 172.629 278.464 173.541 278.15C174.484 277.804 175.222 277.317 175.757 276.688C176.322 276.06 176.605 275.29 176.605 274.378C176.605 273.216 176.244 272.336 175.521 271.738C174.829 271.141 173.918 270.686 172.787 270.371C171.655 270.026 170.477 269.664 169.251 269.287C168.245 269.004 167.255 268.706 166.281 268.391C165.307 268.046 164.411 267.621 163.594 267.118C162.808 266.616 162.18 265.971 161.708 265.186C161.237 264.4 161.001 263.41 161.001 262.216C161.001 261.179 161.205 260.251 161.614 259.434C162.054 258.617 162.667 257.926 163.452 257.36C164.27 256.763 165.26 256.307 166.422 255.993C167.585 255.679 168.905 255.522 170.382 255.522C172.017 255.522 173.415 255.71 174.578 256.087C175.741 256.464 176.684 256.983 177.406 257.643C178.129 258.271 178.664 258.994 179.009 259.811C179.355 260.597 179.528 261.43 179.528 262.31C179.528 262.436 179.512 262.577 179.481 262.734C179.481 262.891 179.481 263.033 179.481 263.159H176.134V262.546C176.134 261.886 175.961 261.241 175.615 260.613C175.301 259.984 174.719 259.45 173.871 259.01C173.054 258.57 171.828 258.35 170.194 258.35C169.219 258.35 168.371 258.444 167.648 258.633C166.957 258.79 166.36 259.026 165.857 259.34C165.385 259.654 165.024 260.047 164.772 260.519C164.552 260.959 164.442 261.477 164.442 262.074C164.442 262.986 164.725 263.693 165.291 264.196C165.888 264.667 166.658 265.06 167.601 265.374C168.544 265.657 169.549 265.971 170.618 266.317C171.687 266.631 172.771 266.961 173.871 267.307C175.002 267.653 176.039 268.077 176.982 268.58C177.925 269.083 178.679 269.758 179.245 270.607C179.811 271.424 180.094 272.508 180.094 273.86C180.094 275.117 179.842 276.233 179.339 277.207C178.836 278.15 178.145 278.935 177.265 279.564C176.385 280.193 175.332 280.664 174.107 280.978C172.912 281.293 171.608 281.45 170.194 281.45Z" fill="black"/>
</svg>
