<svg width="500" height="500" viewBox="0 0 500 500" fill="none" xmlns="http://www.w3.org/2000/svg">
<path d="M44.0371 225.488V145.849H13V134.887H87.8851V145.849H56.5839V225.488H44.0371Z" fill="black"/>
<path d="M99.6984 225.488V130H111.321V164.735H112.245C114.006 162.358 115.987 160.421 118.189 158.924C120.39 157.427 122.811 156.326 125.453 155.622C128.182 154.83 131.132 154.433 134.301 154.433C138.704 154.433 142.534 155.182 145.792 156.679C149.138 158.175 151.735 160.597 153.584 163.943C155.521 167.288 156.49 171.823 156.49 177.546V225.488H144.867V179.131C144.867 176.225 144.471 173.848 143.679 171.999C142.974 170.15 141.962 168.697 140.641 167.641C139.408 166.584 137.867 165.836 136.018 165.395C134.257 164.955 132.276 164.735 130.075 164.735C126.817 164.735 123.736 165.528 120.83 167.112C117.924 168.609 115.591 170.854 113.83 173.848C112.157 176.754 111.321 180.364 111.321 184.678V225.488H99.6984Z" fill="black"/>
<path d="M202.646 227.073C195.602 227.073 189.659 225.797 184.816 223.243C180.061 220.602 176.407 216.596 173.854 211.225C171.389 205.854 170.156 199.03 170.156 190.753C170.156 182.389 171.389 175.565 173.854 170.282C176.407 164.911 180.061 160.949 184.816 158.396C189.659 155.754 195.602 154.433 202.646 154.433C209.69 154.433 215.589 155.754 220.344 158.396C225.186 160.949 228.84 164.911 231.306 170.282C233.771 175.565 235.004 182.389 235.004 190.753C235.004 199.03 233.771 205.854 231.306 211.225C228.84 216.596 225.186 220.602 220.344 223.243C215.589 225.797 209.69 227.073 202.646 227.073ZM202.646 217.3C207.136 217.3 210.878 216.419 213.872 214.659C216.866 212.898 219.111 210.168 220.608 206.47C222.193 202.684 222.985 197.929 222.985 192.206V189.301C222.985 183.489 222.193 178.735 220.608 175.037C219.111 171.339 216.866 168.609 213.872 166.848C210.878 165.087 207.136 164.207 202.646 164.207C198.155 164.207 194.369 165.087 191.288 166.848C188.294 168.609 186.049 171.339 184.552 175.037C183.055 178.735 182.307 183.489 182.307 189.301V192.206C182.307 197.929 183.055 202.684 184.552 206.47C186.049 210.168 188.294 212.898 191.288 214.659C194.369 216.419 198.155 217.3 202.646 217.3Z" fill="black"/>
<path d="M249.441 225.488V156.018H258.818L259.875 166.452H260.799C262.56 163.634 264.541 161.345 266.742 159.584C268.944 157.823 271.365 156.547 274.006 155.754C276.648 154.874 279.509 154.433 282.591 154.433C287.082 154.433 290.956 155.358 294.213 157.207C297.471 158.968 299.893 162.05 301.477 166.452H302.27C303.943 163.634 305.88 161.389 308.081 159.716C310.282 157.955 312.748 156.635 315.477 155.754C318.207 154.874 321.112 154.433 324.194 154.433C328.42 154.433 332.118 155.182 335.288 156.679C338.458 158.087 340.923 160.465 342.684 163.811C344.533 167.068 345.458 171.471 345.458 177.018V225.488H333.835V178.867C333.835 176.049 333.483 173.716 332.779 171.867C332.162 170.018 331.238 168.609 330.005 167.641C328.772 166.584 327.32 165.836 325.647 165.395C324.062 164.955 322.345 164.735 320.496 164.735C317.414 164.735 314.553 165.528 311.911 167.112C309.358 168.697 307.289 170.987 305.704 173.98C304.119 176.974 303.326 180.54 303.326 184.678V225.488H291.704V178.867C291.704 176.049 291.352 173.716 290.647 171.867C289.943 170.018 289.019 168.609 287.874 167.641C286.729 166.584 285.321 165.836 283.648 165.395C282.063 164.955 280.39 164.735 278.629 164.735C275.459 164.735 272.509 165.528 269.78 167.112C267.139 168.697 265.025 170.987 263.441 173.98C261.856 176.974 261.063 180.54 261.063 184.678V225.488H249.441Z" fill="black"/>
<path d="M380.503 227.073C377.95 227.073 375.396 226.765 372.843 226.149C370.29 225.532 367.912 224.52 365.711 223.111C363.51 221.702 361.749 219.765 360.428 217.3C359.107 214.747 358.447 211.577 358.447 207.791C358.447 203.036 359.592 199.118 361.881 196.036C364.17 192.955 367.34 190.577 371.39 188.904C375.528 187.143 380.415 185.955 386.05 185.338C391.685 184.634 397.805 184.282 404.408 184.282V176.357C404.408 173.804 403.968 171.603 403.088 169.754C402.207 167.905 400.622 166.496 398.333 165.528C396.132 164.471 392.962 163.943 388.824 163.943C384.862 163.943 381.692 164.471 379.315 165.528C377.025 166.496 375.396 167.773 374.428 169.358C373.547 170.943 373.107 172.703 373.107 174.641V176.622H361.881C361.793 176.181 361.749 175.741 361.749 175.301C361.749 174.861 361.749 174.332 361.749 173.716C361.749 169.49 362.894 165.968 365.183 163.15C367.56 160.245 370.862 158.087 375.088 156.679C379.315 155.182 384.157 154.433 389.616 154.433C395.427 154.433 400.27 155.27 404.144 156.943C408.106 158.616 411.056 160.993 412.993 164.075C415.018 167.156 416.031 170.854 416.031 175.169V212.81C416.031 214.482 416.427 215.671 417.219 216.375C418.012 216.992 418.98 217.3 420.125 217.3H425.276V224.96C424.043 225.488 422.678 225.929 421.182 226.281C419.685 226.721 417.968 226.941 416.031 226.941C413.742 226.941 411.848 226.457 410.352 225.488C408.855 224.608 407.71 223.375 406.918 221.79C406.125 220.118 405.597 218.269 405.333 216.243H404.408C402.823 218.445 400.798 220.382 398.333 222.055C395.956 223.639 393.27 224.872 390.277 225.753C387.283 226.633 384.025 227.073 380.503 227.073ZM383.409 217.3C386.226 217.3 388.868 216.86 391.333 215.979C393.887 215.099 396.132 213.866 398.069 212.281C400.006 210.608 401.547 208.627 402.691 206.338C403.836 204.049 404.408 201.539 404.408 198.81V192.999C397.276 192.999 391.201 193.395 386.182 194.187C381.164 194.98 377.289 196.388 374.56 198.414C371.919 200.439 370.598 203.3 370.598 206.998C370.598 209.376 371.126 211.313 372.183 212.81C373.239 214.306 374.736 215.451 376.673 216.243C378.61 216.948 380.855 217.3 383.409 217.3Z" fill="black"/>
<path d="M459.34 227.073C454.586 227.073 450.403 226.589 446.793 225.621C443.183 224.652 440.19 223.243 437.812 221.394C435.435 219.545 433.63 217.344 432.397 214.791C431.165 212.237 430.548 209.332 430.548 206.074C430.548 205.634 430.548 205.237 430.548 204.885C430.548 204.445 430.592 204.093 430.681 203.829H442.171C442.083 204.181 442.039 204.489 442.039 204.753C442.039 205.017 442.039 205.281 442.039 205.546C442.127 208.627 442.919 211.049 444.416 212.81C446.001 214.57 448.158 215.803 450.888 216.508C453.617 217.212 456.655 217.564 460.001 217.564C462.906 217.564 465.592 217.212 468.057 216.508C470.522 215.715 472.459 214.57 473.868 213.074C475.365 211.489 476.113 209.508 476.113 207.13C476.113 204.225 475.145 202.024 473.208 200.527C471.359 198.942 468.893 197.709 465.812 196.829C462.73 195.948 459.516 195.024 456.17 194.055C453.353 193.263 450.535 192.382 447.718 191.414C444.9 190.445 442.347 189.257 440.058 187.848C437.856 186.439 436.051 184.634 434.643 182.433C433.322 180.144 432.662 177.282 432.662 173.848C432.662 170.766 433.278 168.037 434.511 165.66C435.831 163.282 437.68 161.257 440.058 159.584C442.435 157.911 445.297 156.679 448.642 155.886C452.076 155.006 455.862 154.566 460.001 154.566C464.403 154.566 468.233 155.05 471.491 156.018C474.837 156.987 477.61 158.352 479.811 160.113C482.013 161.874 483.642 163.899 484.698 166.188C485.755 168.389 486.283 170.766 486.283 173.32C486.283 173.848 486.283 174.376 486.283 174.905C486.283 175.345 486.239 175.697 486.151 175.961H474.793V174.508C474.793 172.747 474.308 171.075 473.34 169.49C472.459 167.817 470.875 166.496 468.585 165.528C466.384 164.471 463.302 163.943 459.34 163.943C456.787 163.943 454.586 164.163 452.737 164.603C450.888 164.955 449.347 165.572 448.114 166.452C446.881 167.244 445.957 168.213 445.341 169.358C444.724 170.414 444.416 171.647 444.416 173.056C444.416 175.345 445.164 177.106 446.661 178.339C448.158 179.571 450.139 180.584 452.605 181.376C455.158 182.169 457.887 183.049 460.793 184.018C463.875 184.898 467 185.823 470.17 186.791C473.428 187.672 476.378 188.816 479.019 190.225C481.749 191.634 483.906 193.571 485.491 196.036C487.164 198.414 488 201.583 488 205.546C488 209.244 487.296 212.457 485.887 215.187C484.478 217.916 482.453 220.162 479.811 221.923C477.258 223.683 474.22 224.96 470.698 225.753C467.265 226.633 463.478 227.073 459.34 227.073Z" fill="black"/>
<path d="M96.9135 368.127V277.525H109.46V325.467L155.554 277.525H171.138L136.667 313.713L172.327 368.127H157.403L127.951 322.694L109.46 340.127V368.127H96.9135Z" fill="black"/>
<path d="M182.115 285.581V272.638H193.737V285.581H182.115ZM182.115 368.127V298.657H193.737V368.127H182.115Z" fill="black"/>
<path d="M211.78 368.127V298.657H221.157L222.213 309.09H223.138C224.899 306.273 226.88 303.984 229.081 302.223C231.282 300.462 233.704 299.185 236.345 298.393C238.986 297.512 241.848 297.072 244.93 297.072C249.42 297.072 253.294 297.996 256.552 299.845C259.81 301.606 262.231 304.688 263.816 309.09H264.609C266.281 306.273 268.219 304.028 270.42 302.355C272.621 300.594 275.086 299.273 277.816 298.393C280.545 297.512 283.451 297.072 286.533 297.072C290.759 297.072 294.457 297.82 297.627 299.317C300.796 300.726 303.262 303.103 305.023 306.449C306.872 309.707 307.796 314.109 307.796 319.656V368.127H296.174V321.505C296.174 318.688 295.822 316.354 295.117 314.505C294.501 312.656 293.576 311.248 292.344 310.279C291.111 309.222 289.658 308.474 287.985 308.034C286.401 307.594 284.684 307.373 282.835 307.373C279.753 307.373 276.891 308.166 274.25 309.751C271.696 311.336 269.627 313.625 268.042 316.619C266.458 319.612 265.665 323.178 265.665 327.316V368.127H254.043V321.505C254.043 318.688 253.691 316.354 252.986 314.505C252.282 312.656 251.357 311.248 250.213 310.279C249.068 309.222 247.659 308.474 245.986 308.034C244.401 307.594 242.729 307.373 240.968 307.373C237.798 307.373 234.848 308.166 232.119 309.751C229.477 311.336 227.364 313.625 225.779 316.619C224.194 319.612 223.402 323.178 223.402 327.316V368.127H211.78Z" fill="black"/>
<path d="M358.426 369.712C353.76 369.712 349.578 368.787 345.88 366.938C342.182 365.001 339.144 362.096 336.767 358.221H335.842L334.653 368.127H325.408V272.638H337.031V307.373H337.823C339.408 304.908 341.257 302.927 343.37 301.43C345.483 299.933 347.861 298.833 350.502 298.128C353.144 297.424 355.961 297.072 358.955 297.072C364.326 297.072 369.036 298.349 373.087 300.902C377.137 303.455 380.262 307.373 382.464 312.656C384.753 317.939 385.898 324.675 385.898 332.863C385.898 341.492 384.797 348.536 382.596 353.995C380.395 359.366 377.269 363.328 373.219 365.882C369.168 368.435 364.238 369.712 358.426 369.712ZM355.653 359.542C359.615 359.542 362.917 358.75 365.558 357.165C368.288 355.58 370.357 352.983 371.766 349.373C373.175 345.675 373.879 340.832 373.879 334.845V332.071C373.879 326.26 373.219 321.549 371.898 317.939C370.577 314.241 368.552 311.556 365.823 309.883C363.093 308.122 359.571 307.241 355.257 307.241C352.791 307.241 350.458 307.638 348.257 308.43C346.056 309.222 344.075 310.587 342.314 312.524C340.641 314.461 339.32 317.059 338.351 320.317C337.471 323.574 337.031 327.581 337.031 332.335V334.448C337.031 339.907 337.647 344.486 338.88 348.184C340.2 351.882 342.226 354.699 344.955 356.637C347.773 358.574 351.339 359.542 355.653 359.542Z" fill="black"/>
<path d="M400.344 368.127V272.638H411.966V368.127H400.344Z" fill="black"/>
<path d="M457.744 369.712C450.876 369.712 445.065 368.435 440.31 365.882C435.644 363.24 432.078 359.234 429.613 353.863C427.235 348.492 426.047 341.668 426.047 333.392C426.047 325.027 427.235 318.203 429.613 312.921C432.078 307.55 435.688 303.587 440.443 301.034C445.197 298.393 451.14 297.072 458.272 297.072C464.788 297.072 470.247 298.349 474.649 300.902C479.052 303.367 482.354 307.109 484.555 312.128C486.844 317.059 487.989 323.266 487.989 330.75V336.297H438.065C438.241 341.844 439.034 346.423 440.443 350.033C441.939 353.555 444.141 356.152 447.046 357.825C449.952 359.41 453.606 360.202 458.008 360.202C461.002 360.202 463.599 359.85 465.8 359.146C468.09 358.353 469.983 357.253 471.48 355.844C473.064 354.435 474.253 352.762 475.046 350.825C475.838 348.888 476.278 346.775 476.366 344.486H487.725C487.636 348.184 486.932 351.618 485.611 354.788C484.291 357.869 482.354 360.511 479.8 362.712C477.247 364.913 474.121 366.63 470.423 367.863C466.725 369.095 462.499 369.712 457.744 369.712ZM438.329 327.581H475.97C475.97 323.706 475.53 320.449 474.649 317.807C473.769 315.166 472.492 313.009 470.819 311.336C469.234 309.663 467.341 308.474 465.14 307.77C463.027 306.977 460.606 306.581 457.876 306.581C453.826 306.581 450.392 307.329 447.574 308.826C444.757 310.323 442.6 312.612 441.103 315.694C439.606 318.776 438.682 322.738 438.329 327.581Z" fill="black"/>
</svg>
