<svg width="500" height="500" viewBox="0 0 500 500" fill="none" xmlns="http://www.w3.org/2000/svg">
<g opacity="0.75">
<path d="M487.494 347.542C486.499 349.981 484.127 351.819 481.147 351.819H423.864C417.141 351.819 411.041 347.882 408.272 341.755L373.168 264.078H360.09V339.842C360.09 346.457 354.727 351.819 348.112 351.819H293.606C286.991 351.819 281.629 346.457 281.629 339.842V119.977C281.629 117.842 282.187 115.838 283.166 114.102L264.519 133.015V164.463C264.519 171.078 259.156 176.441 252.541 176.441H242.275V379.765L242.384 381.386L242.702 382.94L243.214 384.414L243.906 385.794L244.764 387.064L245.774 388.212L246.921 389.221L248.192 390.08L249.571 390.772L251.046 391.284L252.6 391.601L254.221 391.71H308.585L310.206 391.601L311.761 391.284L313.235 390.772L314.615 390.08L315.885 389.221L317.033 388.212L354.645 350.82L368.588 381.673L369.346 383.154L370.233 384.538L371.24 385.819L372.357 386.991L373.575 388.048L374.885 388.983L376.276 389.791L377.741 390.466L379.269 391.001L380.851 391.391L382.477 391.63L384.139 391.71H441.273L442.497 391.604L443.635 391.297L444.674 390.812L445.601 390.17L446.402 389.39L486.208 349.585L486.95 348.614L487.494 347.542Z" fill="black"/>
<path d="M408.156 116.002L370.924 153.454L369.916 154.541L369.001 155.719L368.184 156.986L360.677 169.838V169.832L360.09 170.849V191.951C360.09 193.697 362.397 194.321 363.278 192.814L407.867 116.48C407.961 116.319 408.057 116.159 408.156 116.002Z" fill="black"/>
<path d="M281.629 119.977V339.842C281.629 346.457 286.991 351.819 293.606 351.819H348.113C354.727 351.819 360.09 346.457 360.09 339.842V264.078H373.168L408.272 341.755C411.041 347.882 417.141 351.819 423.864 351.819H481.147C486.212 351.819 489.522 346.51 487.293 341.962L428.794 222.638L486.516 118.154C489.036 113.592 485.736 108 480.525 108H422.641C416.559 108 410.934 111.228 407.867 116.48L363.278 192.814C362.398 194.321 360.09 193.697 360.09 191.951V119.977C360.09 113.362 354.727 108 348.113 108H293.606C286.991 108 281.629 113.362 281.629 119.977Z" fill="black" fill-opacity="0.5"/>
<path d="M260.924 173.093C258.764 175.21 255.805 176.515 252.542 176.515H197.544V216.81H213.479L214.287 216.756L215.841 216.438L217.316 215.926L218.695 215.234L219.965 214.376L221.113 213.366L261.504 173.093H260.924Z" fill="black"/>
<path d="M193.86 348.558L154.312 388.287L153.165 389.296L151.895 390.155L150.515 390.847L149.041 391.359L147.486 391.676L145.865 391.785H91.501L89.88 391.676L88.3254 391.359L86.8512 390.847L85.4718 390.155L84.2012 389.296L83.0541 388.287L82.0443 387.139L81.1862 385.869L80.494 384.489L79.982 383.015L79.6643 381.461L79.5553 379.84V216.865H24.9458L23.3249 216.756L21.7702 216.438L20.2959 215.926L18.9165 215.234L17.6461 214.376L16.4989 213.366L15.489 212.219L14.6309 210.948L13.9387 209.569L13.4267 208.094L13.109 206.54L13 204.919V160.549L13.109 158.928L13.4267 157.373L13.9387 155.899L14.6309 154.519L15.489 153.249L16.4989 152.102L53.9007 114.16C52.9156 115.899 52.3533 117.91 52.3533 120.052V164.538C52.3533 171.153 57.7156 176.515 64.3304 176.515H119.083V339.917C119.083 346.532 124.445 351.894 131.06 351.894H185.567C188.786 351.894 191.708 350.624 193.86 348.558Z" fill="black"/>
<path d="M131.06 351.819H185.567C192.182 351.819 197.544 346.457 197.544 339.842V176.44H252.542C259.157 176.44 264.519 171.078 264.519 164.463V119.977C264.519 113.362 259.157 108 252.542 108H64.3306C57.7158 108 52.3535 113.362 52.3535 119.977V164.463C52.3535 171.078 57.7158 176.44 64.3306 176.44H119.083V339.842C119.083 346.457 124.445 351.819 131.06 351.819Z" fill="black" fill-opacity="0.5"/>
</g>
</svg>
