<svg width="500" height="500" viewBox="0 0 500 500" fill="none" xmlns="http://www.w3.org/2000/svg">
<path d="M260.642 125V374.351C260.642 378.217 263.776 381.351 267.642 381.351H338.388C342.254 381.351 345.388 378.217 345.388 374.351V286.581H359.514L399.685 375.469C401.303 379.049 404.868 381.351 408.797 381.351H481.584C484.544 381.351 486.479 378.248 485.176 375.59L419.596 241.821L484.722 123.934C486.195 121.268 484.266 118 481.221 118H408.083C404.528 118 401.241 119.887 399.448 122.956L347.252 212.313C346.737 213.194 345.388 212.829 345.388 211.809V125C345.388 121.134 342.254 118 338.388 118H267.642C263.776 118 260.642 121.134 260.642 125Z" stroke="black" stroke-width="4"/>
<path d="M92.0749 381.351H162.821C166.687 381.351 169.821 378.217 169.821 374.351V191.923H235.161C239.027 191.923 242.161 188.789 242.161 184.923V125C242.161 121.134 239.027 118 235.161 118H20C16.134 118 13 121.134 13 125V184.923C13 188.789 16.134 191.923 20 191.923H85.0749V374.351C85.0749 378.217 88.2089 381.351 92.0749 381.351Z" stroke="black" stroke-width="4"/>
</svg>
