<svg width="500" height="500" viewBox="0 0 500 500" fill="none" xmlns="http://www.w3.org/2000/svg">
<path d="M221.971 425.247C232.692 428.248 243.513 427.948 254.639 427.948C266.526 427.948 283.796 431.264 296.149 431.264C308.253 431.264 322.445 428.927 334.221 425.983C344.269 423.471 355.018 421.783 364.555 417.448C372.031 414.05 379.93 411.48 387.275 407.807C395.336 403.777 405.988 403.179 412.083 395.342C417.944 387.806 423.877 380.277 428.417 371.701C431.946 365.036 437.241 358.694 442.295 353.034C444.649 350.397 444.684 345.104 447.514 342.84C451.206 339.887 452.363 326.389 454.085 321.962C455.331 318.757 456.107 314.671 456.848 311.339C458.461 304.081 461.331 296.068 461.331 288.68C461.331 258.392 442.447 231.089 432.593 203.081C427.447 188.457 422.7 172.463 414.355 159.483C405.799 146.174 392.657 133.287 379.784 124.236C370.386 117.628 360.21 107.336 349.081 104.156C331.811 99.2221 312.485 102.452 295.29 97.7088C290.237 96.3151 282.996 97.3946 277.85 97.4632C267.368 97.603 255.886 97.4861 245.428 98.8141C224.808 101.433 205.021 103.274 184.698 107.964C170.686 111.197 157.967 115.862 144.6 120.675C140.67 122.089 136.22 126.346 132.81 128.903C128.433 132.186 124.475 137.55 120.529 141.43C116.56 145.333 112.61 149.241 109.353 153.772C101.157 165.176 91.9433 176.342 83.3174 187.484C78.1262 194.189 74.4827 201.718 69.8081 208.73C66.2816 214.02 64.9555 219.984 62.3166 225.678C57.8569 235.302 53.5535 245.721 51.018 256.013C49.0964 263.812 46.9231 271.613 44.6318 279.347C39.843 295.509 38 310.678 38 327.366C38 334.642 40.2106 342.553 40.2106 350.025C40.2106 362.596 43.6428 374.635 49.2986 385.947C56.0932 399.536 70.3865 407.395 85.528 408.053C93.1059 408.382 102.91 409.901 110.336 411.615C119.998 413.844 129.051 414.35 138.951 415.299C150.377 416.395 162.01 419.897 173.338 420.211C180.28 420.404 187.117 423.173 193.848 423.527C202.701 423.993 213.433 422.856 221.971 425.247Z" fill="#FFFDD0" stroke="#FFFDD0" stroke-width="5" stroke-linecap="round"/>
</svg>
