<svg width="500" height="500" viewBox="0 0 500 500" fill="none" xmlns="http://www.w3.org/2000/svg">
<path d="M352.808 407.843C357.744 408.215 362.407 408.188 367.66 408.188C370.907 408.188 373.774 407.911 375.715 407.681C378.14 407.394 379.788 406.053 382.137 405.135C386.144 403.569 390.735 402.031 394.644 399.884C399.641 397.14 404.595 395.016 407.922 389.913C411.881 383.843 419.762 380.719 424.099 375.204C424.924 374.154 428.566 369.861 429.481 369.517C431.146 368.891 436.48 362.27 436.973 360.423C438.696 353.979 447.065 349.179 449.23 342.779C450.594 338.747 455.486 335.618 456.609 331.53C458.081 326.172 461.038 321.542 461.98 315.783C463.007 309.505 466.383 303.156 464.925 296.512C462.925 287.399 464.525 277.474 462.854 268.029C460.992 257.498 457.632 246.163 454.048 236.1C443.402 206.204 433.402 174.276 413.029 149.18C404.318 138.45 402.526 136.812 391.407 126.828C384.51 117.455 375.236 112.03 364.006 106.923C353.507 102.148 342.861 97.4186 331.44 95.5505C321.482 93.9216 310.979 92.9518 300.907 92.6409C284.907 91.4802 258.78 92.1572 247.716 92.6409C222.907 95.5505 197.814 95.5775 176.619 105.726C165.176 111.206 152.975 117.58 140.821 121.396C131.061 124.46 121.095 126.84 111.352 130.022C99.741 133.813 90.2445 149.366 80.1144 156.433C77.3949 158.33 72.3853 160.662 70.433 163.084C68.7718 165.145 64.7937 170.397 62.5525 171.385C58.8966 172.996 56.4155 178.397 53.5996 181.178L53.5264 181.25C50.8389 183.904 48.3608 186.351 46.1391 189.443C43.7756 192.732 41.6962 196.35 41.0275 200.438C36.083 230.666 32.1861 260.307 37.6643 290.625C39.6279 301.493 44.725 311.67 46.6633 322.326C48.3603 331.654 51.5483 342.818 56.0348 351.117C61.3038 360.862 67.7551 370.183 78.2327 374.917C89.1796 379.864 99.3766 389.633 111.43 391.605L125.043 393.832C131.772 394.932 138.52 394.16 145.207 395.254C156.62 397.121 168.048 395.529 179.384 397.092C200.426 399.992 221.76 399.646 242.842 401.895C255.182 403.211 267.456 402.376 279.831 402.681C289.496 402.92 300.213 401.846 309.789 403.412C324.066 405.747 338.422 406.758 352.808 407.843Z" fill="#FFFDD0" stroke="#FFFDD0" stroke-width="5" stroke-linecap="round"/>
</svg>
