<svg width="500" height="500" viewBox="0 0 500 500" fill="none" xmlns="http://www.w3.org/2000/svg">
<path d="M113.236 222.83C116.865 223.487 120.211 223.667 123.829 223.267H132.988C136.412 223.267 139.473 223.152 141.638 225.844C142.436 226.835 142.147 229.039 142.147 230.306C142.147 234.128 141.731 238.037 141.731 241.944C141.731 246.323 142.471 250.732 142.471 255.469C142.471 260.206 142.513 264.957 143.072 268.847C143.573 272.333 143.072 275.414 143.072 279.907C143.072 286.475 143.988 291.835 143.072 297.606C142.276 302.623 141.393 307.497 141.314 312.603C141.237 317.61 140.626 323.292 141.407 328.244C142.136 332.864 140.449 339.332 144.321 342.412C144.945 342.909 147.427 342.842 148.253 343.01C149.341 343.231 150.669 343.746 151.722 343.746C155.39 343.746 159.094 344.574 162.824 344.574C168.117 344.574 173.735 343.746 179.199 343.746C180.949 343.746 182.68 343.332 184.519 343.332C186.842 343.332 189.595 343.698 191.688 342.596C195.054 340.824 195.435 337.585 195.435 334.224V297.468C195.435 287.012 194.662 276.729 194.186 266.325C194.077 263.943 194.483 261.659 194.603 259.287C194.858 254.208 195.866 248.705 197.008 243.738C198.097 238.999 197.1 233.431 197.1 228.443C197.1 227.87 197.452 224.903 197.828 224.604C198.591 223.997 199.289 223.267 200.261 223.267H202.304C212.539 223.267 223.006 223.871 233.089 222.048C236.386 221.452 241.282 221.272 242.086 217.678C243.525 211.235 243.728 204.699 243.728 197.966V188.283C243.728 186.694 242.662 181.129 241.045 180.21C237.814 178.374 234.161 175.656 230.197 175.656C223.262 175.656 216.252 176.07 209.382 176.07C204.374 176.07 199.328 176.25 194.325 176.047C188.889 175.826 183.59 174.828 178.135 174.828C166.117 174.828 154.125 175.242 142.101 175.242H130.907C126.553 175.242 121.748 175.772 117.446 175.035C113.015 174.275 107.92 175.909 103.707 177.082C101.398 177.725 99.7317 180.302 99.2436 182.487C98.719 184.834 98.0178 186.569 98.0178 189.111C98.0178 191.068 97.6014 193.051 97.6014 194.93C97.6014 204.131 95.7388 214.913 103.638 221.197C106.203 223.238 110.169 222.276 113.236 222.83Z" fill="#FFFDD0"/>
<path d="M259.657 226.119V253.859C259.657 257.095 260.174 261.173 260.174 262.849C260.174 265.884 260.491 270.664 260.871 273.686C261.249 276.694 261.695 282.182 261.695 285.196C261.695 292.127 262.711 294.36 261.723 301.235C260.602 309.046 259.562 317.28 260.174 325.187C260.447 328.719 259.74 335.022 261.953 337.852C263.661 340.036 265.568 341.19 267.52 343.132C269.424 345.024 275.305 343.759 278.081 343.759C284.593 343.759 290.983 343.246 297.567 343.246C299.944 343.246 303.801 343.629 305.89 342.475C307.516 341.577 312.57 341.764 312.863 339.136C313.215 335.993 312.863 333.133 312.863 329.889V321.27C312.863 319.227 313.353 316.034 313.353 313.781C313.353 312.053 313.294 310.221 313.782 308.713C314.433 306.699 314.396 304.48 314.396 302.374C314.396 297.764 314.741 293.536 313.925 289.077C313.443 286.439 314.104 283.141 317.254 283.141C320.261 283.141 322.665 282.316 324.113 285.196C325.465 287.884 327.149 290.438 328.877 293.016C331.774 299.264 332.122 302.98 335.597 309.287C336.077 310.839 338.015 314.021 338.725 315.505C339.531 317.187 340.33 319.787 341.158 321.27C342.353 325.035 343.805 326.884 344.634 330.372C345.366 333.452 346.606 335.707 347.415 338.322C348.183 340.805 351.893 342.916 354.713 343.246C360.855 343.964 366.444 344.787 372.9 344.787C378.886 344.787 384.93 345.036 390.836 344.302C393.551 343.964 396.129 343.759 398.872 343.759C406.499 343.759 399.635 333.465 398.212 330.917C396.292 327.481 394.719 323.436 393.476 319.729C393.028 318.39 392.363 316.802 391.783 315.505C391.198 314.196 389.87 313.35 389.315 312.109C387.45 307.935 384.066 304.362 381.825 300.351C378.058 293.608 375.13 286.03 372.039 279.003C369.082 272.28 366.875 265.42 362.97 259.111C362.202 257.869 360.993 256.998 360.904 255.4C360.827 254.029 361.62 253.353 361.908 252.061C362.329 250.179 363.773 245.914 365.266 244.641C367.607 242.646 369.275 238.354 370.948 235.765C375.371 228.924 379.375 221.851 384.436 215.445C390.203 208.146 395.149 200.639 398.843 192.242C399.324 191.147 399.182 189.97 399.905 188.932C400.358 188.28 400.987 187.628 401.167 186.82C401.365 185.936 402.312 183.968 401.598 183.081C400.376 181.562 399.127 177.458 396.547 177.316C391.349 177.029 386.441 177.83 381.308 177.83C378.116 177.83 374.749 177.316 371.436 177.316C363.819 177.316 356.816 176.746 350.056 180.284C347.756 181.488 346.204 184.229 344.374 186.049C342.148 188.262 341.239 191.483 339.208 193.755C337.433 195.74 336.521 198.653 334.961 200.833C333.061 203.487 330.926 206.384 329.681 209.423C327.979 213.577 326.375 217.35 324.113 221.267C322.104 224.747 319.928 228.218 318.546 231.998C317.918 233.715 316.699 235.002 315.963 236.65C315.614 237.43 312.924 238.82 312.863 237.306C312.614 231.116 313.897 225.09 313.897 218.927C313.897 209.396 314.93 200.189 314.93 190.672C314.93 187.43 314.747 184.077 313.122 181.169C311.365 178.023 309.922 177.83 306.406 177.83C303.154 177.83 300.223 176.927 296.965 176.802C292.867 176.645 288.588 176.288 284.338 176.288C280.706 176.288 277.283 176.417 273.748 176.831C270.17 177.249 265.855 177.111 263.015 179.371C262.345 179.904 262.757 182.398 262.757 183.224C262.757 187.034 261.824 190.891 261.723 194.725C261.45 205.212 259.657 215.598 259.657 226.119Z" fill="#FFFDD0"/>
<path d="M113.236 222.83C116.865 223.487 120.211 223.667 123.829 223.267H132.988C136.412 223.267 139.473 223.152 141.638 225.844C142.436 226.835 142.147 229.039 142.147 230.306C142.147 234.128 141.731 238.037 141.731 241.944C141.731 246.323 142.471 250.732 142.471 255.469C142.471 260.206 142.513 264.957 143.072 268.847C143.573 272.333 143.072 275.414 143.072 279.907C143.072 286.475 143.988 291.835 143.072 297.606C142.276 302.623 141.393 307.497 141.314 312.603C141.237 317.61 140.626 323.292 141.407 328.244C142.136 332.864 140.449 339.332 144.321 342.412C144.945 342.909 147.427 342.842 148.253 343.01C149.341 343.231 150.669 343.746 151.722 343.746C155.39 343.746 159.094 344.574 162.824 344.574C168.117 344.574 173.735 343.746 179.199 343.746C180.949 343.746 182.68 343.332 184.519 343.332C186.842 343.332 189.595 343.698 191.688 342.596C195.054 340.824 195.435 337.585 195.435 334.224V297.468C195.435 287.012 194.662 276.729 194.186 266.325C194.077 263.943 194.483 261.659 194.603 259.287C194.858 254.208 195.866 248.705 197.008 243.738C198.097 238.999 197.1 233.431 197.1 228.443C197.1 227.87 197.452 224.903 197.828 224.604C198.591 223.997 199.289 223.267 200.261 223.267H202.304C212.539 223.267 223.006 223.871 233.089 222.048C236.386 221.452 241.282 221.272 242.086 217.678C243.525 211.235 243.728 204.699 243.728 197.966V188.283C243.728 186.694 242.662 181.129 241.045 180.21C237.814 178.374 234.161 175.656 230.197 175.656C223.262 175.656 216.252 176.07 209.382 176.07C204.374 176.07 199.328 176.25 194.325 176.047C188.889 175.826 183.59 174.828 178.135 174.828C166.117 174.828 154.125 175.242 142.101 175.242H130.907C126.553 175.242 121.748 175.772 117.446 175.035C113.015 174.275 107.92 175.909 103.707 177.082C101.398 177.725 99.7317 180.302 99.2436 182.487C98.719 184.834 98.0178 186.569 98.0178 189.111C98.0178 191.068 97.6014 193.051 97.6014 194.93C97.6014 204.131 95.7388 214.913 103.638 221.197C106.203 223.238 110.169 222.276 113.236 222.83Z" stroke="#FFFDD0" stroke-width="5" stroke-linecap="round"/>
<path d="M259.657 226.119V253.859C259.657 257.095 260.174 261.173 260.174 262.849C260.174 265.884 260.491 270.664 260.871 273.686C261.249 276.694 261.695 282.182 261.695 285.196C261.695 292.127 262.711 294.36 261.723 301.235C260.602 309.046 259.562 317.28 260.174 325.187C260.447 328.719 259.74 335.022 261.953 337.852C263.661 340.036 265.568 341.19 267.52 343.132C269.424 345.024 275.305 343.759 278.081 343.759C284.593 343.759 290.983 343.246 297.567 343.246C299.944 343.246 303.801 343.629 305.89 342.475C307.516 341.577 312.57 341.764 312.863 339.136C313.215 335.993 312.863 333.133 312.863 329.889V321.27C312.863 319.227 313.353 316.034 313.353 313.781C313.353 312.053 313.294 310.221 313.782 308.713C314.433 306.699 314.396 304.48 314.396 302.374C314.396 297.764 314.741 293.536 313.925 289.077C313.443 286.439 314.104 283.141 317.254 283.141C320.261 283.141 322.665 282.316 324.113 285.196C325.465 287.884 327.149 290.438 328.877 293.016C331.774 299.264 332.122 302.98 335.597 309.287C336.077 310.839 338.015 314.021 338.725 315.505C339.531 317.187 340.33 319.787 341.158 321.27C342.353 325.035 343.805 326.884 344.634 330.372C345.366 333.452 346.606 335.707 347.415 338.322C348.183 340.805 351.893 342.916 354.713 343.246C360.855 343.964 366.444 344.787 372.9 344.787C378.886 344.787 384.93 345.036 390.836 344.302C393.551 343.964 396.129 343.759 398.872 343.759C406.499 343.759 399.635 333.465 398.212 330.917C396.292 327.481 394.719 323.436 393.476 319.729C393.028 318.39 392.363 316.802 391.783 315.505C391.198 314.196 389.87 313.35 389.315 312.109C387.45 307.935 384.066 304.362 381.825 300.351C378.058 293.608 375.13 286.03 372.039 279.003C369.082 272.28 366.875 265.42 362.97 259.111C362.202 257.869 360.993 256.998 360.904 255.4C360.827 254.029 361.62 253.353 361.908 252.061C362.329 250.179 363.773 245.914 365.266 244.641C367.607 242.646 369.275 238.354 370.948 235.765C375.371 228.924 379.375 221.851 384.436 215.445C390.203 208.146 395.149 200.639 398.843 192.242C399.324 191.147 399.182 189.97 399.905 188.932C400.358 188.28 400.987 187.628 401.167 186.82C401.365 185.936 402.312 183.968 401.598 183.081C400.376 181.562 399.127 177.458 396.547 177.316C391.349 177.029 386.441 177.83 381.308 177.83C378.116 177.83 374.749 177.316 371.436 177.316C363.819 177.316 356.816 176.746 350.056 180.284C347.756 181.488 346.204 184.229 344.374 186.049C342.148 188.262 341.239 191.483 339.208 193.755C337.433 195.74 336.521 198.653 334.961 200.833C333.061 203.487 330.926 206.384 329.681 209.423C327.979 213.577 326.375 217.35 324.113 221.267C322.104 224.747 319.928 228.218 318.546 231.998C317.918 233.715 316.699 235.002 315.963 236.65C315.614 237.43 312.924 238.82 312.863 237.306C312.614 231.116 313.897 225.09 313.897 218.927C313.897 209.396 314.93 200.189 314.93 190.672C314.93 187.43 314.747 184.077 313.122 181.169C311.365 178.023 309.922 177.83 306.406 177.83C303.154 177.83 300.223 176.927 296.965 176.802C292.867 176.645 288.588 176.288 284.338 176.288C280.706 176.288 277.283 176.417 273.748 176.831C270.17 177.249 265.855 177.111 263.015 179.371C262.345 179.904 262.757 182.398 262.757 183.224C262.757 187.034 261.824 190.891 261.723 194.725C261.45 205.212 259.657 215.598 259.657 226.119Z" stroke="#FFFDD0" stroke-width="5" stroke-linecap="round"/>
</svg>
