<svg width="500" height="500" viewBox="0 0 500 500" fill="none" xmlns="http://www.w3.org/2000/svg">
<path fill-rule="evenodd" clip-rule="evenodd" d="M366.652 408.188C361.805 408.189 357.426 408.191 352.808 407.843C352.079 407.788 351.351 407.733 350.622 407.678C336.968 406.653 323.343 405.629 309.789 403.412C303.377 402.363 296.454 402.498 289.678 402.63C286.333 402.696 283.025 402.76 279.831 402.681C275.542 402.575 271.265 402.607 266.994 402.638C258.94 402.696 250.905 402.755 242.842 401.895C233.475 400.896 224.059 400.409 214.64 399.922C202.86 399.313 191.077 398.703 179.384 397.092C173.976 396.346 168.548 396.319 163.111 396.291C157.149 396.26 151.176 396.23 145.207 395.254C141.869 394.708 138.515 394.627 135.156 394.546C131.787 394.464 128.413 394.383 125.043 393.832L111.43 391.605C103.851 390.365 97.0064 386.043 90.2477 381.775C86.2571 379.255 82.2966 376.754 78.2327 374.917C67.7551 370.183 61.3038 360.862 56.0348 351.117C51.5483 342.818 48.3603 331.654 46.6633 322.326C45.7009 317.035 43.9596 311.862 42.2098 306.664C40.4357 301.393 38.6529 296.097 37.6643 290.625C32.1861 260.307 36.083 230.666 41.0275 200.438C41.6962 196.35 43.7756 192.732 46.1391 189.443C48.3608 186.351 50.8388 183.904 53.5262 181.25L53.5996 181.178C54.6212 180.169 55.5987 178.815 56.6043 177.423C58.3704 174.977 60.2229 172.412 62.5525 171.385C64.5341 170.511 67.8736 166.304 69.7688 163.917C70.0171 163.604 70.2406 163.323 70.433 163.084C71.7494 161.451 74.4558 159.859 76.913 158.413C78.0999 157.715 79.2286 157.051 80.1144 156.433C84.121 153.638 88.0284 149.516 92.0068 145.318C98.0872 138.903 104.333 132.314 111.352 130.022C116.593 128.31 121.9 126.831 127.204 125.351C131.759 124.081 136.312 122.811 140.821 121.396C150.887 118.235 160.985 113.32 170.658 108.612C172.665 107.636 174.653 106.668 176.619 105.726C193.21 97.7824 212.188 96.04 231.549 94.2624C236.923 93.769 242.326 93.273 247.716 92.6409C258.78 92.1572 284.907 91.4802 300.907 92.6409C310.979 92.9518 321.482 93.9216 331.44 95.5505C342.861 97.4186 353.507 102.148 364.006 106.923C375.236 112.03 384.51 117.455 391.407 126.828C402.526 136.812 404.318 138.45 413.029 149.18C431.441 171.86 441.38 200.119 450.981 227.416C452.004 230.324 453.023 233.221 454.048 236.1C457.632 246.163 460.992 257.498 462.854 268.029C463.649 272.523 463.703 277.125 463.758 281.696C463.817 286.734 463.877 291.734 464.925 296.512C465.915 301.021 464.678 305.393 463.46 309.7C462.883 311.74 462.31 313.765 461.98 315.783C461.432 319.133 460.203 322.1 458.98 325.051C458.101 327.174 457.225 329.288 456.609 331.53C456.029 333.64 454.445 335.495 452.86 337.35C451.375 339.089 449.889 340.828 449.23 342.779C448.18 345.881 445.673 348.607 443.172 351.327C440.513 354.219 437.861 357.103 436.973 360.423C436.48 362.27 431.146 368.891 429.481 369.517C428.566 369.861 424.924 374.154 424.099 375.204C422.097 377.749 419.34 379.785 416.563 381.837C413.323 384.23 410.054 386.644 407.922 389.913C405.042 394.33 400.943 396.516 396.651 398.803C395.985 399.158 395.315 399.516 394.644 399.884C391.605 401.553 388.153 402.855 384.884 404.087C383.949 404.44 383.028 404.787 382.137 405.135C381.316 405.456 380.58 405.829 379.867 406.19C378.541 406.862 377.293 407.494 375.715 407.681C373.774 407.911 370.907 408.188 367.66 408.188C367.322 408.188 366.986 408.188 366.652 408.188ZM113.233 222.83C116.862 223.487 120.208 223.667 123.826 223.267H132.985C133.121 223.267 133.255 223.267 133.39 223.267C136.65 223.263 139.556 223.259 141.635 225.844C142.277 226.641 142.215 228.224 142.167 229.472C142.155 229.775 142.144 230.058 142.144 230.306C142.144 232.206 142.041 234.128 141.938 236.061C141.833 238.015 141.728 239.98 141.728 241.944C141.728 244.091 141.906 246.245 142.087 248.44C142.275 250.724 142.468 253.054 142.468 255.469C142.468 260.206 142.51 264.957 143.069 268.847C143.392 271.091 143.299 273.168 143.192 275.562C143.133 276.886 143.069 278.307 143.069 279.907C143.069 282.176 143.179 284.301 143.284 286.348C143.484 290.227 143.669 293.829 143.069 297.606C142.978 298.181 142.886 298.754 142.793 299.326C142.081 303.743 141.381 308.082 141.311 312.603C141.29 313.958 141.23 315.362 141.17 316.788C141.005 320.631 140.834 324.632 141.404 328.244C141.625 329.643 141.624 331.212 141.623 332.805C141.621 336.471 141.619 340.265 144.318 342.412C144.734 342.743 145.975 342.824 147.001 342.891C147.514 342.924 147.974 342.954 148.25 343.01C148.621 343.086 149.02 343.195 149.426 343.307C150.211 343.523 151.026 343.746 151.719 343.746C153.545 343.746 155.38 343.951 157.223 344.158C159.081 344.365 160.948 344.574 162.821 344.574C165.446 344.574 168.152 344.371 170.879 344.165C173.65 343.957 176.443 343.746 179.196 343.746C180.06 343.746 180.92 343.645 181.79 343.543C182.682 343.438 183.585 343.332 184.516 343.332C184.971 343.332 185.443 343.346 185.923 343.361C187.893 343.419 190.002 343.482 191.685 342.596C195.051 340.824 195.432 337.585 195.432 334.224V297.468C195.432 289.94 195.031 282.501 194.629 275.042L194.629 275.035C194.473 272.137 194.316 269.236 194.183 266.325C194.114 264.801 194.255 263.317 194.397 261.824C194.477 260.984 194.557 260.141 194.6 259.287C194.855 254.208 195.863 248.705 197.005 243.738C197.745 240.519 197.522 236.918 197.303 233.375C197.2 231.702 197.097 230.043 197.097 228.443C197.097 227.87 197.449 224.903 197.825 224.604C197.944 224.51 198.061 224.412 198.177 224.315C198.812 223.788 199.437 223.267 200.258 223.267H202.301C204.336 223.267 206.38 223.291 208.428 223.315H208.429C216.683 223.412 225.008 223.509 233.086 222.048C233.548 221.965 234.043 221.889 234.553 221.811L234.555 221.811C237.679 221.334 241.392 220.767 242.083 217.678C243.522 211.235 243.725 204.699 243.725 197.966V188.283C243.725 186.694 242.659 181.129 241.042 180.21C240.468 179.884 239.88 179.53 239.28 179.168C236.503 177.494 233.454 175.656 230.194 175.656C226.719 175.656 223.224 175.76 219.738 175.863C216.268 175.967 212.805 176.07 209.379 176.07C207.779 176.07 206.175 176.088 204.57 176.106C201.151 176.146 197.727 176.185 194.322 176.047C191.939 175.95 189.583 175.704 187.227 175.458C184.21 175.142 181.196 174.828 178.132 174.828C172.125 174.828 166.123 174.931 160.122 175.034L160.12 175.034C154.116 175.138 148.111 175.242 142.098 175.242H130.904C129.634 175.242 128.326 175.287 127.003 175.332C123.79 175.443 120.49 175.557 117.443 175.035C113.399 174.341 108.803 175.641 104.828 176.765L104.825 176.766C104.446 176.874 104.072 176.979 103.704 177.082C101.395 177.725 99.7287 180.302 99.2406 182.487C99.0991 183.12 98.9447 183.709 98.7947 184.281C98.3887 185.829 98.0148 187.255 98.0148 189.111C98.0148 190.099 97.9086 191.094 97.8035 192.079C97.7004 193.045 97.5985 194 97.5985 194.93C97.5985 196.389 97.5516 197.888 97.5043 199.402C97.2532 207.437 96.9884 215.909 103.635 221.197C105.338 222.552 107.659 222.583 109.925 222.614C111.071 222.629 112.203 222.644 113.233 222.83ZM259.654 226.119V253.859C259.654 255.741 259.829 257.907 259.975 259.72C260.08 261.025 260.171 262.148 260.171 262.849C260.171 265.884 260.488 270.664 260.868 273.686C261.246 276.694 261.692 282.182 261.692 285.196C261.692 287.737 261.828 289.647 261.953 291.385C262.168 294.388 262.346 296.881 261.72 301.235C260.599 309.046 259.559 317.28 260.171 325.187C260.24 326.081 260.246 327.152 260.253 328.3C260.273 331.687 260.297 335.738 261.95 337.852C263.001 339.196 264.128 340.15 265.294 341.137C266.022 341.755 266.767 342.385 267.518 343.132C268.926 344.533 272.515 344.203 275.411 343.938C276.427 343.845 277.357 343.759 278.078 343.759C281.325 343.759 284.541 343.632 287.767 343.504C291.01 343.375 294.263 343.246 297.564 343.246C298.009 343.246 298.506 343.259 299.034 343.273C301.323 343.335 304.189 343.413 305.887 342.475C306.408 342.187 307.279 342.011 308.234 341.818C310.261 341.408 312.661 340.923 312.86 339.136C313.093 337.059 313.018 335.105 312.941 333.083C312.901 332.045 312.86 330.989 312.86 329.889V321.27C312.86 320.274 312.977 319.005 313.096 317.704L313.096 317.702C313.222 316.336 313.35 314.935 313.35 313.781C313.35 313.614 313.35 313.446 313.349 313.278V313.276C313.344 311.701 313.339 310.075 313.779 308.713C314.397 306.801 314.395 304.704 314.393 302.694L314.393 302.374C314.393 301.305 314.411 300.257 314.43 299.222C314.49 295.791 314.548 292.502 313.922 289.077C313.44 286.439 314.101 283.141 317.251 283.141C317.823 283.141 318.373 283.111 318.899 283.083C321.138 282.961 322.937 282.863 324.11 285.196C325.462 287.884 327.146 290.438 328.874 293.016C330.115 295.692 330.888 297.903 331.639 300.052C332.643 302.922 333.607 305.681 335.594 309.287C335.909 310.304 336.85 312.021 337.66 313.502C338.087 314.28 338.478 314.994 338.722 315.505C339.076 316.244 339.428 317.159 339.783 318.079L339.783 318.08C340.236 319.256 340.691 320.438 341.155 321.27C341.695 322.971 342.287 324.281 342.851 325.527C343.535 327.04 344.177 328.46 344.631 330.372C345.065 332.198 345.678 333.734 346.273 335.228C346.682 336.253 347.082 337.258 347.412 338.322C348.18 340.805 351.89 342.916 354.71 343.246C355.667 343.358 356.61 343.472 357.544 343.585C362.613 344.2 367.446 344.787 372.897 344.787C374.106 344.787 375.317 344.797 376.529 344.807C381.319 344.847 386.12 344.888 390.833 344.302C393.548 343.964 396.126 343.759 398.869 343.759C405.784 343.759 400.788 335.298 398.734 331.819C398.522 331.46 398.341 331.155 398.209 330.917C396.289 327.481 394.716 323.436 393.473 319.729C393.025 318.39 392.36 316.802 391.78 315.505C391.484 314.842 390.996 314.297 390.516 313.76C390.048 313.237 389.586 312.721 389.312 312.109C388.245 309.721 386.68 307.529 385.117 305.34C383.949 303.703 382.781 302.067 381.822 300.351C378.997 295.293 376.643 289.766 374.339 284.354L374.337 284.349C373.57 282.547 372.808 280.758 372.036 279.003C371.162 277.015 370.353 275.016 369.546 273.022L369.546 273.021C367.625 268.272 365.717 263.555 362.967 259.111C362.735 258.735 362.463 258.394 362.193 258.056C361.571 257.276 360.963 256.515 360.901 255.4C360.855 254.576 361.123 254.002 361.407 253.395C361.595 252.993 361.79 252.576 361.905 252.061C362.326 250.179 363.77 245.914 365.263 244.641C366.843 243.294 368.117 240.9 369.293 238.69C369.859 237.627 370.402 236.606 370.945 235.765C372.167 233.875 373.358 231.966 374.547 230.06C377.661 225.066 380.771 220.081 384.433 215.445C390.2 208.146 395.146 200.639 398.84 192.242C399.041 191.785 399.133 191.313 399.225 190.843C399.353 190.188 399.481 189.536 399.902 188.932C400.009 188.778 400.125 188.624 400.243 188.469C400.627 187.964 401.026 187.438 401.164 186.82C401.21 186.615 401.296 186.351 401.393 186.056C401.712 185.081 402.143 183.763 401.595 183.081C401.248 182.65 400.9 182.011 400.519 181.314C399.558 179.553 398.392 177.418 396.544 177.316C393.551 177.151 390.654 177.346 387.756 177.541C385.62 177.685 383.483 177.83 381.305 177.83C379.724 177.83 378.1 177.704 376.461 177.576C374.791 177.447 373.105 177.316 371.433 177.316C370.496 177.316 369.569 177.307 368.65 177.299C362.097 177.238 355.982 177.181 350.053 180.284C348.534 181.079 347.341 182.545 346.179 183.973C345.582 184.707 344.992 185.431 344.371 186.049C343.186 187.227 342.375 188.691 341.568 190.144C340.86 191.422 340.155 192.692 339.205 193.755C338.2 194.88 337.471 196.302 336.745 197.72C336.189 198.805 335.634 199.888 334.958 200.833C334.897 200.918 334.835 201.004 334.773 201.09L334.623 201.3C332.812 203.826 330.85 206.561 329.678 209.423C327.976 213.577 326.372 217.35 324.11 221.267C323.809 221.788 323.505 222.309 323.2 222.831C321.467 225.793 319.718 228.784 318.543 231.998C318.198 232.94 317.676 233.752 317.154 234.566C316.723 235.235 316.292 235.906 315.96 236.65C315.611 237.43 312.921 238.82 312.86 237.306C312.725 233.937 313.043 230.617 313.361 227.296C313.627 224.516 313.894 221.735 313.894 218.927C313.894 214.159 314.152 209.473 314.41 204.789C314.669 200.108 314.927 195.429 314.927 190.672C314.927 187.43 314.744 184.077 313.119 181.169C311.362 178.023 309.919 177.83 306.403 177.83C304.664 177.83 303.017 177.571 301.362 177.312C299.923 177.087 298.478 176.86 296.962 176.802C295.532 176.748 294.081 176.668 292.616 176.589C289.882 176.44 287.102 176.288 284.335 176.288C280.703 176.288 277.28 176.417 273.745 176.831C273.041 176.913 272.308 176.974 271.563 177.036C268.525 177.288 265.293 177.556 263.012 179.371C262.498 179.78 262.621 181.346 262.706 182.424C262.731 182.75 262.754 183.032 262.754 183.224C262.754 185.234 262.494 187.258 262.234 189.284C262.001 191.098 261.768 192.914 261.72 194.725C261.595 199.533 261.15 204.319 260.705 209.107C260.18 214.763 259.654 220.421 259.654 226.119Z" fill="#FFFDD0" stroke="#FFFDD0" stroke-width="5" stroke-linecap="round"/>
</svg>
