<svg width="500" height="75" viewBox="0 0 500 75" fill="none" xmlns="http://www.w3.org/2000/svg">
<path d="M283.572 11.9834C283.754 14.5304 284.369 17.0179 284.514 19.5771C284.809 24.7896 284.373 30.0259 285.427 35.1765C286.112 38.5263 286.751 42.1941 286.751 45.6251C286.751 47.9912 287.281 50.6782 287.281 53.3071C287.281 53.7584 286.962 54.9801 287.281 54.661C289.057 52.8844 290.788 49.6092 292.402 47.5971C300.087 38.017 308.891 29.2599 314.271 18.1643C315.887 14.8309 316.976 9.84639 320.128 7.74512M299.465 37.9426C301.425 40.0978 302.97 42.5066 305.058 44.5944C307.166 46.7026 310.256 48.1524 312.151 50.3633C313.187 51.5721 315.342 51.6962 316.419 53.0417C317.29 54.1309 318.479 55.0726 319.48 56.0732C320.62 57.2137 321.755 59.1471 323.306 59.664M338.67 29.9956C338.67 38.3043 337.081 46.5155 337.081 54.6603C337.081 56.865 337.611 63.458 337.611 61.2532M357.213 54.3661C354.58 45.2977 356.937 34.7319 360.362 26.1695C361.183 24.1177 364.915 28.1282 365.66 28.6124C368.335 30.3511 370.236 32.867 372.459 35.1759C375.007 37.8224 375.984 35.3408 378.699 33.5866C378.959 33.4186 387.411 23.6121 387.411 27.6117C387.411 34.2954 387.552 40.9003 387.411 47.5966C387.333 51.2824 386.881 54.8936 386.881 58.6045M411.252 11.4536C411.252 26.0125 410.916 40.515 409.162 54.9847C408.732 58.5313 408.451 62.0854 408.168 65.6448M408.168 65.6448C408.146 65.9177 408.124 66.1906 408.102 66.4635C408.029 67.3867 408.015 65.9457 408.168 65.6448ZM408.168 65.6448C408.175 65.6305 408.183 65.6187 408.191 65.61C412.184 61.2542 419.799 61.8584 423.672 57.2805C425.171 55.51 427.572 53.1421 427.675 50.7758C427.808 47.7157 428.734 45.7337 427.175 43.0056C425.267 39.6665 421.925 36.0879 418.257 34.6467C416.314 33.8834 413.83 32.1154 411.782 32.1154M444.1 12.5134C445.295 26.56 446.993 41.411 445.954 55.5442C445.758 58.2151 446.327 61.5686 445.159 63.9031M463.358 48.8867C464.882 48.4711 465.575 48.194 467.237 47.917C472.134 47.917 478.544 46.4209 482.695 44.3636C486.169 42.6419 490.061 41.1919 493.35 39.1246C493.923 38.7644 494.075 38.2095 493.968 37.5646C492.904 31.1839 482.295 27.3113 477.482 30.8208C472.868 34.185 465.569 38.4491 463.678 44.1244C462.846 46.6205 460.82 54.1576 461.676 56.7254C462.401 58.9009 464.806 60.0466 466.915 60.1985C474.972 60.7785 483.313 59.6809 491.227 58.197M339.599 16.7784C334.521 16.7784 340.947 21.3687 340.947 17.4524" stroke="#FFFDD0" stroke-width="9.21232" stroke-linecap="round"/>
<path d="M19.7375 19.9301C20.9231 23.9313 20.2673 28.6375 20.2673 32.7628V50.393C20.2673 53.846 20.7971 57.2585 20.7971 60.724M5.07715 22.8959C11.0221 21.8221 17.2385 19.0626 23.0665 17.4372C34.2852 14.3084 45.3584 10.6273 56.598 7.61523M53.1131 14.9195C53.1131 24.0092 53.1429 38.5519 52.0535 47.5975L52.031 47.7844C51.2876 53.9562 51.0425 55.9908 51.0425 62.3133C51.0425 62.8944 51.556 61.0793 51.7224 60.5225C53.1573 57.6683 52.0535 59.8299 53.3485 56.8394C56.8911 47.9398 60.6101 42.2293 66.093 34.3565C67.2224 32.7348 69.2906 30.2144 71.9207 30.7989C73.2875 31.1026 74.4737 31.7631 74.9522 32.7083C77.4134 37.569 81.0285 40.1881 81.6041 45.7138C82.1044 50.5167 81.192 65.0237 81.192 60.1947M115.629 27.8767C112.559 27.8767 108.917 27.2687 105.946 28.2299C103.555 29.0034 101.597 30.49 99.2055 31.1732C96.9074 31.8298 93.287 35.8 92.3182 38.0604C89.4892 44.6615 93.5928 50.4558 97.675 55.4847C100.304 58.7231 104.801 65.311 109.684 65.4918C114.206 65.6593 115.741 62.5878 117.454 58.7811C119.992 53.1413 121.345 47.9612 122.634 41.9456C123.275 38.9559 125.095 32.3393 122.634 29.8781C121.62 28.8637 120.532 28.4738 119.338 27.8767M136.29 59.665C136.29 56.7996 135.668 54.1261 135.878 51.1884C136.223 46.3636 137.879 41.4848 137.879 36.7074C137.879 35.6056 137.172 30.9395 137.997 30.1145C140.231 27.8801 149.937 40.1398 153.479 41.1518C154.18 41.3522 154.491 42.207 155.333 42.4174C156.265 42.6503 158.687 39.7793 159.306 39.2975C162.96 36.4558 166.593 33.4131 169.961 30.2322C170.609 29.6203 171.673 28.6386 172.581 28.4368C174.055 28.1091 175.32 27.3022 176.76 26.8474C178.858 26.1851 179.167 31.9236 179.203 33.7053C179.356 41.2621 180.263 49.0105 180.263 56.4863M217.432 30.5263C216.054 27.082 207.759 25.0527 204.452 25.7876C202.138 26.3019 198.778 30.3467 197.418 32.2334C196.049 34.1307 195.322 36.2577 194.916 38.532C194.088 43.167 195.108 46.8176 198.919 49.8342C202.319 52.526 206.28 55.4264 210.809 55.4264C213.261 55.4264 215.313 53.6099 215.313 51.1881C215.313 48.7894 216.243 46.5856 216.343 44.1831C216.576 38.5955 217.2 33.0794 217.844 27.5241C217.936 26.7257 217.689 25.247 217.991 24.4925C218.154 24.0863 218.658 25.0831 218.874 25.4638C220.529 28.3836 222.251 31.3109 223.672 34.3525C227.091 41.6715 229.022 49.5279 230.912 57.3396C231.202 58.5375 233.17 62.6563 231.736 63.3733M270.377 34.837C270.121 32.7925 262.133 29.074 260.193 29.0093C256.993 28.9027 251.795 28.2071 248.92 29.804C247.07 30.8317 242.528 31.8077 245.477 34.6015C249.724 38.6252 256.397 39.0307 261.4 41.7243C263.837 43.0368 268.787 46.7235 268.787 49.936C268.787 53.1147 262.738 55.5462 259.958 55.9109C253.861 56.7104 246.185 57.0882 240.179 57.0882" stroke="#FFFDD0" stroke-width="5.52739" stroke-linecap="round"/>
</svg>
