<svg width="500" height="90" viewBox="0 0 500 90" fill="none" xmlns="http://www.w3.org/2000/svg">
<path d="M126.131 22.1205C123.309 20.6641 120.6 19.0682 117.582 18.0192C115.547 17.3117 113.472 16.2085 111.126 16.9366C108.963 17.608 106.81 18.7411 104.669 19.7143C100.017 21.8282 95.4983 26.0613 93.364 32.2017C92.0841 35.8839 92.4275 40.1088 92.3208 43.7357C91.9423 56.6045 95.9772 69.0817 104.908 72.8143C107.672 73.9696 110.349 74.4444 113.412 74.4518C116.196 74.4585 119.444 75.3087 122.343 74.2288C123.415 73.8293 125.035 72.1592 125.891 71.1619C128.496 68.1287 131.012 62.7812 132.633 58.9089C134.788 53.7596 136.556 47.9358 136.927 42.5095C137.542 33.5145 133.665 26.4343 127.722 24.3686M222.057 21.9205C221.772 26.0825 222.475 30.1044 222.509 34.2556C222.546 38.6825 222.493 42.9138 223.118 47.3282C223.886 52.7575 222.894 57.3886 222.537 62.6036L221.867 72.3697M197.346 27.9718C198.934 27.9049 200.561 26.8095 202.052 26.3479C207.744 24.5858 213.524 23.0054 219.243 21.3236C229.349 18.3517 239.809 15.6912 250.18 13.8418M61.9488 26.4946C61.7954 25.1211 59.4628 24.2781 58.4866 23.7023C53.9048 21 49.2831 18.9336 43.9813 18.2366C38.4292 17.5068 32.8698 18.2363 26.2217 23.7026C23.4905 25.9481 25.6631 30.679 29.5358 33.3403C35.1306 37.1851 44.1611 37.0253 50.6072 38.6871C53.826 39.517 57.0878 40.6138 60.158 41.8953C64.6135 43.7548 68.9976 45.7465 73.3799 47.7768C75.3321 48.6813 76.7382 49.7428 76.9615 51.9652C77.3337 55.6697 74.9784 65.4392 71.2608 66.8426C67.0142 68.4458 61.7384 69.5556 57.2928 69.8908C47.6437 70.6183 38.5322 71.9016 29.3567 75M156.339 25.7654C156.208 33.4885 156.1 40.8913 156.835 48.6749C157.26 53.1727 157.4 57.631 157.332 62.1446C157.278 65.7933 157.336 70.2007 156.725 73.7926C156.284 76.3849 156.339 76.6552 156.339 73.9582M156.835 44.1483C162.968 44.1483 168.861 45.9551 175.053 45.6111C176.785 45.5149 178.398 45.1419 180.187 45.1419M155.966 25.9038C156.243 25.6582 156.42 25.6332 156.777 25.5956C159.517 25.3073 162.256 25.0792 164.999 24.8173C171.85 24.1629 179.047 23.1984 185.74 21.5253M254 26.1821C254 29.7355 255.107 33.2463 256.224 36.5976C258.339 42.9414 260.585 49.3091 263.168 55.4757C265.297 60.559 267.968 65.8397 269.515 71.099C269.723 71.8058 270.552 75.6127 271.196 74.5166C271.934 73.2631 276.552 65.2403 278.411 65.2403C280.231 65.2403 283.186 69.7604 283.89 71.099C284.965 73.1399 285.627 76.039 287.091 73.0519C289.285 68.5754 290.799 63.8063 292.923 59.3002C297.669 49.2262 303.372 39.646 307.868 29.437C309.733 25.2015 312.058 20.3411 313.021 15.7666C313.284 14.5207 313.183 13.4524 314.54 13M319.723 73.4064C321.778 66.1195 325.205 58.931 328.203 52.003C331.653 44.0338 334.257 34.8707 338.77 27.4363C340.673 24.3025 341.819 21.1375 342.876 17.677C343.177 16.6914 343.817 14.8927 344.424 14.0424C344.915 13.3554 346.55 16.4985 346.611 16.6001C351.01 23.8846 354.385 31.5964 357.279 39.5851C361.406 50.974 364.204 62.5289 366.366 74.4159C366.486 75.0748 367.594 77.0409 366.971 77.0409M328.203 47.9645C337.653 47.9645 346.706 44.9357 356.202 44.9357C360.758 44.9357 365.816 44.3299 370 44.3299M390.215 18.7533C392.107 32.7031 391.971 46.7107 391.192 60.7408C391.095 62.4822 390.703 64.6055 390.703 66.5995V72.4582C390.703 73.5755 391.192 79.8574 391.192 76.9999M391.68 18.2651C397.199 23.7845 406.227 21.5703 412.755 24.3679C414.37 25.0601 415.586 26.4354 417.285 27.0531C419.692 27.9286 418.117 30.4808 416.742 31.7455C415.146 33.2143 413.423 35.7179 411.426 36.5736C408.519 37.8193 405.289 38.4744 402.285 39.4758C399.52 40.3976 396.694 41.6414 394.121 42.7849C390.76 44.2788 393.978 45.4913 396.291 47.0704C407.157 54.4884 415.272 65.1383 422.872 75.7131M440.268 18.2178C441.122 19.642 441.147 21.6271 441.353 23.2085C441.967 27.94 442.566 32.6788 443.088 37.4214C444.015 45.8253 444.247 54.0772 443.685 62.5108C443.523 64.9403 443.346 67.5395 442.926 69.9427C442.695 71.2621 441.875 72.5953 441.732 73.8756C441.582 75.2272 441.027 75.3178 443.034 75.3403C449.975 75.4183 456.858 75.1619 463.784 74.8792C466.029 74.7876 468.29 74.8521 470.538 74.8521M443.685 46.0469C452.917 46.0469 462.235 47.0233 471.514 47.0233M439.779 15.7769C442 17.7505 447.557 16.7533 450.141 16.7533C452.826 16.7533 455.692 16.5221 458.115 17.2144C460.138 17.7925 462.313 17.7298 464.435 17.7298C468.4 17.7298 472.164 16.7533 475.908 16.7533" stroke="#FFFDD0" stroke-width="6.41" stroke-linecap="round"/>
</svg>
