<svg width="500" height="90" viewBox="0 0 500 90" fill="none" xmlns="http://www.w3.org/2000/svg">
<path d="M128.55 70.7561C128.55 55.8493 127.634 40.8954 128.166 26.0186C128.269 23.1311 128.186 20.2275 128.186 17.3381V12.8866C128.186 12.385 127.797 10.3864 128.429 11.187C133.599 17.7354 142.219 21.3506 149.27 25.3913C149.669 25.6199 156.285 30.2331 156.413 30.1058C156.908 29.6106 157.159 28.832 157.566 28.2645C159.188 26.0001 160.98 23.8468 162.665 21.6278C163.869 20.0414 165.059 18.1854 166.59 16.8727C167.034 16.4927 167.537 15.9356 168.108 15.7599C170.481 15.0297 170.296 14.3284 171.163 17.0953C173.954 25.9958 177.455 34.4947 179.338 43.6829C180.195 47.8692 181.156 52.0202 181.908 56.2281C182.618 60.2045 182.454 64.5093 182.454 68.5709M201.393 12.1177C199.26 28.473 196.767 45.3407 199.208 61.8531C199.805 65.8913 200.298 69.9979 200.665 74.0341C200.821 75.7594 202.348 76.7391 203.781 77.312C207.893 78.957 210.791 78.5137 215.091 77.4941C220.67 76.1713 225.221 76.9174 227.637 71.2418C231.883 61.2626 231.526 49.0587 231.076 38.4423C230.717 29.9542 230.53 21.2129 230.53 12.8462M282.977 18.3094C279.236 14.5683 273.244 13.9388 268.044 13.9388C261.472 13.9388 252.205 14.1164 247.142 19.1794C242.504 23.8177 252.144 27.1598 255.499 27.8599C259.299 28.6526 263.18 29.5051 267.073 29.6C268.712 29.64 270.265 29.6356 271.889 29.8833C273.692 30.1584 276.13 29.819 277.676 30.9354C282.198 34.2016 285.84 37.429 288.056 42.6915C292.458 53.147 279.759 62.76 272.981 68.3483C268.62 71.9441 262.637 73.002 256.996 74.0692C256.105 74.2378 249.292 74.1613 248.55 72.9478M312.558 17.2169C312.558 32.0455 305.638 46.2858 305.638 61.1249C305.638 63.4253 305.274 65.6899 305.274 68.0045C305.274 69.385 305.368 70.6009 305.557 71.9703M372.333 14.3138C368.02 11.1229 360.681 12.0415 355.697 12.2753C351.613 12.4669 347.561 12.9565 343.572 13.8635C342.418 14.1256 341.082 14.3124 340.188 15.1672C336.002 19.1678 334.225 25.744 332.786 31.2146C331.904 34.5668 331.115 38.3561 330.906 41.834C330.727 44.8167 329.885 48.3568 330.648 51.2918C331.387 54.1363 332.593 56.9767 334.924 58.9007C339.864 62.9775 346.196 65.9407 352.078 68.24C358.37 70.6994 364.703 72.3055 371.299 71.9141" stroke="#0000FF" stroke-width="6.41" stroke-linecap="round"/>
</svg>
