<svg width="500" height="165" viewBox="0 0 500 165" fill="none" xmlns="http://www.w3.org/2000/svg">
<path d="M53.1048 7C55.3639 11.5181 56.3968 16.4645 58.6617 21.0555C64.4667 32.8225 69.9681 45.1311 76.5579 56.4802C77.4338 57.9887 78.6503 59.1532 79.418 60.6886C79.5369 60.9264 79.6283 61.1254 79.6972 61.2875M79.6972 61.2875C80.0283 62.0664 79.8406 61.9935 79.6972 61.2875ZM79.6972 61.2875C79.6352 60.9823 79.5814 60.5589 79.5814 60.0349C79.5814 52.1223 80.7496 45.4455 82.9319 37.8076C83.6688 35.2283 84.251 30.1823 86.5683 28.3284C88.2473 26.9852 87.995 23.6568 89.5102 22.4447C90.2896 21.8211 90.4543 20.7702 90.6542 19.8706C91.2311 17.2746 93.2838 25.1414 93.31 25.2231C96.5034 35.1833 100.696 44.9632 104.832 54.5598C105.899 57.0343 106.197 59.8229 107.366 62.1596C109.774 66.9756 109.584 64.8503 109.735 60.3618C110.059 50.7528 115.783 41.606 119.664 33.068C121.872 28.2115 123.519 21.8989 127.386 18.0319M143.221 15.6854C141.826 28.5936 139.53 41.2441 137.337 54.0111C137.03 55.7993 135.852 59.593 136.643 61.57C136.731 61.79 147.319 61.3207 147.552 61.3249C158.393 61.5167 169.189 62.69 179.994 63.4904M141.117 38.1886C150.767 38.832 160.128 39.0678 169.8 38.1886M145.287 14.9496C154.937 14.9496 164.365 13.4787 173.97 13.4787M316.719 18.8322C313.947 15.0214 306.064 15.7145 302.173 16.9526C298.768 18.0361 295.903 22.908 293.919 25.6147C288.362 33.2001 281.785 42.2855 280.845 51.9279C280.551 54.936 283.55 57.0031 285.462 58.9148C295.432 68.8854 305.592 63.021 311.775 51.9279C315.762 44.7744 318.755 38.1138 317.127 29.7823C316.804 28.1288 315.318 24.0156 313.777 23.2449M336.989 23.9645C336.989 32.9506 338.385 41.9297 338.46 50.9314C338.484 53.7097 338.46 62.045 338.46 59.2666M333.312 23.9646C338.606 25.2879 342.653 30.8528 347.613 33.0761C347.871 33.1919 353.305 36.0024 353.333 35.9771C357.171 32.5226 360.055 27.75 364.161 24.414C365.218 23.5548 366.283 22.4666 367.143 21.3904C367.44 21.0198 369.876 18.9339 369.922 18.9798C370.562 19.62 370.917 21.3945 371.188 22.2076C372.83 27.1335 375.026 31.7235 377.399 36.3448C380.028 41.4652 382.951 46.4126 386.184 51.1766C387.241 52.7351 388.369 53.7399 388.472 55.5894C388.541 56.8333 389.43 58.2417 389.943 59.2667M408.61 21.0226C409.449 33.6128 410.081 45.9597 410.081 58.6128C410.081 61.4543 418.965 60.5 420.5 60.5C426.782 60.5 429.612 60.544 435.873 59.8386C437.169 59.6926 436.565 59.4897 436.118 59.2666M409.345 38.6739C421.613 38.4184 420.209 37.66 432.5 37.3448M403.462 17.3455C414.28 17.3455 425.026 17.2745 435.822 16.4467M19.7094 115.021C19.7094 128.824 21.9158 142.474 21.9158 156.207M5 123.847C17.164 111.683 33.3134 103.439 48.3922 95.8991M74.1333 111.484C67.2613 111.484 63.3743 112.471 57.708 116.551C54.248 119.042 53.3717 126.28 52.2329 130.198C50.8242 135.044 51.1664 142.708 55.8694 145.765C60.3678 148.689 69.1254 154.269 74.5011 150.791C83.2971 145.099 83.3662 138.914 82.918 129.054C82.7069 124.41 82.0291 122.399 79.8536 118.839C78.9776 117.405 76.1631 116.456 74.8688 115.162M126.33 110.013C126.33 121.048 127.065 154.143 127.065 143.109M128.277 114.426C128.362 113.832 134.746 120.804 135.55 121.658C137.619 123.856 139.753 125.96 142.087 127.828C142.904 128.481 148.684 123.976 149.36 123.538C153.685 120.73 158.057 118.006 162.19 114.916C163.497 113.939 164.848 112.222 166.276 111.443C167.979 110.514 170.384 109.891 171.832 108.706C173.972 106.955 173.875 109.273 173.875 111.076C173.875 126.428 175.346 141.709 175.346 157.083M318.306 146.787V112.955M315.365 110.013C319.24 106.138 324.204 106.929 329.502 106.336C334.358 105.793 341.605 104.885 345.886 108.216C351.523 112.6 348.714 117.068 342.699 119.86C337.805 122.133 332.497 123.252 327.132 123.252C324.917 123.252 317.805 122.784 316.836 124.723M362.174 154.584C362.174 148.936 365.272 143.608 367.649 138.649C372.042 129.483 377.122 121.222 379.661 111.355C379.862 110.575 382.037 103.595 382.767 104.001C383.787 104.567 384.479 106.056 385.137 106.943C387.519 110.152 390.22 113.104 392.573 116.34C397.468 123.071 401.723 130.028 404.667 137.832C404.877 138.388 407.777 147.965 407.037 147.965M371.362 130.251C383.43 130.251 395.392 128.309 407.399 127.309M444.245 106.693C429.981 99.1411 420.483 123.497 420.71 134.395C420.859 141.572 429.351 150.373 436.236 152.209C443.59 154.17 449.65 152.975 456.747 151.556M470.338 106.137C470.922 115.476 471.713 124.694 471.36 134.084C471.271 136.454 468.277 150.083 470.502 152.307C473.448 155.254 488.684 152.769 492.417 152.512C493.051 152.468 496.255 152.633 494.46 151.735M472.544 131.878C475.906 131.758 484.667 131.465 487.841 130.407M469.538 106.061C475.917 104.177 488.239 104.778 494.404 102.43M189.766 108.087C190.555 109.89 192.329 111.547 193.519 113.041C197.355 117.858 201.043 122.797 205.105 127.429C206.196 128.673 207.691 131.507 209.584 131.507M192.468 157.631C197.436 151.007 203.355 144.874 207.532 137.713C210.61 132.435 215.156 127.77 217.716 122.224C218.906 119.645 220.866 117.398 221.995 114.818C222.921 112.7 223.918 110.496 224.897 108.537M289.78 111.217C289.78 109.826 290.136 107.899 288.854 106.938C284.944 104.005 277.44 103.699 272.915 104.486C268.49 105.255 261.802 108.314 260.404 113.018C258.773 118.503 268.344 118.764 271.714 119.224C277.616 120.029 283.492 120.443 289.43 120.775C291.903 120.913 295.85 120.853 298.087 122.276C300.669 123.92 300.852 127.326 299.714 129.983C297.592 134.934 293.225 137.915 288.629 140.317C282.244 143.655 275.725 146.238 268.461 146.348C267.17 146.367 261.632 145.893 260.954 147.248M195.293 9.56345C193.185 20.6217 196.068 31.4581 196.068 42.4843C196.068 44.6335 194.447 58.3074 196.455 59.913C200.436 63.0956 208.115 60.7661 213.378 60.6876C215.558 60.6551 217.287 61.4622 219.321 61.4622C221.222 61.4622 227.031 62.3185 227.847 60.6876M272.362 18.1331C270.974 18.1331 269.906 17.5428 268.593 17.1352C264.674 15.9191 260.02 15.7444 255.99 16.5069C249.628 17.7105 240.161 19.5691 236.143 25.414C233.71 28.9517 233.777 35.1305 233.777 39.2736C233.777 41.7695 235.106 44.5234 235.921 46.8871C237.99 52.8875 244.104 60.7097 251.037 60.7097C253.952 60.7097 260.92 59.6458 262.383 56.7182" stroke="#0000FF" stroke-width="6.40862" stroke-linecap="round"/>
</svg>
